<svg width="280" height="280" viewBox="0 0 280 280" fill="none" xmlns="http://www.w3.org/2000/svg">
<g clip-path="url(#clip0_1745_7840)">
<path d="M93.1144 236.823C91.0655 228.881 86.9258 221.633 81.126 215.833C75.3262 210.033 68.0782 205.894 60.1361 203.845L-80.6585 167.539C-83.0606 166.857 -85.1747 165.41 -86.6801 163.418C-88.1855 161.426 -89 158.997 -89 156.5C-89 154.003 -88.1855 151.574 -86.6801 149.582C-85.1747 147.59 -83.0606 146.143 -80.6585 145.461L60.1361 109.132C68.0754 107.085 75.3215 102.949 81.1211 97.1537C86.9206 91.3581 91.0619 84.1149 93.1144 76.177L129.42 -64.6177C130.095 -67.0293 131.54 -69.1539 133.536 -70.6673C135.531 -72.1808 137.966 -73 140.47 -73C142.975 -73 145.41 -72.1808 147.405 -70.6673C149.4 -69.1539 150.846 -67.0293 151.521 -64.6177L187.804 76.177C189.852 84.1191 193.992 91.3671 199.792 97.1669C205.592 102.967 212.84 107.106 220.782 109.155L361.576 145.438C363.998 146.106 366.133 147.55 367.654 149.548C369.176 151.546 370 153.988 370 156.5C370 159.012 369.176 161.454 367.654 163.452C366.133 165.45 363.998 166.894 361.576 167.562L220.782 203.845C212.84 205.894 205.592 210.033 199.792 215.833C193.992 221.633 189.852 228.881 187.804 236.823L151.498 377.618C150.823 380.029 149.377 382.154 147.382 383.667C145.387 385.181 142.952 386 140.448 386C137.943 386 135.508 385.181 133.513 383.667C131.518 382.154 130.072 380.029 129.397 377.618L93.1144 236.823Z" stroke="#D7D9DA" stroke-width="3"/>
<path d="M163.79 246.804C156.725 242.636 148.673 240.439 140.471 240.439C132.268 240.439 124.216 242.636 117.151 246.804L-8.07763 320.688C-10.2583 321.905 -12.7762 322.377 -15.2493 322.032C-17.7225 321.688 -20.0159 320.547 -21.7815 318.781C-23.5471 317.015 -24.6887 314.722 -25.0329 312.249C-25.377 309.776 -24.9051 307.258 -23.6887 305.077L50.1797 179.832C54.3462 172.771 56.5452 164.722 56.5481 156.523C56.5509 148.324 54.3575 140.274 50.1959 133.21L-23.6889 7.98066C-24.9169 5.79821 -25.3972 3.27395 -25.0566 0.793C-24.716 -1.68795 -23.5731 -3.98936 -21.8024 -5.76011C-20.0316 -7.53086 -17.7302 -8.67373 -15.2493 -9.01434C-12.7683 -9.35495 -10.2441 -8.87461 -8.0616 -7.64659L117.151 66.2544C124.216 70.4215 132.268 72.6194 140.47 72.6195C148.673 72.6195 156.725 70.4216 163.79 66.2544L289.002 -7.64643C291.187 -8.88621 293.717 -9.37511 296.206 -9.03815C298.695 -8.70118 301.005 -7.55696 302.78 -5.78102C304.556 -4.00508 305.701 -1.69551 306.038 0.793344C306.375 3.28219 305.886 5.81285 304.646 7.99708L230.745 133.21C226.578 140.275 224.38 148.327 224.38 156.529C224.38 164.731 226.578 172.784 230.745 179.848L304.63 305.077C305.858 307.26 306.338 309.784 305.998 312.265C305.657 314.746 304.514 317.047 302.743 318.818C300.973 320.589 298.671 321.732 296.19 322.072C293.709 322.413 291.185 321.933 289.003 320.705L163.79 246.804Z" stroke="#D7D9DA" stroke-width="3"/>
<path d="M196.574 231.017C188.452 229.871 180.172 230.921 172.594 234.06C165.016 237.199 158.418 242.311 153.486 248.865L66.0635 365.048C64.5143 367.007 62.3687 368.406 59.9521 369.035C57.5355 369.663 54.9798 369.486 52.6729 368.53C50.366 367.575 48.4337 365.893 47.1693 363.74C45.9049 361.587 45.3773 359.08 45.6667 356.6L65.9829 212.62C67.13 204.502 66.0815 196.224 62.9466 188.648C59.8116 181.072 54.7045 174.474 48.1563 169.54L-68.0274 82.1183C-69.9971 80.5719 -71.4069 78.4236 -72.0416 76.0012C-72.6764 73.5787 -72.5012 71.0151 -71.5429 68.7015C-70.5846 66.3879 -68.8957 64.4514 -66.7339 63.1873C-64.5722 61.9232 -62.0562 61.4009 -59.57 61.7003L84.3923 82.059C92.5139 83.2054 100.794 82.1545 108.372 79.0157C115.95 75.8769 122.548 70.7648 127.481 64.2113L214.881 -51.981C216.425 -53.9623 218.576 -55.3824 221.004 -56.0236C223.433 -56.6647 226.004 -56.4914 228.325 -55.5303C230.645 -54.5691 232.586 -52.8732 233.85 -50.7028C235.113 -48.5323 235.63 -46.0072 235.321 -43.5148L214.962 100.447C213.816 108.569 214.867 116.849 218.005 124.427C221.144 132.005 226.256 138.603 232.81 143.536L348.994 230.958C350.963 232.504 352.373 234.652 353.008 237.075C353.642 239.497 353.467 242.061 352.509 244.374C351.551 246.688 349.862 248.625 347.7 249.889C345.538 251.153 343.022 251.675 340.536 251.376L196.574 231.017Z" stroke="#D7D9DA" stroke-width="3"/>
<path d="M220.821 203.886C212.879 205.935 205.631 210.075 199.831 215.874C194.031 221.674 189.892 228.922 187.843 236.864L151.537 377.659C150.855 380.061 149.408 382.175 147.416 383.681C145.424 385.186 142.995 386 140.498 386C138.001 386 135.572 385.186 133.58 383.681C131.588 382.175 130.141 380.061 129.459 377.659L93.1304 236.864C91.0835 228.925 86.9472 221.679 81.1517 215.879C75.3562 210.08 68.1129 205.939 60.175 203.886L-80.6197 167.58C-83.0313 166.905 -85.1558 165.46 -86.6693 163.465C-88.1827 161.47 -89.002 159.034 -89.002 156.53C-89.002 154.026 -88.1827 151.59 -86.6693 149.595C-85.1558 147.6 -83.0313 146.155 -80.6197 145.48L60.175 109.197C68.1172 107.148 75.3652 103.008 81.165 97.2086C86.9648 91.4088 91.1045 84.1608 93.1534 76.2186L129.436 -64.5759C130.104 -66.9971 131.548 -69.1322 133.546 -70.6538C135.544 -72.1755 137.986 -72.9995 140.498 -72.9995C143.01 -72.9995 145.452 -72.1755 147.45 -70.6538C149.448 -69.1322 150.892 -66.9971 151.56 -64.5759L187.843 76.2186C189.892 84.1608 194.031 91.4088 199.831 97.2086C205.631 103.008 212.879 107.148 220.821 109.197L361.616 145.503C364.027 146.178 366.152 147.623 367.665 149.618C369.179 151.613 369.998 154.049 369.998 156.553C369.998 159.057 369.179 161.493 367.665 163.488C366.152 165.483 364.027 166.928 361.616 167.603L220.821 203.886Z" stroke="#D7D9DA" stroke-width="3"/>
<circle opacity="0.5" cx="140" cy="140" r="139.5" fill="url(#paint0_linear_1745_7840)" fill-opacity="0.6" stroke="#B5B4B3"/>
<g clip-path="url(#clip1_1745_7840)">
<path d="M122 147.2C122 145.212 123.612 143.6 125.6 143.6C127.588 143.6 129.2 145.212 129.2 147.2C129.2 149.188 127.588 150.8 125.6 150.8C123.612 150.8 122 149.188 122 147.2Z" fill="url(#paint1_linear_1745_7840)"/>
<path d="M150.801 147.2C150.801 145.212 152.413 143.6 154.401 143.6C156.389 143.6 158.001 145.212 158.001 147.2C158.001 149.188 156.389 150.8 154.401 150.8C152.413 150.8 150.801 149.188 150.801 147.2Z" fill="url(#paint2_linear_1745_7840)"/>
<path fill-rule="evenodd" clip-rule="evenodd" d="M143.6 100.561C163.784 102.38 179.6 119.343 179.6 140V183.2C179.6 189.164 174.765 194 168.8 194H111.2C105.236 194 100.4 189.164 100.4 183.2V140C100.4 119.343 116.217 102.38 136.4 100.561V86H143.6V100.561ZM125.6 136.4C119.636 136.4 114.8 141.235 114.8 147.2C114.8 153.165 119.636 158 125.6 158C131.565 158 136.4 153.165 136.4 147.2C136.4 141.235 131.565 136.4 125.6 136.4ZM154.4 136.4C148.436 136.4 143.6 141.235 143.6 147.2C143.6 153.165 148.436 158 154.4 158C160.365 158 165.2 153.165 165.2 147.2C165.2 141.235 160.365 136.4 154.4 136.4ZM165.2 172.4H114.8V165.2H165.2V172.4Z" fill="url(#paint3_linear_1745_7840)"/>
<path d="M86 143.6V172.4H93.2V143.6H86Z" fill="url(#paint4_linear_1745_7840)"/>
<path d="M194.001 143.6H186.801V172.4H194.001V143.6Z" fill="url(#paint5_linear_1745_7840)"/>
</g>
</g>
<defs>
<linearGradient id="paint0_linear_1745_7840" x1="140" y1="0" x2="140" y2="280" gradientUnits="userSpaceOnUse">
<stop stop-color="white"/>
<stop offset="1" stop-color="white" stop-opacity="0.15"/>
</linearGradient>
<linearGradient id="paint1_linear_1745_7840" x1="125.6" y1="143.6" x2="125.6" y2="150.8" gradientUnits="userSpaceOnUse">
<stop stop-color="#735AFF"/>
<stop offset="1" stop-color="#5234FF"/>
</linearGradient>
<linearGradient id="paint2_linear_1745_7840" x1="154.401" y1="143.6" x2="154.401" y2="150.8" gradientUnits="userSpaceOnUse">
<stop stop-color="#735AFF"/>
<stop offset="1" stop-color="#5234FF"/>
</linearGradient>
<linearGradient id="paint3_linear_1745_7840" x1="140" y1="86" x2="140" y2="194" gradientUnits="userSpaceOnUse">
<stop stop-color="#735AFF"/>
<stop offset="1" stop-color="#5234FF"/>
</linearGradient>
<linearGradient id="paint4_linear_1745_7840" x1="89.6" y1="143.6" x2="89.6" y2="172.4" gradientUnits="userSpaceOnUse">
<stop stop-color="#735AFF"/>
<stop offset="1" stop-color="#5234FF"/>
</linearGradient>
<linearGradient id="paint5_linear_1745_7840" x1="190.401" y1="143.6" x2="190.401" y2="172.4" gradientUnits="userSpaceOnUse">
<stop stop-color="#735AFF"/>
<stop offset="1" stop-color="#5234FF"/>
</linearGradient>
<clipPath id="clip0_1745_7840">
<rect width="280" height="280" rx="140" fill="white"/>
</clipPath>
<clipPath id="clip1_1745_7840">
<rect width="108" height="108" fill="white" transform="translate(86 86)"/>
</clipPath>
</defs>
</svg>