<svg width="280" height="280" viewBox="0 0 280 280" fill="none" xmlns="http://www.w3.org/2000/svg">
<g clip-path="url(#clip0_985_4605)">
<line x1="178.439" y1="122.32" x2="331.522" y2="122.32" stroke="#D7D9DA" stroke-width="3"/>
<path d="M38.1641 203.389L23.3279 188.553L8.49171 203.389L-6.34446 188.553L-21.1806 203.389L-36.0168 188.553L-50.853 203.389" stroke="#D7D9DA" stroke-width="3"/>
<path d="M94.1523 61.7727L108.989 46.9365L123.825 61.7727L138.661 46.9365L153.497 61.7727L168.333 46.9365L183.169 61.7727" stroke="#D7D9DA" stroke-width="3"/>
<path d="M243.17 61.7727L258.006 46.9365L272.842 61.7727L287.678 46.9365L302.515 61.7727L317.351 46.9365L332.187 61.7727" stroke="#D7D9DA" stroke-width="3"/>
<line x1="58.4102" y1="154.686" x2="221.608" y2="154.686" stroke="#D7D9DA" stroke-width="3"/>
<path d="M185.188 203.389L170.351 188.553L155.515 203.389L140.679 188.553L125.843 203.389L111.007 188.553L96.1704 203.389" stroke="#D7D9DA" stroke-width="3"/>
<path d="M21.3105 218.225L36.1467 233.062L50.9829 218.225L65.8191 233.062L80.6552 218.225L95.4914 233.062L110.328 218.225" stroke="#D7D9DA" stroke-width="3"/>
<path d="M-52.1816 61.7727L-37.3455 46.9365L-22.5093 61.7727L-7.67312 46.9365L7.16306 61.7727L21.9992 46.9365L36.8354 61.7727" stroke="#D7D9DA" stroke-width="3"/>
<path d="M166.982 218.226L181.819 233.062L196.655 218.226L211.491 233.062L226.327 218.226L241.163 233.062L255.999 218.226" stroke="#D7D9DA" stroke-width="3"/>
<path d="M255.994 75.9392L241.158 90.7754L226.322 75.9392L211.486 90.7754L196.649 75.9392L181.813 90.7754L166.977 75.9392" stroke="#D7D9DA" stroke-width="3"/>
<line x1="-50.8477" y1="122.321" x2="102.235" y2="122.321" stroke="#D7D9DA" stroke-width="3"/>
<line x1="63.8027" y1="154.686" x2="216.885" y2="154.686" stroke="#D7D9DA" stroke-width="3"/>
<path d="M243.17 204.064L258.006 189.228L272.842 204.064L287.678 189.228L302.515 204.064L317.351 189.228L332.187 204.064" stroke="#D7D9DA" stroke-width="3"/>
<path d="M110.334 75.9392L95.4978 90.7754L80.6616 75.9392L65.8255 90.7754L50.9893 75.9392L36.1531 90.7754L21.3169 75.9392" stroke="#D7D9DA" stroke-width="3"/>
<circle opacity="0.5" cx="140" cy="140" r="139.5" fill="url(#paint0_linear_985_4605)" fill-opacity="0.6" stroke="#B5B4B3"/>
<g clip-path="url(#clip1_985_4605)">
<path d="M140 92C136.682 92 134 94.6812 134 98V101.6C120.313 104.375 110 116.487 110 131V134.525C110 143.338 106.757 151.85 100.907 158.45L99.5191 160.006C97.9441 161.769 97.5691 164.3 98.5253 166.456C99.4816 168.613 101.638 170 104 170H176C178.363 170 180.5 168.613 181.475 166.456C182.45 164.3 182.057 161.769 180.482 160.006L179.094 158.45C173.244 151.85 170 143.356 170 134.525V131C170 116.487 159.688 104.375 146 101.6V98C146 94.6812 143.319 92 140 92Z" fill="url(#paint1_linear_985_4605)"/>
<path d="M151.981 176C151.981 179.188 150.725 182.244 148.475 184.494H148.494C146.244 186.744 143.188 188 140 188C136.812 188 133.756 186.744 131.506 184.494C129.256 182.244 128 179.188 128 176H140H151.981Z" fill="url(#paint2_linear_985_4605)"/>
<path d="M190.006 102.031C192.238 100.925 193.138 98.225 192.013 95.9937C190.888 93.7625 188.206 92.8625 185.975 93.9875L173.975 99.9875C171.744 101.094 170.844 103.794 171.969 106.025C173.094 108.256 175.775 109.156 178.006 108.031L190.006 102.031ZM80 129.5C80 131.994 82.0062 134 84.5 134H99.5C101.994 134 104 131.994 104 129.5C104 127.006 101.994 125 99.5 125H84.5C82.0062 125 80 127.006 80 129.5ZM176 129.5C176 131.994 178.006 134 180.5 134H195.5C197.994 134 200 131.994 200 129.5C200 127.006 197.994 125 195.5 125H180.5C178.006 125 176 127.006 176 129.5ZM87.9688 95.9937C86.8625 98.225 87.7625 100.925 89.975 102.031L101.975 108.031C104.206 109.137 106.906 108.237 108.012 106.025C109.119 103.812 108.219 101.094 106.006 99.9875L94.0062 93.9875C91.7937 92.8625 89.0938 93.7625 87.9688 95.9937Z" fill="url(#paint3_linear_985_4605)"/>
</g>
</g>
<defs>
<linearGradient id="paint0_linear_985_4605" x1="140" y1="0" x2="140" y2="280" gradientUnits="userSpaceOnUse">
<stop stop-color="white"/>
<stop offset="1" stop-color="white" stop-opacity="0.15"/>
</linearGradient>
<linearGradient id="paint1_linear_985_4605" x1="140.004" y1="92" x2="140.004" y2="170" gradientUnits="userSpaceOnUse">
<stop stop-color="#FCB325"/>
<stop offset="1" stop-color="#EA9F0C"/>
</linearGradient>
<linearGradient id="paint2_linear_985_4605" x1="139.991" y1="176" x2="139.991" y2="188" gradientUnits="userSpaceOnUse">
<stop stop-color="#FCB325"/>
<stop offset="1" stop-color="#EA9F0C"/>
</linearGradient>
<linearGradient id="paint3_linear_985_4605" x1="140" y1="93.5027" x2="140" y2="134" gradientUnits="userSpaceOnUse">
<stop stop-color="#FCB325"/>
<stop offset="1" stop-color="#EA9F0C"/>
</linearGradient>
<clipPath id="clip0_985_4605">
<rect width="280" height="280" rx="140" fill="white"/>
</clipPath>
<clipPath id="clip1_985_4605">
<rect width="120" height="96" fill="white" transform="translate(80 92)"/>
</clipPath>
</defs>
</svg>