<svg width="280" height="280" viewBox="0 0 280 280" fill="none" xmlns="http://www.w3.org/2000/svg">
<g clip-path="url(#clip0_985_4573)">
<circle opacity="0.5" cx="140" cy="140" r="139.5" fill="url(#paint0_linear_985_4573)" fill-opacity="0.6" stroke="#B5B4B3"/>
<path d="M234.834 305.334C268.15 286.121 252.499 196.748 199.878 105.713C147.257 14.6772 77.5909 -43.5471 44.2752 -24.335C10.9596 -5.12284 26.61 84.2505 79.2314 175.286C131.853 266.321 201.519 324.546 234.834 305.334Z" stroke="#D7D9DA" stroke-width="3" stroke-miterlimit="10"/>
<path d="M139.5 210.255C244.71 210.255 330 179.024 330 140.5C330 101.976 244.71 70.7453 139.5 70.7453C34.2898 70.7453 -51 101.976 -51 140.5C-51 179.024 34.2898 210.255 139.5 210.255Z" stroke="#D7D9DA" stroke-width="3" stroke-miterlimit="10"/>
<path d="M199.873 175.287C252.495 84.2518 268.145 -5.12152 234.83 -24.3336C201.514 -43.5458 131.848 14.6786 79.2268 105.714C26.6054 196.75 10.955 286.123 44.2707 305.335C77.5863 324.547 147.252 266.323 199.873 175.287Z" stroke="#D7D9DA" stroke-width="3" stroke-miterlimit="10"/>
<path d="M89.125 183.875C89.125 188.293 92.7067 191.875 97.125 191.875H183.875C188.293 191.875 191.875 188.293 191.875 183.875V97.125C191.875 92.7067 188.293 89.125 183.875 89.125H97.125C92.7067 89.125 89.125 92.7067 89.125 97.125V183.875Z" fill="url(#paint1_linear_985_4573)"/>
<path d="M167.9 183.826C158.937 183.826 153.115 179.545 150.318 173.951L158.195 169.384C160.25 172.752 162.933 175.264 167.728 175.264C171.724 175.264 174.293 173.266 174.293 170.526C174.293 167.215 171.667 166.016 167.272 164.132L164.874 163.105C157.91 160.137 153.286 156.426 153.286 148.549C153.286 141.299 158.823 135.762 167.443 135.762C173.608 135.762 178.003 137.874 181.143 143.468L173.608 148.32C171.952 145.352 170.183 144.21 167.386 144.21C164.589 144.21 162.762 145.98 162.762 148.32C162.762 151.232 164.532 152.373 168.699 154.2L171.096 155.228C179.316 158.767 183.94 162.306 183.94 170.412C183.94 179.088 177.09 183.883 167.957 183.883L167.9 183.826ZM145.066 169.27C145.066 179.26 139.187 183.826 130.624 183.826C122.918 183.826 118.408 179.83 116.125 174.978L124.002 170.24C125.544 172.923 126.914 175.207 130.225 175.207C133.535 175.207 135.419 173.951 135.419 169.156V136.333H145.066V169.27Z" fill="#172A3D"/>
</g>
<defs>
<linearGradient id="paint0_linear_985_4573" x1="140" y1="0" x2="140" y2="280" gradientUnits="userSpaceOnUse">
<stop stop-color="white"/>
<stop offset="1" stop-color="white" stop-opacity="0.15"/>
</linearGradient>
<linearGradient id="paint1_linear_985_4573" x1="140.5" y1="89.125" x2="140.5" y2="191.875" gradientUnits="userSpaceOnUse">
<stop stop-color="#F3D746"/>
<stop offset="1" stop-color="#E9C717"/>
</linearGradient>
<clipPath id="clip0_985_4573">
<rect width="280" height="280" rx="140" fill="white"/>
</clipPath>
</defs>
</svg>