<svg xmlns="http://www.w3.org/2000/svg" fill="none" viewBox="0 0 280 280"><g clip-path="url(#a)"><path fill="#d7d9da" d="m-150.6 313.9-10.7 6.2h-1.3l-10.7-6.2 1.2-2.2 10.1 5.9 10.2-5.9zm86.1 0-10.7 6.2h-1.3l-10.8-6.2 1.3-2.2 10.1 5.9 10.2-5.9zm86.1 0L11 320H9.6l-10.8-6.2 1.3-2.2 10.1 5.9 10.2-5.9zm86.1 0L97 320h-1.2l-10.8-6.2 1.3-2.2 10.1 5.9 10.2-5.9zm86.4 0-10.8 6.2H182l-10.7-6.2 1.2-2.2 10.2 5.9 10.1-5.9zm86 0-10.7 6.2H268l-10.7-6.2 1.2-2.2 10.2 5.9 10.1-5.9zm86.1 0-10.7 6.2h-1.3l-10.7-6.2 1.2-2.2 10.2 5.9 10-5.9zm86.1 0-10.7 6.2h-1.3l-10.7-6.2 1.2-2.2 10.1 5.9 10.2-5.9zm-656-32.2v11.7l10 5.9-1.2 2.2-10.7-6.3-.7-1v-12.5zm86 0V292l9-5.1 1.2 2.1-9 5.2 9 5-1.3 2.3-10.1-5.9-10.1 5.9-1.3-2.2 8.9-5.1-8.9-5.2 1.3-2.1 8.8 5v-10.2zm86.1 0V292l9-5.1 1.2 2.1-9 5.2 9 5-1.3 2.3-10.1-5.9-10.2 5.9-1.2-2.2 8.9-5.1-8.9-5.2 1.2-2.1 9 5v-10.2zm86.1 0V292l9-5.1 1.2 2.1-9 5.2 9 5-1.3 2.3-10.1-5.9-10.2 5.9-1.2-2.2 8.9-5.1-9-5.2 1.3-2.1 9 5v-10.2zm86.4 0v11.7l10.1 5.9-1.2 2.2-10.3-6-10.3 6-1.2-2.2 10.1-5.9v-11.7zm86 0V292l9-5.1 1.2 2.1-8.9 5.2 8.9 5-1.2 2.3-10.2-5.9-10.1 5.9-1.3-2.2 9-5.1-9-5.2 1.3-2.1 8.9 5v-10.2zm86.2 0V292l8.8-5.1 1.3 2.1-8.9 5.2 8.9 5-1.3 2.3-10-5.9-10.2 5.9-1.3-2.2 9-5.1-9-5.2 1.3-2.1 8.9 5v-10.2zm86 0V292l9-5.1 1.2 2.1-8.9 5.2 8.9 5-1.3 2.3-10.1-5.9-10.1 5.9-1.3-2.2 8.9-5.1-8.9-5.2 1.3-2.1 8.9 5v-10.2zm74.8 19.8-1.3-2.2 10.1-5.9v-11.7h2.5v12.5l-.6 1zm-634.6-44.6v10.3l8.9-5.2 1.2 2.2-8.9 5.1 9 5.1-1.3 2.2-21.5-12.4 1.2-2.2 8.9 5.1V257zm86 0v10.3l9-5.2 1.2 2.2-8.9 5.1 9 5.1-1.3 2.2-10.2-5.8-10.1 5.8-1.3-2.2 9-5-9-5.2 1.3-2.2 8.9 5.1V257zm86.2 0v10.3l8.9-5.2 1.2 2.2-8.9 5.1 9 5.1-1.3 2.2-10.2-5.8-10.1 5.8-1.3-2.2 9-5-9-5.2L.1 262l8.9 5.1V257zm86 0v10.3l9-5.2 1.2 2.2-21.5 12.4-1.3-2.2 9-5-9-5.2 1.3-2.2 8.9 5.1V257zm86.4 0v10.3l9-5.2 1.2 2.2-9 5.1 9 5.1-1.3 2.2-21.5-12.4 1.2-2.2 9 5.2v-10.3zm86.1 0v10.3l8.9-5.2 1.2 2.2-8.8 5.1 8.8 5.1-1.2 2.2-10.1-5.8-10.2 5.8-1.2-2.2 8.9-5-9-5.2 1.3-2.2 9 5.2v-10.3zm86.1 0v10.3l8.9-5.2 1.2 2.2-8.8 5.1 8.8 5.1-1.2 2.2-10.1-5.8-10.2 5.8-1.2-2.2 8.9-5-9-5.2 1.3-2.2 9 5.1V257zm86.1 0v10.3l8.9-5.2 1.2 2.2-21.5 12.4-1.2-2.2 8.8-5-8.8-5.2 1.2-2.2 8.9 5.1V257zm-646-24.8v10.2l9-5.1 1.2 2.1-8.9 5.2 8.9 5.1-1.3 2.2-8.8-5.2V257h-2.6V232zm86.1 0v10.2l9-5.1 1.2 2.1-9 5.2 9 5.1-1.3 2.2-8.9-5.2V257h-2.5v-10.3l-8.8 5.2-1.3-2.2 8.9-5.1-8.9-5.2 1.3-2.1 8.8 5.1v-10.2zm86.1 0v10.2l9-5.1 1.2 2.1-9 5.2 9 5.1-1.3 2.2-8.9-5.2V257H-34v-10.3l-8.9 5.2-1.2-2.2 8.9-5.1-8.9-5.2 1.2-2.1 9 5.1v-10.2zm86.1 0v10.2l9-5.1 1.2 2.1-9 5.2 9 5.1-1.3 2.2-8.9-5.2V257H52v-10.3l-8.9 5.2-1.2-2.2 8.9-5.1-9-5.2 1.3-2.1 9 5.1v-10.2zm86.4 0v10.2l8.9-5.1 1.2 2.1-8.9 5.2 9 5.1-1.3 2.2-9-5.2V257h-2.7v-10.3l-8.9 5.2-1.2-2.2 8.9-5.1-9-5.2 1.3-2.1 9 5.1v-10.2zm86 0v10.2l9-5.1 1.2 2.1-8.9 5.2 8.9 5.1-1.2 2.2-9-5.2V257h-2.4v-10.3l-9 5.2-1.2-2.2 9-5.1-9-5.2 1.3-2.1 8.9 5.1v-10.2zm86.2 0v10.2l8.8-5.1 1.3 2.1-8.9 5.2 8.9 5.1-1.3 2.2-8.8-5.2V257h-2.5v-10.3l-9 5.2-1.2-2.2 9-5.1-9-5.2 1.3-2.1 8.9 5.1v-10.2zm86 0v10.2l9-5.1 1.2 2.1-8.9 5.2 8.9 5.1-1.3 2.2-8.8-5.2V257h-2.5v-10.3l-9 5.2-1.2-2.2 8.9-5.1-8.9-5.2 1.3-2.1 8.9 5.1v-10.2zm86.1 0v24.8h-2.5v-10.3l-8.8 5.2-1.3-2.2 8.9-5.1-8.9-5.2 1.3-2.1 8.8 5.1v-10.2zm-645.9-24.9v10.3l8.9-5.2 1.2 2.2-8.9 5.1 9 5.2-1.3 2.1-9-5.1v10.3h-2.4v-10.3l-8.9 5.1-1.2-2.1 8.8-5.2-8.8-5.1 1.2-2.2 8.9 5.2v-10.3zm86 0v10.3l9-5.2 1.2 2.2-8.9 5.1 9 5.2-1.3 2.1-9-5.1V232H-77v-10.3l-8.9 5.1-1.3-2.1 9-5.2-9-5.1 1.3-2.2 8.9 5.2v-10.3zm86.2 0v10.3l8.9-5.2 1.2 2.2-8.9 5.1 9 5.2-1.3 2.1-9-5.1v10.3H9v-10.3L0 226.9l-1.3-2.1 9-5.2-9-5.1 1.3-2.2 8.9 5.2v-10.3zm86 0v10.3l9-5.2 1.2 2.2-8.9 5.1 9 5.2-1.3 2.1-9-5.1v10.3h-2.4v-10.3l-9 5.1-1.2-2.1 9-5.2-9-5.1 1.3-2.2 8.9 5.2v-10.3zm86.4 0v10.3l9-5.2 1.2 2.2-9 5.1 9 5.2-1.3 2.1-8.9-5.1v10.3h-2.5v-10.3l-8.9 5.1-1.2-2.1 8.9-5.2-9-5.1 1.3-2.2 9 5.2v-10.3zm86.1 0v10.3l8.9-5.2 1.2 2.2-8.8 5.1 8.8 5.2-1.2 2.1-8.9-5.1V232h-2.5v-10.3l-8.9 5.1-1.2-2.1 8.9-5.2-9-5.1 1.3-2.2 9 5.2v-10.3zm86.1 0v10.3l8.9-5.2 1.2 2.2-8.8 5.1 8.8 5.2-1.2 2.1-8.9-5.1V232h-2.5v-10.3l-8.9 5.1-1.2-2.1 8.9-5.2-9-5.1 1.3-2.2 9 5.2v-10.3zm86.1 0v10.3l8.9-5.2 1.2 2.2-8.9 5.1 9 5.2-1.3 2.1-8.9-5.1V232h-2.5v-10.3l-8.9 5.1-1.2-2.1 8.8-5.2-8.8-5.1 1.2-2.2 8.9 5.2v-10.3zm-646-24.8v10.2l9-5.1 1.2 2.2-8.9 5 8.9 5.2-1.3 2.2-8.8-5.1v10.2h-2.6v-24.8zm86.1 0v10.2l9-5.1 1.2 2.2-9 5 9 5.2-1.3 2.2-8.9-5.1v10.2h-2.5V197l-8.8 5-1.3-2 8.9-5.2-8.9-5.1 1.3-2.2 8.8 5.1v-10.2zm86.1 0v10.2l9-5.1 1.2 2.2-9 5 9 5.2-1.3 2.2-8.9-5.1v10.2H-34V197l-8.9 5-1.2-2 8.9-5.2-8.9-5.1 1.2-2.2 9 5.1v-10.2zm86.1 0v10.2l9-5.1 1.2 2.2-9 5 9 5.2-1.3 2.2-8.9-5.1v10.2H52V197l-8.9 5-1.2-2 8.9-5.2-9-5.1 1.3-2.2 9 5.1v-10.2zm86.4 0v10.2l8.9-5.1 1.2 2.2-8.9 5 9 5.2-1.3 2.2-9-5.1v10.2h-2.7V197l-8.9 5-1.2-2 8.9-5.2-9-5.1 1.3-2.2 9 5.1v-10.2zm86 0v10.2l9-5.1 1.2 2.2-8.9 5 8.9 5.2-1.2 2.2-9-5.1v10.2h-2.4V197l-9 5-1.2-2 9-5.2-9-5.1 1.3-2.2 8.9 5.1v-10.2zm86.2 0v10.2l8.8-5.1 1.3 2.2-8.9 5 8.9 5.2-1.3 2.2-8.8-5.1v10.2h-2.5V197l-9 5-1.2-2 9-5.2-9-5.1 1.3-2.2 8.9 5.1v-10.2zm86 0v10.2l9-5.1 1.2 2.2-8.9 5 8.9 5.2-1.3 2.2-8.8-5.1v10.2h-2.5V197l-9 5-1.2-2 8.9-5.2-8.9-5.1 1.3-2.2 8.9 5.1v-10.2zm86.1 0v24.8h-2.5V197l-8.8 5-1.3-2 8.9-5.2-8.9-5.1 1.3-2.2 8.8 5.1v-10.2zm-645.9-24.9v10.3l8.9-5.1 1.2 2.1-8.9 5.1 9 5.2-1.3 2.1-9-5v10.2h-2.4V172l-8.9 5.1-1.2-2.1 8.8-5.2-8.8-5 1.2-2.2 8.9 5v-10.2zm86 0v10.3l9-5.1 1.2 2.1-8.9 5.1 9 5.2-1.3 2.1-9-5v10.2H-77V172l-8.9 5.1-1.3-2.1 9-5.2-9-5 1.3-2.2 8.9 5v-10.2zm86.2 0v10.3l8.9-5.1 1.2 2.1-8.9 5.1 9 5.2-1.3 2.1-9-5v10.2H9V172L0 177.2l-1.3-2.1 9-5.2-9-5 1.3-2.2 8.9 5v-10.2zm86 0v10.3l9-5.1 1.2 2.1-8.9 5.1 9 5.2-1.3 2.1-9-5v10.2h-2.4V172l-9 5.1-1.2-2.1 9-5.2-9-5 1.3-2.2 8.9 5v-10.2zm86.4 0v10.3l9-5.1 1.2 2.1-9 5.1 9 5.2-1.3 2.1-8.9-5v10.2h-2.5V172l-8.9 5.1-1.2-2.1 8.9-5.2-9-5 1.3-2.2 9 5v-10.2zm86.1 0v10.3l8.9-5.1 1.2 2.1-8.8 5.1 8.8 5.2-1.2 2.1-8.9-5v10.2h-2.5V172l-8.9 5.1-1.2-2.1 8.9-5.2-9-5 1.3-2.2 9 5v-10.2zm86.1 0v10.3l8.9-5.1 1.2 2.1-8.8 5.1 8.8 5.2-1.2 2.1-8.9-5v10.2h-2.5V172l-8.9 5.1-1.2-2.1 8.9-5.2-9-5 1.3-2.2 9 5v-10.2zm86.1 0v10.3l8.9-5.1 1.2 2.1-8.9 5.1 9 5.2-1.3 2.1-8.9-5v10.2h-2.5V172l-8.9 5.1-1.2-2.1 8.8-5.2-8.8-5 1.2-2.2 8.9 5v-10.2zm-646-24.8v10.2l9-5 1.2 2-8.9 5.2 8.9 5.1-1.3 2.2-8.8-5.1v10.2h-2.6v-24.8zm86.1 0v10.2l9-5 1.2 2-9 5.2 9 5.1-1.3 2.2-8.9-5.1v10.2h-2.5v-10.2l-8.8 5.1-1.3-2.2 8.9-5.1-8.9-5.1 1.3-2.2 8.8 5.1v-10.2zm86.1 0v10.2l9-5 1.2 2-9 5.2 9 5.1-1.3 2.2-8.9-5.1v10.2H-34v-10.2l-8.9 5.1-1.2-2.2 8.9-5.1-8.9-5.1 1.2-2.2 9 5.1v-10.2zm86.1 0v10.2l9-5 1.2 2-9 5.2 9 5.1-1.3 2.2-8.9-5.1v10.2H52v-10.2l-8.9 5.1-1.2-2.2 8.9-5.1-9-5.1 1.3-2.2 9 5.1v-10.2zm86.4 0v10.2l8.9-5 1.2 2-8.9 5.2 9 5.1-1.3 2.2-9-5.1v10.2h-2.7v-10.2l-8.9 5.1-1.2-2.2 8.9-5.1-9-5.1 1.3-2.2 9 5.1v-10.2zm86 0v10.2l9-5 1.2 2-8.9 5.2 8.9 5.1-1.2 2.2-9-5.1v10.2h-2.4v-10.2l-9 5.1-1.2-2.2 9-5.1-9-5.1 1.3-2.2 8.9 5.1v-10.2zm86.2 0v10.2l8.8-5 1.3 2-8.9 5.2 8.9 5.1-1.3 2.2-8.8-5.1v10.2h-2.5v-10.2l-9 5.1-1.2-2.2 9-5.1-9-5.1 1.3-2.2 8.9 5.1v-10.2zm86 0v10.2l9-5 1.2 2-8.9 5.2 8.9 5.1-1.3 2.2-8.8-5.1v10.2h-2.5v-10.2l-9 5.1-1.2-2.2 8.9-5.1-8.9-5.1 1.3-2.2 8.9 5.1v-10.2zm86.1 0v24.8h-2.5v-10.2l-8.8 5.1-1.3-2.2 8.9-5.1-8.9-5.1 1.3-2.2 8.8 5.1v-10.2zm-645.9-24.9v10.3l8.9-5.1 1.2 2.1-8.9 5.2 9 5-1.3 2.3-9-5.2v10.3h-2.4v-10.3l-8.9 5.2-1.2-2.2 8.8-5.1-8.8-5.2 1.2-2.1 8.9 5.1v-10.3zm86 0v10.3l9-5.1 1.2 2.1-8.9 5.2 9 5-1.3 2.3-9-5.2v10.3H-77v-10.3l-8.9 5.2-1.3-2.2 9-5.1-9-5.2 1.3-2.1 8.9 5.1v-10.3zm86.2 0v10.3l8.9-5.1 1.2 2.1-8.9 5.2 9 5-1.3 2.3-9-5.2v10.3H9v-10.3L0 127.6l-1.3-2.2 9-5.1-9-5.2L.1 113 9 118v-10.3zm86 0v10.3l9-5.1 1.2 2.1-8.9 5.2 9 5-1.3 2.3-9-5.2v10.3h-2.4v-10.3l-9 5.2-1.2-2.2 9-5.1-9-5.2 1.3-2.1L95 118v-10.3zm86.4 0v10.3l9-5.1 1.2 2.1-9 5.2 9 5-1.3 2.3-8.9-5.2v10.3h-2.5v-10.3l-8.9 5.2-1.2-2.2 8.9-5.1-9-5.2 1.3-2.1 9 5.1v-10.3zm86.1 0v10.3l8.9-5.1 1.2 2.1-8.8 5.2 8.8 5-1.2 2.3-8.9-5.2v10.3h-2.5v-10.3l-8.9 5.2-1.2-2.2 8.9-5.1-9-5.2 1.3-2.1 9 5.1v-10.3zm86.1 0v10.3l8.9-5.1 1.2 2.1-8.8 5.2 8.8 5-1.2 2.3-8.9-5.2v10.3h-2.5v-10.3l-8.9 5.2-1.2-2.2 8.9-5.1-9-5.2 1.3-2.1 9 5.1v-10.3zm86.1 0v10.3l8.9-5.1 1.2 2.1-8.9 5.2 9 5-1.3 2.3-8.9-5.2v10.3h-2.5v-10.3l-8.9 5.2-1.2-2.2 8.8-5.1-8.8-5.2 1.2-2.1 8.9 5.1v-10.3zm-646-24.8v10.3l9-5.2 1.2 2.2-8.9 5.1 8.9 5.1-1.3 2.2-8.8-5.1v10.2h-2.6V83zm86.1 0v10.3l9-5.2 1.2 2.2-9 5.1 9 5.1-1.3 2.2-8.9-5.1v10.2h-2.5V97.6l-8.8 5.1-1.3-2.2 8.9-5-8.9-5.2 1.3-2.2 8.8 5.2V83zm86.1 0v10.3l9-5.2 1.2 2.2-9 5.1 9 5.1-1.3 2.2-8.9-5.1v10.2H-34V97.6l-8.9 5.1-1.2-2.2 8.9-5-8.9-5.2L-43 88l9 5.2V83zm86.1 0v10.3l9-5.2 1.2 2.2-9 5.1 9 5.1-1.3 2.2-8.9-5.1v10.2H52V97.6l-8.9 5.1-1.2-2.2 8.9-5-9-5.2 1.3-2.2 9 5.2V83zm86.4 0v10.3l8.9-5.2 1.2 2.2-8.9 5.1 9 5.1-1.3 2.2-9-5.1v10.2h-2.7V97.6l-8.9 5.1-1.2-2.2 8.9-5-9-5.2 1.3-2.2 9 5.2V83zm86 0v10.3l9-5.2 1.2 2.2-8.9 5.1 8.9 5.1-1.2 2.2-9-5.1v10.2h-2.4V97.6l-9 5.1-1.2-2.2 9-5-9-5.2 1.3-2.2 8.9 5.2V83zm86.2 0v10.3l8.8-5.2 1.3 2.2-8.9 5.1 8.9 5.1-1.3 2.2-8.8-5.1v10.2h-2.5V97.6l-9 5.1-1.2-2.2 9-5-9-5.2 1.3-2.2 8.9 5.2V83zm86 0v10.3l9-5.2 1.2 2.2-8.9 5.1 8.9 5.1-1.3 2.2-8.8-5.1v10.2h-2.5V97.6l-9 5.1-1.2-2.2 8.9-5-8.9-5.2 1.3-2.2 8.9 5.2V83zm86.1 0v24.8h-2.5V97.6l-8.8 5.1-1.3-2.2 8.9-5-8.9-5.2L474 88l8.8 5.2V83zm-645.9-24.8v10.2l8.9-5.1 1.2 2.2-8.9 5 9 5.2-1.3 2.2-9-5.2V83h-2.4V72.7l-8.9 5.2-1.2-2.2 8.8-5.1-8.8-5.1 1.2-2.2 8.9 5.1V58.2zm86 0v10.2l9-5.1 1.2 2.2-8.9 5 9 5.2-1.3 2.2-9-5.2V83H-77V72.7L-86 78l-1.3-2.2 9-5.1-9-5.1 1.3-2.2 8.9 5.1V58.2zm86.2 0v10.2l8.9-5.1 1.2 2.2-8.9 5 9 5.2-1.3 2.2-9-5.2V83H9V72.7L0 78l-1.3-2.2 9-5.1-9-5.1 1.3-2.2L9 68.4V58.2zm86 0v10.2l9-5.1 1.2 2.2-8.9 5 9 5.2-1.3 2.2-9-5.2V83h-2.4V72.7L86 78 85 75.7l9-5.1-9-5.1 1.3-2.2 8.9 5.1V58.2zm86.4 0v10.2l9-5.1 1.2 2.2-9 5 9 5.2-1.3 2.2-8.9-5.2V83h-2.5V72.7l-8.9 5.2-1.2-2.2 8.9-5.1-9-5.1 1.3-2.2 9 5.1V58.2zm86.1 0v10.2l8.9-5.1 1.2 2.2-8.8 5 8.8 5.2L279 78l-8.9-5.2V83h-2.5V72.7l-8.9 5.2-1.2-2.2 8.9-5.1-9-5.1 1.3-2.2 9 5.1V58.2zm86.1 0v10.2l8.9-5.1 1.2 2.2-8.8 5 8.8 5.2L365 78l-8.9-5.2V83h-2.5V72.7l-8.9 5.2-1.2-2.2 8.9-5.1-9-5.1 1.3-2.2 9 5.1V58.2zm86.1 0v10.2l8.9-5.1 1.2 2.2-8.9 5 9 5.2L451 78l-8.9-5.2V83h-2.5V72.7l-8.9 5.2-1.2-2.2 8.8-5.1-8.8-5.1 1.2-2.2 8.9 5.1V58.2zm-646-24.9v10.3l9-5.2 1.2 2.2-8.9 5.1 8.9 5.2-1.3 2.1-8.8-5.1v10.3h-2.6V33.3zm86.1 0v10.3l9-5.2 1.2 2.2-9 5.1 9 5.2-1.3 2.1-8.9-5.1v10.3h-2.5V47.9L-129 53l-1.3-2.1 8.9-5.2-8.9-5 1.3-2.3 8.8 5.2V33.3zm86.1 0v10.3l9-5.2 1.2 2.2-9 5.1 9 5.2-1.3 2.1-8.9-5.1v10.3H-34V47.9L-43 53l-1.2-2.1 8.9-5.2-8.9-5 1.2-2.3 9 5.2V33.3zm86.1 0v10.3l9-5.2 1.2 2.2-9 5.1 9 5.2-1.3 2.1-8.9-5.1v10.3H52V47.9L43.1 53 42 51l8.9-5.2-9-5 1.3-2.3 9 5.2V33.3zm86.4 0v10.3l8.9-5.2 1.2 2.2-8.9 5.1 9 5.2-1.3 2.1-9-5.1v10.3h-2.7V47.9l-8.9 5.1L128 51l8.9-5.2-9-5 1.3-2.3 9 5.2V33.3zm86 0v10.3l9-5.2 1.2 2.2-8.9 5.1 8.9 5.2-1.2 2.1-9-5.1v10.3h-2.4V47.9l-9 5.1-1.2-2.1 9-5.2-9-5 1.3-2.3 8.9 5.2V33.3zm86.2 0v10.3l8.8-5.2 1.3 2.2-8.9 5.1 8.9 5.2-1.3 2.1-8.8-5.1v10.3h-2.5V47.9l-9 5.1-1.2-2.1 9-5.2-9-5 1.3-2.3 8.9 5.2V33.3zm86 0v10.3l9-5.2 1.2 2.2-8.9 5.1 8.9 5.2L408 53l-8.8-5.1v10.3h-2.5V47.9l-9 5.1-1.2-2.1 8.9-5.2-8.9-5 1.3-2.3 8.9 5.2V33.3zm86.1 0v24.9h-2.5V47.9L474 53l-1.3-2.1 8.9-5.2-8.9-5 1.3-2.3 8.8 5.2V33.3zM-160.7 8.5v10.2l8.9-5.1 1.2 2.2-8.9 5 9 5.2-1.3 2.2-9-5.1v10.2h-2.4V23.1l-8.9 5-1.2-2 8.8-5.2-8.8-5.1 1.2-2.2 8.9 5.1V8.5zm86 0v10.2l9-5.1 1.2 2.2-8.9 5 9 5.2-1.3 2.2-9-5.1v10.2H-77V23.1l-8.9 5-1.3-2 9-5.2-9-5.1 1.3-2.2 8.9 5.1V8.5zm86.2 0v10.2l8.9-5.1 1.2 2.2-8.9 5 9 5.2-1.3 2.2-9-5.1v10.2H9V23.1L0 28l-1.3-2 9-5.2-9-5.1 1.3-2.2L9 18.7V8.5zm86 0v10.2l9-5.1 1.2 2.2-8.9 5 9 5.2-1.3 2.2-9-5.1v10.2h-2.4V23.1l-9 5-1.2-2 9-5.2-9-5.1 1.3-2.2 8.9 5.1V8.5zm86.4 0v10.2l9-5.1 1.2 2.2-9 5 9 5.2-1.3 2.2L184 23v10.2h-2.5V23.1l-8.9 5-1.2-2 8.9-5.2-9-5.1 1.3-2.2 9 5.1V8.5zm86.1 0v10.2l8.9-5.1 1.2 2.2-8.8 5L280 26l-1.2 2.2L270 23v10.2h-2.5V23.1l-8.9 5-1.2-2 8.9-5.2-9-5.1 1.3-2.2 9 5.1V8.5zm86.1 0v10.2l8.9-5.1 1.2 2.2-8.8 5 8.8 5.2-1.2 2.2L356 23v10.2h-2.5V23.1l-8.9 5-1.2-2 8.9-5.2-9-5.1 1.3-2.2 9 5.1V8.5zm86.1 0v10.2l8.9-5.1 1.2 2.2-8.9 5 9 5.2-1.3 2.2-8.9-5.1v10.2h-2.5V23.1l-8.9 5-1.2-2 8.8-5.2-8.8-5.1 1.2-2.2 8.9 5.1V8.5zm-646-24.9V-6l9-5.1 1.2 2.1-8.9 5.2 8.9 5-1.3 2.2-8.8-5V8.4h-2.6v-24.9zm86.1 0V-6l9-5.1 1.2 2.1-9 5.2 9 5-1.3 2.2-8.9-5V8.4h-2.5V-1.8l-8.8 5.1-1.3-2.1 8.9-5.1-8.9-5.2 1.3-2.1 8.8 5v-10.2zm86.1 0V-6l9-5.1 1.2 2.1-9 5.2 9 5-1.3 2.2-8.9-5V8.4H-34V-1.8L-43 3.3l-1.2-2.1 8.9-5.1-8.9-5.2 1.2-2.1 9 5v-10.2zm86.1 0V-6l9-5.1 1.2 2.1-9 5.2 9 5-1.3 2.2-8.9-5V8.4H52V-1.8l-8.9 5.1L42 1.2 50.8-4l-9-5.2 1.3-2.1 9 5v-10.2zm86.4 0V-6l8.9-5.1 1.2 2.1-8.9 5.2 9 5-1.3 2.2-9-5V8.4h-2.7V-1.8l-8.9 5.1-1.2-2.1 8.9-5.1-9-5.2 1.3-2.1 9 5v-10.2zm86 0V-6l9-5.1 1.2 2.1-8.9 5.2 8.9 5-1.2 2.2-9-5V8.4h-2.4V-1.8l-9 5.1-1.2-2.1 9-5.1-9-5.2 1.3-2.1 8.9 5v-10.2zm86.2 0V-6l8.8-5.1 1.3 2.1-8.9 5.2 8.9 5-1.3 2.2-8.8-5V8.4h-2.5V-1.8l-9 5.1-1.2-2.1 9-5.1-9-5.2 1.3-2.1 8.9 5v-10.2zm86 0V-6l9-5.1 1.2 2.1-8.9 5.2 8.9 5-1.3 2.2-8.8-5V8.4h-2.5V-1.8l-9 5.1-1.2-2.1 8.9-5.1-8.9-5.2 1.3-2.1 8.9 5v-10.2zm86.1 0V8.5h-2.5V-1.8L474 3.3l-1.3-2.1 8.9-5.1-8.9-5.2 1.3-2.1 8.8 5v-10.2zm-645.9-24.8V-31l8.9-5 1.2 2-8.9 5.2 9 5.1-1.3 2.2-9-5.1v10.2h-2.4v-10.2l-8.9 5.1-1.2-2.2 8.8-5-8.8-5.2 1.2-2.2 8.9 5.1v-10.2zm86 0V-31l9-5 1.2 2-8.9 5.2 9 5.1-1.3 2.2-9-5.1v10.2H-77v-10.2l-8.9 5.1-1.3-2.2 9-5-9-5.2 1.3-2.2L-77-31v-10.2zm86.2 0V-31l8.9-5 1.2 2-8.9 5.2 9 5.1-1.3 2.2-9-5.1v10.2H9v-10.2L0-21.5l-1.3-2.2 9-5-9-5.2 1.3-2.2L9-31v-10.2zm86 0V-31l9-5 1.2 2-8.9 5.2 9 5.1-1.3 2.2-9-5.1v10.2h-2.4v-10.2l-9 5.1-1.2-2.2 9-5-9-5.2 1.3-2.2L95-31v-10.2zm86.4 0V-31l9-5 1.2 2-9 5.2 9 5.1-1.3 2.2-8.9-5.1v10.2h-2.5v-10.2l-8.9 5.1-1.2-2.2 8.9-5-9-5.2 1.3-2.2 9 5.1v-10.2zm86.1 0V-31l8.9-5 1.3 2-9 5.2 9 5.1-1.3 2.2-8.9-5.1v10.2h-2.5v-10.2l-8.9 5.1-1.2-2.2 8.9-5-9-5.2 1.3-2.2 9 5.1v-10.2zm86.1 0V-31l8.9-5 1.2 2-8.8 5.2 8.8 5.1-1.2 2.2-8.9-5.1v10.2h-2.5v-10.2l-8.9 5.1-1.2-2.2 8.9-5-9-5.2 1.3-2.2 9 5.1v-10.2zm86.1 0V-31l8.9-5.2 1.2 2.2-8.8 5.1 8.8 5.1-1.2 2.2-8.9-5.1v10.2h-2.5v-10.2l-8.9 5.1-1.2-2.2 8.8-5-8.8-5.2 1.2-2.2 8.9 5.1v-10.2zm-646-24.9v10.3l9-5.1 1.2 2.1-8.9 5.2 8.9 5.1-1.3 2.2-8.8-5.2v10.3h-2.6v-24.9zm86.1 0v10.3l9-5.1 1.2 2.1-8.9 5.2 8.9 5.1-1.3 2.2-8.9-5.2v10.3h-2.5v-10.3l-8.8 5.2-1.3-2.2 8.9-5.1-8.9-5.2 1.3-2.1 8.8 5.1v-10.3zm86.1 0v10.3l9-5.1 1.2 2.1-9 5.2 9 5.1-1.3 2.2-8.9-5.2v10.3H-34v-10.3l-8.8 5.2-1.3-2.2 8.9-5.1-8.9-5.2 1.2-2.1 9 5.1v-10.3zm86.1 0v10.3l9-5.1 1.2 2.1-9 5.2 9 5.1-1.3 2.2-8.9-5.2v10.3H52v-10.3l-8.9 5.2-1.2-2.2 8.9-5.1-9-5.2 1.3-2.1 9 5.1v-10.3zm86.4 0v10.3l8.9-5.1 1.2 2.1-8.9 5.2 9 5.1-1.3 2.2-9-5.2v10.3h-2.7v-10.3l-8.9 5.2-1.2-2.2 8.9-5.1-9-5.2 1.3-2.1 9 5.1V-66zm86 0v10.3l9-5.1 1.2 2.1-8.9 5.2 9 5.1-1.3 2.2-9-5.2v10.3h-2.4v-10.3l-9 5.2-1.2-2.2 9-5.1-9-5.2 1.3-2.1 8.9 5.1v-10.3zm86.2 0v10.3l8.8-5.1 1.3 2.1-8.9 5.2 8.9 5.1-1.3 2.2-8.8-5.2v10.3h-2.5v-10.3l-9 5.2-1.2-2.2 9-5.1-9-5.2 1.3-2.1 8.9 5.1v-10.3zm86 0v10.3l9-5.1 1.2 2.1-8.9 5.2 8.9 5.1-1.3 2.2-8.8-5.2v10.3h-2.5v-10.3l-9 5.2-1.2-2.2 8.9-5.1-8.9-5.2 1.3-2.1 8.9 5.1v-10.3zm86.1 0v24.9h-2.5v-10.3l-8.8 5.2-1.3-2.2 8.9-5.1-8.9-5.2 1.3-2.1 8.9 5.1V-66zm-645.9-24.8v10.3l8.9-5.2 1.2 2.2-8.8 5.1 8.8 5.2-1.2 2.1-9-5.1v10.2h-2.4v-10.2l-8.9 5.1-1.2-2.1 10.1-5.9v-11.7zm86 0v10.3l9-5.2 1.2 2.2-8.9 5.1 9 5.2-1.3 2.1-9-5.1v10.2H-77v-10.2l-8.9 5.1-1.3-2.1 9-5.2-9-5.1 1.3-2.2 8.9 5.2V-91zm86.2 0v10.3l8.9-5.2 1.2 2.2-8.9 5.1 9 5.2-1.3 2.1-9-5.1v10.2H9v-10.2L0-71.2l-1.3-2.1 9-5.2-9-5.1 1.3-2.2L9-80.6V-91zm86 0v11.7l10.2 5.9-1.2 2.1-9-5.1v10.2h-2.4v-10.2l-9 5.1-1.2-2.1 9-5.2-9-5.1 1.3-2.2 8.9 5.2V-91zm86.4 0v10.3l9-5.2 1.2 2.2-9 5.1 9 5.2-1.3 2.1-8.9-5.1v10.2h-2.5v-10.2l-8.9 5.1-1.2-2.1 10.1-5.9v-11.7zm86.1 0v10.3l8.9-5.2 1.2 2.2-8.8 5.1 8.9 5.2-1.3 2.1-8.9-5.1v10.2h-2.5v-10.2l-8.9 5.1-1.2-2.1 8.9-5.2-9-5.1 1.3-2.2 9 5.2V-91zm86.1 0v10.3l8.9-5.2 1.2 2.2-8.8 5.1 8.8 5.2-1.2 2.1-8.9-5.1v10.2h-2.5v-10.2l-8.9 5.1-1.2-2.1 8.9-5.2-9-5.1 1.3-2.2 9 5.2V-91zm86.1 0v11.7l10.1 5.9-1.2 2.1-8.9-5.1v10.2h-2.5v-10.2l-8.9 5.1-1.2-2.1 8.8-5.2-8.8-5.1 1.2-2.2 8.9 5.2V-91zm-635.8-17.5-10.2 5.8v11.7h-2.4v-12.4l.6-1.1 10.7-6.2zm86 0-8.8 5 8.9 5.2-1.3 2.2-8.9-5.1V-91h-2.5v-10.3L-129-96l-1.3-2.2 8.9-5.1-8.9-5.1 1.3-2.2 10.1 5.8 10.1-5.8zm86.2 0-9 5 9 5.2-1.3 2.2-8.9-5.2v10.3H-34v-10.3L-43-96l-1.2-2.2 8.9-5.1-8.9-5.1 1.3-2.2 10 5.8 10.2-5.8zm86 0-8.8 5 8.9 5.2-1.3 2.2-8.9-5.2v10.3H52v-10.3L43.1-96 42-98.2l8.9-5.1-9-5.1 1.3-2.2 10.2 5.8 10.1-5.8zm86.4 0-10.1 5.8v11.7H138v-11.7l-10.1-5.8 1.2-2.2 10.3 6 10.3-6zm86.1 0-8.9 5 8.9 5.2-1.2 2.2-9-5.1V-91h-2.4v-10.3l-9 5.2-1.2-2.2 9-5.1-9-5.1 1.3-2.2 10.1 5.8 10.2-5.8zm86.1 0-8.9 5 8.9 5.2-1.3 2.2-8.8-5.2v10.3h-2.5v-10.3l-9 5.2-1.2-2.2 9-5.1-9-5.1 1.3-2.2 10.1 5.8 10.1-5.8zm86 0-8.8 5 8.9 5.2L408-96l-8.8-5.2v10.3h-2.5v-10.3l-9 5.2-1.2-2.2 8.9-5.1-8.9-5.1 1.3-2.2 10.1 5.8 10.1-5.8zm75.4 4 .6 1v12.5h-2.4v-11.7l-10.2-5.8 1.3-2.2zm-635.2-28.9-8.8 5.1 8.8 5.2-1.2 2.1-8.9-5v10.2h-2.5V-126l-8.9 5.1-1.2-2.1 21.5-12.5zm86.1 0-8.9 5.1 9 5.2-1.3 2.1-9-5v10.2H-77V-126l-8.9 5.1-1.2-2.1 8.8-5.2-8.8-5 1.2-2.3 10.1 5.9 10.2-5.9zm86.1 0-8.9 5.1 9 5.2-1.3 2.1-9-5v10.2H9V-126L0-120.9l-1.3-2.1 9-5.2-9-5 1.3-2.3 10.1 5.9 10.2-5.9zm86.1 10.3-1.2 2.1-9-5v10.2h-2.4V-126l-9 5.1L85-123l9-5.2-9-5 1.3-2.3zm86.4-10.3-9 5.1 9 5.2-1.3 2.1-8.9-5v10.2h-2.5V-126l-8.9 5.1-1.2-2.1 21.5-12.5zm86 0-8.8 5.1 8.9 5.2-1.3 2.1-8.9-5v10.2h-2.5V-126l-8.9 5.1-1.2-2.1 8.9-5.2-9-5 1.3-2.3 10.2 5.9 10.1-5.9zm86.1 0-8.8 5.1 8.8 5.2-1.2 2.1-8.9-5v10.2h-2.5V-126l-8.9 5.1-1.2-2.1 8.9-5.2-9-5 1.3-2.3 10.2 5.9 10-5.9zm86.1 10.3-1.2 2.1-8.9-5v10.2h-2.5V-126l-8.9 5.1-1.2-2.1 8.9-5.2-9-5 1.3-2.3zm-570.6-31 10.8 6.1-1.3 2.2-10.1-5.9-10.1 5.9-1.3-2.2 10.8-6.2zm86.1 0 10.8 6.1-1.3 2.2-10.1-5.9-10.1 5.9-1.3-2.2 10.8-6.2zm86.1 0 10.8 6.1-1.3 2.2-10.1-5.9-10.2 5.9L42-148l10.8-6.2zm172.4 0 10.8 6.1-1.2 2.2-10.2-5.9-10.1 5.9-1.3-2.2 10.8-6.2zm86.1 0 10.8 6.1-1.3 2.2-10-5.9-10.2 5.9-1.3-2.2 10.8-6.2zm86.1 0 10.8 6.1-1.3 2.2-10.1-5.9-10.1 5.9-1.3-2.2 10.8-6.2z"/><circle cx="140" cy="140" r="139.5" fill="url(#b)" fill-opacity=".6" stroke="#b5b4b3" opacity=".5"/><path stroke="#fc3e3e" stroke-linejoin="round" stroke-miterlimit="10" stroke-width="3" d="m181.2 146 21-12v-24m-21 36v24m0-24v-24m0 24-21-12m21 12L139 170m42 0-21 12m21-12-21 12m0 0-21 12m0 0L97 170V98m42 96v-24M97 98l21-12 21 12m-42 0 21 12m21-12v48m0-48-21 12m21 36 21.1-12m-21 12-21 12m42-24v-24m0 0 21-12 21.1 12m-42 0 21 12m21-12-21 12M118 110v48m21 12-21-12"/></g><defs><linearGradient id="b" x1="140" x2="140" y1="0" y2="280" gradientUnits="userSpaceOnUse"><stop stop-color="#fff"/><stop offset="1" stop-color="#fff" stop-opacity=".1"/></linearGradient><clipPath id="a"><rect width="280" height="280" fill="#fff" rx="140"/></clipPath></defs></svg>
