<svg width="280" height="280" viewBox="0 0 280 280" fill="none" xmlns="http://www.w3.org/2000/svg">
<g clip-path="url(#clip0_985_4496)">
<path d="M-32.8118 -3.94737V-53.6316M-32.8118 -3.94737L-75.865 20.8947M-32.8118 -3.94737V45.7368M-32.8118 -3.94737L-75.865 -28.7895M-32.8118 -3.94737L10.2332 20.8947M-32.8118 -3.94737L10.2332 -28.7895M-32.8118 -53.6316L-75.865 -78.4737M-32.8118 -53.6316V-103.316M-32.8118 -53.6316L-75.8567 -28.7895L-118.902 -53.6316M-32.8118 -53.6316L10.2332 -78.4737M-32.8118 -53.6316L10.2332 -28.7895M-32.8118 -53.6316L-75.8567 -78.4737M-32.8118 -53.6316L-75.865 -28.7895M-75.865 -78.4737L-118.91 -53.6316M-75.865 -78.4737V-28.7895M-75.865 -78.4737L-118.91 -103.316L-161.955 -78.4737M-75.865 -78.4737L-32.8118 -103.316M-118.91 -53.6316V-3.94737M-118.91 -53.6316L-161.955 -78.4737M-118.91 -53.6316L-75.865 -28.7895M-118.91 -53.6316L-161.955 -28.7895M-118.91 -3.94737L-75.865 20.8947M-118.91 -3.94737L-75.865 -28.7895M-118.91 -3.94737V45.7368M-118.91 -3.94737L-161.955 20.8947M-118.91 -3.94737L-161.955 -28.7895M-75.865 20.8947L-32.8118 45.7368M-75.865 20.8947L-118.91 45.7368M-75.865 20.8947V-28.7895M-75.865 20.8947V70.5789M-32.8118 -103.316L-75.8567 -128.158M-32.8118 -103.316L10.2332 -128.158M-32.8118 -103.316L10.2332 -78.4737M-75.8567 -128.158L-118.902 -103.316M-75.8567 -128.158V-78.4737M-75.8567 -128.158L-118.902 -153L-161.947 -128.158M-75.8567 -128.158L-32.8118 -153L10.2332 -128.158M-118.902 -103.316V-53.6316M-118.902 -103.316L-161.947 -128.158M-118.902 -53.6316L-161.947 -28.7895L-205 -53.6316M-118.902 -53.6316L-161.947 -78.4737V-128.158M-118.902 -53.6316L-75.8567 -78.4737M-32.8118 45.7368L-75.865 70.5789M-32.8118 45.7368V95.421M-32.8118 45.7368L10.2332 70.5789M-32.8118 45.7368L10.2332 20.8947M-118.91 45.7368L-75.865 70.5789M-118.91 45.7368V95.421M-118.91 45.7368L-161.955 70.5789M-118.91 45.7368L-161.955 20.8947M-75.865 70.5789L-32.8118 95.421M-75.865 70.5789L-118.91 95.421M-75.865 70.5789V120.263M-32.8118 95.421L-75.865 120.263M-32.8118 95.421V145.105M-32.8118 95.421L10.2332 120.263M-32.8118 95.421L10.2332 70.5789M-118.91 95.421L-75.865 120.263M-118.91 95.421V145.105M-118.91 95.421L-161.955 120.263M-118.91 95.421L-161.955 70.5789M-75.865 120.263L-32.8118 145.105M-75.865 120.263L-118.91 145.105M-75.865 120.263V169.947M-32.8118 145.105L-75.865 169.947M-32.8118 145.105V194.789M-32.8118 145.105L10.2332 169.947M-32.8118 145.105L10.2332 120.263M-118.91 145.105L-75.865 169.947M-118.91 145.105V194.789M-118.91 145.105L-161.955 169.947M-118.91 145.105L-161.955 120.263M-75.865 169.947L-32.8118 194.789M-75.865 169.947L-118.91 194.789M-75.865 169.947V219.632M-32.8118 194.789L-75.865 219.632M-32.8118 194.789V244.474M-32.8118 194.789L10.2332 219.632M-32.8118 194.789L10.2332 169.947M-118.91 194.789L-75.865 219.632M-118.91 194.789V244.474M-118.91 194.789L-161.955 219.632M-118.91 194.789L-161.955 169.947M-75.865 219.632L-32.8118 244.474M-75.865 219.632L-118.91 244.474M-75.865 219.632V269.316M-32.8118 244.474L-75.865 269.316M-32.8118 244.474V294.158M-32.8118 244.474L10.2332 269.316M-32.8118 244.474L10.2332 219.632M-118.91 244.474L-75.865 269.316M-118.91 244.474V294.158M-118.91 244.474L-161.955 269.316M-118.91 244.474L-161.955 219.632M-75.865 269.316L-118.91 294.158M-75.865 269.316L-32.8118 294.158M-32.8118 294.158L-75.865 319L-118.91 294.158M-32.8118 294.158L10.2332 319L53.2782 294.158M-32.8118 294.158L10.2332 269.316M-118.91 294.158L-161.955 319L-205 294.158V244.474M-118.91 294.158L-161.955 269.316M53.2782 -3.94737V-53.6316M53.2782 -3.94737L10.2332 20.8947M53.2782 -3.94737V45.7368M53.2782 -3.94737L10.2332 -28.7895M53.2782 -3.94737L96.3232 20.8947M53.2782 -3.94737L96.3232 -28.7895M53.2782 -53.6316L10.2332 -78.4737M53.2782 -53.6316V-103.316M53.2782 -53.6316L10.2332 -28.7895M53.2782 -53.6316L96.3232 -78.4737M53.2782 -53.6316L96.3315 -28.7895L139.376 -53.6316V-103.316L96.3315 -128.158M53.2782 -53.6316L96.3315 -78.4737V-128.158M53.2782 -53.6316L96.3232 -28.7895M10.2332 -78.4737L53.2782 -103.316M10.2332 -78.4737V-28.7895M10.2332 -78.4737V-128.158M10.2332 20.8947L53.2782 45.7368M10.2332 20.8947V-28.7895M10.2332 20.8947V70.5789M53.2782 -103.316L10.2332 -128.158M53.2782 -103.316L96.3315 -128.158M53.2782 -103.316L96.3232 -78.4737M10.2332 -128.158L53.2782 -153L96.3315 -128.158M53.2782 45.7368L10.2332 70.5789M53.2782 45.7368V95.421M53.2782 45.7368L96.3232 70.5789M53.2782 45.7368L96.3232 20.8947M10.2332 70.5789L53.2782 95.421M10.2332 70.5789V120.263M53.2782 95.421L10.2332 120.263M53.2782 95.421V145.105M53.2782 95.421L96.3232 120.263M53.2782 95.421L96.3232 70.5789M10.2332 120.263L53.2782 145.105M10.2332 120.263V169.947M53.2782 145.105L10.2332 169.947M53.2782 145.105V194.789M53.2782 145.105L96.3232 169.947M53.2782 145.105L96.3232 120.263M10.2332 169.947L53.2782 194.789M10.2332 169.947V219.632M53.2782 194.789L10.2332 219.632M53.2782 194.789V244.474M53.2782 194.789L96.3232 219.632M53.2782 194.789L96.3232 169.947M10.2332 219.632L53.2782 244.474M10.2332 219.632V269.316M53.2782 244.474L10.2332 269.316M53.2782 244.474V294.158M53.2782 244.474L96.3232 269.316M53.2782 244.474L96.3232 219.632M10.2332 269.316L53.2782 294.158M53.2782 294.158L96.3232 319L139.368 294.158V244.474M53.2782 294.158L96.3232 269.316M139.368 -3.94737V-53.6316L96.3232 -78.4737M139.368 -3.94737L96.3232 20.8947M139.368 -3.94737V45.7368M139.368 -3.94737L96.3232 -28.7895M96.3232 -78.4737V-28.7895M96.3232 20.8947L139.368 45.7368M96.3232 20.8947V-28.7895M96.3232 20.8947V70.5789M139.368 45.7368L96.3232 70.5789M139.368 45.7368V95.421M96.3232 70.5789L139.368 95.421M96.3232 70.5789V120.263M139.368 95.421L96.3232 120.263M139.368 95.421V145.105M96.3232 120.263L139.368 145.105M96.3232 120.263V169.947M139.368 145.105L96.3232 169.947M139.368 145.105V194.789M96.3232 169.947L139.368 194.789M96.3232 169.947V219.632M139.368 194.789L96.3232 219.632M139.368 194.789V244.474M96.3232 219.632L139.368 244.474M96.3232 219.632V269.316M139.368 244.474L96.3232 269.316M-161.955 -78.4737L-205 -53.6316M-161.955 -78.4737V-28.7895M-205 -53.6316V-3.94737M-205 -53.6316V-103.316L-161.947 -128.158M-205 -3.94737L-161.955 20.8947M-205 -3.94737L-161.955 -28.7895M-205 -3.94737V45.7368M-161.955 20.8947L-205 45.7368M-161.955 20.8947V-28.7895M-161.955 20.8947V70.5789M-205 45.7368L-161.955 70.5789M-205 45.7368V95.421M-161.955 70.5789L-205 95.421M-161.955 70.5789V120.263M-205 95.421L-161.955 120.263M-205 95.421V145.105M-161.955 120.263L-205 145.105M-161.955 120.263V169.947M-205 145.105L-161.955 169.947M-205 145.105V194.789M-161.955 169.947L-205 194.789M-161.955 169.947V219.632M-205 194.789L-161.955 219.632M-205 194.789V244.474M-161.955 219.632L-205 244.474M-161.955 219.632V269.316M-205 244.474L-161.955 269.316M311.812 -3.94737V-53.6316M311.812 -3.94737L268.758 20.8947M311.812 -3.94737V45.7368M311.812 -3.94737L268.758 -28.7895M311.812 -3.94737L354.857 20.8947M311.812 -3.94737L354.857 -28.7895M311.812 -53.6316L268.758 -78.4737M311.812 -53.6316V-103.316M311.812 -53.6316L268.767 -28.7895L225.722 -53.6316M311.812 -53.6316L354.857 -78.4737M311.812 -53.6316L354.857 -28.7895M311.812 -53.6316L268.767 -78.4737M311.812 -53.6316L268.758 -28.7895M268.758 -78.4737L225.713 -53.6316M268.758 -78.4737V-28.7895M268.758 -78.4737L225.713 -103.316L182.668 -78.4737M268.758 -78.4737L311.812 -103.316M225.713 -53.6316V-3.94737M225.713 -53.6316L182.668 -78.4737M225.713 -53.6316L268.758 -28.7895M225.713 -53.6316L182.668 -28.7895M225.713 -3.94737L268.758 20.8947M225.713 -3.94737L268.758 -28.7895M225.713 -3.94737V45.7368M225.713 -3.94737L182.668 20.8947M225.713 -3.94737L182.668 -28.7895M268.758 20.8947L311.812 45.7368M268.758 20.8947L225.713 45.7368M268.758 20.8947V-28.7895M268.758 20.8947V70.5789M311.812 -103.316L268.767 -128.158M311.812 -103.316L354.857 -128.158M311.812 -103.316L354.857 -78.4737M268.767 -128.158L225.722 -103.316M268.767 -128.158V-78.4737M268.767 -128.158L225.722 -153L182.677 -128.158M268.767 -128.158L311.812 -153L354.857 -128.158M225.722 -103.316V-53.6316M225.722 -103.316L182.677 -128.158M225.722 -53.6316L182.677 -28.7895L139.623 -53.6316M225.722 -53.6316L182.677 -78.4737V-128.158M225.722 -53.6316L268.767 -78.4737M311.812 45.7368L268.758 70.5789M311.812 45.7368V95.421M311.812 45.7368L354.857 70.5789M311.812 45.7368L354.857 20.8947M225.713 45.7368L268.758 70.5789M225.713 45.7368V95.421M225.713 45.7368L182.668 70.5789M225.713 45.7368L182.668 20.8947M268.758 70.5789L311.812 95.421M268.758 70.5789L225.713 95.421M268.758 70.5789V120.263M311.812 95.421L268.758 120.263M311.812 95.421V145.105M311.812 95.421L354.857 120.263M311.812 95.421L354.857 70.5789M225.713 95.421L268.758 120.263M225.713 95.421V145.105M225.713 95.421L182.668 120.263M225.713 95.421L182.668 70.5789M268.758 120.263L311.812 145.105M268.758 120.263L225.713 145.105M268.758 120.263V169.947M311.812 145.105L268.758 169.947M311.812 145.105V194.789M311.812 145.105L354.857 169.947M311.812 145.105L354.857 120.263M225.713 145.105L268.758 169.947M225.713 145.105V194.789M225.713 145.105L182.668 169.947M225.713 145.105L182.668 120.263M268.758 169.947L311.812 194.789M268.758 169.947L225.713 194.789M268.758 169.947V219.632M311.812 194.789L268.758 219.632M311.812 194.789V244.474M311.812 194.789L354.857 219.632M311.812 194.789L354.857 169.947M225.713 194.789L268.758 219.632M225.713 194.789V244.474M225.713 194.789L182.668 219.632M225.713 194.789L182.668 169.947M268.758 219.632L311.812 244.474M268.758 219.632L225.713 244.474M268.758 219.632V269.316M311.812 244.474L268.758 269.316M311.812 244.474V294.158M311.812 244.474L354.857 269.316M311.812 244.474L354.857 219.632M225.713 244.474L268.758 269.316M225.713 244.474V294.158M225.713 244.474L182.668 269.316M225.713 244.474L182.668 219.632M268.758 269.316L225.713 294.158M268.758 269.316L311.812 294.158M311.812 294.158L268.758 319L225.713 294.158M311.812 294.158L354.857 319L397.902 294.158M311.812 294.158L354.857 269.316M225.713 294.158L182.668 319L139.623 294.158V244.474M225.713 294.158L182.668 269.316M397.902 -3.94737V-53.6316M397.902 -3.94737L354.857 20.8947M397.902 -3.94737V45.7368M397.902 -3.94737L354.857 -28.7895M397.902 -3.94737L440.947 20.8947M397.902 -3.94737L440.947 -28.7895M397.902 -53.6316L354.857 -78.4737M397.902 -53.6316V-103.316M397.902 -53.6316L354.857 -28.7895M397.902 -53.6316L440.947 -78.4737M397.902 -53.6316L440.955 -28.7895L484 -53.6316V-103.316L440.955 -128.158M397.902 -53.6316L440.955 -78.4737V-128.158M397.902 -53.6316L440.947 -28.7895M354.857 -78.4737L397.902 -103.316M354.857 -78.4737V-28.7895M354.857 -78.4737V-128.158M354.857 20.8947L397.902 45.7368M354.857 20.8947V-28.7895M354.857 20.8947V70.5789M397.902 -103.316L354.857 -128.158M397.902 -103.316L440.955 -128.158M397.902 -103.316L440.947 -78.4737M354.857 -128.158L397.902 -153L440.955 -128.158M397.902 45.7368L354.857 70.5789M397.902 45.7368V95.421M397.902 45.7368L440.947 70.5789M397.902 45.7368L440.947 20.8947M354.857 70.5789L397.902 95.421M354.857 70.5789V120.263M397.902 95.421L354.857 120.263M397.902 95.421V145.105M397.902 95.421L440.947 120.263M397.902 95.421L440.947 70.5789M354.857 120.263L397.902 145.105M354.857 120.263V169.947M397.902 145.105L354.857 169.947M397.902 145.105V194.789M397.902 145.105L440.947 169.947M397.902 145.105L440.947 120.263M354.857 169.947L397.902 194.789M354.857 169.947V219.632M397.902 194.789L354.857 219.632M397.902 194.789V244.474M397.902 194.789L440.947 219.632M397.902 194.789L440.947 169.947M354.857 219.632L397.902 244.474M354.857 219.632V269.316M397.902 244.474L354.857 269.316M397.902 244.474V294.158M397.902 244.474L440.947 269.316M397.902 244.474L440.947 219.632M354.857 269.316L397.902 294.158M397.902 294.158L440.947 319L483.992 294.158V244.474M397.902 294.158L440.947 269.316M483.992 -3.94737V-53.6316L440.947 -78.4737M483.992 -3.94737L440.947 20.8947M483.992 -3.94737V45.7368M483.992 -3.94737L440.947 -28.7895M440.947 -78.4737V-28.7895M440.947 20.8947L483.992 45.7368M440.947 20.8947V-28.7895M440.947 20.8947V70.5789M483.992 45.7368L440.947 70.5789M483.992 45.7368V95.421M440.947 70.5789L483.992 95.421M440.947 70.5789V120.263M483.992 95.421L440.947 120.263M483.992 95.421V145.105M440.947 120.263L483.992 145.105M440.947 120.263V169.947M483.992 145.105L440.947 169.947M483.992 145.105V194.789M440.947 169.947L483.992 194.789M440.947 169.947V219.632M483.992 194.789L440.947 219.632M483.992 194.789V244.474M440.947 219.632L483.992 244.474M440.947 219.632V269.316M483.992 244.474L440.947 269.316M182.668 -78.4737L139.623 -53.6316M182.668 -78.4737V-28.7895M139.623 -53.6316V-3.94737M139.623 -53.6316V-103.316L182.677 -128.158M139.623 -3.94737L182.668 20.8947M139.623 -3.94737L182.668 -28.7895M139.623 -3.94737V45.7368M182.668 20.8947L139.623 45.7368M182.668 20.8947V-28.7895M182.668 20.8947V70.5789M139.623 45.7368L182.668 70.5789M139.623 45.7368V95.421M182.668 70.5789L139.623 95.421M182.668 70.5789V120.263M139.623 95.421L182.668 120.263M139.623 95.421V145.105M182.668 120.263L139.623 145.105M182.668 120.263V169.947M139.623 145.105L182.668 169.947M139.623 145.105V194.789M182.668 169.947L139.623 194.789M182.668 169.947V219.632M139.623 194.789L182.668 219.632M139.623 194.789V244.474M182.668 219.632L139.623 244.474M182.668 219.632V269.316M139.623 244.474L182.668 269.316" stroke="#D7D9DA" stroke-width="2.5" stroke-miterlimit="10" stroke-linejoin="bevel" stroke-dasharray="20.84 20.84"/>
<circle opacity="0.5" cx="140" cy="140" r="139.5" fill="url(#paint0_linear_985_4496)" fill-opacity="0.6" stroke="#B5B4B3"/>
<path d="M181.171 146L202.213 134V110M181.171 146V170M181.171 146V122M181.171 146L160.129 134M181.171 146L139.084 170M181.171 170H181.167L160.129 182M181.171 170L181.167 170.004L160.129 182M160.129 182L139.084 194M139.084 194L97 170V98M139.084 194V170M97 98L118.042 86H118.046L139.084 98M97 98L118.042 110M139.084 98V146M139.084 98L118.042 110M139.084 146L160.129 134M139.084 146L118.042 158M160.129 134V110M160.129 110L181.167 98H181.171L202.213 110M160.129 110L181.171 122M202.213 110L181.171 122M118.042 110V158M139.084 170L118.042 158" stroke="#FC3E3E" stroke-width="3" stroke-miterlimit="10" stroke-linejoin="round"/>
</g>
<defs>
<linearGradient id="paint0_linear_985_4496" x1="140" y1="0" x2="140" y2="280" gradientUnits="userSpaceOnUse">
<stop stop-color="white"/>
<stop offset="1" stop-color="white" stop-opacity="0.15"/>
</linearGradient>
<clipPath id="clip0_985_4496">
<rect width="280" height="280" rx="140" fill="white"/>
</clipPath>
</defs>
</svg>