<svg width="280" height="280" viewBox="0 0 280 280" fill="none" xmlns="http://www.w3.org/2000/svg">
<g clip-path="url(#clip0_985_4581)">
<ellipse cx="9.63723" cy="68.3511" rx="56.7466" ry="56.7466" stroke="#D7D9DA" stroke-width="3" stroke-miterlimit="10"/>
<ellipse cx="312.286" cy="68.3511" rx="56.7466" ry="56.7466" stroke="#D7D9DA" stroke-width="3" stroke-miterlimit="10"/>
<ellipse cx="203.52" cy="295.338" rx="56.7466" ry="56.7466" stroke="#D7D9DA" stroke-width="3" stroke-miterlimit="10"/>
<ellipse cx="123.131" cy="-9.675" rx="56.7466" ry="56.7466" stroke="#D7D9DA" stroke-width="3" stroke-miterlimit="10"/>
<ellipse cx="52.1973" cy="295.337" rx="75.6621" ry="75.6622" stroke="#D7D9DA" stroke-width="3" stroke-miterlimit="10"/>
<ellipse cx="23.8245" cy="172.387" rx="28.3733" ry="28.3733" stroke="#D7D9DA" stroke-width="3" stroke-miterlimit="10"/>
<ellipse cx="217.709" cy="39.9778" rx="28.3733" ry="28.3733" stroke="#D7D9DA" stroke-width="3" stroke-miterlimit="10"/>
<ellipse cx="260.268" cy="172.387" rx="28.3733" ry="28.3733" stroke="#D7D9DA" stroke-width="3" stroke-miterlimit="10"/>
<ellipse cx="141.178" cy="142.662" rx="75.6621" ry="75.6622" stroke="#D7D9DA" stroke-width="3" stroke-miterlimit="10"/>
<circle opacity="0.5" cx="140" cy="140" r="139.5" fill="url(#paint0_linear_985_4581)" fill-opacity="0.6" stroke="#B5B4B3"/>
<g clip-path="url(#clip1_985_4581)">
<path d="M124.269 120.663C123.72 119.861 122.874 119.31 121.918 119.131C120.963 118.952 119.975 119.161 119.173 119.71L95.2293 136.027C94.7377 136.363 94.3356 136.815 94.0578 137.342C93.78 137.869 93.6348 138.456 93.6348 139.052C93.6348 139.647 93.78 140.234 94.0578 140.761C94.3356 141.288 94.7377 141.74 95.2293 142.077L119.173 158.393C119.57 158.672 120.018 158.87 120.492 158.974C120.966 159.079 121.456 159.088 121.933 159.002C122.411 158.916 122.867 158.735 123.274 158.472C123.681 158.208 124.032 157.866 124.307 157.465C124.581 157.065 124.773 156.614 124.871 156.139C124.97 155.664 124.973 155.174 124.881 154.697C124.789 154.221 124.603 153.767 124.335 153.363C124.066 152.959 123.72 152.613 123.316 152.343L103.809 139.07L123.316 125.833C123.723 125.561 124.072 125.21 124.342 124.8C124.611 124.391 124.796 123.932 124.885 123.45C124.973 122.968 124.965 122.473 124.859 121.994C124.753 121.516 124.553 121.063 124.269 120.663Z" fill="#3E71FC"/>
<path d="M184.77 136.027L160.827 119.71C160.015 119.161 159.018 118.956 158.055 119.142C157.093 119.328 156.243 119.888 155.694 120.7C155.144 121.512 154.94 122.509 155.125 123.472C155.311 124.434 155.872 125.284 156.684 125.833L176.19 139.143L156.684 152.453C155.894 153.008 155.356 153.852 155.184 154.801C155.013 155.75 155.222 156.729 155.767 157.525C156.312 158.321 157.149 158.87 158.096 159.053C159.043 159.236 160.024 159.039 160.827 158.503L184.77 142.187C185.262 141.85 185.664 141.399 185.942 140.871C186.22 140.344 186.365 139.757 186.365 139.162C186.365 138.566 186.22 137.979 185.942 137.452C185.664 136.925 185.262 136.473 184.77 136.137V136.027Z" fill="#3E71FC"/>
<path d="M147.112 110.543C146.691 110.439 146.253 110.419 145.824 110.485C145.395 110.55 144.983 110.699 144.612 110.924C144.241 111.149 143.918 111.445 143.661 111.795C143.404 112.145 143.219 112.542 143.116 112.963L130.502 163.563C130.398 163.985 130.379 164.422 130.444 164.851C130.509 165.28 130.659 165.692 130.883 166.064C131.108 166.435 131.404 166.758 131.754 167.015C132.104 167.272 132.501 167.457 132.922 167.56H133.729C134.462 167.558 135.174 167.311 135.751 166.86C136.329 166.408 136.74 165.777 136.919 165.067L149.532 114.43C149.71 113.595 149.557 112.723 149.106 111.999C148.655 111.274 147.94 110.752 147.112 110.543Z" fill="#3E71FC"/>
</g>
</g>
<defs>
<linearGradient id="paint0_linear_985_4581" x1="140" y1="0" x2="140" y2="280" gradientUnits="userSpaceOnUse">
<stop stop-color="white"/>
<stop offset="1" stop-color="white" stop-opacity="0.15"/>
</linearGradient>
<clipPath id="clip0_985_4581">
<rect width="280" height="280" rx="140" fill="white"/>
</clipPath>
<clipPath id="clip1_985_4581">
<rect width="132" height="132" fill="white" transform="translate(74 74.5)"/>
</clipPath>
</defs>
</svg>