<svg xmlns="http://www.w3.org/2000/svg" fill="none" viewBox="0 0 280 280"><g clip-path="url(#a)"><path fill="#d7d9da" d="M42.8 40.4V26.7q0-9-4.5-14.3l1.2-1-1.2 1a22 22 0 0 0-4.8-4.5V8l-.8.3q-2.4 1.2-5.1 1.9h-.2a3 3 0 0 1-3.6-3v-4A3 3 0 0 1 27.6.5q2.8.7 5.2 2l.7.3q2.7-1.7 4.8-4.2 4.5-5.5 4.5-14.7V-30a20 20 0 0 1 4.7-13.8l1.1 1-1.1-1q5-5.3 12.8-5.3h5v3h-5q-6.6 0-10.6 4.4a17 17 0 0 0-4 11.7v13.7q0 10.1-5 16.6-2.5 3-5.6 5 3.1 2 5.5 5l.3.5a25 25 0 0 1 4.9 15.8v13.7q0 8 3.9 12 4 4 10.6 4.1h5v3h-5a17 17 0 0 1-12.8-5 20 20 0 0 1-4.7-14.1m-16-33.1q2.8-.8 5.3-2-2.5-1.2-5.3-2zM110.6 40.4V26.7q0-9-4.4-14.3l1.1-1-1.2 1a22 22 0 0 0-4.7-4.5l-.1.1-.7.3q-2.5 1.2-5.2 1.9h-.2a3 3 0 0 1-3.5-3v-4A3 3 0 0 1 95.5.5q2.7.7 5.1 2l.7.3h.1q2.7-1.7 4.8-4.2 4.4-5.5 4.4-14.7V-30a20 20 0 0 1 4.7-13.8l1.2 1-1.2-1q5.1-5.3 12.8-5.3h5v3h-5q-6.6 0-10.5 4.3a17 17 0 0 0-4 11.8v13.7q0 10-5.1 16.6-2.4 3-5.6 5 3.2 2 5.6 5l.3.5a25 25 0 0 1 4.8 15.8v13.7q0 8 4 12 3.8 4 10.5 4.1h5v3h-5q-7.7 0-12.7-5a20 20 0 0 1-4.8-14.1m-16-33.1q3-.8 5.3-2-2.5-1.2-5.2-2zM42.8 175.3v-13.7q0-9-4.5-14.3l1.2-1-1.2 1a22 22 0 0 0-4.8-4.5v.1l-.8.3q-2.4 1.2-5.1 1.9h-.2a3 3 0 0 1-3.6-3v-4a3 3 0 0 1 3.8-2.8q2.8.7 5.2 2l.7.3q2.7-1.7 4.8-4.2 4.5-5.5 4.5-14.7V105a20 20 0 0 1 4.7-13.8l1.1 1-1.1-1q5-5.3 12.8-5.3h5v3h-5q-6.6 0-10.6 4.4a17 17 0 0 0-4 11.7v13.7q0 10.1-5 16.6-2.5 3-5.6 5 3.1 2 5.5 5l.3.5a25 25 0 0 1 4.9 15.8v13.7q0 8 3.9 12 4 4 10.6 4.1h5v3h-5q-7.7 0-12.7-5a20 20 0 0 1-4.8-14.1m-16-33.1q2.8-.8 5.3-2-2.5-1.2-5.3-2zM110.6 175.3v-13.7q0-9-4.4-14.3l1.1-1-1.2 1a22 22 0 0 0-4.7-4.5l-.1.1-.7.3q-2.5 1.2-5.2 1.9h-.2a3 3 0 0 1-3.5-3v-4a3 3 0 0 1 3.8-2.8q2.7.7 5.1 2l.7.3h.1q2.7-1.7 4.8-4.2 4.4-5.5 4.4-14.7V105a20 20 0 0 1 4.7-13.8l1.2 1-1.2-1q5.1-5.3 12.8-5.3h5v3h-5q-6.6 0-10.5 4.4a17 17 0 0 0-4 11.7v13.7q0 10.1-5.1 16.6-2.4 3-5.6 5 3.2 2 5.6 5l.3.5a25 25 0 0 1 4.8 15.8v13.7q0 8 4 12 3.8 4 10.5 4.1h5v3h-5q-7.7 0-12.7-5a20 20 0 0 1-4.8-14.1m-16-33.1q3-.8 5.3-2-2.4-1.2-5.2-2zM42.8 310.2v-13.7q0-9-4.5-14.3l1.2-1-1.2 1a22 22 0 0 0-4.8-4.4l-.8.3q-2.4 1.2-5.1 1.9h-.2a3 3 0 0 1-3.6-3v-4a3 3 0 0 1 3.8-2.8q2.8.7 5.2 2l.7.3q2.7-1.6 4.8-4.2 4.5-5.5 4.5-14.7V240a20 20 0 0 1 4.7-13.9l1.1 1-1.1-1q5-5.3 12.8-5.3h5v3h-5q-6.6 0-10.6 4.4a17 17 0 0 0-4 11.8v13.6q0 10.1-5 16.6-2.5 3-5.6 5 3.1 2 5.5 5l.3.5a25 25 0 0 1 4.9 15.8v13.7q0 8 3.9 12 4 4.2 10.6 4.1h5v3h-5q-7.7 0-12.7-5a20 20 0 0 1-4.8-14.1m-16-33.1a26 26 0 0 0 5.3-2q-2.5-1.2-5.3-2zM110.6 310.2v-13.7a22 22 0 0 0-4.5-14.3l1.2-1-1.2 1a22 22 0 0 0-4.7-4.4h-.1l-.7.3q-2.5 1.2-5.2 1.9h-.2a3 3 0 0 1-3.5-3v-4a3 3 0 0 1 3.8-2.8q2.7.7 5.1 2l.7.3h.1q2.7-1.7 4.8-4.2 4.4-5.5 4.4-14.7V240a20 20 0 0 1 4.7-13.9l1.2 1-1.2-1q5.1-5.3 12.8-5.3h5v3h-5q-6.6 0-10.5 4.4a17 17 0 0 0-4 11.8v13.6q0 10.1-5.1 16.6-2.5 3-5.6 5 3.1 2 5.6 5l.3.5a25 25 0 0 1 4.8 15.8v13.7q0 8 4 12 3.8 4.2 10.5 4.1h5v3h-5q-7.7 0-12.7-5a20 20 0 0 1-4.8-14.1m-16-33.1q3-.8 5.3-2-2.5-1.2-5.2-2zM238.1 40.4V26.7q0-9 4.5-14.3l-1.2-1 1.2 1a22 22 0 0 1 4.8-4.5l.1.1.7.3q2.4 1.2 5.2 1.9h.1a3 3 0 0 0 3.6-3v-4a3 3 0 0 0-3.8-2.8q-2.7.7-5.2 2l-.7.3a21 21 0 0 1-4.8-4.2q-4.5-5.5-4.5-14.7V-30a20 20 0 0 0-4.7-13.8l-1.1 1 1.1-1a17 17 0 0 0-12.8-5.3h-5v3h5q6.7 0 10.6 4.3a17 17 0 0 1 4 11.8v13.7q0 10 5 16.6 2.6 3 5.6 5a25 25 0 0 0-5.5 5l-.3.5a25 25 0 0 0-4.9 15.8v13.7q0 8-3.9 12-4 4-10.6 4.1h-5v3h5q7.8 0 12.8-5a20 20 0 0 0 4.7-14.1m16-33.1a26 26 0 0 1-5.3-2q2.5-1.2 5.3-2zM170.3 40.4V26.7q0-9 4.5-14.3l-1.2-1 1.2 1a22 22 0 0 1 4.7-4.5l.2.1.6.3q2.5 1.2 5.2 1.9h.2a3 3 0 0 0 3.5-3v-4a3 3 0 0 0-3.8-2.8q-2.7.7-5.1 2l-.7.3h-.1a21 21 0 0 1-4.7-4.2q-4.5-5.5-4.5-14.7V-30a20 20 0 0 0-4.7-13.8l-1.2 1 1.2-1a17 17 0 0 0-12.8-5.3h-5v3h5q6.6 0 10.5 4.4a17 17 0 0 1 4 11.7v13.7q0 10.1 5.1 16.6 2.5 3 5.6 5a25 25 0 0 0-5.6 5l-.3.5a25 25 0 0 0-4.8 15.8v13.7q0 8-4 12-3.8 4-10.5 4.1h-5v3h5q7.7 0 12.7-5a20 20 0 0 0 4.8-14.1m16-33.1q-3-.8-5.3-2 2.4-1.2 5.2-2zM238.1 175.3v-13.7q0-9 4.5-14.3l-1.2-1 1.2 1a22 22 0 0 1 4.8-4.5l.1.1.7.3q2.4 1.2 5.1 1.9h.2a3 3 0 0 0 3.6-3v-4a3 3 0 0 0-3.8-2.8q-2.7.7-5.2 2l-.7.3a21 21 0 0 1-4.8-4.2q-4.5-5.5-4.5-14.7V105a20 20 0 0 0-4.7-13.8l-1.1 1 1.1-1a17 17 0 0 0-12.8-5.3h-5v3h5q6.7 0 10.6 4.4a17 17 0 0 1 4 11.7v13.7q0 10.1 5 16.6 2.6 3 5.6 5a25 25 0 0 0-5.5 5l-.3.5a25 25 0 0 0-4.9 15.8v13.7q0 8-3.9 12-4 4-10.6 4.1h-5v3h5q7.8 0 12.8-5a20 20 0 0 0 4.7-14.1m16-33.1q-2.8-.8-5.3-2 2.5-1.2 5.3-2zM170.3 175.3v-13.7q0-9 4.5-14.3l-1.2-1 1.2 1a22 22 0 0 1 4.7-4.5l.2.1.6.3q2.5 1.2 5.2 1.9h.2a3 3 0 0 0 3.5-3v-4a3 3 0 0 0-3.8-2.8q-2.7.7-5.1 2l-.7.3h-.1a21 21 0 0 1-4.7-4.2q-4.5-5.5-4.5-14.7V105a20 20 0 0 0-4.7-13.8l-1.2 1 1.2-1a17 17 0 0 0-12.8-5.3h-5v3h5q6.6 0 10.5 4.4a17 17 0 0 1 4 11.7v13.7q0 10.1 5.1 16.6 2.5 3 5.6 5a25 25 0 0 0-5.6 5l-.3.5a25 25 0 0 0-4.8 15.8v13.7q0 8-4 12-3.8 4-10.5 4.1h-5v3h5q7.7 0 12.7-5a20 20 0 0 0 4.8-14.1m16-33.1q-3-.8-5.3-2 2.4-1.2 5.2-2zM238.1 310.2v-13.7a22 22 0 0 1 4.5-14.3l-1.2-1 1.2 1a22 22 0 0 1 4.8-4.5v.1l.8.3q2.4 1.2 5.1 1.9h.2a3 3 0 0 0 3.6-3v-4a3 3 0 0 0-3.8-2.8q-2.7.7-5.2 2l-.7.3a21 21 0 0 1-4.8-4.2q-4.5-5.5-4.5-14.7V240a20 20 0 0 0-4.7-13.9l-1.1 1 1.1-1a17 17 0 0 0-12.8-5.3h-5v3h5q6.6 0 10.6 4.4a17 17 0 0 1 4 11.8v13.6q0 10.1 5 16.6 2.6 3 5.6 5a25 25 0 0 0-5.5 5l-.3.5a25 25 0 0 0-4.9 15.8v13.7q0 8-3.9 12-4 4-10.6 4.1h-5v3h5q7.8 0 12.7-5a20 20 0 0 0 4.8-14.1m16-33.1a26 26 0 0 1-5.3-2q2.5-1.2 5.3-2zM170.3 310.2v-13.7a22 22 0 0 1 4.5-14.3l-1.2-1 1.2 1a22 22 0 0 1 4.7-4.4h.2l.6.3q2.5 1.2 5.2 1.9h.2a3 3 0 0 0 3.5-3v-4a3 3 0 0 0-3.8-2.8q-2.7.7-5.1 2l-.7.3h-.1a21 21 0 0 1-4.7-4.2q-4.5-5.5-4.5-14.7V240a20 20 0 0 0-4.7-13.9l-1.2 1 1.2-1a17 17 0 0 0-12.8-5.3h-5v3h5q6.6 0 10.5 4.4a17 17 0 0 1 4 11.8v13.6q0 10.1 5.1 16.6 2.5 3 5.6 5a25 25 0 0 0-5.6 5l-.3.5a25 25 0 0 0-4.8 15.8v13.7q0 8-4 12-3.8 4.2-10.5 4.1h-5v3h5q7.7 0 12.7-5a20 20 0 0 0 4.8-14.1m16-33.1a26 26 0 0 1-5.3-2q2.5-1.2 5.2-2z"/><circle cx="140" cy="140" r="139.5" fill="url(#b)" fill-opacity=".6" stroke="#b5b4b3" opacity=".5"/><path fill="url(#c)" d="M140.5 107.8c-35.4 0-64.1 14.5-64.1 32.5s28.7 32.5 64.1 32.5c35.5 0 64.2-14.6 64.2-32.5 0-18-28.7-32.5-64.2-32.5m-16.7 38.8c-1.5 1.4-3.2 2-5 2.6-2 .7-4.3.5-7.2.5H105l-1.8 10.5h-7.7l6.9-35.7H117q6.7 0 9.7 3.6t1.9 9.8a16 16 0 0 1-4.9 8.7m22.4 3.1 3-15.1q.6-2.7-.3-3.8-1-1-3.8-1H139l-4 20h-7.6l6.9-34.7h7.6l-1.8 9.4h6.8q6.3 0 8.8 2.4 2.3 2 1.4 6.8l-3.1 16zm42.3-11.7a16 16 0 0 1-4.8 8.6c-1.5 1.4-3.2 2-5.1 2.6s-4.3.5-7.2.5H165l-1.8 10.5h-7.7l6.8-35.7H177q6.6 0 9.7 3.6t1.8 9.9m-14.4-8.2h-5.3l-2.9 14.7h4.7q4.6.1 7-1.5 2.2-1.7 3-5.7t-.7-5.7-5.8-1.8m-59.9 0H109l-2.9 14.7h4.7q4.6.1 6.9-1.5 2.2-1.7 3-5.7t-.7-5.7-5.8-1.8"/><path fill="#eae8e5" d="M123.8 146.6q-2.3 1.9-5 2.6c-2 .7-4.3.5-7.2.5H105l-1.8 10.5h-7.7l6.9-35.7H117q6.7 0 9.7 3.6t1.9 9.8a16 16 0 0 1-4.9 8.7m22.4 3.1 3-15.1q.6-2.7-.3-3.8-1-1-3.8-1H139l-4 20h-7.6l6.9-34.7h7.6l-1.8 9.4h6.8q6.3 0 8.8 2.4 2.3 2 1.4 6.8l-3.1 16zm42.3-11.7a16 16 0 0 1-4.8 8.6q-2.2 1.9-5.1 2.6c-1.9.7-4.3.5-7.2.5H165l-1.8 10.5h-7.7l6.8-35.7H177q6.6 0 9.7 3.6t1.8 9.9m-14.4-8.2h-5.3l-2.9 14.7h4.7q4.6.2 7-1.5 2.2-1.7 3-5.7t-.7-5.7-5.8-1.8m-59.9 0H109l-2.9 14.7h4.7q4.6.2 6.9-1.5 2.2-1.7 3-5.7t-.7-5.7-5.8-1.8"/></g><defs><linearGradient id="b" x1="140" x2="140" y1="0" y2="280" gradientUnits="userSpaceOnUse"><stop stop-color="#fff"/><stop offset="1" stop-color="#fff" stop-opacity=".1"/></linearGradient><linearGradient id="c" x1="140.5" x2="140.5" y1="107.8" y2="172.8" gradientUnits="userSpaceOnUse"><stop stop-color="#777bb3"/><stop offset="1" stop-color="#6469b5"/></linearGradient><clipPath id="a"><rect width="280" height="280" fill="#fff" rx="140"/></clipPath></defs></svg>
