<svg width="280" height="280" viewBox="0 0 280 280" fill="none" xmlns="http://www.w3.org/2000/svg">
<g clip-path="url(#clip0_985_4565)">
<path d="M25.9102 2.06555C26.2828 1.78212 26.7665 1.68895 27.2178 1.8136C29.1938 2.36016 31.0448 3.08404 32.7656 3.9884C33.2636 4.25009 33.5729 4.7687 33.5674 5.33118C33.5619 5.89366 33.2422 6.40544 32.7393 6.65735C31.0168 7.52005 29.1657 8.20259 27.1895 8.70715C26.7408 8.82169 26.2642 8.72253 25.8984 8.4386C25.5326 8.15444 25.3184 7.71627 25.3184 7.25305V3.25989C25.3184 2.79143 25.5374 2.34923 25.9102 2.06555Z" stroke="#D7D9DA" stroke-width="3" stroke-linejoin="round"/>
<path d="M93.7559 2.06262C94.1285 1.77919 94.6122 1.68602 95.0635 1.81067C97.0395 2.35723 98.8905 3.08111 100.611 3.98547C101.109 4.24716 101.419 4.76577 101.413 5.32825C101.408 5.89073 101.088 6.40251 100.585 6.65442C98.8625 7.51712 97.0114 8.19966 95.0352 8.70422C94.5865 8.81876 94.1099 8.7196 93.7441 8.43567C93.3783 8.15151 93.1641 7.71334 93.1641 7.25012V3.25696C93.1641 2.7885 93.3831 2.3463 93.7559 2.06262Z" stroke="#D7D9DA" stroke-width="3" stroke-linejoin="round"/>
<path d="M25.9102 136.971C26.2828 136.687 26.7665 136.594 27.2178 136.719C29.1938 137.265 31.0448 137.989 32.7656 138.894C33.2636 139.155 33.5729 139.674 33.5674 140.236C33.5619 140.799 33.2422 141.311 32.7393 141.563C31.0168 142.425 29.1657 143.108 27.1895 143.612C26.7408 143.727 26.2642 143.628 25.8984 143.344C25.5326 143.06 25.3184 142.622 25.3184 142.158V138.165C25.3184 137.697 25.5374 137.255 25.9102 136.971Z" stroke="#D7D9DA" stroke-width="3" stroke-linejoin="round"/>
<path d="M93.7539 136.972C94.1265 136.688 94.6103 136.595 95.0615 136.72C97.0376 137.266 98.8885 137.99 100.609 138.895C101.107 139.156 101.417 139.675 101.411 140.237C101.406 140.8 101.086 141.312 100.583 141.564C98.8605 142.426 97.0094 143.109 95.0332 143.613C94.5845 143.728 94.108 143.629 93.7422 143.345C93.3764 143.061 93.1621 142.623 93.1621 142.159V138.166C93.1621 137.698 93.3811 137.255 93.7539 136.972Z" stroke="#D7D9DA" stroke-width="3" stroke-linejoin="round"/>
<path d="M25.9102 271.881C26.2828 271.598 26.7665 271.504 27.2178 271.629C29.1938 272.176 31.0448 272.899 32.7656 273.804C33.2636 274.066 33.5729 274.584 33.5674 275.147C33.5619 275.709 33.2422 276.221 32.7393 276.473C31.0168 277.335 29.1657 278.018 27.1895 278.523C26.7408 278.637 26.2642 278.538 25.8984 278.254C25.5326 277.97 25.3184 277.532 25.3184 277.068V273.075C25.3184 272.607 25.5374 272.165 25.9102 271.881Z" stroke="#D7D9DA" stroke-width="3" stroke-linejoin="round"/>
<path d="M93.75 271.879C94.1226 271.596 94.6064 271.502 95.0576 271.627C97.0336 272.174 98.8846 272.898 100.605 273.802C101.103 274.064 101.413 274.582 101.407 275.145C101.402 275.707 101.082 276.219 100.579 276.471C98.8566 277.334 97.0055 278.016 95.0293 278.521C94.5806 278.635 94.104 278.536 93.7383 278.252C93.3725 277.968 93.1582 277.53 93.1582 277.067V273.073C93.1582 272.605 93.3772 272.163 93.75 271.879Z" stroke="#D7D9DA" stroke-width="3" stroke-linejoin="round"/>
<path d="M255 2.06348C254.627 1.78005 254.144 1.68687 253.692 1.81152C251.716 2.35809 249.865 3.08197 248.145 3.98633C247.647 4.24801 247.337 4.76662 247.343 5.3291C247.348 5.89159 247.668 6.40336 248.171 6.65527C249.893 7.51798 251.745 8.20052 253.721 8.70508C254.169 8.81962 254.646 8.72045 255.012 8.43652C255.378 8.15237 255.592 7.7142 255.592 7.25098V3.25781C255.592 2.78936 255.373 2.34716 255 2.06348Z" stroke="#D7D9DA" stroke-width="3" stroke-linejoin="round"/>
<path d="M187.152 2.06543C186.78 1.782 186.296 1.68883 185.845 1.81348C183.869 2.36004 182.018 3.08392 180.297 3.98828C179.799 4.24997 179.49 4.76858 179.495 5.33105C179.501 5.89354 179.82 6.40532 180.323 6.65723C182.046 7.51993 183.897 8.20247 185.873 8.70703C186.322 8.82157 186.798 8.7224 187.164 8.43848C187.53 8.15432 187.744 7.71615 187.744 7.25293V3.25977C187.744 2.79131 187.525 2.34911 187.152 2.06543Z" stroke="#D7D9DA" stroke-width="3" stroke-linejoin="round"/>
<path d="M254.998 136.97C254.625 136.686 254.142 136.593 253.69 136.718C251.714 137.264 249.863 137.988 248.143 138.893C247.645 139.154 247.335 139.673 247.341 140.235C247.346 140.798 247.666 141.31 248.169 141.562C249.891 142.424 251.743 143.107 253.719 143.611C254.167 143.726 254.644 143.627 255.01 143.343C255.376 143.059 255.59 142.62 255.59 142.157V138.164C255.59 137.696 255.371 137.253 254.998 136.97Z" stroke="#D7D9DA" stroke-width="3" stroke-linejoin="round"/>
<path d="M187.154 136.972C186.782 136.688 186.298 136.595 185.847 136.72C183.871 137.266 182.02 137.99 180.299 138.895C179.801 139.156 179.492 139.675 179.497 140.237C179.503 140.8 179.822 141.312 180.325 141.563C182.048 142.426 183.899 143.109 185.875 143.613C186.324 143.728 186.8 143.629 187.166 143.345C187.532 143.061 187.746 142.622 187.746 142.159V138.166C187.746 137.698 187.527 137.255 187.154 136.972Z" stroke="#D7D9DA" stroke-width="3" stroke-linejoin="round"/>
<path d="M254.996 271.876C254.623 271.593 254.14 271.499 253.688 271.624C251.712 272.171 249.861 272.894 248.141 273.799C247.643 274.061 247.333 274.579 247.339 275.142C247.344 275.704 247.664 276.216 248.167 276.468C249.889 277.33 251.741 278.013 253.717 278.518C254.165 278.632 254.642 278.533 255.008 278.249C255.374 277.965 255.588 277.527 255.588 277.063V273.07C255.588 272.602 255.369 272.16 254.996 271.876Z" stroke="#D7D9DA" stroke-width="3" stroke-linejoin="round"/>
<path d="M187.156 271.879C186.784 271.595 186.3 271.502 185.849 271.627C183.873 272.174 182.022 272.897 180.301 273.802C179.803 274.063 179.494 274.582 179.499 275.145C179.505 275.707 179.824 276.219 180.327 276.471C182.05 277.333 183.901 278.016 185.877 278.521C186.326 278.635 186.802 278.536 187.168 278.252C187.534 277.968 187.748 277.53 187.748 277.066V273.073C187.748 272.605 187.529 272.163 187.156 271.879Z" stroke="#D7D9DA" stroke-width="3" stroke-linejoin="round"/>
<circle opacity="0.5" cx="140" cy="140" r="139.5" fill="url(#paint0_linear_985_4565)" fill-opacity="0.6" stroke="#B5B4B3"/>
<path d="M140.548 107.752C105.11 107.752 76.3809 122.312 76.3809 140.273C76.3809 158.234 105.11 172.794 140.548 172.794C175.985 172.794 204.714 158.234 204.714 140.273C204.714 122.312 175.985 107.752 140.548 107.752ZM123.841 146.608C122.313 148.043 120.609 148.632 118.737 149.239C116.87 149.851 114.478 149.729 111.585 149.729H105.023L103.203 160.229H95.5375L102.374 124.517H117.121C121.554 124.517 124.792 125.794 126.828 128.122C128.858 130.455 129.47 133.757 128.659 137.928C128.35 139.588 127.779 141.189 126.968 142.67C126.141 144.141 125.086 145.47 123.841 146.608ZM146.229 149.723L149.251 134.579C149.601 132.806 149.473 131.488 148.872 130.846C148.277 130.204 147.005 129.773 145.057 129.773H138.973L135.058 149.723H127.446L134.288 115.067H141.901L140.081 124.517H146.859C151.118 124.517 154.063 125.374 155.679 126.862C157.301 128.349 157.785 130.385 157.138 133.716L153.953 149.729H146.223L146.229 149.723ZM188.509 137.986C188.2 139.637 187.629 141.229 186.818 142.699C185.993 144.161 184.939 145.48 183.697 146.608C182.163 148.043 180.465 148.632 178.593 149.239C176.72 149.851 174.334 149.729 171.435 149.729H164.867L163.053 160.229H155.382L162.224 124.517H176.971C181.404 124.517 184.642 125.794 186.678 128.122C188.708 130.455 189.32 133.815 188.509 137.98V137.986ZM174.066 129.767H168.816L165.946 144.473H170.613C173.704 144.473 176.008 144.169 177.519 143.003C179.036 141.836 180.057 140.034 180.588 137.309C181.095 134.696 180.862 132.654 179.888 131.575C178.919 130.502 176.977 129.767 174.066 129.767ZM114.216 129.767H108.966L106.102 144.473H110.768C113.86 144.473 116.158 144.169 117.675 143.003C119.192 141.836 120.207 140.034 120.738 137.309C121.245 134.696 121.018 132.654 120.043 131.575C119.075 130.502 117.127 129.767 114.216 129.767Z" fill="url(#paint1_linear_985_4565)"/>
<path d="M123.84 146.607C122.312 148.042 120.609 148.631 118.736 149.238C116.87 149.851 114.478 149.728 111.585 149.728H105.022L103.202 160.228H95.5371L102.374 124.516H117.12C121.554 124.516 124.791 125.794 126.827 128.121C128.857 130.455 129.47 133.756 128.659 137.927C128.35 139.588 127.779 141.189 126.967 142.67C126.141 144.14 125.085 145.469 123.84 146.607ZM146.229 149.722L149.25 134.579C149.6 132.806 149.472 131.487 148.871 130.846C148.276 130.204 147.005 129.772 145.056 129.772H138.972L135.058 149.722H127.445L134.288 115.066H141.9L140.08 124.516H146.859C151.117 124.516 154.063 125.374 155.679 126.861C157.3 128.349 157.785 130.385 157.137 133.716L153.952 149.728H146.223L146.229 149.722ZM188.509 137.986C188.2 139.637 187.629 141.228 186.817 142.699C185.992 144.16 184.939 145.48 183.696 146.607C182.162 148.042 180.465 148.631 178.592 149.238C176.72 149.851 174.334 149.728 171.435 149.728H164.866L163.052 160.228H155.381L162.224 124.516H176.97C181.404 124.516 184.641 125.794 186.677 128.121C188.707 130.455 189.32 133.815 188.509 137.98V137.986ZM174.065 129.766H168.815L165.945 144.472H170.612C173.704 144.472 176.008 144.169 177.519 143.002C179.035 141.836 180.056 140.033 180.587 137.309C181.095 134.696 180.861 132.654 179.887 131.575C178.919 130.501 176.976 129.766 174.065 129.766ZM114.215 129.766H108.965L106.101 144.472H110.768C113.86 144.472 116.158 144.169 117.675 143.002C119.191 141.836 120.206 140.033 120.737 137.309C121.245 134.696 121.017 132.654 120.043 131.575C119.075 130.501 117.126 129.766 114.215 129.766Z" fill="#EAE8E5"/>
</g>
<defs>
<linearGradient id="paint0_linear_985_4565" x1="140" y1="0" x2="140" y2="280" gradientUnits="userSpaceOnUse">
<stop stop-color="white"/>
<stop offset="1" stop-color="white" stop-opacity="0.15"/>
</linearGradient>
<linearGradient id="paint1_linear_985_4565" x1="140.548" y1="107.752" x2="140.548" y2="172.794" gradientUnits="userSpaceOnUse">
<stop stop-color="#777BB3"/>
<stop offset="1" stop-color="#6469B5"/>
</linearGradient>
<clipPath id="clip0_985_4565">
<rect width="280" height="280" rx="140" fill="white"/>
</clipPath>
</defs>
</svg>