<svg width="280" height="280" viewBox="0 0 280 280" fill="none" xmlns="http://www.w3.org/2000/svg">
<g clip-path="url(#clip0_985_4597)">
<circle opacity="0.5" cx="140" cy="140" r="139.5" fill="url(#paint0_linear_985_4597)" fill-opacity="0.6" stroke="#B5B4B3"/>
<path d="M269.232 -47.0431L260.572 -38.3828L269.232 -29.7226L277.893 -38.3828L269.232 -47.0431ZM269.232 6.55467L270.293 7.61532L270.732 7.17599L270.732 6.55467L269.232 6.55467ZM217.821 57.9662L217.821 59.4662L218.442 59.4662L218.882 59.0269L217.821 57.9662ZM101.387 57.9662L110.047 66.6265L118.707 57.9662L110.047 49.306L101.387 57.9662ZM267.732 -38.3828L267.732 6.55467L270.732 6.55467L270.732 -38.3828L267.732 -38.3828ZM268.172 5.49401L216.76 56.9056L218.882 59.0269L270.293 7.61532L268.172 5.49401ZM217.821 56.4662L110.047 56.4662L110.047 59.4662L217.821 59.4662L217.821 56.4662Z" fill="#D7D9DA"/>
<path d="M200.691 114.808L192.031 123.468L200.691 132.128L209.352 123.468L200.691 114.808ZM200.691 168.405L201.752 169.466L202.191 169.027V168.405H200.691ZM149.28 219.817V221.317H149.901L150.34 220.877L149.28 219.817ZM32.8456 219.817L41.5059 228.477L50.1661 219.817L41.5059 211.157L32.8456 219.817ZM199.191 123.468V168.405H202.191V123.468H199.191ZM199.631 167.345L148.219 218.756L150.34 220.877L201.752 169.466L199.631 167.345ZM149.28 218.317H41.5059V221.317H149.28V218.317Z" fill="#D7D9DA"/>
<path d="M-76.5547 -0.202274L-67.8945 8.45798L-76.5547 17.1182L-85.215 8.45798L-76.5547 -0.202274ZM-76.5547 53.3955L-77.6154 54.4561L-78.0547 54.0168L-78.0547 53.3955L-76.5547 53.3955ZM-25.1431 104.807L-25.1431 106.307L-25.7644 106.307L-26.2038 105.868L-25.1431 104.807ZM91.2911 104.807L82.6308 113.467L73.9706 104.807L82.6308 96.1468L91.2911 104.807ZM-75.0547 8.45798L-75.0547 53.3955L-78.0547 53.3955L-78.0547 8.45798L-75.0547 8.45798ZM-75.4941 52.3348L-24.0825 103.746L-26.2038 105.868L-77.6154 54.4561L-75.4941 52.3348ZM-25.1431 103.307L82.6308 103.307L82.6308 106.307L-25.1431 106.307L-25.1431 103.307Z" fill="#D7D9DA"/>
<path d="M-76.5547 250.568L-67.8945 241.907L-76.5547 233.247L-85.215 241.907L-76.5547 250.568ZM-76.5547 196.97L-77.6154 195.909L-78.0547 196.348L-78.0547 196.97L-76.5547 196.97ZM-25.1431 145.558L-25.1431 144.058L-25.7644 144.058L-26.2038 144.498L-25.1431 145.558ZM91.2911 145.558L82.6308 136.898L73.9706 145.558L82.6308 154.218L91.2911 145.558ZM-75.0547 241.907L-75.0547 196.97L-78.0547 196.97L-78.0547 241.907L-75.0547 241.907ZM-75.4941 198.03L-24.0825 146.619L-26.2038 144.498L-77.6154 195.909L-75.4941 198.03ZM-25.1431 147.058L82.6308 147.058L82.6308 144.058L-25.1431 144.058L-25.1431 147.058Z" fill="#D7D9DA"/>
<path d="M-49.2032 358.632L-40.543 349.971L-31.8827 358.632L-40.543 367.292L-49.2032 358.632ZM4.39458 358.632L5.45524 359.692L5.0159 360.132L4.39458 360.132L4.39458 358.632ZM55.8062 307.22L57.3062 307.22L57.3062 307.841L56.8668 308.281L55.8062 307.22ZM55.8062 190.786L64.4664 199.446L55.8062 208.107L47.1459 199.446L55.8062 190.786ZM-40.543 357.132L4.39458 357.132L4.39458 360.132L-40.543 360.132L-40.543 357.132ZM3.33392 357.571L54.7455 306.159L56.8668 308.281L5.45524 359.692L3.33392 357.571ZM54.3062 307.22L54.3062 199.446L57.3062 199.446L57.3062 307.22L54.3062 307.22Z" fill="#D7D9DA"/>
<path d="M353.49 136.895L344.83 145.556L353.49 154.216L362.151 145.556L353.49 136.895ZM353.49 190.493L354.551 191.554L354.99 191.114V190.493H353.49ZM302.079 241.905V243.405H302.7L303.139 242.965L302.079 241.905ZM185.644 241.905L194.305 250.565L202.965 241.905L194.305 233.244L185.644 241.905ZM351.99 145.556V190.493H354.99V145.556H351.99ZM352.43 189.433L301.018 240.844L303.139 242.965L354.551 191.554L352.43 189.433ZM302.079 240.405H194.305V243.405H302.079V240.405Z" fill="#D7D9DA"/>
<path d="M383.49 108.518L374.83 99.8574L383.49 91.1972L392.151 99.8575L383.49 108.518ZM383.49 54.9199L384.551 53.8593L384.99 54.2986L384.99 54.9199L383.49 54.9199ZM332.079 3.50838L332.079 2.00838L332.7 2.00838L333.139 2.44772L332.079 3.50838ZM215.644 3.50836L224.305 -5.15189L232.965 3.50836L224.305 12.1686L215.644 3.50836ZM381.99 99.8574L381.99 54.9199L384.99 54.9199L384.99 99.8574L381.99 99.8574ZM382.43 55.9806L331.018 4.56904L333.139 2.44772L384.551 53.8593L382.43 55.9806ZM332.079 5.00838L224.305 5.00836L224.305 2.00836L332.079 2.00838L332.079 5.00838Z" fill="#D7D9DA"/>
<path d="M46.0918 136.895L37.4316 145.556L46.0918 154.216L54.7521 145.556L46.0918 136.895ZM46.0918 190.493L47.1525 191.554L47.5918 191.114V190.493H46.0918ZM-5.31978 241.905V243.405H-4.69846L-4.25912 242.965L-5.31978 241.905ZM-121.754 241.905L-113.094 250.565L-104.433 241.905L-113.094 233.244L-121.754 241.905ZM44.5918 145.556V190.493H47.5918V145.556H44.5918ZM45.0312 189.433L-6.38044 240.844L-4.25912 242.965L47.1525 191.554L45.0312 189.433ZM-5.31978 240.405H-113.094V243.405H-5.31978V240.405Z" fill="#D7D9DA"/>
<path d="M7.25979 78.4279L-1.40045 69.7676L7.2598 61.1074L15.92 69.7676L7.25979 78.4279ZM7.2598 24.8301L8.32046 23.7694L8.7598 24.2088L8.7598 24.8301L7.2598 24.8301ZM-44.1518 -26.5815L-44.1518 -28.0815L-43.5305 -28.0815L-43.0911 -27.6421L-44.1518 -26.5815ZM-160.586 -26.5815L-151.926 -35.2417L-143.266 -26.5815L-151.926 -17.9212L-160.586 -26.5815ZM5.7598 69.7676L5.7598 24.8301L8.7598 24.8301L8.7598 69.7676L5.7598 69.7676ZM6.19915 25.8908L-45.2125 -25.5208L-43.0911 -27.6421L8.32046 23.7694L6.19915 25.8908ZM-44.1518 -25.0815L-151.926 -25.0815L-151.926 -28.0815L-44.1518 -28.0815L-44.1518 -25.0815Z" fill="#D7D9DA"/>
<path d="M82.6308 165.079L91.2911 173.739L82.6308 182.399L73.9706 173.739L82.6308 165.079ZM82.6308 218.677L81.5702 219.737L81.1308 219.298L81.1308 218.677L82.6308 218.677ZM134.042 270.088L134.042 271.588L133.421 271.588L132.982 271.149L134.042 270.088ZM250.477 270.088L241.816 278.749L233.156 270.088L241.816 261.428L250.477 270.088ZM84.1308 173.739L84.1308 218.677L81.1308 218.677L81.1308 173.739L84.1308 173.739ZM83.6915 217.616L135.103 269.028L132.982 271.149L81.5702 219.737L83.6915 217.616ZM134.042 268.588L241.816 268.588L241.816 271.588L134.042 271.588L134.042 268.588Z" fill="#D7D9DA"/>
<path d="M82.6308 113.468L91.2911 104.808L82.6308 96.1474L73.9706 104.808L82.6308 113.468ZM82.6308 59.8701L81.5702 58.8095L81.1308 59.2488L81.1308 59.8701L82.6308 59.8701ZM134.042 8.45858L134.042 6.95858L133.421 6.95858L132.982 7.39791L134.042 8.45858ZM250.477 8.45856L241.816 -0.201698L233.156 8.45856L241.816 17.1188L250.477 8.45856ZM84.1308 104.808L84.1308 59.8701L81.1308 59.8701L81.1308 104.808L84.1308 104.808ZM83.6915 60.9308L135.103 9.51924L132.982 7.39791L81.5702 58.8095L83.6915 60.9308ZM134.042 9.95858L241.816 9.95856L241.816 6.95856L134.042 6.95858L134.042 9.95858Z" fill="#D7D9DA"/>
<path d="M303.507 208.296L294.847 199.636L303.507 190.976L312.167 199.636L303.507 208.296ZM303.507 154.876L304.458 153.716L305.007 154.166L305.007 154.876L303.507 154.876ZM241.026 103.668L241.026 102.168L241.562 102.168L241.977 102.507L241.026 103.668ZM101.387 103.667L110.047 95.0072L118.707 103.667L110.047 112.328L101.387 103.667ZM302.007 199.636L302.007 154.876L305.007 154.876L305.007 199.636L302.007 199.636ZM302.556 156.036L240.075 104.828L241.977 102.507L304.458 153.716L302.556 156.036ZM241.026 105.168L110.047 105.167L110.047 102.167L241.026 102.168L241.026 105.168Z" fill="#D7D9DA"/>
<g clip-path="url(#clip1_985_4597)">
<path d="M166.667 130.5V116.233C166.81 109.006 164.085 102.017 159.087 96.7943C154.09 91.5718 147.227 88.5416 140.001 88.3667C132.774 88.5416 125.911 91.5718 120.914 96.7943C115.916 102.017 113.191 109.006 113.334 116.233V130.5H103.334V187.167C103.334 188.935 104.036 190.631 105.287 191.881C106.537 193.131 108.233 193.833 110.001 193.833H170.001C171.769 193.833 173.464 193.131 174.715 191.881C175.965 190.631 176.667 188.935 176.667 187.167V130.5H166.667ZM143.334 164.6V173.833H136.667V164.3C135.044 163.465 133.756 162.1 133.015 160.432C132.275 158.764 132.127 156.893 132.597 155.129C133.066 153.365 134.124 151.815 135.596 150.736C137.067 149.656 138.864 149.112 140.687 149.195C142.51 149.277 144.251 149.98 145.619 151.187C146.988 152.394 147.903 154.033 148.212 155.832C148.521 157.631 148.206 159.481 147.318 161.076C146.431 162.671 145.025 163.914 143.334 164.6ZM160.001 130.5H120.001V116.233C119.857 110.774 121.88 105.48 125.627 101.508C129.375 97.5353 134.542 95.2076 140.001 95.0334C145.459 95.2076 150.626 97.5353 154.374 101.508C158.121 105.48 160.144 110.774 160.001 116.233V130.5Z" fill="url(#paint1_linear_985_4597)"/>
</g>
</g>
<defs>
<linearGradient id="paint0_linear_985_4597" x1="140" y1="0" x2="140" y2="280" gradientUnits="userSpaceOnUse">
<stop stop-color="white"/>
<stop offset="1" stop-color="white" stop-opacity="0.15"/>
</linearGradient>
<linearGradient id="paint1_linear_985_4597" x1="140.001" y1="88.3667" x2="140.001" y2="193.833" gradientUnits="userSpaceOnUse">
<stop stop-color="#0EC48A"/>
<stop offset="1" stop-color="#0CAF7B"/>
</linearGradient>
<clipPath id="clip0_985_4597">
<rect width="280" height="280" rx="140" fill="white"/>
</clipPath>
<clipPath id="clip1_985_4597">
<rect width="120" height="120" fill="white" transform="translate(80 80.5)"/>
</clipPath>
</defs>
</svg>