<svg width="280" height="280" viewBox="0 0 280 280" fill="none" xmlns="http://www.w3.org/2000/svg">
<g clip-path="url(#clip0_985_4589)">
<path d="M-58 39C-58 30.1634 -50.8366 23 -42 23H214C222.837 23 230 30.1634 230 39V113H-58V39Z" stroke="#D7D9DA" stroke-width="3"/>
<path d="M14 75C14 66.1634 21.1634 59 30 59H250C258.837 59 266 66.1634 266 75V113H14V75Z" stroke="#D7D9DA" stroke-width="3"/>
<path d="M-220 113H500" stroke="#D7D9DA" stroke-width="3"/>
<circle cx="194" cy="203" r="6" fill="#D7D9DA"/>
<circle cx="158" cy="203" r="6" fill="#D7D9DA"/>
<circle cx="158" cy="257" r="6" fill="#D7D9DA"/>
<circle cx="194" cy="257" r="6" fill="#D7D9DA"/>
<circle cx="230" cy="257" r="6" fill="#D7D9DA"/>
<circle cx="266" cy="257" r="6" fill="#D7D9DA"/>
<circle cx="122" cy="203" r="6" fill="#D7D9DA"/>
<circle cx="86" cy="203" r="6" fill="#D7D9DA"/>
<circle cx="50" cy="203" r="6" fill="#D7D9DA"/>
<circle cx="14" cy="203" r="6" fill="#D7D9DA"/>
<circle cx="14" cy="113" r="6" fill="#D7D9DA"/>
<circle cx="14" cy="59" r="6" fill="#D7D9DA"/>
<circle cx="86" cy="113" r="6" fill="#D7D9DA"/>
<circle cx="230" cy="113" r="6" fill="#D7D9DA"/>
<circle cx="266" cy="113" r="6" fill="#D7D9DA"/>
<path d="M302 112.5V241C302 249.837 294.837 257 286 257H102C93.1634 257 86 249.837 86 241V203" stroke="#D7D9DA" stroke-width="3"/>
<path d="M230 257H-78C-86.8366 257 -94 249.837 -94 241V112.5" stroke="#D7D9DA" stroke-width="3"/>
<path d="M-58 187C-58 195.837 -50.8366 203 -42 203H214C222.837 203 230 195.837 230 187V113H-58V187Z" stroke="#D7D9DA" stroke-width="3"/>
<circle cx="266" cy="23" r="6" fill="#D7D9DA"/>
<path d="M230 39C230 30.1634 237.163 23 246 23H394C402.837 23 410 30.1634 410 39V113H230V39Z" stroke="#D7D9DA" stroke-width="3"/>
<path d="M-166 75C-166 66.1634 -158.837 59 -150 59H70C78.8366 59 86 66.1634 86 75V113H-166V75Z" stroke="#D7D9DA" stroke-width="3"/>
<circle opacity="0.5" cx="140" cy="140" r="139.5" fill="url(#paint0_linear_985_4589)" fill-opacity="0.6" stroke="#B5B4B3"/>
<path d="M115.121 159.165C113.699 159.069 112.084 158.972 110.252 158.852C109.456 159.84 108.661 160.877 108.661 162.106C108.661 166.566 124.451 166.566 124.451 161.745C124.451 159.744 122.667 159.647 115.097 159.165H115.121ZM117.002 130.743C109.215 130.743 108.878 141.471 116.833 141.471C124.668 141.471 124.475 130.743 117.002 130.743ZM178.571 86H101.429C92.9188 86 86 92.9188 86 101.429V178.571C86 187.081 92.9188 194 101.429 194H178.571C187.081 194 194 187.081 194 178.571V101.429C194 92.9188 187.081 86 178.571 86ZM144.797 119.798C141.302 119.798 139.277 117.773 139.277 114.278C139.277 110.782 141.302 108.902 144.797 108.902C148.341 108.902 150.366 110.782 150.366 114.278C150.366 117.773 148.341 119.798 144.797 119.798ZM122.064 125.295H133.997V130.502L128.356 130.936C129.465 132.334 130.622 134.311 130.622 137.131C130.622 148.871 116.833 148.51 112.735 147.353L110.71 150.583C111.915 150.655 113.072 150.728 114.157 150.776C127.729 151.547 133.563 151.885 133.563 160.057C133.563 167.096 127.368 171.074 116.713 171.074C105.623 171.074 101.404 168.278 101.404 163.432C101.404 160.684 102.634 159.213 104.779 157.188C102.754 156.345 102.079 154.802 102.079 153.138C102.079 150.824 103.863 149.209 107.624 145.762L107.672 145.713C104.683 144.243 102.417 141.061 102.417 136.529C102.417 124.089 116.062 123.679 122.088 125.246L122.064 125.295ZM151.21 151.354L154.344 151.788V156.634H136.89V151.788C137.541 151.692 138.096 151.62 138.554 151.571C140.94 151.282 140.988 151.258 140.988 150.125V132.117C140.988 131.056 140.771 130.984 138.554 130.237C138.096 130.068 137.541 129.899 136.89 129.658L137.565 124.692H150.246V150.125C150.246 151.113 150.294 151.234 151.234 151.354H151.21ZM176.908 148.847L178.571 154.223C175.944 155.525 172.087 156.682 168.591 156.682C161.311 156.682 158.538 153.741 158.538 146.822V130.767C158.538 130.574 158.538 130.429 158.49 130.333C158.297 130.044 157.478 130.164 153.765 130.164V124.716C159.141 124.113 161.287 121.413 161.962 114.736H167.796C167.796 122.763 167.651 123.896 167.964 124.041C168.037 124.065 168.133 124.041 168.278 124.041H176.908V130.164H167.796V144.797C167.796 144.846 167.796 144.918 167.796 145.014C167.747 146.533 167.579 152.343 176.932 148.847H176.908Z" fill="url(#paint1_linear_985_4589)"/>
</g>
<defs>
<linearGradient id="paint0_linear_985_4589" x1="140" y1="0" x2="140" y2="280" gradientUnits="userSpaceOnUse">
<stop stop-color="white"/>
<stop offset="1" stop-color="white" stop-opacity="0.15"/>
</linearGradient>
<linearGradient id="paint1_linear_985_4589" x1="140" y1="86" x2="140" y2="194" gradientUnits="userSpaceOnUse">
<stop stop-color="#F34F29"/>
<stop offset="1" stop-color="#EB431C"/>
</linearGradient>
<clipPath id="clip0_985_4589">
<rect width="280" height="280" rx="140" fill="white"/>
</clipPath>
</defs>
</svg>