<svg width="90" height="48" viewBox="0 0 90 48" fill="none" xmlns="http://www.w3.org/2000/svg">
<g clip-path="url(#clip0_1883_7682)">
<path d="M10.2975 23.9884L0 17.9978V5.99219L10.365 12.0278L10.2994 23.9884H10.2975Z" fill="url(#paint0_linear_1883_7682)"/>
<path d="M20.595 17.9756L0 5.9925L10.2975 0L30.9375 11.9831L20.595 17.9756Z" fill="url(#paint1_linear_1883_7682)"/>
<path d="M10.2975 47.9991L0 42.0066V30.0234L10.275 36.0159L10.2975 47.9991Z" fill="url(#paint2_linear_1883_7682)"/>
<path d="M10.275 36.0134L0 30.0209L10.2975 24.0078L20.6175 30.0209L10.275 36.0134Z" fill="url(#paint3_linear_1883_7682)"/>
<path d="M45.1702 24.3737V30.3419H41.8252V15.0625H51.5508V18.16H45.1702V21.3606H50.5383V24.3756H45.1702V24.3737Z" fill="white"/>
<path d="M53.4502 30.3377V14.7695H56.6302V30.3377H53.4502Z" fill="white"/>
<path d="M58.5918 27.3017C58.5918 25.4023 59.9343 24.2248 62.4112 24.0392L65.3024 23.8123V23.6473C65.3024 22.6348 64.6837 22.0986 63.5474 22.0986C62.2049 22.0986 61.483 22.6142 61.483 23.5442H58.8393C58.8393 21.2117 60.7593 19.6836 63.7124 19.6836C66.6655 19.6836 68.3999 21.3561 68.3999 24.3092V30.3392H65.5912L65.3849 28.9761C65.0549 29.9267 63.6918 30.6073 62.143 30.6073C59.9549 30.6073 58.5918 29.3267 58.5918 27.3036V27.3017ZM65.3231 26.4767V25.9198L63.7124 26.0642C62.3287 26.188 61.8337 26.4973 61.8337 27.1592C61.8337 27.9017 62.2874 28.2542 63.2587 28.2542C64.4774 28.2542 65.3231 27.6561 65.3231 26.4786V26.4767Z" fill="white"/>
<path d="M77.7748 23.008H76.7623C74.9454 23.008 73.8504 23.8123 73.8504 25.858V30.3392H70.6704V20.0361H73.6648L73.8298 21.5642C74.2629 20.5517 75.1723 19.8711 76.556 19.8711C76.9273 19.8711 77.3398 19.9123 77.7748 20.0155V23.0098V23.008Z" fill="white"/>
<path d="M78.5176 25.1548C78.5176 21.9336 80.6851 19.6836 83.8032 19.6836C86.9213 19.6836 89.0682 21.8098 89.0682 25.1755V25.9798L81.5738 26.0211C81.7595 27.3842 82.5244 28.0236 83.9269 28.0236C85.1251 28.0236 85.9707 27.5905 86.1976 26.8461H89.1095C88.7382 29.1373 86.6945 30.6036 83.8651 30.6036C80.747 30.6036 78.5176 28.333 78.5176 25.153V25.1548ZM81.6151 24.0598H85.9107C85.9107 22.9648 85.1063 22.2636 83.8257 22.2636C82.5451 22.2636 81.8645 22.8205 81.617 24.0598H81.6151Z" fill="white"/>
</g>
<defs>
<linearGradient id="paint0_linear_1883_7682" x1="5.1825" y1="19.6347" x2="5.1825" y2="1.63656" gradientUnits="userSpaceOnUse">
<stop stop-color="#48B987"/>
<stop offset="1" stop-color="#137449"/>
</linearGradient>
<linearGradient id="paint1_linear_1883_7682" x1="15.4687" y1="6.76125" x2="15.4687" y2="24.7369" gradientUnits="userSpaceOnUse">
<stop stop-color="#66FFBC"/>
<stop offset="1" stop-color="#218E5E"/>
</linearGradient>
<linearGradient id="paint2_linear_1883_7682" x1="5.14875" y1="43.6434" x2="5.14875" y2="25.6472" gradientUnits="userSpaceOnUse">
<stop stop-color="#A189F2"/>
<stop offset="1" stop-color="#3F00F5"/>
</linearGradient>
<linearGradient id="paint3_linear_1883_7682" x1="10.3088" y1="17.6197" x2="10.3088" y2="29.6253" gradientUnits="userSpaceOnUse">
<stop stop-color="#BBADFA"/>
<stop offset="1" stop-color="#9275F4"/>
</linearGradient>
<clipPath id="clip0_1883_7682">
<rect width="89.1094" height="48" fill="white"/>
</clipPath>
</defs>
</svg>
