<svg width="145" height="145" viewBox="0 0 145 145" fill="none" xmlns="http://www.w3.org/2000/svg">
<rect width="144.252" height="144.252" rx="72.126" fill="#50E69B"/>
<g clip-path="url(#clip0_1391_7657)">
<path d="M92.7082 92.806C69.9731 91.8897 52.1689 74.0855 51.2525 51.3503M92.7082 92.806C91.7919 70.0709 73.9877 52.2667 51.2525 51.3503M92.7082 92.806C101.459 84.0551 103.521 71.148 98.8927 60.4389M92.7082 92.806C83.9573 101.557 71.0503 103.618 60.3411 98.9905M51.2525 51.3503C60.0034 42.5994 72.9105 40.538 83.6196 45.1658M51.2525 51.3503C42.5016 60.1011 40.4402 73.0083 45.068 83.7174M98.8927 60.4389C97.4665 57.1386 95.405 54.0471 92.7082 51.3503C90.0114 48.6535 86.9198 46.5919 83.6196 45.1658M98.8927 60.4389L60.3411 98.9905M60.3411 98.9905C57.0408 97.5644 53.9493 95.5028 51.2525 92.806C48.5557 90.1092 46.494 87.0177 45.068 83.7174M83.6196 45.1658L45.068 83.7174" stroke="#172A3D" stroke-width="2.11587" stroke-linecap="round"/>
</g>
<g clip-path="url(#clip1_1391_7657)">
<path d="M116.802 64.235L125.409 62.9915L125.865 66.1653L117.259 67.4092L116.802 64.235Z" fill="#172A3D"/>
<path d="M117.551 68.4421L126.243 68.5651L126.189 71.8952L122.963 73.6509C122.644 73.8198 122.25 74.0124 121.587 74.2876L121.61 74.4182C122.294 74.3535 122.753 74.3289 123.257 74.3361L126.149 74.3771L126.1 77.4721L117.408 77.3491L117.462 74.0373L120.688 72.288C121.026 72.1007 121.489 71.8908 122.157 71.6278L122.128 71.5033C121.425 71.5613 120.941 71.5855 120.389 71.5776L117.501 71.5367L117.551 68.4421Z" fill="#172A3D"/>
<path d="M116.807 80.6354L125.201 82.8816L124.362 85.9796L118.216 84.3347L117.256 87.881L115.007 87.2793L116.807 80.6354Z" fill="#172A3D"/>
<path d="M114.95 87.7631L121.541 94.0325L119.798 97.5756L110.772 96.2563L112.249 93.2527L113.203 93.4629L114.325 91.1826L113.573 90.5609L114.95 87.7631ZM115.845 92.4476L115.133 93.8941L116.955 94.3064C117.52 94.4369 118.037 94.579 118.6 94.7566L118.655 94.6458C118.166 94.3177 117.739 93.9924 117.289 93.6282L115.845 92.4476Z" fill="#172A3D"/>
<path d="M110.379 96.7733L117.203 102.125L114.097 106.057C112.671 107.862 111.273 108.224 109.933 107.173L109.914 107.157C108.944 106.396 108.785 105.508 109.364 104.465L109.262 104.384C108.585 104.901 108.151 104.971 107.322 104.581L106.503 104.19C105.674 103.8 105.38 103.743 105.049 103.822L104.918 103.688L107.035 101.007C107.329 101.025 107.656 101.17 108.314 101.537L108.976 101.898C109.634 102.265 109.958 102.283 110.369 101.762L110.816 101.198L108.388 99.2938L110.379 96.7733ZM112.351 102.402L111.605 103.346C111.259 103.784 111.232 104.109 111.68 104.461L111.695 104.472C112.148 104.827 112.463 104.728 112.809 104.291L113.555 103.346L112.351 102.402Z" fill="#172A3D"/>
<path d="M104.669 103.974L108.074 112.402L105.021 114.914L97.3507 109.997L99.9384 107.867L100.72 108.451L102.685 106.834L102.259 105.958L104.669 103.974ZM103.545 108.613L102.299 109.639L103.787 110.765C104.247 111.116 104.659 111.458 105.097 111.852L105.193 111.773C104.884 111.273 104.63 110.8 104.371 110.283L103.545 108.613Z" fill="#172A3D"/>
<path d="M95.4109 110.967L101.969 117.272L98.9745 118.883L96.3448 115.986C95.9052 115.499 95.5132 115.021 95.0434 114.347L94.9343 114.406C95.229 115.174 95.4188 115.76 95.5851 116.395L96.5707 120.177L93.7567 121.691L92.018 112.793L95.4109 110.967Z" fill="#172A3D"/>
<path d="M89.0062 114.221L91.5728 122.488L84.7514 124.604L84.1096 122.537L87.8611 121.373L87.5091 120.24L84.0008 121.327L83.4323 119.497L86.9409 118.409L86.5778 117.24L82.7081 118.44L82.0658 116.373L89.0062 114.221Z" fill="#172A3D"/>
<path d="M81.2796 116.508L82.3749 125.099L79.1858 125.509L78.3835 119.218L74.7325 119.688L74.4394 117.386L81.2796 116.508Z" fill="#172A3D"/>
<path d="M72.1197 117.561L68.4492 125.881L64.5195 125.462L62.7006 116.557L66.0314 116.912L66.1573 117.877L68.6865 118.147L69.0173 117.231L72.1197 117.561ZM68.0099 120.004L66.4059 119.833L66.6355 121.681C66.7039 122.254 66.7455 122.787 66.769 123.374L66.892 123.388C67.0356 122.818 67.1973 122.306 67.3881 121.761L68.0099 120.004Z" fill="#172A3D"/>
<path d="M62.0661 116.388L59.2852 124.594L56.1243 123.534L55.4372 119.942C55.374 119.588 55.3111 119.155 55.2517 118.444L55.1204 118.426C54.9722 119.094 54.8543 119.538 54.6939 120.012L53.7681 122.744L50.8302 121.759L53.6112 113.553L56.7544 114.607L57.4357 118.197C57.5106 118.574 57.5692 119.077 57.6153 119.791L57.7423 119.801C57.9024 119.117 58.0279 118.65 58.2046 118.128L59.1284 115.403L62.0661 116.388Z" fill="#172A3D"/>
<path d="M52.6273 113.088L48.1237 120.506L44.3433 118.23C41.7418 116.663 41.2138 114.702 42.7289 112.207L42.742 112.186C44.2569 109.69 46.2454 109.245 48.8469 110.812L52.6273 113.088ZM48.751 113.286L47.9067 112.778C47.0788 112.279 46.3858 112.513 45.7904 113.494L45.3047 114.294C44.7098 115.274 44.8268 115.988 45.6552 116.487L46.4995 116.996L48.751 113.286Z" fill="#172A3D"/>
<path d="M39.4477 109.549L39.4296 109.565C37.2022 111.663 35.0791 111.57 32.9115 109.281C30.7432 106.992 30.7707 104.874 32.9976 102.776L33.0155 102.759C35.2246 100.678 37.3435 100.776 39.5111 103.065C41.6793 105.354 41.6567 107.468 39.4477 109.549ZM35.5577 104.874L35.0069 105.393C34.0446 106.3 33.89 107.066 34.5375 107.749C35.1805 108.428 35.9612 108.323 36.9235 107.417L37.4748 106.897C38.396 106.03 38.5239 105.28 37.8803 104.601C37.2329 103.918 36.4794 104.006 35.5577 104.874Z" fill="#172A3D"/>
<path d="M35.6571 99.0313L28.2138 103.524L25.7331 99.4316C24.5132 97.4196 24.7906 95.9719 26.5504 94.9095L26.5716 94.8969C28.3204 93.8412 29.7341 94.2678 30.9535 96.2799L31.7722 97.6303L33.9945 96.2887L35.6571 99.0313ZM29.9912 98.7054L29.51 97.9109C29.1856 97.376 28.7623 97.2775 28.2201 97.6048L28.1989 97.6175C27.6405 97.9544 27.5268 98.3777 27.8511 98.9121L28.3323 99.7066L29.9912 98.7054Z" fill="#172A3D"/>
<path d="M31.114 91.2561L22.9609 94.2814L20.4777 87.6029L22.5162 86.8469L23.8816 90.5194L24.9997 90.1045L23.7227 86.6699L25.5282 85.9998L26.8052 89.4344L27.958 89.007L26.5496 85.218L28.5874 84.4616L31.114 91.2561Z" fill="#172A3D"/>
<path d="M28.3239 83.7098L19.7382 85.0763L19.2174 81.7875L22.0937 79.5063C22.3795 79.2856 22.7347 79.0282 23.3403 78.6439L23.2957 78.5192C22.6323 78.7002 22.1837 78.8028 21.6869 78.8819L18.829 79.3365L18.345 76.2808L26.9303 74.9145L27.4486 78.1841L24.5708 80.4593C24.2699 80.7017 23.85 80.9877 23.2366 81.3612L23.2863 81.4787C23.9688 81.3012 24.442 81.1941 24.9882 81.1075L27.8398 80.6536L28.3239 83.7098Z" fill="#172A3D"/>
<path d="M24.1845 71.4355L24.2785 68.2783C25.0601 68.2685 25.4127 67.8954 25.5004 67.0894C25.5686 66.4621 25.4313 66.1178 25.0613 66.0782C24.6974 66.0396 24.5234 66.3194 24.1154 67.5454L23.7139 68.7658C23.3065 69.9857 22.5233 71.159 20.8526 70.9747C18.9966 70.7706 18.2298 69.1021 18.5078 66.5494C18.8041 63.8312 20.0289 62.6111 21.769 62.7907L21.7052 65.6708C21.0265 65.6546 20.6298 65.9734 20.5333 66.8586C20.4653 67.4863 20.6415 67.872 20.9498 67.9052C21.2337 67.9353 21.3961 67.8155 21.8213 66.5481L22.2304 65.3161C22.6454 64.0845 23.1724 62.6847 25.0228 62.8822C26.8792 63.0798 27.8045 64.8398 27.5129 67.5157C27.2197 70.2096 26.0334 71.5891 24.1845 71.4355Z" fill="#172A3D"/>
<path d="M23.8423 61.0477L23.8187 61.0396C20.9192 60.0733 20.0057 58.1633 21.0116 55.177C22.0176 52.1907 23.9037 51.214 26.8033 52.1803L26.8269 52.1884C29.7028 53.1466 30.6104 55.0544 29.6045 58.0407C28.5985 61.027 26.7183 62.0059 23.8423 61.0477ZM26.15 55.4212L25.4325 55.1822C24.1797 54.7647 23.4294 54.9909 23.129 55.8827C22.8307 56.7685 23.2905 57.4049 24.5432 57.8223L25.2607 58.0613C26.4606 58.4615 27.1831 58.2193 27.4813 57.3334C27.7817 56.4416 27.3499 55.8213 26.15 55.4212Z" fill="#172A3D"/>
<path d="M28.8175 51.2432L23.8901 48.2882L25.5513 45.5404L30.2605 48.365C30.9619 48.7856 31.4936 48.649 31.8882 47.9967C32.2697 47.3655 32.1359 46.8441 31.434 46.4237L26.7253 43.599L28.3865 40.8513L33.3134 43.8065C35.131 44.8967 35.2267 46.6671 33.7484 49.1123C32.2573 51.579 30.6351 52.3334 28.8175 51.2432Z" fill="#172A3D"/>
<path d="M36.462 44.4957L30.1317 38.5796L33.5628 34.9312C35.1385 33.2557 36.5618 33.0163 37.8051 34.1782L37.8231 34.1953C38.7232 35.036 38.804 35.9351 38.1375 36.9239L38.2325 37.0127C38.9509 36.5554 39.3886 36.5236 40.1803 36.9834L40.9628 37.4431C41.7538 37.9026 42.0416 37.985 42.3778 37.9345L42.4969 38.0792L40.1567 40.5675C39.8655 40.5243 39.5529 40.3513 38.9295 39.9297L38.302 39.5128C37.6787 39.0916 37.3572 39.0454 36.9029 39.5285L36.4101 40.0523L38.6617 42.1567L36.462 44.4957ZM34.9854 38.7212L35.8096 37.845C36.1919 37.4388 36.2472 37.1176 35.8313 36.7289L35.8177 36.716C35.3975 36.3232 35.0749 36.3947 34.6927 36.8013L33.8686 37.6776L34.9854 38.7212Z" fill="#172A3D"/>
<path d="M40.3118 34.2869L40.2977 34.2662C38.5606 31.7714 38.9725 29.7006 41.5345 27.9258C43.9383 26.2601 45.8149 26.3914 47.3035 28.3127L44.8701 30.4133C44.183 29.4803 43.5091 29.2622 42.8047 29.7498C42.0593 30.2661 42.0547 31.0306 42.7906 32.0877L43.2253 32.7126C43.9611 33.7697 44.681 34.0316 45.4309 33.512C46.0842 33.0594 46.104 32.3378 45.4806 31.3007L48.3943 29.8469C49.6087 31.9282 49.0556 33.7204 46.7033 35.3499C44.131 37.1322 42.0524 36.7871 40.3118 34.2869Z" fill="#172A3D"/>
<path d="M51.1578 32.2758L47.7256 24.3219L54.2902 21.4975L55.1482 23.4859L51.5381 25.0392L52.0087 26.1301L55.3849 24.6773L56.1445 26.4385L52.7683 27.8913L53.2539 29.016L56.9779 27.414L57.8358 29.4024L51.1578 32.2758Z" fill="#172A3D"/>
<path d="M61.9362 28.1382L59.0367 19.7779L62.2507 19.365L63.3729 23.1133C63.5466 23.6897 63.7231 24.3843 63.8763 25.194L63.9992 25.1787C63.9883 24.3565 64.0045 23.5995 64.0405 22.9964L64.264 19.1068L66.9669 18.7594L68.2479 22.4748C68.4459 23.0478 68.6371 23.7593 68.8142 24.56L68.9498 24.5424C68.9142 23.7241 68.9056 23.0202 68.9167 22.42L68.9801 18.5007L72.0896 18.1015L71.4611 26.9145L67.4772 27.4264L66.6997 25.0065C66.5755 24.6229 66.3381 23.7429 66.1204 22.7727L65.9916 22.7896C66.0306 23.7826 66.0199 24.6821 65.9969 25.0902L65.8642 27.6333L61.9362 28.1382Z" fill="#172A3D"/>
<path d="M73.8826 27.0578L74.8565 18.4485L81.9547 19.2345L81.7108 21.3868L77.8076 20.9547L77.6741 22.1354L81.3245 22.5396L81.1089 24.4458L77.458 24.0416L77.3204 25.2592L81.3473 25.7051L81.1039 27.8573L73.8826 27.0578Z" fill="#172A3D"/>
<path d="M85.7999 29.1841L87.9105 23.2341L85.6472 22.4395L86.4336 20.2229L93.9889 22.8747L93.2026 25.0917L90.9393 24.2971L88.8288 30.2476L85.7999 29.1841Z" fill="#172A3D"/>
<path d="M91.7261 31.3126L96.1606 23.8545L100.473 26.3988C102.454 27.5666 102.995 28.9001 102.124 30.3654L102.111 30.3864C101.481 31.4466 100.618 31.7216 99.5056 31.2889L99.4387 31.4008C100.041 32.0005 100.167 32.4201 99.8867 33.2909L99.6047 34.1532C99.3245 35.0246 99.3058 35.3227 99.4275 35.6391L99.3112 35.7866L96.3701 34.0517C96.3495 33.7588 96.4523 33.4169 96.731 32.7178L97.0044 32.0152C97.2831 31.316 97.2591 30.9926 96.6878 30.6557L96.0688 30.2905L94.4915 32.9436L91.7261 31.3126ZM97.0664 28.6125L98.1016 29.2233C98.5824 29.5065 98.9093 29.491 99.2005 29.0009L99.2096 28.9846C99.5043 28.4893 99.3644 28.191 98.8841 27.9077L97.8484 27.297L97.0664 28.6125Z" fill="#172A3D"/>
<path d="M101.662 33.9278L105.554 29.6919L107.925 31.8564L104.205 35.9051C103.65 36.5079 103.678 37.0544 104.241 37.5686C104.786 38.0658 105.325 38.0372 105.88 37.4339L109.599 33.3857L111.97 35.55L108.078 39.7859C106.641 41.3487 104.881 41.0939 102.772 39.1676C100.644 37.2249 100.226 35.4906 101.662 33.9278Z" fill="#172A3D"/>
<path d="M108.877 41.0602L110.905 43.4839C110.326 44.0075 110.309 44.5195 110.779 45.1803C111.145 45.6951 111.477 45.8618 111.781 45.647C112.08 45.4355 112.024 45.111 111.515 43.9242L111.005 42.7462C110.5 41.5648 110.308 40.1693 111.684 39.2033C113.212 38.1293 114.896 38.8709 116.385 40.9642C117.97 43.1933 117.862 44.9153 116.437 45.9307L114.57 43.7338C115.09 43.2978 115.176 42.7976 114.659 42.0713C114.294 41.5565 113.905 41.3843 113.651 41.5637C113.418 41.7286 113.376 41.9257 113.899 43.1546L114.412 44.3463C114.919 45.5415 115.454 46.9369 113.934 48.0119C112.41 49.0908 110.545 48.3856 108.985 46.1915C107.415 43.9825 107.388 42.167 108.877 41.0602Z" fill="#172A3D"/>
<path d="M112.829 52.185L118.604 49.5913L117.621 47.4081L119.773 46.4419L123.056 53.7297L120.904 54.6958L119.921 52.5131L114.145 55.1069L112.829 52.185Z" fill="#172A3D"/>
</g>
<defs>
<clipPath id="clip0_1391_7657">
<rect width="74.0554" height="74.0554" fill="white" transform="translate(124.345 72.0781) rotate(135)"/>
</clipPath>
<clipPath id="clip1_1391_7657">
<rect width="107.909" height="107.909" fill="white" transform="translate(110.278 6.04688) rotate(75)"/>
</clipPath>
</defs>
</svg>
