<svg width="72" height="72" viewBox="0 0 72 72" fill="none" xmlns="http://www.w3.org/2000/svg">
<g clip-path="url(#clip0_1883_7802)">
<path d="M70.9312 16.2888C70.9202 16.2562 70.907 16.2242 70.8919 16.1932C70.8717 16.1327 70.8468 16.074 70.8173 16.0174C70.7945 15.9823 70.7691 15.9489 70.7414 15.9176C70.7105 15.8714 70.6766 15.8273 70.6401 15.7854C70.6078 15.7545 70.567 15.7292 70.5319 15.701C70.4918 15.6665 70.4495 15.6346 70.4053 15.6054L56.8687 7.81197C56.6977 7.71323 56.5037 7.66125 56.3062 7.66125C56.1088 7.66125 55.9148 7.71323 55.7437 7.81197L42.2044 15.6096C42.1609 15.6391 42.1196 15.6715 42.0806 15.7067C42.0423 15.7324 42.0056 15.7606 41.9709 15.791C41.9341 15.8322 41.9003 15.8759 41.8697 15.9218C41.8458 15.9556 41.8148 15.9851 41.7937 16.0217C41.7653 16.0785 41.7409 16.1372 41.7206 16.1974C41.7094 16.2298 41.6911 16.2593 41.6812 16.2931C41.6555 16.3884 41.6422 16.4868 41.6419 16.5856V31.3849L30.3609 37.8804V8.9215C30.3612 8.8222 30.3479 8.72333 30.3215 8.6276C30.3131 8.59385 30.2934 8.56431 30.2822 8.53197C30.2625 8.47197 30.2381 8.41366 30.209 8.3576C30.1894 8.32103 30.157 8.2915 30.1331 8.25635C30.1022 8.21019 30.0684 8.16604 30.0319 8.12416C29.9968 8.09415 29.9602 8.06599 29.9222 8.03978C29.8828 8.00559 29.8414 7.97367 29.7984 7.94416L16.2576 0.150721C16.0866 0.051982 15.8926 0 15.6951 0C15.4977 0 15.3037 0.051982 15.1326 0.150721L1.59467 7.94416C1.55072 7.9729 1.50932 8.00536 1.47092 8.04119C1.43214 8.06693 1.39503 8.09511 1.35983 8.12556C1.32346 8.16671 1.29009 8.21042 1.25998 8.25635C1.23467 8.2915 1.20373 8.32103 1.18264 8.3576C1.15382 8.41358 1.12983 8.47191 1.11092 8.53197C1.09556 8.56258 1.08195 8.59404 1.07014 8.62619C1.04427 8.7225 1.03103 8.82177 1.03077 8.9215V55.2856C1.03023 55.4836 1.08195 55.6782 1.18072 55.8498C1.27949 56.0214 1.42179 56.1639 1.59327 56.2629L28.6636 71.8498C28.7238 71.8801 28.7863 71.9055 28.8506 71.9257C28.8801 71.937 28.9083 71.9538 28.9392 71.9623C29.1281 72.0129 29.3269 72.0129 29.5158 71.9623C29.5439 71.9553 29.5678 71.9398 29.5931 71.9313C29.661 71.91 29.7269 71.8827 29.79 71.8498L56.8687 56.2629C57.0402 56.1639 57.1825 56.0214 57.2813 55.8498C57.38 55.6782 57.4318 55.4836 57.4312 55.2856V40.4834L70.4025 33.0148C70.575 32.9152 70.718 32.7716 70.8168 32.5986C70.9156 32.4257 70.9668 32.2296 70.965 32.0304V16.5828C70.9658 16.4838 70.9544 16.3851 70.9312 16.2888ZM15.6937 2.43025L26.9705 8.9201L15.6923 15.4142L4.41702 8.9215L15.6937 2.43025ZM28.1039 10.8678V39.1784L21.5606 42.9457L16.823 45.6738V17.3674L23.3662 13.6001L28.1039 10.8678ZM28.1039 68.9149L3.28639 54.6331V10.8734L8.02405 13.5987L14.5659 17.3674V47.6271C14.5688 47.6696 14.5744 47.7119 14.5828 47.7537C14.5862 47.8095 14.5937 47.865 14.6053 47.9196C14.6196 47.9632 14.6375 48.0055 14.6587 48.0462C14.6744 48.0947 14.6942 48.1417 14.7178 48.1868C14.7438 48.225 14.772 48.2616 14.8022 48.2965C14.8303 48.338 14.8613 48.3775 14.895 48.4146C14.9273 48.4456 14.9681 48.4681 15.0033 48.4962C15.0417 48.5295 15.082 48.5605 15.1242 48.589L28.0884 55.9268L28.1039 68.9149ZM29.2289 53.9848L17.9705 47.6117L29.7956 40.804L42.7697 33.3354L54.038 39.8224L45.7692 44.5418L29.2289 53.9848ZM55.177 54.6274L30.3581 68.922V55.9409L48.7406 45.4503L55.177 41.7729V54.6274ZM55.177 37.8748L50.4394 35.1565L43.8961 31.3892V18.5332L48.6337 21.2613L55.177 25.0315V37.8748ZM56.302 23.0698L45.0239 16.5771L56.302 10.0859L67.5773 16.5757L56.302 23.0698ZM57.427 37.8748V25.0315L63.9844 21.2613L68.7206 18.5332V31.3849L57.427 37.8748Z" fill="white"/>
</g>
<defs>
<clipPath id="clip0_1883_7802">
<rect width="72" height="72" fill="white"/>
</clipPath>
</defs>
</svg>
