<svg width="72" height="72" viewBox="0 0 72 72" fill="none" xmlns="http://www.w3.org/2000/svg">
<path d="M36.0031 0C18.5206 0 4.34473 14.8707 4.34473 33.2169C4.34473 39.4833 6.00013 45.342 8.87413 50.3439C9.62173 51.1827 10.5061 51.7968 11.7688 51.7968C15.7852 51.7968 15.5722 45.6036 19.591 45.6036C23.6095 45.6036 23.8243 51.7968 27.841 51.7968C31.8574 51.7968 31.6387 45.6036 35.6572 45.6036C37.4107 45.6036 38.4406 46.7937 39.3781 48.123C38.7142 47.5065 37.9399 47.0802 36.9172 47.0802C33.3304 47.0802 32.9983 52.1115 30.3136 53.502V67.0311C30.3136 69.7746 32.539 72 35.2822 72C38.0257 72 40.2511 69.7746 40.2511 67.0311V49.3536C41.1751 50.6532 42.1921 51.7968 43.9132 51.7968C47.9296 51.7968 47.7112 45.6036 51.7297 45.6036C53.1247 45.6036 54.0499 46.3692 54.8467 47.3436C54.4585 47.1837 54.0382 47.0802 53.5576 47.0802C50.083 47.0802 49.6696 51.8022 47.2063 53.3613V60.6681C47.2063 63.1371 49.2079 65.1387 51.6769 65.1387C54.1459 65.1387 56.1475 63.1371 56.1475 60.6681V49.113C57.1177 50.5101 58.1527 51.7965 59.9797 51.7965C62.3662 51.7965 63.2587 49.6104 64.4326 47.8356C66.496 43.4244 67.6555 38.4621 67.6555 33.2166C67.6555 14.8707 53.4853 0 36.0031 0ZM34.3039 8.631C42.943 8.631 49.9483 16.9818 49.9483 26.0508C49.9483 35.1198 45.3118 41.502 34.3039 41.502C23.296 41.502 18.6592 35.1198 18.6592 26.0508C18.6592 16.9818 25.6645 8.631 34.3039 8.631ZM30.0967 13.611C28.5412 13.6114 27.0494 14.2936 25.9496 15.5078C24.8497 16.722 24.2318 18.3686 24.2317 20.0856C24.2318 21.8026 24.8497 23.4492 25.9496 24.6634C27.0494 25.8776 28.5412 26.5598 30.0967 26.5602C31.6523 26.5599 33.1442 25.8777 34.2441 24.6635C35.344 23.4493 35.962 21.8026 35.962 20.0856C35.962 18.3686 35.344 16.722 34.2442 15.5078C33.1443 14.2936 31.6523 13.6114 30.0967 13.611ZM29.1184 15.603C29.5038 15.6027 29.8855 15.6797 30.2417 15.8298C30.5978 15.9798 30.9215 16.1999 31.1941 16.4775C31.4667 16.755 31.683 17.0846 31.8305 17.4474C31.978 17.8101 32.054 18.1989 32.0539 18.5916C32.0539 18.9842 31.9779 19.373 31.8303 19.7356C31.6828 20.0983 31.4665 20.4278 31.1939 20.7053C30.9213 20.9828 30.5977 21.2028 30.2415 21.3529C29.8854 21.5029 29.5038 21.5799 29.1184 21.5796C28.3411 21.5787 27.596 21.2635 27.0466 20.7033C26.4973 20.143 26.1887 19.3835 26.1886 18.5916C26.1886 17.7996 26.4972 17.0401 27.0465 16.4797C27.5959 15.9194 28.3411 15.6039 29.1184 15.603ZM20.2705 47.0805C17.0467 47.0805 16.4533 51.1431 14.4172 52.9749V58.3188C14.4172 60.7878 16.4188 62.7894 18.8878 62.7894C21.3568 62.7894 23.3584 60.7878 23.3584 58.3188V48.7737C22.5655 47.8026 21.6283 47.0805 20.2705 47.0805Z" fill="white"/>
</svg>
