<svg width="72" height="72" viewBox="0 0 72 72" fill="none" xmlns="http://www.w3.org/2000/svg">
<g clip-path="url(#clip0_1939_7351)">
<path d="M59.3403 64.9121C64.6023 64.9121 66.5343 62.6441 66.5343 57.0911V46.2311C66.5343 41.0651 69.0453 38.1191 71.4573 36.7211C72.1833 36.2861 72.1833 35.2721 71.4573 34.7891C68.9493 33.1961 66.5373 29.8631 66.5373 25.4231V14.8031C66.5373 8.81512 64.8933 7.07812 59.6313 7.07812H12.3693C7.10725 7.07812 5.46625 8.81812 5.46625 14.8031V25.4711C5.46625 29.9111 3.05125 33.2411 0.543251 34.8371C0.378181 34.9382 0.241818 35.08 0.147213 35.2489C0.0526091 35.4177 0.00292969 35.6081 0.00292969 35.8016C0.00292969 35.9952 0.0526091 36.1855 0.147213 36.3544C0.241818 36.5233 0.378181 36.665 0.543251 36.7661C2.95525 38.1191 5.46325 41.0651 5.46325 46.2761V57.0911C5.46325 62.6411 7.39825 64.9121 12.6603 64.9121H59.3403ZM35.8803 55.0151C30.2313 55.0151 26.1303 53.3261 22.3143 49.9961C22.0332 49.7395 21.8102 49.4258 21.6602 49.0761C21.5102 48.7264 21.4365 48.3486 21.4443 47.9681C21.4218 47.3529 21.6281 46.7512 22.0233 46.2791L23.2323 44.7341C23.8113 44.0081 24.4383 43.6721 25.1613 43.6721C25.9833 43.6721 26.7543 44.0081 27.5763 44.5421C30.2377 46.302 33.3647 47.2256 36.5553 47.1941C39.2103 47.1941 41.3343 46.0841 41.3343 43.8161C41.3343 37.9271 21.7353 41.1611 21.7353 27.9341C21.7353 20.8361 27.5253 16.8791 35.0583 16.8791C40.3683 16.8791 44.2803 18.4241 47.1783 20.2571C47.8983 20.7401 48.3843 21.7061 48.3843 22.6721C48.3843 23.2511 48.2373 23.7821 47.9013 24.2621L47.0313 25.5671C46.4013 26.4371 45.6813 26.8721 44.7633 26.8721C44.1333 26.8721 43.4583 26.6321 42.7353 26.2931C40.5128 25.1463 38.0419 24.5651 35.5413 24.6011C32.6913 24.6011 31.0023 26.1461 31.0023 27.7391C31.0023 33.7751 50.6043 30.4931 50.6043 43.3331C50.6043 50.5751 44.7633 55.0151 35.8803 55.0151Z" fill="white"/>
</g>
<defs>
<clipPath id="clip0_1939_7351">
<rect width="72" height="72" fill="white"/>
</clipPath>
</defs>
</svg>
