<svg width="145" height="40" viewBox="0 0 145 40" fill="none" xmlns="http://www.w3.org/2000/svg">
<g clip-path="url(#clip0_1883_7663)">
<path d="M59.4559 22.9781L54.5121 12.8516H52.3574V27.1484H54.6012V17.9844L58.9793 27.1484H59.9324L64.3199 17.9844V27.1484H66.5543V12.8516H64.3996L59.4559 22.9781Z" fill="white"/>
<path d="M77.2848 18.1219C76.9332 17.4141 76.3957 16.9047 75.6723 16.5922C74.9473 16.2812 74.1082 16.125 73.1551 16.125C71.891 16.125 70.8863 16.4 70.141 16.9484C69.3973 17.4984 68.891 18.2266 68.627 19.1328L70.8113 19.8172C70.9895 19.2672 71.3051 18.8813 71.7551 18.6547C72.2051 18.4297 72.6723 18.3172 73.1551 18.3172C73.9551 18.3172 74.5254 18.4922 74.8629 18.8438C75.1426 19.1344 75.2973 19.5672 75.341 20.1266C74.9113 20.1906 74.491 20.2516 74.0848 20.3094C73.4066 20.4047 72.777 20.5094 72.1988 20.6219C71.6207 20.7344 71.1145 20.8594 70.6848 20.9984C70.116 21.1906 69.652 21.4375 69.2957 21.7375C68.9379 22.0391 68.6738 22.3969 68.502 22.8094C68.3301 23.2234 68.2441 23.6875 68.2441 24.2047C68.2441 24.7938 68.3816 25.3328 68.6566 25.8234C68.9316 26.3141 69.3363 26.7063 69.8723 27C70.4082 27.2938 71.0629 27.4422 71.8379 27.4422C72.8035 27.4422 73.6098 27.2625 74.2551 26.9016C74.752 26.6234 75.1988 26.2203 75.6004 25.6969V27.1438H77.6957V20.5609C77.6957 20.0984 77.6754 19.6688 77.6363 19.275C77.5973 18.8813 77.4801 18.4953 77.2895 18.1188L77.2848 18.1219ZM75.2941 22.7141C75.277 23.1078 75.2066 23.4563 75.0801 23.7609C75.0004 24.0063 74.8473 24.2672 74.6176 24.5453C74.3879 24.8234 74.0832 25.0578 73.6988 25.25C73.3145 25.4422 72.852 25.5375 72.3098 25.5375C71.9316 25.5375 71.616 25.4781 71.3613 25.3594C71.1066 25.2406 70.9129 25.0797 70.7801 24.8781C70.6473 24.6766 70.5816 24.4438 70.5816 24.1781C70.5816 23.9469 70.6332 23.7453 70.7348 23.5719C70.8363 23.3984 70.9848 23.2469 71.177 23.1156C71.3691 22.9844 71.6035 22.8672 71.8816 22.7688C72.166 22.6766 72.4941 22.5922 72.8645 22.5156C73.2348 22.4391 73.6785 22.3578 74.1957 22.2719C74.5254 22.2172 74.9004 22.1563 75.3129 22.0906C75.3082 22.275 75.3035 22.475 75.2926 22.7141H75.2941Z" fill="white"/>
<path d="M82.3678 16.4297H79.9756V27.1516H82.3678V16.4297Z" fill="white"/>
<path d="M82.3678 12.6055H79.9756V14.7992H82.3678V12.6055Z" fill="white"/>
<path d="M87.4415 12.5508H85.0493V27.1445H87.4415V12.5508Z" fill="white"/>
<path d="M93.0401 18.8109C93.4433 18.5172 93.9573 18.3688 94.5792 18.3688C95.1292 18.3688 95.6183 18.5297 96.048 18.85C96.4776 19.1703 96.7854 19.6188 96.9714 20.1953L99.3542 19.55C99.0964 18.4906 98.5448 17.6562 97.7011 17.0437C96.8573 16.4312 95.8261 16.125 94.6089 16.125C93.5229 16.125 92.587 16.3687 91.7995 16.8547C91.012 17.3406 90.4042 18.0094 89.9776 18.8594C89.5511 19.7094 89.3339 20.6844 89.3276 21.7828C89.3339 22.8609 89.5448 23.8281 89.9573 24.6812C90.3698 25.5344 90.9683 26.2094 91.7495 26.7016C92.5308 27.1953 93.4745 27.4406 94.5792 27.4406C95.7776 27.4406 96.7901 27.1469 97.6167 26.5625C98.4433 25.9766 99.0229 25.1375 99.3542 24.0453L96.912 23.5C96.7261 24.05 96.4495 24.4703 96.0823 24.7609C95.7151 25.0531 95.2136 25.1984 94.5792 25.1984C93.6792 25.1984 93.0011 24.8844 92.5433 24.2547C92.087 23.6266 91.8589 22.8016 91.8589 21.7828C91.8589 21.1281 91.9542 20.5422 92.1464 20.025C92.3386 19.5094 92.6355 19.1031 93.0401 18.8094V18.8109Z" fill="white"/>
<path d="M108.11 16.85C107.31 16.3672 106.37 16.125 105.292 16.125C104.214 16.125 103.312 16.3625 102.512 16.8391C101.712 17.3156 101.085 17.9781 100.635 18.825C100.185 19.6719 99.9604 20.6578 99.9604 21.7844C99.9604 22.9109 100.181 23.8672 100.62 24.7188C101.06 25.5688 101.681 26.2359 102.481 26.7188C103.281 27.2016 104.218 27.4438 105.29 27.4438C106.362 27.4438 107.3 27.2031 108.1 26.7234C108.9 26.2438 109.525 25.5781 109.971 24.7281C110.418 23.8781 110.642 22.8969 110.642 21.7844C110.642 20.6719 110.42 19.7016 109.976 18.85C109.532 17.9984 108.91 17.3328 108.109 16.85H108.11ZM107.415 24.2469C106.953 24.8828 106.243 25.2 105.29 25.2C104.337 25.2 103.673 24.8906 103.2 24.2719C102.726 23.6531 102.49 22.8234 102.49 21.7844C102.49 21.1094 102.589 20.5156 102.789 20.0016C102.987 19.4891 103.293 19.0875 103.707 18.8C104.121 18.5125 104.65 18.3688 105.29 18.3688C106.229 18.3688 106.935 18.6781 107.404 19.2969C107.873 19.9156 108.109 20.7453 108.109 21.7844C108.109 22.8234 107.878 23.6109 107.414 24.2469H107.415Z" fill="white"/>
<path d="M120.779 18.1219C120.427 17.4141 119.89 16.9047 119.166 16.5922C118.441 16.2812 117.602 16.125 116.649 16.125C115.385 16.125 114.38 16.4 113.635 16.9484C112.891 17.4984 112.385 18.2266 112.121 19.1328L114.305 19.8172C114.484 19.2672 114.799 18.8813 115.249 18.6547C115.699 18.4297 116.166 18.3172 116.649 18.3172C117.449 18.3172 118.02 18.4922 118.357 18.8438C118.637 19.1344 118.791 19.5672 118.835 20.1266C118.405 20.1906 117.985 20.2516 117.579 20.3094C116.901 20.4047 116.271 20.5094 115.693 20.6219C115.115 20.7344 114.609 20.8594 114.179 20.9984C113.61 21.1906 113.146 21.4375 112.79 21.7375C112.432 22.0391 112.168 22.3969 111.996 22.8094C111.824 23.2234 111.738 23.6875 111.738 24.2047C111.738 24.7938 111.876 25.3328 112.151 25.8234C112.426 26.3141 112.83 26.7063 113.366 27C113.902 27.2938 114.557 27.4422 115.332 27.4422C116.298 27.4422 117.104 27.2625 117.749 26.9016C118.246 26.6234 118.693 26.2203 119.095 25.6969V27.1438H121.19V20.5609C121.19 20.0984 121.17 19.6688 121.13 19.275C121.091 18.8813 120.974 18.4953 120.784 18.1188L120.779 18.1219ZM118.788 22.7141C118.771 23.1078 118.701 23.4563 118.574 23.7609C118.495 24.0063 118.341 24.2672 118.112 24.5453C117.882 24.8234 117.577 25.0578 117.193 25.25C116.809 25.4422 116.346 25.5375 115.804 25.5375C115.426 25.5375 115.11 25.4781 114.855 25.3594C114.601 25.2406 114.407 25.0797 114.274 24.8781C114.141 24.6766 114.076 24.4438 114.076 24.1781C114.076 23.9469 114.127 23.7453 114.229 23.5719C114.33 23.3984 114.479 23.2469 114.671 23.1156C114.863 22.9844 115.098 22.8672 115.376 22.7688C115.66 22.6766 115.988 22.5922 116.359 22.5156C116.729 22.4391 117.173 22.3578 117.69 22.2719C118.02 22.2172 118.395 22.1563 118.807 22.0906C118.802 22.275 118.798 22.475 118.787 22.7141H118.788Z" fill="white"/>
<path d="M126.387 18.8109C126.79 18.5172 127.304 18.3688 127.926 18.3688C128.476 18.3688 128.965 18.5297 129.395 18.85C129.824 19.1703 130.132 19.6188 130.318 20.1953L132.701 19.55C132.443 18.4906 131.892 17.6562 131.048 17.0437C130.204 16.4312 129.173 16.125 127.956 16.125C126.87 16.125 125.934 16.3687 125.146 16.8547C124.359 17.3406 123.751 18.0094 123.324 18.8594C122.898 19.7094 122.681 20.6844 122.674 21.7828C122.681 22.8609 122.892 23.8281 123.304 24.6812C123.717 25.5344 124.315 26.2094 125.096 26.7016C125.877 27.1953 126.821 27.4406 127.926 27.4406C129.124 27.4406 130.137 27.1469 130.963 26.5625C131.79 25.9766 132.37 25.1375 132.701 24.0453L130.259 23.5C130.073 24.05 129.796 24.4703 129.429 24.7609C129.062 25.0531 128.56 25.1984 127.926 25.1984C127.026 25.1984 126.348 24.8844 125.89 24.2547C125.434 23.6266 125.206 22.8016 125.206 21.7828C125.206 21.1281 125.301 20.5422 125.493 20.025C125.685 19.5094 125.982 19.1031 126.387 18.8094V18.8109Z" fill="white"/>
<path d="M143.974 20.1508C143.931 19.7367 143.837 19.2992 143.692 18.8352C143.546 18.3711 143.321 17.9352 143.017 17.5242C142.712 17.1133 142.301 16.7758 141.785 16.5117C141.27 16.2477 140.613 16.1148 139.82 16.1148C138.813 16.1148 137.967 16.3352 137.278 16.7742C136.907 17.0117 136.588 17.2961 136.315 17.6211V12.8477H134.181V27.1445H136.603V21.6352C136.603 20.9805 136.676 20.443 136.821 20.0211C136.967 19.6008 137.16 19.2695 137.403 19.0289C137.645 18.7883 137.913 18.6164 138.212 18.518C138.51 18.4195 138.81 18.3695 139.115 18.3695C139.684 18.3695 140.135 18.4914 140.47 18.7367C140.804 18.982 141.056 19.2945 141.224 19.6742C141.393 20.0539 141.501 20.4508 141.546 20.8602C141.592 21.2711 141.617 21.6445 141.617 21.982V27.1445H144.038V21.1586C144.038 20.9008 144.017 20.5648 143.974 20.1508Z" fill="white"/>
<path d="M26.6672 0H13.3328C5.9693 0 0 5.9693 0 13.3328V26.6672C0 34.0307 5.9693 40 13.3328 40H26.6672C34.0307 40 40 34.0307 40 26.6672V13.3328C40 5.9693 34.0307 0 26.6672 0Z" fill="white"/>
<path d="M13.9496 22.8828C14.6059 22.8859 15.2152 23.1375 15.6684 23.5922C16.1215 24.0453 16.3715 24.6531 16.3715 25.3047C16.3715 25.9563 16.134 26.5375 15.7027 26.9859L15.6668 27.0219C15.2137 27.475 14.6059 27.725 13.9496 27.725C13.2934 27.725 12.6855 27.475 12.2324 27.0219C11.7793 26.5687 11.5293 25.9609 11.5293 25.3047C11.5293 24.6484 11.7793 24.0406 12.2324 23.5875C12.6855 23.1344 13.2934 22.8844 13.948 22.8828M13.9512 21.1641H13.9465C12.8355 21.1641 11.7949 21.5937 11.0184 22.3719C10.2402 23.15 9.81055 24.1906 9.81055 25.3047C9.81055 26.4188 10.2387 27.4594 11.0184 28.2375C11.7949 29.0156 12.8371 29.4453 13.9512 29.4453C15.0652 29.4453 16.1059 29.0172 16.884 28.2375L16.9184 28.2031L16.9309 28.1906L16.9434 28.1781C17.684 27.4078 18.0918 26.3875 18.0918 25.3047C18.0918 24.2219 17.6637 23.1562 16.884 22.3781C16.1059 21.6 15.0668 21.1703 13.9559 21.1656H13.9512V21.1641Z" fill="#142D6F"/>
<path d="M26.0451 22.8828C26.6982 22.8859 27.3076 23.1375 27.7623 23.5922C28.217 24.0469 28.4686 24.6531 28.4686 25.3031C28.4686 25.9531 28.2186 26.5672 27.7654 27.0203C27.3123 27.4734 26.7045 27.725 26.0482 27.725C25.392 27.725 24.7842 27.475 24.3311 27.0219C23.8779 26.5687 23.6279 25.9609 23.6279 25.3047C23.6279 24.6484 23.8779 24.0406 24.3311 23.5875C24.7842 23.1344 25.392 22.8844 26.0467 22.8828M26.0498 21.1641H26.0451C24.9342 21.1641 23.8936 21.5937 23.117 22.3719C22.3389 23.1484 21.9092 24.1906 21.9092 25.3047C21.9092 26.4188 22.3373 27.4578 23.117 28.2375C23.8936 29.0156 24.9357 29.4453 26.0498 29.4453C27.1639 29.4453 28.1889 29.0234 28.9654 28.2547H28.967L28.9826 28.2375C29.7607 27.4594 30.1904 26.4172 30.1904 25.3047C30.1904 24.1922 29.7607 23.1562 28.9811 22.3781C28.2014 21.6 27.1623 21.1703 26.0561 21.1656H26.0514L26.0498 21.1641Z" fill="#142D6F"/>
<path d="M26.3113 12.2719L25.7223 17.4859C23.6223 18.0687 21.6551 19.1562 20.0004 20.6453C18.3457 19.1562 16.3801 18.0687 14.2785 17.4859L13.6895 12.2719L20.0004 14.9859L26.3113 12.2719ZM11.6504 9.52344L11.9832 12.4656L12.5723 17.6797L12.702 18.8328L13.8207 19.1422C15.6566 19.6516 17.3973 20.6125 18.852 21.9219L20.002 22.9562L21.152 21.9219C22.6066 20.6125 24.3457 19.6516 26.1832 19.1422L27.302 18.8328L27.4316 17.6797L28.0207 12.4656L28.3535 9.52344L25.6348 10.6937L20.0035 13.1156L14.3723 10.6937L11.6535 9.52344H11.6504Z" fill="#142D6F"/>
</g>
<defs>
<clipPath id="clip0_1883_7663">
<rect width="144.041" height="40" fill="white"/>
</clipPath>
</defs>
</svg>
