<svg id="Layer_1" data-name="Layer 1" xmlns="http://www.w3.org/2000/svg" viewBox="0 0 664 186"><defs><style>.cls-1{fill:none;}.cls-2{fill:#197593;}.cls-3{fill:#eaf3f6;}.cls-4{fill:#60a0b5;}.cls-5{fill:#172a3d;}.cls-6{fill:#ebbcc2;}.cls-7{fill:#e2a2a9;}</style></defs><title>process-01</title><rect class="cls-1" width="664" height="186"/><path class="cls-2" d="M246.1,39l-0.1-.5a28.94,28.94,0,0,0-6.6,1.6,7.85,7.85,0,0,0-2.8,1.6,5.94,5.94,0,0,0-1.7,4.5,9.67,9.67,0,0,0,.4,2.9,9.21,9.21,0,0,0,2.4,4.3,7.88,7.88,0,0,0,4.9,1.7,4.1,4.1,0,0,0,1.1-.1,19.56,19.56,0,0,0,5.8-1.8,0.54,0.54,0,0,0,.3-0.6c-1.5-4.4-3.1-9.3-3.2-13.6a0.47,0.47,0,0,0-.5-0.5H246l0.1,0.5h-0.5c0.1,4.5,1.7,9.5,3.2,13.9l0.5-.2-0.2-.5a21.87,21.87,0,0,1-5.5,1.7c-0.3,0-.7.1-1,0.1a6.46,6.46,0,0,1-4.2-1.4,8,8,0,0,1-2.1-3.8,11.71,11.71,0,0,1-.4-2.6,4.89,4.89,0,0,1,1.4-3.8,6,6,0,0,1,2.5-1.3,28.58,28.58,0,0,1,6.4-1.6l-0.1-.5h0"/><path class="cls-2" d="M250.2,38.7l-0.5.1c1.1,4.2,2.1,8.5,3.2,12.8a0.45,0.45,0,0,0,.6.3h0.1a19.49,19.49,0,0,1,10.3-2.3,69.91,69.91,0,0,0,12-1.3,20.66,20.66,0,0,0,6.2-2.9,17.38,17.38,0,0,0,2.9-2.5,4.6,4.6,0,0,0,1.3-3,4.25,4.25,0,0,0-.2-1.1,12.5,12.5,0,0,0-6.3-6.5,18.8,18.8,0,0,0-6.2-2c-0.4,0-.8-0.1-1.3-0.1-4.4,0-9.5,2.1-12.3,3.5-1.7.8-4.2,1.9-6.3,2.7-1.1.4-2,.8-2.7,1.1l-0.8.4-0.3.2-0.1.1-0.1.1a0.37,0.37,0,0,0-.1.3v0.2l0.6-.1-0.6.1,0.6-.1,0.4-.1-0.4.1h0.4V38.6l-0.4.1h0l0.3,0.3a0.35,0.35,0,0,1,.1-0.2l-0.4-.1,0.3,0.3-0.3-.3,0.3,0.3,0.1-.1-0.3-.2,0.2,0.3h0a0.76,0.76,0,0,1,.4-0.2c0.8-.4,2.5-1.1,4.4-1.8s3.8-1.6,5.2-2.3c2.8-1.3,7.8-3.4,11.9-3.4a4.87,4.87,0,0,1,1.2.1,21.14,21.14,0,0,1,5.9,1.8,11.7,11.7,0,0,1,5.8,6,1.7,1.7,0,0,1,.1.7,3.84,3.84,0,0,1-1.1,2.3,15.88,15.88,0,0,1-4.4,3.3,15.67,15.67,0,0,1-4.2,1.8,66.6,66.6,0,0,1-11.8,1.3A22.08,22.08,0,0,0,253.2,51l0.2,0.5,0.5-.1c-1.1-4.2-2.1-8.5-3.2-12.8h0l-0.5.1"/><path class="cls-3" d="M234.9,45.5l-0.1.1c-2,1.9-2.1,5.2-1.3,7.8A10.39,10.39,0,0,0,236,58a8,8,0,0,0,5.2,1.8,4.87,4.87,0,0,0,1.2-.1,23.82,23.82,0,0,0,6.4-2c-0.4-1.2-.9-2.5-1.2-3.7a15.94,15.94,0,0,1-3.9,1c-0.4,0-.7.1-1.1,0.1a6.85,6.85,0,0,1-4.9-1.7,9.21,9.21,0,0,1-2.4-4.3,9.25,9.25,0,0,1-.4-2.9V45.5m10.3-3.3a32,32,0,0,0-7.4,1.8,8.86,8.86,0,0,0-1.7.8,7.72,7.72,0,0,0-.2,1.5,7.46,7.46,0,0,0,.4,2.6,7.2,7.2,0,0,0,2.1,3.8,6,6,0,0,0,4.2,1.4h0a3.4,3.4,0,0,0,1-.1,15.57,15.57,0,0,0,3.7-1,39,39,0,0,1-2.1-10.8"/><path class="cls-4" d="M236.1,44.7a4.44,4.44,0,0,0-1.1.8v0.8a9.67,9.67,0,0,0,.4,2.9,9.21,9.21,0,0,0,2.4,4.3,7.88,7.88,0,0,0,4.9,1.7,4.1,4.1,0,0,0,1.1-.1,18.64,18.64,0,0,0,3.9-1l-0.3-1a15.57,15.57,0,0,1-3.7,1c-0.3,0-.7.1-1,0.1h0a6.46,6.46,0,0,1-4.2-1.4,8,8,0,0,1-2.1-3.8,11.71,11.71,0,0,1-.4-2.6,4.58,4.58,0,0,1,.1-1.7"/><path class="cls-3" d="M285.4,42.3a1.76,1.76,0,0,1-.4.5,13.72,13.72,0,0,1-2.9,2.5,20.66,20.66,0,0,1-6.2,2.9,69.91,69.91,0,0,1-12,1.3,21.59,21.59,0,0,0-10.3,2.3,0.3,0.3,0,0,1-.4,0h-0.1c0.3,0.9.5,1.8,0.8,2.8a17.08,17.08,0,0,1,8.8-2.1h3.2a56.62,56.62,0,0,0,10.1-.9c2.9-.5,11.1-5,9.5-9l-0.1-.3m-35.3-1.6h0l0.4,1.6-0.4-1.6m21.3-7.6c-4.1,0-8.7,1.9-11.3,3.2s-7.1,3-9,3.8c0.9,3.5,1.7,7,2.7,10.5A21.36,21.36,0,0,1,264,48.4a66.6,66.6,0,0,0,11.8-1.3,15.67,15.67,0,0,0,4.2-1.8,20.26,20.26,0,0,0,4.4-3.3l0.6-.9c-3-5.7-9.5-7.7-11.8-8a10.82,10.82,0,0,1-1.8,0"/><path class="cls-4" d="M251.1,40.2a4.05,4.05,0,0,0-.9.5l0.4,1.6c0.9,3.2,1.7,6.4,2.6,9.6h0.1a0.3,0.3,0,0,0,.4,0A19.49,19.49,0,0,1,264,49.6a69.91,69.91,0,0,0,12-1.3,20.66,20.66,0,0,0,6.2-2.9,13.72,13.72,0,0,0,2.9-2.5c0.1-.2.3-0.3,0.4-0.5a9.29,9.29,0,0,0-.5-1l-0.6.9a15.88,15.88,0,0,1-4.4,3.3,15.67,15.67,0,0,1-4.2,1.8A66.6,66.6,0,0,1,264,48.7a21.36,21.36,0,0,0-10.2,2.2c-1-3.7-1.9-7.2-2.7-10.7"/><path class="cls-3" d="M223.6,68.4a6.8,6.8,0,0,0-2,.2,6.7,6.7,0,0,0-4.7,2.7,7.28,7.28,0,0,0-.9,4.1c0.1,2.2.9,4.7,2.9,5.7a6.71,6.71,0,0,0,2.8.6c0.7,0,1.3.1,1.9,0.1a32.53,32.53,0,0,0,4.4-.3c-1.1-3.9-1-8.5-.8-12.8-1.2-.2-2.4-0.2-3.6-0.3"/><path class="cls-3" d="M250.8,67.3h-0.5a44.28,44.28,0,0,0-9.6,2,16.16,16.16,0,0,1-5.4,1,20.41,20.41,0,0,1-3.4-.3c0.1,3.8.2,7.7,0.3,11.5,0,0.2,5.9.6,8.9,1.1a45.73,45.73,0,0,0,5.2.5,15,15,0,0,0,5.9-1c1.8-.8,7.1-4.2,7.6-9.9,0.5-3.2-6.1-4.9-9-4.9"/><path class="cls-5" d="M221,50.1q2.7-.9,4.8-1.5l-0.2-.5q-2.1.6-4.8,1.5l0.2,0.5h0Zm-7.7,2.6,5.1-1.7-0.2-.5-5.1,1.7,0.2,0.5h0Zm-9,3.1,6.7-2.3-0.2-.5-6.7,2.3,0.2,0.5h0Zm-8,2.8,5.4-1.9-0.2-.5-5.4,1.9,0.2,0.5h0Zm-7.6,2.8,5.1-1.8-0.2-.5-5.1,1.8,0.2,0.5h0Zm-8.9,3.3,6.6-2.5-0.2-.5-6.6,2.5Zm-7.9,3,5.3-2-0.2-.5-5.3,2,0.2,0.5h0Z"/><path class="cls-5" d="M321.8,174.5a56.56,56.56,0,0,0-3.1,4.8l0.5,0.3c1-1.6,2-3.2,3.1-4.7Zm5-6.4a47.84,47.84,0,0,0-3.4,4.2l0.5,0.3c1.1-1.4,2.2-2.8,3.4-4.2l-0.5-.3h0Zm6.6-6.8c-1.7,1.6-3.4,3.3-5,5l0.4,0.4c1.6-1.8,3.3-3.4,5-5l-0.4-.4h0Zm6.5-5.5a49.43,49.43,0,0,0-4.4,3.6l0.4,0.4c1.4-1.2,2.9-2.4,4.4-3.6l-0.4-.4h0Zm6.7-4.7-4.5,3,0.3,0.5c1.5-1,2.9-2,4.4-3l-0.2-.5h0Zm8.2-4.8c-2.1,1.1-4.1,2.3-6.2,3.5l0.3,0.5c2-1.2,4-2.4,6.1-3.5Zm7.6-3.8c-1.7.8-3.4,1.6-5.1,2.5l0.3,0.5c1.7-.9,3.4-1.7,5.1-2.5l-0.3-.5h0Zm7.4-3.3c-1.6.7-3.3,1.4-4.9,2.2l0.2,0.5c1.6-.7,3.3-1.5,4.9-2.1Zm8.8-3.6c-2.2.8-4.4,1.7-6.6,2.6l0.2,0.5c2.2-.9,4.4-1.8,6.6-2.6l-0.2-.5h0Zm7.9-3-5.3,2,0.2,0.5,5.3-2-0.2-.5h0Zm7.6-2.9c-1.6.7-3.3,1.3-5,2l0.2,0.5c1.7-.7,3.4-1.3,5-2Zm8.7-3.7c-2.1,1-4.2,1.9-6.5,2.8l0.2,0.5c2.3-.9,4.5-1.9,6.5-2.8l-0.2-.5h0Zm7.5-3.9c-1.5.9-3.2,1.8-4.9,2.7l0.2,0.5c1.8-.9,3.4-1.8,5-2.8l-0.3-.4h0Zm6.4-4.9-0.8.7a28.76,28.76,0,0,1-3.4,2.7l0.3,0.5a22.41,22.41,0,0,0,3.4-2.7l0.8-.7Zm6.7-6.7c-1.6,1.6-3.2,3.3-5,5l0.4,0.4c1.7-1.7,3.4-3.4,5-5.1l-0.4-.3h0Zm5.4-6.5c-1.1,1.5-2.3,2.9-3.6,4.4l0.4,0.4c1.3-1.5,2.5-2.9,3.6-4.4l-0.4-.4h0Zm4.6-6.6q-1.35,2.25-3,4.5l0.5,0.3q1.65-2.25,3-4.5Zm4.4-8.4a62.26,62.26,0,0,1-3.2,6.3l0.5,0.3q1.8-3.15,3.3-6.3l-0.6-.3h0Zm3-7.9a56.16,56.16,0,0,1-1.9,5.3l0.5,0.2c0.7-1.8,1.4-3.6,1.9-5.4l-0.5-.1h0Zm1.7-7.9a43.46,43.46,0,0,1-1,5.2l0.5,0.1a49.38,49.38,0,0,0,1-5.3h-0.5Zm0.4-9.4a27.15,27.15,0,0,1,.1,2.9c0,1.4-.1,2.8-0.2,4.2l0.6,0.1c0.1-1.4.2-2.8,0.2-4.2a28.1,28.1,0,0,0-.1-2.9Zm-1.4-8.3a33.48,33.48,0,0,1,1.1,5.5h0.6a50.53,50.53,0,0,0-1.2-5.6Zm-3-7.4a30.62,30.62,0,0,1,2.2,4.9l0.5-.2a43.08,43.08,0,0,0-2.2-4.9ZM433,40.6a39.58,39.58,0,0,1,4.3,5.6l0.5-.3a33.92,33.92,0,0,0-4.4-5.6ZM426.6,35a49.43,49.43,0,0,1,4.4,3.6l0.4-.4a49.43,49.43,0,0,0-4.4-3.6l-0.4.4h0Zm-6.9-4.1a43.09,43.09,0,0,1,4.7,2.6l0.3-.5a43.09,43.09,0,0,0-4.7-2.6l-0.3.5h0Zm-8.8-3.4a64.18,64.18,0,0,1,6.6,2.4l0.2-.5c-2.2-.9-4.4-1.7-6.7-2.4Zm-8.2-2a48.78,48.78,0,0,1,5.5,1.2l0.1-.5a46.07,46.07,0,0,0-5.6-1.2v0.5Zm-8-1,5.3,0.6,0.1-.6a44.57,44.57,0,0,0-5.4-.6v0.6Zm-9.5-.5c1.9,0.1,3.8.1,5.8,0.2l1.3,0.1V23.7H391c-1.9-.1-3.8-0.2-5.8-0.2V24h0Zm-8.5-.2c1.9,0,3.8,0,5.7.1V23.3c-1.9-.1-3.8-0.1-5.7-0.1v0.6h0Zm-8.1,0H374V23.2h-5.4v0.6h0Zm-9.5.2c2.4-.1,4.7-0.1,7.1-0.1V23.3c-2.4,0-4.7.1-7.1,0.1V24h0Zm-8.4.4,5.7-.3V23.5l-5.7.3v0.6h0Zm-8.1.5c1.8-.1,3.6-0.3,5.4-0.4V24c-1.8.1-3.6,0.2-5.4,0.4v0.5h0Zm-9.5.9c2.3-.3,4.7-0.5,7-0.7V24.5c-2.4.2-4.7,0.4-7.1,0.7l0.1,0.6h0Zm-8.4,1c1.9-.3,3.7-0.5,5.6-0.7l-0.1-.6c-1.9.2-3.8,0.5-5.6,0.7Zm-8,1.2,5.3-.9V26.6c-1.8.3-3.6,0.6-5.3,0.9V28h0Zm-9.3,1.9c2.3-.5,4.6-1,6.9-1.4l-0.1-.6c-2.3.4-4.7,0.9-7,1.4l0.2,0.6h0Zm-8.2,2c1.8-.5,3.6-0.9,5.5-1.4l-0.1-.5c-1.9.4-3.7,0.9-5.5,1.4l0.1,0.5h0Z"/><path class="cls-5" d="M527,21.2l5.6-.6V20c-2,.2-3.8.4-5.6,0.6v0.6h0Zm-11.2,1.6c1.8-.3,3.6-0.6,5.6-0.9l-0.1-.6c-2,.3-3.8.6-5.6,0.9l0.1,0.6h0Zm-11.1,2.1c1.8-.4,3.6-0.7,5.5-1.1l-0.1-.6c-1.9.4-3.8,0.7-5.6,1.1l0.2,0.6h0Zm-11.1,2.5,5.5-1.2-0.1-.5-5.5,1.2Zm-11.1,2.2c1.9-.3,3.8-0.7,5.6-1L488,28c-1.8.4-3.7,0.7-5.6,1ZM471.3,31c2-.2,3.8-0.4,5.6-0.6l-0.1-.6c-1.8.2-3.7,0.5-5.6,0.6Zm-11.3.8c2-.1,3.9-0.1,5.7-0.3V30.9l-5.6.3Zm-11.3,0h5.6V31.3h-5.6v0.5h0Zm-11.4-.3c2,0.1,3.9.2,5.7,0.2V31.1c-1.8-.1-3.7-0.1-5.7-0.2v0.6h0ZM426,30.8c1.9,0.1,3.8.3,5.7,0.4V30.6c-1.8-.1-3.7-0.2-5.6-0.4l-0.1.6h0Z"/><path class="cls-6" d="M546.4,21.5l-4.2,3.9c1.3,1.2,2.8,2.4,4.5,3.8l3.6-4.4q-2.1-1.8-3.9-3.3m-13.9-6.4h0m4.8-3.1-4.8,3.1a39.35,39.35,0,0,0,4.9,5.9l0.6,0.7,4.1-3.9-0.7-.7a48.2,48.2,0,0,1-4.1-5.1"/><path class="cls-6" d="M538,21.6l-4.3,4,3.9,4.1,4.6-4.3c-1.6-1.4-3-2.7-4.2-3.8m11-10.3-6.8,6.4c1.2,1.1,2.6,2.4,4.2,3.8l6.5-6.1L549,11.3"/><path class="cls-7" d="M542.2,17.7L538,21.6q1.8,1.8,4.2,3.9l4.2-3.9q-2.55-2.25-4.2-3.9"/></svg>