<svg id="Layer_1" data-name="Layer 1" xmlns="http://www.w3.org/2000/svg" viewBox="0 0 212 310.54"><defs><style>.cls-1{fill:#172a3d;}.cls-2{fill:none;}</style></defs><title>Untitled-8</title><path class="cls-1" d="M128.09,86.23q0-.52,0-1,0-2.26,0-4.51h-0.57q0,2.25,0,4.51,0,0.52,0,1h0.57Zm0.09,8.5q-0.06-2.84-.08-5.67h-0.57q0,2.83.08,5.67h0.57Zm0.24,8.07q-0.11-2.7-.18-5.38h-0.57q0.07,2.69.18,5.39l0.57,0h0Zm0.48,9.48q-0.23-3.54-.38-7.07l-0.57,0q0.16,3.53.38,7.08l0.57,0h0Zm0.64,8.5q-0.25-2.83-.45-5.66l-0.57,0q0.2,2.83.45,5.67Zm0.81,8q-0.3-2.68-.56-5.36l-0.56.05q0.26,2.68.56,5.37l0.56-.06h0Zm1.22,9.41q-0.51-3.5-.94-7l-0.56.07q0.43,3.52.94,7l0.56-.08h0Zm1.36,8.38q-0.5-2.78-.93-5.58l-0.56.09q0.44,2.8.94,5.6l0.56-.1h0Zm1.54,7.91q-0.56-2.62-1.06-5.27l-0.56.11q0.5,2.65,1.06,5.28l0.55-.12h0Zm2.16,9.22q-0.88-3.42-1.65-6.87l-0.55.12q0.77,3.47,1.66,6.89l0.55-.14h0Zm2.28,8.16q-0.82-2.7-1.56-5.43l-0.55.15q0.75,2.74,1.56,5.45l0.54-.16h0Zm2.5,7.65q-0.89-2.53-1.7-5.09l-0.54.17q0.82,2.57,1.71,5.1l0.54-.19h0Zm3.38,8.83q-1.35-3.25-2.57-6.58l-0.53.19q1.22,3.34,2.58,6.6l0.52-.22h0Zm3.46,7.73q-1.22-2.54-2.35-5.13l-0.52.23q1.13,2.6,2.36,5.15l0.51-.25h0Zm3.69,7.15q-1.3-2.34-2.5-4.74l-0.51.26q1.21,2.41,2.51,4.76l0.5-.27h0Zm4.87,8.11q-1.92-3-3.69-6l-0.49.28q1.77,3.08,3.7,6l0.48-.31h0Zm4.86,6.94q-1.7-2.26-3.29-4.59l-0.47.32q1.6,2.34,3.31,4.61l0.45-.34h0Zm5.07,6.27q-1.76-2-3.43-4.14l-0.45.35q1.67,2.12,3.44,4.16l0.43-.37h0Zm6.5,6.89q-2.54-2.47-4.9-5.08l-0.42.38q2.37,2.62,4.93,5.11Zm6.29,5.67q-2.18-1.82-4.24-3.73l-0.39.42q2.07,1.92,4.27,3.75l0.36-.44h0Zm6.37,4.93q-2.2-1.57-4.28-3.23l-0.35.44q2.1,1.67,4.31,3.25Zm7.92,5.18q-3.07-1.83-5.95-3.8l-0.32.47q2.9,2,6,3.82l0.29-.49h0Zm7.44,4.06q-2.55-1.28-5-2.65l-0.28.49q2.45,1.38,5,2.66l0.25-.51h0Z" transform="translate(-2 -2)"/><path class="cls-1" d="M121.51,89.36v0c0.15-.35,1.64-3.57,6.67-8.45l-0.2-.2-0.22.17c2.84,3.66,4.33,5.8,5.12,7,0.39,0.61.6,1,.72,1.21l0.1,0.22v0h0l0.18-.05-0.18,0h0l0.18-.05-0.18,0,0.55-.14c0-.11-0.36-1.33-6.05-8.69L128,80.24l-0.23.22c-5.42,5.26-6.8,8.64-6.82,8.68l0.53,0.21h0Z" transform="translate(-2 -2)"/><rect class="cls-2" width="212" height="310.54"/></svg>