<svg id="Layer_1" data-name="Layer 1" xmlns="http://www.w3.org/2000/svg" viewBox="0 0 441 301.07"><defs><style>.cls-1{fill:#caeee3;}.cls-2{fill:#a2e2cd;}.cls-3{fill:#172a3d;}.cls-4{fill:#197593;}.cls-5{fill:#ebbcc2;}.cls-6{fill:#8f8597;}.cls-7{fill:#d5e7ed;}.cls-8{fill:#a7cbd7;}.cls-9{fill:#f2f7f9;}.cls-10{fill:#4590a8;}.cls-11{fill:#a9dcd5;}.cls-12{fill:#89d4c3;}.cls-13{fill:none;}</style></defs><title>Untitled-4</title><path class="cls-1" d="M379.82,76.51l-6.37,3.19,1,0.49a69.83,69.83,0,0,1,8.45,4.68l3.14-4.72a66,66,0,0,0-6.25-3.63m-19.66-3.35h0m3.67-4.32-3.67,4.32A11.8,11.8,0,0,0,362,74.4c1.18,0.66,2.61,1.32,4.23,2.06l0.53,0.24,6.56-3.28-1.05-.47c-2.14-1-4.08-1.8-5.59-2.52-0.76-.36-1.41-0.69-1.91-1a6.73,6.73,0,0,1-1-.62"/><path class="cls-1" d="M366.78,76.69l-5.55,2.77,2.53,5.07h0l9.69-4.84c-2.35-1.1-4.65-2.1-6.67-3m14.45-7.23-7.89,3.95c2.06,0.93,4.27,2,6.48,3.1l3.94-2-2.53-5.07"/><path class="cls-2" d="M373.35,73.41l-6.56,3.28c2,0.9,4.32,1.9,6.67,3l6.37-3.19c-2.21-1.14-4.42-2.17-6.48-3.1"/><path class="cls-3" d="M196,152.84q-1.93,2.17-3.58,4.32l0.45,0.34q1.63-2.13,3.55-4.29l-0.42-.38h0Zm5.93-6.13q-2.11,2-4,4l0.41,0.39q1.88-2,4-4l-0.39-.41h0Zm6-5.44q-2.09,1.8-4,3.59l0.38,0.42q1.93-1.78,4-3.58l-0.37-.43h0Zm7.37-6q-2.86,2.23-5.53,4.47l0.36,0.43q2.65-2.22,5.51-4.45l-0.35-.45h0Zm6.81-5.13q-2.33,1.7-4.56,3.39l0.34,0.45q2.22-1.69,4.55-3.39Zm6.61-4.68q-2.24,1.55-4.42,3.1l0.33,0.46q2.17-1.55,4.41-3.09l-0.32-.47h0Zm7.9-5.3q-3,2-5.91,3.93l0.32,0.47q2.9-2,5.9-3.93l-0.31-.47h0Zm7.18-4.59q-2.42,1.51-4.8,3l0.31,0.48q2.37-1.52,4.79-3l-0.3-.48h0Zm6.89-4.24q-2.32,1.4-4.6,2.81l0.3,0.48q2.28-1.41,4.6-2.81l-0.29-.49h0Zm8.18-4.85q-3.07,1.79-6.12,3.61l0.29,0.49q3-1.82,6.11-3.6l-0.28-.49h0Zm7.4-4.24L261.35,105l0.28,0.49,4.94-2.81-0.28-.49h0Zm7.06-3.93-4.71,2.61,0.28,0.49,4.71-2.61-0.27-.5h0Zm8.36-4.53q-3.11,1.66-6.25,3.37l0.27,0.5q3.13-1.71,6.24-3.37l-0.27-.5h0Zm7.53-4-5,2.64,0.27,0.5,5-2.64-0.26-.5h0Zm7.19-3.71-4.8,2.47,0.26,0.5,4.79-2.47Zm8.49-4.29L298.58,85l0.26,0.51,6.34-3.19-0.25-.51h0ZM312.56,78l-5.1,2.51L307.71,81l5.09-2.51Zm7.28-3.53L315,76.83l0.25,0.51L320.08,75Zm8.6-4.08-6.42,3L322.26,74l6.42-3-0.24-.51h0Zm7.73-3.6L331,69.2l0.24,0.51,5.15-2.39-0.24-.51h0Zm7.37-3.36-4.92,2.24,0.24,0.52L343.76,64l-0.23-.52h0Zm8.7-3.89-6.5,2.9L346,63l6.49-2.89-0.23-.52h0Zm7.87-3.37q-1.13.41-2.21,0.89l-3,1.33,0.23,0.52,3-1.33q1.07-.47,2.18-0.87Zm7.84-2.09a52.48,52.48,0,0,0-5.27,1.25l0.16,0.54A51.91,51.91,0,0,1,368,54.65l-0.1-.56h0ZM377.41,53c-2.38.14-4.75,0.37-7.07,0.71l0.08,0.56c2.31-.34,4.66-0.56,7-0.71l0-.57h0Zm8.52-.22h-0.3c-1.78,0-3.58,0-5.38.09l0,0.57c1.79-.06,3.58-0.09,5.36-0.09h0.3V52.76h0ZM394,52.89c-1.76,0-3.56-.09-5.39-0.11v0.57c1.82,0,3.62.07,5.38,0.11V52.89h0Zm9.52,0.48a15.68,15.68,0,0,0-2.86-.32L396.42,53v0.57l4.26,0.09a15.12,15.12,0,0,1,2.75.31Zm7.94,3.2a29.87,29.87,0,0,0-5.17-2.43l-0.19.54a29.31,29.31,0,0,1,5.08,2.39l0.29-.49h0ZM418,61.36A44.51,44.51,0,0,0,413.76,58l-0.32.47a43.94,43.94,0,0,1,4.22,3.29Zm6.49,7A46.39,46.39,0,0,0,419.82,63l-0.4.41a45.82,45.82,0,0,1,4.65,5.28Zm4.32,7.38-0.13-.3a33.15,33.15,0,0,0-2.56-4.74l-0.48.31a32.6,32.6,0,0,1,2.52,4.66L428.33,76Zm1.66,8a24.19,24.19,0,0,0-.78-5.38l-0.55.15a23.63,23.63,0,0,1,.77,5.26Zm-1.25,9.47a30.39,30.39,0,0,0,1.22-7l-0.57,0a29.82,29.82,0,0,1-1.2,6.9l0.54,0.16h0Zm-3.6,7.76a27.71,27.71,0,0,0,2.66-5.06l-0.53-.21a27.15,27.15,0,0,1-2.6,5Zm-5.47,6a28.47,28.47,0,0,0,3.85-3.83l-0.44-.36a27.9,27.9,0,0,1-3.77,3.76l0.36,0.44h0Zm-8.2,4.87a33.52,33.52,0,0,0,6.27-3.4l-0.32-.47a33,33,0,0,1-6.16,3.35Zm-8.18,2.46,1.73-.39c1.26-.3,2.52-0.65,3.78-1.07l-0.18-.54c-1.24.41-2.48,0.76-3.73,1.06l-1.72.38,0.12,0.55h0Zm-8,1.28c1.86-.22,3.65-0.47,5.35-0.77l-0.1-.56c-1.69.29-3.47,0.55-5.31,0.76l0.07,0.56h0Zm-9.49.7c2.44-.08,4.81-0.23,7.09-0.45l-0.05-.56c-2.27.21-4.63,0.36-7.06,0.44l0,0.57h0Zm-8.52,0q2.05,0.06,4.07.06h1.61v-0.57h-1.61q-2,0-4.05-.06l0,0.57h0Zm-8.08-.49q2.7,0.25,5.39.38l0-.57q-2.67-.14-5.36-0.38Zm-9.44-1.24c2.33,0.4,4.68.73,7,1l0.06-.56c-2.34-.26-4.68-0.59-7-1l-0.1.56h0Zm-8.34-1.77q2.73,0.7,5.54,1.26l0.11-.56q-2.79-.55-5.51-1.25Zm-7.75-2.38q2.51,0.91,5.14,1.66l0.16-.54q-2.61-.75-5.11-1.65l-0.19.53h0Zm-8.72-3.85a63.09,63.09,0,0,0,6.46,3l0.21-.53a62.52,62.52,0,0,1-6.4-3l-0.27.5h0Zm-7.16-4.66a45.43,45.43,0,0,0,4.68,3.25l0.29-.48a44.87,44.87,0,0,1-4.62-3.21l-0.35.44h0Zm-5.77-5.72a34.24,34.24,0,0,0,3.71,4l0.38-.42A33.67,33.67,0,0,1,323,95.81l-0.44.35h0Zm-5.4-7.85q2,3.11,4,5.91l0.46-.33q-2-2.77-3.93-5.88l-0.48.3h0ZM312.82,81q1.39,2.54,2.83,4.93l0.49-.29q-1.43-2.38-2.82-4.91l-0.5.27h0Zm-3.72-7.19q1.2,2.46,2.44,4.81l0.5-.26q-1.24-2.35-2.43-4.8l-0.51.25h0Zm-3.93-8.66q1.39,3.3,2.89,6.49l0.51-.24q-1.49-3.17-2.88-6.47Zm-3.12-7.93q1,2.68,2,5.3l0.53-.21q-1.05-2.62-2-5.29l-0.53.19h0Zm-2.6-7.67q0.8,2.58,1.69,5.13l0.54-.19q-0.88-2.54-1.68-5.11l-0.54.17h0Zm-2.56-9.16q0.84,3.43,1.85,6.85L299.3,47q-1-3.4-1.85-6.83l-0.55.14h0ZM295.12,32q0.5,2.78,1.13,5.57l0.55-.12q-0.62-2.78-1.12-5.55l-0.56.1h0ZM294,24q0.29,2.66.72,5.35l0.56-.09q-0.42-2.68-.72-5.33L294,24h0Zm-0.59-9.5q0,3.5.36,7.1l0.56,0Q294,18,293.93,14.49h-0.57ZM293.72,6q-0.28,2.79-.34,5.68h0.57Q294,8.8,294.28,6L293.72,6h0Z"/><path class="cls-4" d="M152.25,147.88l0-.5a111.55,111.55,0,0,0-18.31,2.92,110.6,110.6,0,0,1-18.15,2.9l-0.37,0-0.09.36c-3.55,15.12-5.54,29.95-9.12,46.17l-0.16.72,0.72-.11c8.25-1.29,13.41-2.68,18.56-3.91a110.48,110.48,0,0,1,18.55-2.94l0-.5-0.41.28c3.09,4.53,7.81,9,12.22,13.57s8.52,9.29,10.39,14.21l0.16,0.41,0.43-.11a61.3,61.3,0,0,1,15.06-1.54c3.92,0,7.88.17,11.95,0.17,2.68,0,5.4-.07,8.19-0.32l0.43,0,0-.43c0.89-16,2.2-30.87,4.12-46.2l0.07-.54-0.55,0c-5.06-.17-9.5-0.26-13.86-0.26-5.92,0-11.66.16-18.53,0.5l0,0.5,0.43-.26c-5.25-8.52-14.65-18.08-21.33-25.4l-0.16-.18h-0.24l0,0.5-0.37.34c6.7,7.33,16.07,16.88,21.22,25.25l0.16,0.25h0.3c6.86-.34,12.58-0.5,18.48-0.5,4.34,0,8.78.09,13.83,0.26l0-.5-0.5-.06c-1.92,15.35-3.23,30.23-4.12,46.27l0.5,0,0-.5c-2.75.24-5.45,0.32-8.1,0.32-4,0-8-.17-11.95-0.17a62.27,62.27,0,0,0-15.3,1.57l0.12,0.49,0.47-.18c-2-5.17-6.17-9.94-10.6-14.55s-9.12-9-12.11-13.44l-0.16-.24-0.29,0a111.5,111.5,0,0,0-18.71,3c-5.16,1.23-10.27,2.61-18.48,3.89l0.08,0.49,0.49,0.11c3.59-16.27,5.58-31.1,9.12-46.16l-0.49-.11,0,0.5a111.57,111.57,0,0,0,18.31-2.92,110.63,110.63,0,0,1,18.15-2.9l0-.5-0.37.34,0.37-.34"/><path class="cls-4" d="M143.91,192.56a218.19,218.19,0,0,0,3.77-22.42c1-7.8,1.95-15.07,3-19l-1-.25c-1.08,4.11-2,11.36-3,19.17a217.4,217.4,0,0,1-3.75,22.31l1,0.24"/><path class="cls-4" d="M173.67,173.9c-2.07,12-3.84,29.61-5.9,41.57l1,0.17c2.06-12,3.83-29.61,5.9-41.57l-1-.17"/><path class="cls-3" d="M97,291q-0.84,3.45-1.55,6.93L96,298q0.71-3.47,1.55-6.9L97,291h0Zm2.22-8.22q-0.8,2.72-1.52,5.47l0.55,0.14q0.72-2.74,1.52-5.45l-0.54-.16h0Zm2.46-7.71q-0.88,2.55-1.68,5.13l0.54,0.17q0.8-2.57,1.67-5.11l-0.54-.18h0Zm3.32-8.91q-1.32,3.29-2.52,6.63L103,273q1.19-3.33,2.51-6.61l-0.53-.21h0Zm3.36-7.83q-1.18,2.58-2.28,5.2l0.52,0.22q1.1-2.61,2.27-5.18Zm3.52-7.29q-1.23,2.4-2.38,4.84L110,256.1q1.15-2.43,2.37-4.83Zm4.54-8.36q-1.77,3.07-3.43,6.21l0.5,0.26q1.65-3.13,3.42-6.2l-0.49-.28h0Zm4.42-7.28q-1.53,2.39-3,4.83l0.49,0.29q1.45-2.43,3-4.81Zm4.51-6.72q-1.55,2.21-3,4.46l0.47,0.31q1.48-2.24,3-4.44l-0.46-.33h0ZM131,221q-2.19,2.79-4.27,5.67L127.2,227q2.07-2.87,4.26-5.65L131,221h0Zm5.41-6.57q-1.86,2.15-3.64,4.35l0.44,0.36q1.78-2.2,3.63-4.34l-0.43-.37h0Z"/><path class="cls-4" d="M372.5,33H373V18h-0.5v0.5h1A35.29,35.29,0,0,1,383,19.56c3.48,1,5.56,2.39,8.1,3.68a22.69,22.69,0,0,0,10.6,2.45v-0.5l-0.29-.41c-5.7,4-9.49,4.44-13.24,4.45-1.17,0-2.35,0-3.56,0a22.61,22.61,0,0,0-12.33,3.34L372.5,33h0l0.25,0.43a21.59,21.59,0,0,1,11.83-3.21c1.19,0,2.36,0,3.56,0,3.84,0,8-.52,13.81-4.63l1.25-.88-1.52,0c-6.62-.15-9.3-1.87-12.6-3.65a26.49,26.49,0,0,0-5.85-2.45,36.28,36.28,0,0,0-9.7-1.1H372V33.82l0.75-.43L372.5,33"/><path class="cls-5" d="M373.53,18.49H373V32.1a22.34,22.34,0,0,1,11.51-2.92h0.07c1.21,0,2.38,0,3.55,0h0a19.3,19.3,0,0,0,9.92-2.39c-8.36-1.08-10.35-5.41-16.86-7.69a39.36,39.36,0,0,0-7.68-.65m-2.1-.77h-1.21l0.12,17.6a16.63,16.63,0,0,1,9.59-3.14,33.35,33.35,0,0,1,4.18.34,33.64,33.64,0,0,0,4.23.34c3.64,0,7.81-1.06,13.64-5.79q-1.15,0-2.18-.08a20.67,20.67,0,0,1-11.56,3.22h-0.1c-1.2,0-2.37,0-3.56,0a21.59,21.59,0,0,0-11.83,3.21h0l-0.75.43V17.73h-0.57"/><path class="cls-6" d="M372,17.73V33.82l0.75-.43a21.59,21.59,0,0,1,11.83-3.21c1.19,0,2.36,0,3.56,0h0.1A20.67,20.67,0,0,0,399.8,27c-0.61,0-1.19-.1-1.74-0.17a19.3,19.3,0,0,1-9.92,2.39h0c-1.17,0-2.34,0-3.55,0h-0.07A22.34,22.34,0,0,0,373,32.1V18.49h0.53a39.36,39.36,0,0,1,7.68.65A28.43,28.43,0,0,0,372,17.73"/><path class="cls-7" d="M144.44,194.75l-0.22,1.18,16.2,16.23c-1.48-1.78-3.12-3.54-4.8-5.29-3.94-4.1-8.13-8.09-11.18-12.12m12.26-9.44a53.4,53.4,0,0,1-4.4-6.35l2.43-1.46a51.93,51.93,0,0,0,3.72,5.47c0.76-1.06,1.19-1.76,1.76-2.5a12.35,12.35,0,0,1,1.38-1.5l1.93,2.08a9.49,9.49,0,0,0-1.08,1.16c-0.3.38-.6,0.82-1,1.42-0.3.44-.66,1-1.11,1.57,0.65,0.72,1.23,1.35,1.78,2a15,15,0,0,1,1.62,2.16l-2.43,1.46A12.23,12.23,0,0,0,160,189c-0.4-.46-0.87-1-1.4-1.55-0.5.62-1.07,1.32-1.73,2.1l-2.17-1.83c0.8-.95,1.46-1.76,2-2.46m-4-34.05-8.05,42.16c3,4.18,7.43,8.4,11.65,12.77a63,63,0,0,1,8.6,10.51l2.31,2.31L170,200.21c1.18-9,2.33-18.44,3.6-25.88l-20.84-23.08"/><path class="cls-8" d="M144.7,193.41l-0.26,1.34c3,4,7.24,8,11.18,12.12,1.68,1.74,3.31,3.5,4.8,5.29l4.52,4.53a63,63,0,0,0-8.6-10.51c-4.21-4.37-8.65-8.59-11.65-12.77"/><path class="cls-8" d="M173.59,174.33c-1.27,7.44-2.42,16.93-3.6,25.88l3.76-25.71-0.16-.17"/><path class="cls-9" d="M192,173.2c-2.5,0-5,0-7.5.09l-7.2.62-8.81,46a66.68,66.68,0,0,1,13.14-1.09c3.95,0,7.91.17,11.94,0.17h0c2.52,0,5.07-.07,7.67-0.28,0.88-15.68,2.16-30.27,4-45.29-4.82-.16-9.09-0.24-13.28-0.24m15.3-1.87-10.52.9c2.87,0,5.85.12,9.08,0.23l0.55,0-0.07.54c-1.92,15.33-3.22,30.18-4.12,46.2l0,0.43-0.43,0c-2.79.25-5.52,0.32-8.19,0.32-4.07,0-8-.17-11.95-0.17A64.8,64.8,0,0,0,168.31,221l-0.48,2.5,36.17-.83,3.33-51.33"/><path class="cls-10" d="M196.81,172.24l-12.28,1.05c2.54-.06,5-0.09,7.5-0.09,4.18,0,8.45.08,13.28,0.24-1.87,15-3.15,29.61-4,45.29-2.6.21-5.15,0.28-7.67,0.28h0c-4,0-8-.17-11.94-0.17a66.68,66.68,0,0,0-13.14,1.09l-0.2,1.06a64.8,64.8,0,0,1,13.35-1.15c3.92,0,7.88.17,11.95,0.17,2.68,0,5.4-.07,8.19-0.32l0.43,0,0-.43c0.89-16,2.2-30.87,4.12-46.2l0.07-.54-0.55,0c-3.23-.11-6.21-0.19-9.08-0.23"/><path class="cls-4" d="M372.13,32.73v44a0.5,0.5,0,1,0,1,0v-44a0.5,0.5,0,0,0-1,0"/><path class="cls-11" d="M156.71,185.3c-0.55.7-1.21,1.51-2,2.46l2.17,1.83c0.66-.78,1.23-1.48,1.73-2.1l-0.56-.63c-0.41-.47-0.85-1-1.32-1.56m4.9-6.33a12.35,12.35,0,0,0-1.38,1.5c-0.57.73-1,1.44-1.76,2.5l0.55,0.68c0.47,0.58.92,1.09,1.33,1.56,0.45-.62.81-1.13,1.11-1.57,0.41-.6.71-1,1-1.42a9.49,9.49,0,0,1,1.08-1.16L161.61,179"/><path class="cls-11" d="M160.35,185.2c-0.47.64-1,1.39-1.76,2.29,0.52,0.58,1,1.08,1.4,1.55a12.23,12.23,0,0,1,1.32,1.76l2.43-1.46a15,15,0,0,0-1.62-2.16c-0.54-.62-1.13-1.25-1.78-2m-5.6-7.7L152.31,179a53.4,53.4,0,0,0,4.4,6.35c0.74-.94,1.29-1.69,1.74-2.31l0,0a51.93,51.93,0,0,1-3.72-5.47"/><path class="cls-12" d="M158.46,183l0,0c-0.44.62-1,1.37-1.74,2.31,0.47,0.58.91,1.09,1.32,1.56l0.56,0.63c0.72-.9,1.29-1.65,1.76-2.29-0.42-.47-0.86-1-1.33-1.56l-0.55-.68"/><rect class="cls-13" width="441" height="301.07"/></svg>