<svg id="Layer_1" data-name="Layer 1" xmlns="http://www.w3.org/2000/svg" xmlns:xlink="http://www.w3.org/1999/xlink" viewBox="0 0 430 141.9"><defs><style>.cls-1{fill:none;}.cls-2{fill:#ebbcc2;}.cls-3{fill:#e3a2a9;}.cls-4{fill:#df979f;}.cls-5{fill:url(#linear-gradient);}.cls-6{fill:url(#linear-gradient-2);}.cls-7{fill:#e8f2f5;}.cls-8{fill:url(#linear-gradient-3);}</style><linearGradient id="linear-gradient" x1="-270" y1="-510" x2="-269" y2="-510" gradientTransform="matrix(255.67, 0, 0, -255.67, 69039.32, -130302.19)" gradientUnits="userSpaceOnUse"><stop offset="0" stop-color="#f2f7f9"/><stop offset="0.5" stop-color="#f2f5f7"/><stop offset="0.68" stop-color="#f1eef1"/><stop offset="0.81" stop-color="#f0e3e6"/><stop offset="0.91" stop-color="#eed2d6"/><stop offset="1" stop-color="#ebbcc2"/></linearGradient><linearGradient id="linear-gradient-2" x1="-270" y1="-510" x2="-269" y2="-510" gradientTransform="matrix(184.55, -7.32, -7.32, -184.55, 46110.85, -95983.18)" xlink:href="#linear-gradient"/><linearGradient id="linear-gradient-3" x1="-270" y1="-510" x2="-269" y2="-510" gradientTransform="matrix(71.25, 0, 0, -71.25, 19247.58, -36284.4)" xlink:href="#linear-gradient"/></defs><title>Untitled-9</title><polyline class="cls-1" points="430 141.9 0 141.9 0 0 430 0 430 141.9"/><path class="cls-2" d="M279.18,80.42l-1.62.71,0.06,0.12,9.45,4.51,0.61-1.28-8.51-4.06m-2.65-1.27,0.37,0.72,0.59-.26-1-.46M265.77,74l-0.61,1.28,8.24,3.93q-0.52-1.06-.94-2L265.77,74" transform="translate(-3 -2.1)"/><path class="cls-2" d="M213.27,120.3l-0.3.11c-0.8,1.37-1.6,2.68-2.42,3.89l1.17,0.8c0.77-1.14,1.52-2.35,2.25-3.6l-0.71-1.2m6.83-11.75a87.12,87.12,0,0,0-4.9,8l2.09-.81a72.54,72.54,0,0,1,4-6.32l-1.15-.83" transform="translate(-3 -2.1)"/><path class="cls-2" d="M277.46,81.17l-2.51,1.09c1.08,2,2.36,4.26,3.89,6.77l2.42-1.48c-1.43-2.34-2.63-4.43-3.64-6.31l-0.16-.08m-4.06-1.94q0.42,0.85.89,1.78l1.48-.64-2.37-1.13m-0.26-8.49-2.76.64a33.23,33.23,0,0,0,2.08,5.83l4.07,1.94a39.5,39.5,0,0,1-3.39-8.41" transform="translate(-3 -2.1)"/><path class="cls-3" d="M277.56,81.13l-0.1,0,0.16,0.08-0.06-.12m-5.1-3.92q0.43,1,.94,2l2.37,1.13,1.13-.49-0.37-.72-4.07-1.94" transform="translate(-3 -2.1)"/><path class="cls-2" d="M274.29,81l-6.81,3,0.57,1.3,6.91-3L274.29,81m12.33-5.38-9.13,4,1.69,0.81,8-3.49-0.57-1.3" transform="translate(-3 -2.1)"/><path class="cls-3" d="M277.48,79.61l-0.59.26,0.66,1.26,1.62-.71-1.69-.81" transform="translate(-3 -2.1)"/><path class="cls-3" d="M275.77,80.36l-1.48.64,0.66,1.26,2.51-1.09-1.69-.81" transform="translate(-3 -2.1)"/><path class="cls-4" d="M276.89,79.87l-1.13.49,1.69,0.81,0.1,0-0.66-1.26" transform="translate(-3 -2.1)"/><polyline class="cls-2" points="265.05 83.17 265.05 83.17 265.05 83.17 265.05 83.17"/><path class="cls-2" d="M86.95,13.49l-1.51.31a45,45,0,0,1,3.24,5.38,16.26,16.26,0,0,1,1,2.29c0.07,0.24.11,0.4,0.14,0.5l0,0.1v0l0.29,0,1.12-.12c0-.17-0.32-2.59-4.25-8.44M82.8,7.85l-1.11.88c1.1,1.39,2,2.65,2.87,3.8l1.52-.31c-0.92-1.3-2-2.76-3.28-4.37" transform="translate(-3 -2.1)"/><path class="cls-2" d="M84.56,12.53l-4.23.91,0.3,1.38c1.9-.42,3.49-0.75,4.82-1l-0.89-1.26M91.29,12h0m0.08-.33h0m0.1-.14h0m0.36-.26a19.18,19.18,0,0,0-2.74.38c-0.78.14-1.77,0.33-3,.58l0.87,1.27L89.36,13a20.09,20.09,0,0,1,2.47-.36h0l0-.51L92,12l-0.52.44L92,12h0l0.53,0.49,0.11-.15a0.72,0.72,0,0,0,0-.67,0.73,0.73,0,0,0-.31-0.31A0.82,0.82,0,0,0,92,11.27h-0.2" transform="translate(-3 -2.1)"/><path class="cls-3" d="M86.08,12.22l-1.52.31,0.89,1.26,1.51-.31-0.87-1.27" transform="translate(-3 -2.1)"/><path class="cls-2" d="M216,119.26l-0.87.34q-0.55,1-1.1,1.91l0.1,0.18a27.11,27.11,0,0,1,2.49,4.94l2.7-.87a29.4,29.4,0,0,0-2.74-5.5l-0.58-1m-5-8.67L208.48,112c1.28,2.3,2.38,4.22,3.34,5.86l2.68-1c-1-1.71-2.17-3.73-3.54-6.19" transform="translate(-3 -2.1)"/><path class="cls-3" d="M215.08,119.6l-1.81.7,0.71,1.2q0.55-.94,1.1-1.91" transform="translate(-3 -2.1)"/><path class="cls-2" d="M215.2,116.51l-0.7.27,0.28,0.48,0.42-.75m6.14-2.38-4.05,1.57c-0.57,1-1.12,2-1.68,3l0.35,0.59,6.41-2.48-1-2.64" transform="translate(-3 -2.1)"/><path class="cls-3" d="M217.29,115.7l-2.09.81-0.42.75,0.83,1.41c0.56-1,1.12-2,1.68-3" transform="translate(-3 -2.1)"/><path class="cls-2" d="M211.82,117.82l-9.95,3.86,1,2.64L213,120.41l0.18-.31-1.34-2.28" transform="translate(-3 -2.1)"/><path class="cls-3" d="M213.16,120.1l-0.18.31,0.3-.11-0.12-.2" transform="translate(-3 -2.1)"/><path class="cls-3" d="M215.61,118.67l-0.52.92,0.87-.34-0.35-.59m-1.11-1.89-2.68,1,1.34,2.28c0.54-.93,1.07-1.88,1.62-2.84l-0.28-.48" transform="translate(-3 -2.1)"/><path class="cls-4" d="M214.77,117.26c-0.54,1-1.08,1.91-1.62,2.84l0.12,0.2,1.81-.7,0.52-.92-0.83-1.41" transform="translate(-3 -2.1)"/><path class="cls-5" d="M249.49,76.25c-30.15,0-82.37,3.34-131.07,7.94-24.35,2.3-47.81,4.92-67.18,7.6-9.69,1.34-18.35,2.7-25.6,4a150,150,0,0,0-17.15,4l0.86,2.7c2.38-.76,5.49-1.56,9.22-2.37l0-1C20.25,99.05,22.2,99,24.37,99l1.79-.34C51.33,94,94.07,89.07,137,85.35s86.23-6.27,112.44-6.27h0c5.69,0,10.58.12,14.47,0.37l0.18-2.83c-4-.26-8.93-0.38-14.67-0.38" transform="translate(-3 -2.1)"/><path class="cls-6" d="M30.53,102.09c-2.34.09-4.52,0.2-6.52,0.31q-3.07.71-5.74,1.41l0.16,1.82h0c3.24-.28,7.37-0.52,12.21-0.71h0c21.86-.87,58.11-0.78,92.25,1,17.08,0.87,33.63,2.15,47.59,3.93,7,0.89,13.31,1.9,18.73,3a75.61,75.61,0,0,1,13.19,3.8l1.1-2.61a78.23,78.23,0,0,0-13.71-4c-19.3-4.07-49.47-6.44-79.67-7.62s-60.38-1.14-79.61-.38" transform="translate(-3 -2.1)"/><path class="cls-7" d="M24.37,99c-2.16,0-4.12.1-5.84,0.17l0,1q2.69-.58,5.79-1.18" transform="translate(-3 -2.1)"/><path class="cls-8" d="M80.67,18.35C49.58,40.91,32,59,11.09,82.15l2.1,1.9h0C34,61,51.42,43.09,82.33,20.65l-1.67-2.29" transform="translate(-3 -2.1)"/></svg>