<svg id="Layer_1" data-name="Layer 1" xmlns="http://www.w3.org/2000/svg" viewBox="0 0 212 145"><defs><style>.cls-1{fill:#172a3d;}.cls-2{fill:none;}</style></defs><title>process-04</title><path class="cls-1" d="M198.6,68.7c2.4,0.1,4.7.1,7.1,0.2V68.3c-2.4,0-4.7-.1-7.1-0.2v0.6h0Zm-8.5-.4,1.9,0.1,3.8,0.2V68l-3.8-.2-1.9-.1v0.6h0Zm-8.1-.7c1.8,0.2,3.6.4,5.4,0.5V67.5c-1.8-.1-3.6-0.3-5.4-0.5v0.6h0Zm-9.4-1.2c2.3,0.4,4.7.7,7,1V66.8c-2.3-.3-4.7-0.6-7-1v0.6Zm-8.4-1.5c1.8,0.4,3.7.8,5.6,1.1l0.1-.6c-1.9-.3-3.7-0.7-5.6-1.1l-0.1.6h0ZM156.3,63c1.7,0.5,3.5.9,5.2,1.3l0.1-.6c-1.7-.4-3.5-0.8-5.2-1.3l-0.1.6h0Zm-9-2.9c2.2,0.8,4.5,1.5,6.7,2.2l0.2-.5c-2.3-.7-4.5-1.4-6.7-2.2Zm-8-3.2c1.7,0.8,3.5,1.5,5.2,2.2l0.2-.5c-1.8-.7-3.5-1.4-5.2-2.2l-0.2.5h0Zm-7.2-3.6a44.42,44.42,0,0,0,4.9,2.4l0.2-.5-4.8-2.4-0.3.5h0Zm-8.2-4.9c2,1.3,4,2.6,6,3.7l0.3-.5c-2-1.2-4-2.4-6-3.7l-0.3.5h0Zm-6.8-5.1c1.5,1.2,3,2.3,4.5,3.4l0.3-.5c-1.5-1.1-3-2.2-4.5-3.4l-0.3.5h0ZM111,38c1.3,1.3,2.7,2.5,4,3.6l0.4-.4c-1.3-1.1-2.7-2.3-4-3.6Zm-6.6-6.9c1.6,1.8,3.2,3.5,4.8,5.2l0.4-.4c-1.6-1.6-3.3-3.4-4.8-5.2l-0.4.4h0Zm-5.3-6.7c1.1,1.5,2.3,3,3.5,4.5l0.4-.4c-1.2-1.4-2.3-2.9-3.5-4.4l-0.4.3h0Zm-4.6-6.6c0.9,1.5,1.9,2.9,2.9,4.3l0.1,0.2L98,22l-0.1-.2c-1-1.4-2-2.8-2.9-4.3ZM90,9.4a54.58,54.58,0,0,0,3.2,6.4l0.5-.3a46.55,46.55,0,0,1-3.2-6.3L90,9.4h0ZM87.8,1.2A25.71,25.71,0,0,0,89,6.7l0.5-.2A25.71,25.71,0,0,1,88.3,1l-0.5.2h0Z"/><rect class="cls-2" width="212" height="145"/></svg>