<svg id="Layer_1" data-name="Layer 1" xmlns="http://www.w3.org/2000/svg" viewBox="0 0 660 310"><defs><style>.cls-1{fill:#172a3d;}.cls-2{fill:#197593;}.cls-3{fill:#f2f7f9;}.cls-4{fill:#4590a8;}.cls-5{fill:#ebbcc2;}.cls-6{fill:#e8f2f5;}.cls-7{fill:#66a4b8;}.cls-8{fill:none;}</style></defs><title>Untitled-6</title><path class="cls-1" d="M216.61,263.16q-2.79.12-5.66,0.15v0.57q2.88,0,5.67-.15l0-.57h0Zm8-.52q-2.64.23-5.36,0.38l0,0.57q2.73-.15,5.38-0.39l0-.56h0Zm9.41-1.1q-3.43.5-7,.87l0.06,0.56q3.6-.37,7-0.87l-0.08-.56h0Zm8.35-1.46q-2.73.56-5.56,1l0.09,0.56q2.84-.47,5.58-1l-0.11-.56h0Zm7.84-1.84q-2.56.68-5.22,1.28l0.12,0.55q2.67-.6,5.24-1.28l-0.15-.55h0Zm9.06-2.76q-3.27,1.13-6.74,2.12l0.16,0.55q3.48-1,6.77-2.13Zm7.91-3.05q-2.56,1.09-5.25,2.1l0.2,0.53q2.71-1,5.27-2.11l-0.22-.52h0Zm7.29-3.43q-2.35,1.21-4.83,2.34l0.23,0.52q2.5-1.14,4.86-2.35l-0.26-.5h0Zm8.21-4.7q-2.91,1.85-6.09,3.58l0.27,0.5q3.19-1.73,6.12-3.6Zm7-4.85q-2.2,1.68-4.59,3.3l0.32,0.47q2.4-1.62,4.61-3.32Zm6.18-5.16q-1.94,1.78-4.07,3.5l0.36,0.44q2.14-1.73,4.09-3.52Zm6.62-6.76q-2.26,2.59-4.87,5.11L298,233q2.63-2.54,4.9-5.15Zm5.22-6.67q-1.58,2.26-3.4,4.51l0.44,0.36q1.84-2.26,3.43-4.54l-0.47-.32h0Zm4.22-6.85q-1.23,2.3-2.72,4.62l0.48,0.31q1.5-2.34,2.75-4.66l-0.5-.27h0Zm3.8-8.64a56.73,56.73,0,0,1-2.71,6.51l0.51,0.25a57.3,57.3,0,0,0,2.73-6.57Zm2-8.2a42.31,42.31,0,0,1-1.17,5.51l0.55,0.15a42.88,42.88,0,0,0,1.18-5.58Zm0.13-8a27.76,27.76,0,0,1,.15,5.32l0.57,0a28.33,28.33,0,0,0-.15-5.43l-0.56.07h0Zm-3.47-8.51a14.64,14.64,0,0,1,3,6.18l0.55-.14a15.21,15.21,0,0,0-3.16-6.41Zm-7.17-3.77a11.55,11.55,0,0,1,5.13,1.93l0.32-.47a12.11,12.11,0,0,0-5.37-2l-0.07.56h0Zm-7.86.79a21.82,21.82,0,0,1,5.23-.9l0-.57a22.39,22.39,0,0,0-5.36.93Zm-8.82,3.39q3-1.36,6.55-2.63l-0.19-.53q-3.55,1.27-6.59,2.65l0.23,0.52h0Zm-7.47,4q2.24-1.41,4.92-2.75l-0.25-.51q-2.7,1.35-5,2.78l0.3,0.48h0Zm-6.33,4.9a35.09,35.09,0,0,1,4.11-3.41l-0.33-.46a35.66,35.66,0,0,0-4.17,3.46l0.4,0.41h0Zm-5.27,7.66a20.45,20.45,0,0,1,3.64-5.92l-0.43-.37a21,21,0,0,0-3.74,6.09l0.53,0.21h0Zm-1,8.2a17.14,17.14,0,0,1-.07-3.63,16.41,16.41,0,0,1,.28-1.91l-0.56-.12a17,17,0,0,0-.29,2,17.71,17.71,0,0,0,.07,3.75l0.56-.07h0Zm2.45,7.52A24.21,24.21,0,0,1,271,208.4l-0.55.15a24.77,24.77,0,0,0,2,5Zm5.43,7.66a40.55,40.55,0,0,1-4.25-5.59l-0.48.3a41.12,41.12,0,0,0,4.31,5.67l0.42-.38h0Zm6.1,5.85Q282.2,225,280.27,223l-0.4.4q1.94,1.94,4.2,3.84Zm6.42,4.85q-2.27-1.56-4.34-3.17l-0.35.45q2.07,1.62,4.36,3.19Zm8.05,5q-3.17-1.78-6.05-3.66l-0.31.48q2.9,1.88,6.08,3.67Zm7.53,3.91q-2.6-1.24-5.05-2.55l-0.27.5q2.46,1.31,5.07,2.56l0.25-.51h0Zm7.37,3.28q-2.52-1-4.93-2.14l-0.24.52q2.42,1.11,5,2.15Zm8.87,3.37q-3.39-1.18-6.64-2.46l-0.21.53q3.26,1.29,6.66,2.47l0.19-.54h0Zm8.09,2.59q-2.74-.8-5.41-1.68l-0.18.54q2.68,0.88,5.43,1.69l0.16-.54h0Zm7.79,2.09q-2.63-.64-5.21-1.36l-0.15.55q2.58,0.72,5.22,1.36l0.13-.55h0Zm9.27,2q-3.5-.66-6.93-1.46l-0.13.55q3.44,0.79,6.95,1.46l0.11-.56h0Zm8.38,1.39q-2.81-.4-5.59-0.88l-0.1.56q2.79,0.49,5.61.89Zm8,0.95q-2.69-.26-5.36-0.59l-0.07.56q2.68,0.34,5.37.59l0.05-.56h0Zm9.47,0.63q-3.54-.14-7.07-0.42l0,0.57q3.53,0.29,7.09.43Zm8.49,0.11q-2.83,0-5.66,0v0.57q2.84,0.06,5.68,0V257h0Zm8.06-.33q-2.68.18-5.37,0.27l0,0.57q2.7-.09,5.39-0.27l0-.57h0Zm9.42-1q-3.5.47-7,.77l0,0.56q3.54-.3,7.06-0.77l-0.08-.56h0Zm8.36-1.41q-2.77.56-5.56,1l0.09,0.56q2.81-.44,5.59-1l-0.11-.56h0Zm7.83-1.85q-2.59.7-5.21,1.29l0.12,0.55q2.63-.59,5.23-1.3l-0.15-.55h0Zm9-2.86q-3.31,1.21-6.71,2.21l0.16,0.54q3.41-1,6.74-2.22l-0.19-.53h0Zm7.83-3.23q-2.56,1.18-5.19,2.22l0.21,0.53q2.64-1,5.22-2.23l-0.24-.51h0Zm7.17-3.67q-2.34,1.32-4.75,2.51l0.25,0.51q2.42-1.2,4.77-2.53l-0.28-.49h0Zm8-5.07q-2.89,2.05-5.92,3.86l0.29,0.49q3-1.82,6-3.88l-0.33-.46h0Zm6.67-5.23q-2.15,1.85-4.39,3.55l0.34,0.45q2.26-1.71,4.42-3.57l-0.37-.43h0Zm5.84-5.53q-1.87,1.94-3.84,3.74l0.38,0.42q2-1.81,3.86-3.77l-0.41-.39h0Zm6.19-7.14q-2.19,2.82-4.55,5.39l0.42,0.38q2.37-2.59,4.58-5.43l-0.45-.35h0Zm4.89-6.92q-1.54,2.41-3.19,4.66l0.46,0.33q1.66-2.27,3.21-4.69l-0.48-.31h0Zm4-7q-1.27,2.4-2.64,4.67l0.49,0.29q1.37-2.29,2.65-4.7l-0.5-.26h0Zm4-8.56q-1.39,3.32-2.93,6.42l0.51,0.25q1.56-3.12,3-6.46l-0.52-.22h0Zm3-7.94q-0.91,2.72-1.91,5.32l0.53,0.21q1-2.61,1.92-5.34l-0.54-.18h0Z" transform="translate(-2 -2)"/><path class="cls-1" d="M475.11,133.05q0.17,1,.29,2L476,135q-0.12-1-.29-2Zm-2.26-8.12a40.81,40.81,0,0,1,1.69,5.36l0.55-.13a41.39,41.39,0,0,0-1.71-5.44l-0.53.21h0Zm-3.63-7.14a42.51,42.51,0,0,1,2.58,4.68l0.51-.24a43.08,43.08,0,0,0-2.61-4.75l-0.48.3h0Zm-5.83-7.4a47.92,47.92,0,0,1,4.5,5.41l0.46-.33a48.49,48.49,0,0,0-4.55-5.47l-0.41.39h0Zm-6.32-5.62q2.25,1.72,4.31,3.64l0.39-.41q-2.07-1.94-4.36-3.67l-0.34.45h0Zm-6.69-4.46q2.33,1.35,4.53,2.88l0.32-.47q-2.21-1.54-4.57-2.9Zm-8.47-4.2c2.17,0.91,4.3,1.92,6.38,3l0.27-.5c-2.09-1.12-4.24-2.14-6.42-3.05l-0.22.52h0Zm-8-2.85q2.69,0.81,5.35,1.81l0.2-.53q-2.67-1-5.39-1.82l-0.16.54h0Z" transform="translate(-2 -2)"/><path class="cls-2" d="M525.19,150.51l0.49,0.11a16.26,16.26,0,0,0-31.6-7.62l0.48,0.13,0.18-.46a4.29,4.29,0,0,0-1.61-.27c-0.72,0-1.41.1-2.07,0.1a10,10,0,0,0-9.84,9l0.5,0.07V151h-3.53a13.08,13.08,0,0,0-8.52,3,10.31,10.31,0,0,0-3.67,8h1v-0.07h-1c0,3.14.2,6.14,2.1,8.74s5.4,4.68,11.79,6.19a77.76,77.76,0,0,0,17.44,1.73,129.6,129.6,0,0,0,17.81-1.27,67.74,67.74,0,0,0,12.7-2.81c3.22-1.19,5.31-2.7,6.55-4.75S536,165.13,536,162v-0.07A12.16,12.16,0,0,0,525.25,150l-0.06.5,0.49,0.11-0.49-.11-0.06.5A11.17,11.17,0,0,1,535,161.89V162c0,3.1-.38,5.42-1.47,7.23s-2.93,3.18-6,4.33A66.9,66.9,0,0,1,515,176.29a128.62,128.62,0,0,1-17.67,1.26,76.8,76.8,0,0,1-17.21-1.71c-6.28-1.49-9.53-3.5-11.21-5.81s-1.9-5-1.9-8.15h-1V162h1a9.3,9.3,0,0,1,3.32-7.2,12.08,12.08,0,0,1,7.86-2.76h4l0.06-.43a9,9,0,0,1,8.85-8.09c0.76,0,1.45-.1,2.07-0.1a3.31,3.31,0,0,1,1.24.2l0.52,0.21,0.15-.54a15.27,15.27,0,0,1,29.66,7.15l-0.12.54,0.55,0.06,0.06-.5" transform="translate(-2 -2)"/><path class="cls-3" d="M527.69,174.52a68.86,68.86,0,0,1-12.55,2.76l-1.08.15a15.09,15.09,0,0,1-7.51,1.9c-2.62,0-7.44-.39-12.33-0.82a82.35,82.35,0,0,1-10-.86c-1.74-.13-3.17-0.21-4.09-0.21a14.56,14.56,0,0,1-2-.14c9.5,3.18,21.7,4.42,30.92,4.42a58.65,58.65,0,0,0,10.6-.77c4.76-1,6.92-2.93,8.09-6.42m-58.53-20.06a8.29,8.29,0,0,0-4.79,6.32v-0.07c-0.82,5.21-.7,9.75,7.43,14a10.61,10.61,0,0,1-2.35-2.54,10.31,10.31,0,0,1-1.36-1.51c-1.88-2.58-2.09-5.55-2.1-8.67h0v-0.07h0a10.28,10.28,0,0,1,3.16-7.42m38-15.86a14.77,14.77,0,0,0-13.47,8.79,2.62,2.62,0,0,0-1.38-.3l-0.59,0-0.6,0a4.57,4.57,0,0,1-.71,0,8.49,8.49,0,0,0-7.82,2.91,10.56,10.56,0,0,0-.35,1.58l-0.06.43H481.2a11.28,11.28,0,0,0-.79,2l-3.28-.51a15.47,15.47,0,0,0-2.39-.19,14.18,14.18,0,0,0-2.59.23,10.76,10.76,0,0,0-1.82,1.26A9.3,9.3,0,0,0,467,162a15.34,15.34,0,0,0,1.11,6.77,8.54,8.54,0,0,1-.11-1.39c0-5.58,5.42-10.1,12.11-10.1a14.49,14.49,0,0,1,2.07.16,12.73,12.73,0,0,1,10.36-4.89,14.49,14.49,0,0,1,2,.15,9.92,9.92,0,0,1,9.72-7.17c5.54,0,10,4.22,10,9.42a9.19,9.19,0,0,1-3.67,7.28c4.67,1.22,8,4.48,8,8.31a7.56,7.56,0,0,1-2.83,5.68,64.33,64.33,0,0,0,11.65-2.64l0.54-.21c0.19-.76.35-1.58,0.49-2.47v-0.07a10.78,10.78,0,0,0-7.69-12.07,14.74,14.74,0,0,0-13.73-20.11" transform="translate(-2 -2)"/><path class="cls-4" d="M484.2,177.65a82.35,82.35,0,0,0,10,.86c-3.59-.32-7.22-0.65-10-0.86M528,173.32l-0.54.21a64.33,64.33,0,0,1-11.65,2.64,11.34,11.34,0,0,1-1.78,1.26l1.08-.15a68.86,68.86,0,0,0,12.55-2.76q0.19-.57.35-1.2m-55.9-19.82a11.79,11.79,0,0,0-3,1,10.28,10.28,0,0,0-3.16,7.42h0V162h0c0,3.12.22,6.09,2.1,8.67a10.31,10.31,0,0,0,1.36,1.51,8.94,8.94,0,0,1-1.34-3.42A15.34,15.34,0,0,1,467,162a9.3,9.3,0,0,1,3.32-7.2,10.76,10.76,0,0,1,1.82-1.26M482.56,150a10.09,10.09,0,0,0-1.36,2h0.95l0.06-.43a10.56,10.56,0,0,1,.35-1.58" transform="translate(-2 -2)"/><path class="cls-5" d="M531.8,122a19.16,19.16,0,0,0-16.33,8.54c7.84,0.77,14,6.67,14,13.85a12.48,12.48,0,0,1-.26,3,11.63,11.63,0,0,1,9.6,6.69c6.86-2.46,11.71-8.43,11.71-15.41,0-9.18-8.37-16.62-18.7-16.62" transform="translate(-2 -2)"/><path class="cls-3" d="M471.8,174.69a13.1,13.1,0,0,0,6.27,2.61c-1-.35-2.05-0.72-3-1.12-1.2-.49-2.28-1-3.25-1.49" transform="translate(-2 -2)"/><path class="cls-6" d="M514.07,177.43a129.6,129.6,0,0,1-16.74,1.12q-1.55,0-3.1,0c4.89,0.43,9.71.82,12.33,0.82a15.09,15.09,0,0,0,7.51-1.9m-44.61-5.29a10.61,10.61,0,0,0,2.35,2.54c1,0.5,2,1,3.25,1.49,1,0.4,2,.77,3,1.12a14.56,14.56,0,0,0,2,.14c0.91,0,2.34.08,4.09,0.21-1.49-.23-2.93-0.5-4.31-0.83-5.09-1.21-8.35-2.78-10.43-4.68m34.83-26.66a9.92,9.92,0,0,0-9.72,7.17,14.49,14.49,0,0,0-2-.15,12.73,12.73,0,0,0-10.36,4.89,14.49,14.49,0,0,0-2.07-.16c-6.69,0-12.11,4.52-12.11,10.1a8.54,8.54,0,0,0,.11,1.39,8.44,8.44,0,0,0,.79,1.32c1.68,2.31,4.93,4.32,11.21,5.81a76.77,76.77,0,0,0,17.2,1.71h0A128.62,128.62,0,0,0,515,176.29l0.84-.12a7.56,7.56,0,0,0,2.83-5.68c0-3.83-3.35-7.09-8-8.31a9.19,9.19,0,0,0,3.67-7.28c0-5.2-4.49-9.42-10-9.42" transform="translate(-2 -2)"/><path class="cls-7" d="M468.11,168.73a8.94,8.94,0,0,0,1.34,3.42c2.07,1.9,5.33,3.47,10.43,4.68,1.38,0.33,2.82.6,4.31,0.83,2.81,0.21,6.44.54,10,.86q1.55,0,3.1,0a129.6,129.6,0,0,0,16.74-1.12,11.34,11.34,0,0,0,1.78-1.26l-0.84.12a128.62,128.62,0,0,1-17.67,1.26h0a76.77,76.77,0,0,1-17.2-1.71c-6.28-1.49-9.53-3.5-11.21-5.81a8.44,8.44,0,0,1-.79-1.32" transform="translate(-2 -2)"/><rect class="cls-8" width="660" height="310"/></svg>