<svg width="83" height="25" viewBox="0 0 83 25" fill="none" xmlns="http://www.w3.org/2000/svg">
<g clip-path="url(#clip0_1883_7696)">
<path d="M58.6698 25L60.156 17.9598H57.9871C56.7588 17.9598 55.9275 17.6027 55.4456 16.868C54.9523 16.095 54.7978 15.0237 54.9886 13.6874L57.1167 0H68.6552L66.1427 13.6316H67.5526L70.7441 0H82.2368L78.6486 13.5511C78.3035 14.9104 77.6961 16.0047 76.8426 16.8074C76.0277 17.572 74.9726 17.9598 73.7069 17.9598H71.7734L70.3138 25H58.6698ZM40.4923 25L41.2665 20.5481H39.1466L38.07 25H26.3465L33.4872 0H55.5043L52.2315 25H40.4923ZM39.4838 19.1532H41.5091L44.0573 4.50093H43.0269L39.4838 19.1532ZM13.8234 25L15.1136 15.4752H13.6149L11.6117 25H0L5.22322 0H25.2575C26.9475 0 28.1021 0.417514 28.6893 1.24083C29.3098 2.08179 29.4607 3.36221 29.1412 5.05091L28.4974 8.15083C28.2569 9.35125 27.9168 10.3252 27.4858 11.048C27.0699 11.7245 26.508 12.2526 25.8183 12.6137C25.1277 12.9541 24.2512 13.1285 23.2204 13.1285H20.2556L19.8904 14.3908H23.0507C23.9909 14.3908 24.6664 14.5422 25.0581 14.8408C25.4717 15.1217 25.7023 15.4876 25.7783 15.9699C25.8863 16.4995 25.8847 17.2411 25.7763 18.1898L25.0283 25H13.8234ZM14.5374 10.9944L14.3254 12.0096H15.3774C15.8258 12.0096 16.1419 11.7506 16.2444 11.2991L17.366 6.01427C17.4169 5.70415 17.3217 5.51857 17.2255 5.41184C17.096 5.24704 16.9108 5.15648 16.7015 5.15648H15.7888L14.5374 10.9944Z" fill="white"/>
</g>
<defs>
<clipPath id="clip0_1883_7696">
<rect width="82.2368" height="25" fill="white"/>
</clipPath>
</defs>
</svg>
