<svg width="72" height="72" viewBox="0 0 72 72" fill="none" xmlns="http://www.w3.org/2000/svg">
<g clip-path="url(#clip0_1883_7813)">
<path d="M58.8094 24.9209C58.05 24.6678 57.2906 24.4287 56.5312 24.2037C56.6578 23.6834 56.7703 23.1631 56.8828 22.6428C58.6125 14.2615 57.4734 7.52559 53.6344 5.30371C49.9359 3.18027 43.9031 5.38809 37.8 10.7037C37.1953 11.224 36.6047 11.7725 36.0422 12.3209C35.6625 11.9553 35.2687 11.5896 34.875 11.2381C28.4766 5.55684 22.0641 3.16621 18.225 5.40215C14.5406 7.53965 13.4437 13.8818 14.9906 21.8131C15.1453 22.6006 15.3141 23.374 15.5109 24.1615C14.6109 24.4146 13.725 24.6959 12.8953 24.9912C5.38594 27.5928 0 31.699 0 35.9459C0 40.3334 5.7375 44.735 13.5422 47.4068C14.175 47.6178 14.8078 47.8287 15.4547 48.0115C15.2438 48.8553 15.0609 49.685 14.8922 50.5428C13.4156 58.3475 14.5688 64.535 18.2531 66.6584C22.05 68.8521 28.4344 66.6021 34.65 61.16C35.1422 60.724 35.6344 60.274 36.1266 59.7959C36.7453 60.4006 37.3922 60.9771 38.0391 61.5396C44.0578 66.7146 50.0063 68.81 53.6766 66.6865C57.4734 64.4928 58.7109 57.8412 57.1078 49.7412C56.9813 49.1225 56.8406 48.4896 56.6859 47.8428C57.1359 47.7162 57.5719 47.5756 58.0078 47.435C66.1219 44.749 72 40.4037 72 35.9459C72 31.685 66.4594 27.5506 58.8094 24.9209ZM39.7828 12.9818C45.0141 8.42559 49.8938 6.63965 52.1156 7.91934C54.4922 9.2834 55.4062 14.7959 53.9156 22.0381C53.8172 22.5162 53.7188 22.9803 53.5922 23.4443C50.4703 22.7412 47.3062 22.235 44.1281 21.9537C42.3 19.3381 40.3031 16.835 38.1375 14.4865C38.6859 13.9662 39.2203 13.474 39.7828 12.9818ZM23.5125 43.2443C24.2297 44.4678 24.9609 45.6912 25.7344 46.8865C23.5406 46.6475 21.3609 46.2959 19.2094 45.8318C19.8281 43.8068 20.6016 41.7115 21.5016 39.574C22.1484 40.8115 22.8094 42.035 23.5125 43.2443ZM19.2516 26.3271C21.2766 25.8771 23.4281 25.5115 25.6641 25.2303C24.9187 26.3975 24.1875 27.5928 23.4984 28.8021C22.8094 29.9975 22.1344 31.2209 21.5016 32.4584C20.6156 30.3631 19.8703 28.31 19.2516 26.3271ZM23.1047 36.0162C24.0328 34.0756 25.0453 32.1771 26.1141 30.3068C27.1828 28.4365 28.3359 26.6225 29.5453 24.8365C31.6547 24.6818 33.8062 24.5975 36 24.5975C38.1938 24.5975 40.3594 24.6818 42.4547 24.8365C43.65 26.6084 44.7891 28.4225 45.8719 30.2787C46.9547 32.135 47.9672 34.0334 48.9234 35.96C47.9812 37.9006 46.9687 39.8131 45.8859 41.6975C44.8172 43.5678 43.6781 45.3818 42.4828 47.1818C40.3875 47.3365 38.2078 47.4068 36 47.4068C33.7922 47.4068 31.6547 47.3365 29.5875 47.21C28.3641 45.424 27.2109 43.5959 26.1281 41.7256C25.0453 39.8553 24.0469 37.9568 23.1047 36.0162ZM48.5016 43.2162C49.2187 41.9787 49.8938 40.7271 50.5547 39.4615C51.4547 41.5006 52.2422 43.5678 52.9312 45.6912C50.7516 46.1834 48.5437 46.5631 46.3219 46.8162C47.0812 45.635 47.7984 44.4256 48.5016 43.2162ZM50.5266 32.4584C49.8656 31.2209 49.1906 29.9834 48.4875 28.774C47.7984 27.5787 47.0813 26.3975 46.3359 25.2303C48.6 25.5115 50.7656 25.8912 52.7906 26.3553C52.1437 28.4365 51.3844 30.4615 50.5266 32.4584ZM36.0281 16.6381C37.5047 18.2412 38.8969 19.9287 40.1906 21.6725C37.4062 21.5459 34.6078 21.5459 31.8234 21.6725C33.2016 19.8584 34.6219 18.1709 36.0281 16.6381ZM19.7156 8.01777C22.0781 6.63965 27.3234 8.6084 32.85 13.5021C33.2016 13.8115 33.5531 14.149 33.9187 14.4865C31.7391 16.835 29.7281 19.3381 27.8859 21.9537C24.7078 22.235 21.5578 22.7271 18.4359 23.4162C18.2531 22.699 18.0984 21.9678 17.9437 21.2365C16.6219 14.4303 17.4937 9.29746 19.7156 8.01777ZM16.2703 45.0865C15.6797 44.9178 15.1031 44.735 14.5266 44.5381C11.5313 43.5959 8.12812 42.1053 5.66719 40.1506C4.24687 39.1662 3.29062 37.6475 3.02344 35.9459C3.02344 33.3725 7.46719 30.0818 13.8797 27.8459C14.6812 27.5646 15.4969 27.3115 16.3125 27.0725C17.2688 30.124 18.4219 33.1193 19.7578 36.0162C18.4078 38.9553 17.2406 41.9928 16.2703 45.0865ZM32.6672 58.8678C30.3469 60.9912 27.6609 62.6787 24.7359 63.8318C23.175 64.5771 21.375 64.6475 19.7719 64.0146C17.5359 62.7209 16.6078 57.7568 17.8734 51.0771C18.0281 50.2896 18.1969 49.5021 18.3938 48.7287C21.5438 49.4037 24.7219 49.8678 27.9422 50.1068C29.7984 52.7365 31.8375 55.2537 34.0172 57.6162C33.5672 58.0521 33.1172 58.474 32.6672 58.8678ZM36.1125 55.4506C34.6781 53.9037 33.2437 52.1881 31.8516 50.3459C33.2016 50.4021 34.5938 50.4303 36 50.4303C37.4484 50.4303 38.8687 50.4021 40.275 50.3318C38.9812 52.1178 37.5891 53.8193 36.1125 55.4506ZM54.4922 59.6693C54.3656 61.385 53.5219 62.9881 52.1719 64.0709C49.9359 65.3646 45.1688 63.6771 40.0219 59.2615C39.4313 58.7553 38.8406 58.2068 38.2359 57.6443C40.3875 55.2678 42.3703 52.7506 44.1703 50.1068C47.3906 49.8396 50.5969 49.3475 53.7609 48.6303C53.9016 49.2068 54.0281 49.7834 54.1406 50.3459C54.8297 53.3834 54.9422 56.5475 54.4922 59.6693ZM57.0516 44.5521C56.6578 44.6787 56.2641 44.8053 55.8563 44.9178C54.8719 41.8521 53.6625 38.8568 52.2703 35.9459C53.6203 33.0771 54.7594 30.124 55.7156 27.1006C56.4469 27.3115 57.15 27.5365 57.825 27.7615C64.3781 30.0115 68.9766 33.3584 68.9766 35.9178C68.9766 38.674 64.0688 42.2318 57.0516 44.5521ZM36 42.4428C39.5578 42.4428 42.4406 39.56 42.4406 36.0021C42.4406 32.4443 39.5578 29.5615 36 29.5615C32.4422 29.5615 29.5594 32.4443 29.5594 36.0021C29.5594 39.56 32.4422 42.4428 36 42.4428Z" fill="white"/>
</g>
<defs>
<clipPath id="clip0_1883_7813">
<rect width="72" height="72" fill="white"/>
</clipPath>
</defs>
</svg>
