<svg id="Layer_1" data-name="Layer 1" xmlns="http://www.w3.org/2000/svg" viewBox="0 0 867.09 1536.15"><defs><style>.cls-1{fill:#a19d90;}.cls-2,.cls-4{fill:#1e3852;}.cls-2{opacity:0.1;}.cls-3{fill:#172a3d;}.cls-5{fill:#b3afa1;}.cls-6{opacity:0.95;}.cls-7,.cls-8{fill:#fff;}.cls-8{stroke:#436280;stroke-linecap:round;stroke-miterlimit:10;stroke-width:5.67px;}.cls-9{fill:none;}</style></defs><title>Untitled-1</title><rect class="cls-1" x="433.07" y="119.91" width="30" height="158" transform="translate(-8.15 -35.85) rotate(2.69)"/><rect class="cls-2" x="422.57" y="111.03" width="35.28" height="158" transform="translate(-8.58 -35.49) rotate(2.69)"/><path class="cls-2" d="M620.92,382L608,254.65c-0.62-6.09-6.56-10.54-13.49-10.3v0L566.9,247l-1.4-52.6c-0.16-6.13-5.75-10.9-12.68-11.06v0L274.87,195v0c-6.9.74-12.22,6-12.06,12.1l3.42,128c0.16,6.13,5.75,10.9,12.68,11.06l11.31,423.58A124.72,124.72,0,0,0,280.4,790L140.64,1160.16c-25.76,68.24,16.42,140.34,94.22,161h0a166.32,166.32,0,0,0,28.38,5c17.83,33.9,52.64,60.39,97.77,69.64h0c79.3,16.27,160.36-26.83,181.05-96.25l112.14-387c5.56-18.66,6.2-36.57,2.63-53.1L609.76,394.69C616.61,393.57,621.54,388.05,620.92,382Z" transform="translate(-18 -15)"/><path class="cls-3" d="M563.32,189.63v0l-244,4.78v0a11.73,11.73,0,0,0-10.63,11.9l2.53,129.24A11.73,11.73,0,0,0,322.31,347l8.38,427.77A131.08,131.08,0,0,0,322,794.95L198,1165a130.26,130.26,0,0,0,82.11,164.91h0A130.26,130.26,0,0,0,445,1247.8L569.61,867.27A122.14,122.14,0,0,0,575.56,814l-9.24-471.77a11.73,11.73,0,0,0,10.63-11.9l-2.53-129.24A11.73,11.73,0,0,0,563.32,189.63Z" transform="translate(-18 -15)"/><path class="cls-4" d="M589,203.42v0L345.74,223.66v0a11.81,11.81,0,0,0-9.82,12.73l11.13,130.79a11.86,11.86,0,0,0,11.83,10.93l36.84,432.91a133.87,133.87,0,0,0-7.33,21l-99.16,382.82c-18.28,70.57,23.33,143,92.93,161.9h0c69.6,18.85,140.85-23.08,159.13-93.64l99.05-393.46a125.73,125.73,0,0,0,2.39-54.34L602.11,357.87a11.81,11.81,0,0,0,9.82-12.73L600.8,214.35A11.86,11.86,0,0,0,589,203.42Z" transform="translate(-18 -15)"/><rect class="cls-5" x="443.14" y="120.66" width="30" height="158" transform="translate(-31.47 19.31) rotate(-4.23)"/><g class="cls-6"><path class="cls-7" d="M394.46,474.66l4.23-6.63c2.9,2.09,6.14,3.44,9.43,3.22,2.32-.15,3.46-1.24,3.37-2.69v0c-0.09-1.35-1.16-2.11-5.21-3.25-6.52-1.76-11.17-3.79-11.56-9.93v-0.15c-0.4-6.14,4-10.74,11.41-11.22a18.54,18.54,0,0,1,12.35,3.33l-4,6.76a13.46,13.46,0,0,0-8.08-2.58c-2,.13-3,1.17-2.95,2.42v0c0.1,1.5,1.21,2.2,5.62,3.52,6.56,1.66,10.74,4,11.12,9.76v0.1c0.43,6.57-4.39,11-11.64,11.43A20.64,20.64,0,0,1,394.46,474.66Z" transform="translate(-18 -15)"/><path class="cls-7" d="M426.73,443.11l12.08-.78c8-.52,13.46,3.3,14,10.89v0.19c0.53,8.12-5.12,12.37-12.51,12.94l-3.33.22,0.64,9.81-8.65.56Zm12.79,16.16c3-.2,4.77-2.1,4.58-5v-0.15c-0.2-3.09-2.09-4.57-5.23-4.37l-3,.19,0.61,9.47Z" transform="translate(-18 -15)"/><path class="cls-7" d="M465.77,440.38l8.8-.57,14.14,33.25-9.13.59-2.38-6-10.63.69L465,474.6l-8.94.58Zm8.8,20.49-3.78-9.7-2.5,10.11Z" transform="translate(-18 -15)"/><path class="cls-7" d="M496.79,446.43l-8.36.54-0.51-7.83,25.42-1.65,0.51,7.83-8.36.54,1.69,26-8.7.56Z" transform="translate(-18 -15)"/><path class="cls-7" d="M520.83,437l8.7-.56,2.19,33.83-8.7.56Z" transform="translate(-18 -15)"/><path class="cls-7" d="M541.52,435.67l23.3-1.51,0.5,7.64-14.69,1L551,448.3l13.24-.86,0.47,7.2-13.24.86,0.38,5.8,14.89-1,0.5,7.64-23.49,1.52Z" transform="translate(-18 -15)"/></g><line class="cls-8" x1="305.16" y1="1240.05" x2="472.14" y2="1278.33"/><line class="cls-8" x1="352.96" y1="359.68" x2="559.39" y2="345.27"/><rect class="cls-9" width="867.09" height="1536.15"/></svg>