<?xml version="1.0" encoding="utf-8"?>
<!-- Generator: Adobe Illustrator 19.2.0, SVG Export Plug-In . SVG Version: 6.00 Build 0)  -->
<svg version="1.1" id="Layer_1" xmlns="http://www.w3.org/2000/svg" xmlns:xlink="http://www.w3.org/1999/xlink" x="0px" y="0px"
	 width="867.1px" height="1536.2px" viewBox="0 0 867.1 1536.2" style="enable-background:new 0 0 867.1 1536.2;"
	 xml:space="preserve">
<style type="text/css">
	.st0{fill:#A19D90;}
	.st1{opacity:0.1;fill:#1E3852;enable-background:new    ;}
	.st2{fill:#172A3D;}
	.st3{fill:#1E3852;}
	.st4{fill:#B3AFA1;}
	.st5{opacity:0.95;}
	.st6{fill:#FFFFFF;}
	.st7{fill:none;stroke:#436280;stroke-width:5.67;stroke-linecap:round;stroke-miterlimit:10;}
	.st8{fill:none;}
</style>
<title>Untitled-1</title>
<polygon class="st0" points="488.7,35.5 525.3,37.1 516.2,217 479.7,215.4 "/>
<polygon class="st1" points="475.9,25.2 518.9,27.1 509.9,207 466.9,205.1 "/>
<path class="st1" d="M713.1,334.9l-15.7-145.1c-0.8-6.9-8-12-16.4-11.7l0,0l-33.7,3l-1.7-59.9c-0.2-7-7-12.4-15.5-12.6l0,0
	l-338.8,13.3l0,0c-8.4,0.8-14.9,6.8-14.7,13.8l4.2,145.9c0.2,7,7,12.4,15.5,12.6l13.8,482.7c-4.7,7.3-8.7,15.1-12,23.1l-170.4,421.9
	c-31.4,77.8,20,159.9,114.8,183.5l0,0c11.3,2.8,22.9,4.7,34.6,5.7c21.7,38.6,64.2,68.8,119.2,79.4l0,0
	c96.7,18.5,195.5-30.6,220.7-109.7l136.7-441c6.8-21.3,7.6-41.7,3.2-60.5l-57.4-529.7C707.9,348.1,713.9,341.8,713.1,334.9z"/>
<path class="st2" d="M642.9,115.7L642.9,115.7l-297.4,5.4l0,0c-7.4,0.7-13.1,6.6-13,13.6l3.1,147.3c0.2,7,6.1,12.7,13.5,13
	l10.2,487.5c-4.2,7.4-7.8,15.1-10.6,23l-151.1,421.7c-27.9,77.7,16.9,161.9,100.1,187.9c0,0,0,0,0,0l0,0
	c83.1,26,173.1-15.8,201-93.6L650.6,888c7.2-19.5,9.7-40.2,7.3-60.7l-11.3-537.7c7.4-0.7,13.1-6.6,13-13.6l-3.1-147.3
	C656.3,121.8,650.4,116.1,642.9,115.7z"/>
<path class="st3" d="M674.2,131.4L674.2,131.4l-296.5,23.1l0,0c-7.4,1.2-12.7,7.5-12,14.5l13.6,149.1c0.6,7,6.9,12.5,14.4,12.5
	l44.9,493.4c-3.7,7.7-6.7,15.7-8.9,23.9l-120.9,436.3c-22.3,80.4,28.4,163,113.3,184.5l0,0c84.8,21.5,171.7-26.3,194-106.7
	l120.7-448.4c5.8-20.2,6.8-41.3,2.9-61.9l-49.5-544.1c7.4-1.2,12.7-7.5,12-14.5l-13.6-149.1C688,136.9,681.8,131.4,674.2,131.4z"/>
<polygon class="st4" points="489.4,38.6 525.9,36.1 540.1,215.6 503.6,218.2 "/>
<g class="st5">
	<path class="st6" d="M437.1,440.5l5.2-7.6c3.5,2.4,7.5,3.9,11.5,3.7c2.8-0.2,4.2-1.4,4.1-3.1l0,0c-0.1-1.5-1.4-2.4-6.4-3.7
		c-7.9-2-13.6-4.3-14.1-11.3v-0.2c-0.5-7,4.9-12.2,13.9-12.8c5.3-0.4,10.7,0.9,15.1,3.8l-4.9,7.7c-2.9-1.9-6.3-3-9.8-2.9
		c-2.4,0.1-3.7,1.3-3.6,2.8l0,0c0.1,1.7,1.5,2.5,6.9,4c8,1.9,13.1,4.6,13.6,11.1v0.1c0.5,7.5-5.4,12.5-14.2,13
		C448.1,445.7,442,444,437.1,440.5z"/>
	<path class="st6" d="M476.4,404.6l14.7-0.9c9.8-0.6,16.4,3.8,17.1,12.4v0.2c0.6,9.3-6.2,14.1-15.2,14.7l-4.1,0.3l0.8,11.2
		l-10.5,0.6L476.4,404.6z M492,423c3.7-0.2,5.8-2.4,5.6-5.7v-0.2c-0.2-3.5-2.5-5.2-6.4-5l-3.7,0.2l0.7,10.8L492,423z"/>
	<path class="st6" d="M524,401.5l10.7-0.6l17.2,37.9l-11.1,0.7l-2.9-6.8l-13,0.8l-1.9,7.1l-10.9,0.7L524,401.5z M534.8,424.8
		l-4.6-11.1l-3,11.5L534.8,424.8z"/>
	<path class="st6" d="M561.8,408.4l-10.2,0.6l-0.6-8.9l31-1.9l0.6,8.9l-10.2,0.6l2.1,29.6l-10.6,0.6L561.8,408.4z"/>
	<path class="st6" d="M591.1,397.6l10.6-0.6l2.7,38.6l-10.6,0.6L591.1,397.6z"/>
	<path class="st6" d="M616.4,396.1l28.4-1.7l0.6,8.7l-17.9,1.1l0.5,6.3l16.1-1l0.6,8.2l-16.1,1l0.5,6.6l18.1-1.1l0.6,8.7l-28.6,1.7
		L616.4,396.1z"/>
</g>
<line class="st7" x1="350.2" y1="1329.9" x2="553.7" y2="1373.5"/>
<line class="st7" x1="408.5" y1="326.6" x2="660.1" y2="310.2"/>
<rect y="0" class="st8" width="867.1" height="1536.2"/>
</svg>
