<svg xmlns="http://www.w3.org/2000/svg" fill="none" viewBox="0 0 175 40"><path fill="#faf9f5" d="M0 5.6C0 3.6 1.6 2 3.6 2h28.8c2 0 3.6 1.6 3.6 3.6v28.8c0 2-1.6 3.6-3.6 3.6H3.6c-2 0-3.6-1.6-3.6-3.6z"/><path fill="#000" d="M13.8 28.1v-.4l2.6-1V13.4h-3.5l-2 4h-.4v-5.3h15.3v5.3h-.4l-1.9-4H20v13.3l2.6 1v.4z"/><path fill="#faf9f5" d="M169.8 28.3q-2.5 0-4-1.4t-1.4-3.8q0-1.9.8-3.3a6 6 0 0 1 5.2-3q2 0 3 1.3 1.1 1.3 1.2 3.7l-.1.1h-6.8v.1q0 1 .3 2 .4.8 1.3 1.2.7.5 2.1.5a7 7 0 0 0 3.1-.7v.4a5 5 0 0 1-4.7 3m0-10.4q-.8 0-1.4.7-.5.9-.7 2.2h4.1q0-1.6-.6-2.3t-1.4-.6M155.2 28.1v-.4l1.6-.8v-7.2l-1.6-1.1v-.3l4.4-1.5h.3l.3 2.2 1.6-1.7q.8-.5 1.5-.5t1 .3.4.8l-.1.5-.4 1.3-2.3-.6q-1 .3-1.7 1.2v6.6l2 .8v.4zM149.8 28.3q-2.5 0-4-1.4-1.4-1.4-1.4-3.8 0-1.9.8-3.3a6 6 0 0 1 5.2-3q2 0 3 1.3 1.2 1.3 1.2 3.7v.1h-6.9v.1q0 1 .4 2 .5.8 1.2 1.2.9.5 2.2.5a7 7 0 0 0 3-.7h.1v.4a5 5 0 0 1-4.8 3m0-10.4q-.8 0-1.3.7-.6.9-.7 2.2h4q0-1.6-.6-2.3T150 18M130.5 28.1v-.4l1.6-.8V12.6l-1.6-1.1v-.3l4.7-1.3h.3v8.7q1-.9 1.8-1.3t2-.5q1.4 0 2.3.7 1 .8 1 2.3v7.1l1.6.8v.4H138v-.4l1.3-.7v-6.2q0-.9-.5-1.3t-1.3-.5q-.4 0-1 .2l-1 .4V27l1.3.7v.4zM118 28.1v-.4l2.6-1V13.4H117l-2 4h-.3v-5.3H130v5.3h-.4l-1.9-4h-3.5v13.3l2.6 1v.4zM104.5 28.3q-2.5 0-4-1.4-1.4-1.4-1.4-3.8 0-1.9.8-3.3a6 6 0 0 1 5.2-3q2 0 3 1.3 1.2 1.3 1.2 3.7l-.1.1h-6.8v.1q0 1 .4 2 .3.8 1.2 1.2.8.5 2.2.5a7 7 0 0 0 3-.7h.1v.4a5 5 0 0 1-4.8 3m0-10.4q-.8 0-1.3.7a5 5 0 0 0-.7 2.2h4q0-1.6-.6-2.3t-1.4-.6M89.9 28.1v-.4l1.6-.8v-7.2l-1.6-1.1v-.3l4.5-1.5h.3l.2 2.2h.1l1.5-1.7q.8-.5 1.5-.5t1 .3.4.8l-.1.5-.4 1.3-2.2-.6q-1 .3-1.8 1.2v6.6l2 .8v.4zM84.5 28.3q-2.4 0-4-1.4-1.3-1.4-1.3-3.8 0-1.9.8-3.3a6 6 0 0 1 5.2-3q2 0 3 1.3t1.1 3.7v.1h-6.9v.1q0 1 .4 2 .5.8 1.2 1.2.9.5 2.2.5a7 7 0 0 0 3-.7h.2v.4a5 5 0 0 1-4.9 3m.1-10.4q-.8 0-1.4.7-.5.9-.7 2.2h4.1q-.1-1.6-.7-2.3t-1.3-.6M65.2 28.1v-.4l1.6-.8V12.6l-1.5-1.1v-.3l4.6-1.3h.3v8.7h.1q1-.9 1.7-1.3.8-.5 2-.5 1.4 0 2.4.7.9.8.9 2.3v7.1l1.6.8v.4h-6.2v-.4l1.2-.7v-6.2q0-.9-.5-1.3T72 19q-.4 0-1 .2l-.9.4V27l1.2.7v.4zM52.7 28.1v-.4l2.6-1V13.4h-3.5l-2 4h-.3v-5.3h15.3v5.3h-.4l-2-4H59v13.3l2.5 1v.4z"/></svg>
