<svg id="Layer_1" data-name="Layer 1" xmlns="http://www.w3.org/2000/svg" viewBox="0 0 99.23 98.64"><defs><style>.cls-1{fill:#70cadb;}.cls-2{fill:#e01765;}.cls-3{fill:#e8a723;}.cls-4{fill:#3eb890;}.cls-5{fill:#cc2027;}.cls-6{fill:#361238;}.cls-7{fill:#65863a;}.cls-8{fill:#1a937d;}</style></defs><title>Untitled-1</title><path class="cls-1" d="M-24.7,19.13a8.2,8.2,0,0,1-8-5.62c0-.13-0.08-0.26-0.12-0.39a8.6,8.6,0,0,1,5.56-10.5L43-20.92a9.52,9.52,0,0,1,2.57-.37,8.42,8.42,0,0,1,8.21,5.74l0.11,0.34c1.31,4.59-2,8.69-5.86,10L-21.85,18.64a9.09,9.09,0,0,1-2.85.49h0Z" transform="translate(33.15 33.09)"/><path class="cls-2" d="M-13,53.68a8.2,8.2,0,0,1-8-5.54c0-.13-0.08-0.26-0.12-0.39a8.66,8.66,0,0,1,5.56-10.6L54.67,13.39a9,9,0,0,1,2.79-.47,8.49,8.49,0,0,1,8.19,5.69L65.75,19a8.89,8.89,0,0,1-1.07,7.14c-1,1.56-4.18,2.94-4.18,2.94L-10,53.17a9.67,9.67,0,0,1-3,.51h0Z" transform="translate(33.15 33.09)"/><path class="cls-3" d="M45.48,53.83a8.62,8.62,0,0,1-8.26-5.88L13.78-21.69l-0.12-.39a8.62,8.62,0,0,1,5.55-10.55,8.68,8.68,0,0,1,2.69-.46,8.58,8.58,0,0,1,3.9.91,8.61,8.61,0,0,1,4.35,5L53.6,42.43l0.07,0.22a8.63,8.63,0,0,1-8.18,11.17h0Z" transform="translate(33.15 33.09)"/><path class="cls-4" d="M10.63,65.56a8.63,8.63,0,0,1-8.26-5.88L-21.07-10l-0.12-.39A8.62,8.62,0,0,1-15.64-20.9,8.73,8.73,0,0,1-13-21.35a8.62,8.62,0,0,1,8.26,5.88L18.74,54.17c0,0.12.08,0.26,0.12,0.38a8.63,8.63,0,0,1-8.23,11h0Z" transform="translate(33.15 33.09)"/><path class="cls-5" d="M33.93,38.14l16.35-5.59L44.93,16.68,28.56,22.21Z" transform="translate(33.15 33.09)"/><path class="cls-6" d="M-0.87,50l16.35-5.59-5.38-16L-6.27,34Z" transform="translate(33.15 33.09)"/><path class="cls-7" d="M22.29,3.58L38.64-2,33.35-17.69,17-12.2Z" transform="translate(33.15 33.09)"/><path class="cls-8" d="M-12.51,15.46L3.84,9.87-1.51-6-17.89-.52l5.38,16h0Z" transform="translate(33.15 33.09)"/></svg>