<svg width="2560" height="720" viewBox="0 0 2560 720" fill="none" xmlns="http://www.w3.org/2000/svg">
<g clip-path="url(#clip0_83_445)">
<path opacity="0.5" d="M3276.13 35.2113L-966.561 35.2107M3276.13 50.6659L-966.561 50.6653M3276.13 68.5009L-966.561 68.5003M3276.13 89.2489L-966.561 89.2482M3276.13 113.39L-966.561 113.39M3276.13 141.854L-966.561 141.853M3276.13 175.919L-966.561 175.918M3276.13 217.419L-966.561 217.418M3276.13 269.068L-966.561 269.067M3276.13 335.042L-966.561 335.041M3276.13 422.429L-966.561 422.428M3276.13 543.345L-966.561 543.343M5094.4 722.126L-2534.4 722.124M762.838 35.2125L-714.417 865.231M815.975 35.2109L-518.328 891.929M869.113 35.2109L-332.933 935.644M922.251 35L-79.4545 935.644M975.389 35.2102L142.471 971.098M1028.53 35L421.609 944.475M1081.66 35L665.206 971.098M1134.8 35.2113L905.814 1064.4M1187.94 35.211L1187.94 1083.04M1241.08 35.2113L1460.15 1019.83M1294.22 35.2111L1738.29 1033.17M1347.35 35.2113L2009.07 1026.57M1400.49 35.2111L2233.98 971.739M1453.63 35.2113L2465.16 944.477M1506.77 35.2113L2650.45 891.931M1559.9 35.2113L2894.21 891.931M1613.04 35.2109L3102.46 872.073M1666.18 35.2102L3041.98 722.126M1719.32 35.2102L3247.95 722.124M1772.46 35.2102L3453.92 722.126M1825.6 35.2109L3659.89 722.124M1878.73 35.2109L3865.86 722.124M1931.87 35.2102L4071.84 722.126M1985.01 35.2102L4277.8 722.124M2038.15 35.2102L4483.93 722.124M2091.28 35.2102L4148.35 578.259M2144.42 35.2102L4217.26 551.433M709.7 35.2102L-666.653 722.124M656.562 35.2102L-872.628 722.126M603.424 35.2102L-1078.6 722.124M550.286 35.2102L-1284.57 722.126M497.148 35.2102L-1490.54 722.124M444.011 35.2102L-1696.67 722.124M390.872 35.2109L-1899.43 722.126M337.735 35.2109L-2107.3 722.124M284.597 35.2102L-2312.92 720.976M231.459 35.2102L-2520.83 722.126M177.357 35.2102L-413.064 175.059M125.183 35.2109L-503.134 175.919M2197.56 35.2102L2648.49 141.854M2250.7 35.2125L2724.37 141.853" stroke="url(#paint0_linear_83_445)" stroke-width="3.49347" stroke-miterlimit="10"/>
</g>
<defs>
<linearGradient id="paint0_linear_83_445" x1="1280" y1="181.865" x2="1280" y2="1021.09" gradientUnits="userSpaceOnUse">
<stop stop-color="white" stop-opacity="0"/>
<stop offset="1" stop-color="white"/>
</linearGradient>
<clipPath id="clip0_83_445">
<rect width="2560" height="720" fill="white"/>
</clipPath>
</defs>
</svg>
