<svg xmlns="http://www.w3.org/2000/svg" fill="none" viewBox="0 0 526 369"><g filter="url(#a)"><path fill="#EAE9D8" d="M364.499 23.326c.3 0 .546-.024.738-.072.204-.06.366-.144.486-.252a.981.981 0 0 0 .252-.432c.048-.18.072-.39.072-.63 0-.216-.018-.42-.054-.612a1.72 1.72 0 0 0-.198-.54 2.131 2.131 0 0 0-.378-.504 2.45 2.45 0 0 0-.558-.468 4.447 4.447 0 0 0-.828-.396 11.067 11.067 0 0 1-1.404-.666 5.806 5.806 0 0 1-1.008-.756 3.792 3.792 0 0 1-.666-.882 4.564 4.564 0 0 1-.36-1.008 6.068 6.068 0 0 1-.108-1.188c0-.528.078-1.002.234-1.422.168-.42.414-.774.738-1.062.324-.3.726-.528 1.206-.684.492-.168 1.062-.252 1.71-.252.576 0 1.074.054 1.494.162.432.096.798.24 1.098.432.312.18.564.414.756.702.192.288.33.624.414 1.008a5.052 5.052 0 0 1 .126 1.62v.378c0 .12-.006.246-.018.378h-1.746c-.204 0-.378.006-.522.018.012-.168.018-.336.018-.504.012-.18.018-.354.018-.522 0-.264-.024-.492-.072-.684a.99.99 0 0 0-.756-.774 2.796 2.796 0 0 0-.774-.09c-.276 0-.51.03-.702.09-.18.06-.33.144-.45.252a1.096 1.096 0 0 0-.252.414 1.91 1.91 0 0 0-.072.558c0 .192.012.372.036.54.036.168.09.336.162.504.084.156.198.312.342.468.156.156.348.306.576.45.24.144.534.288.882.432a7.553 7.553 0 0 1 1.494.774 4.72 4.72 0 0 1 1.08.972c.288.36.504.768.648 1.224.144.444.216.942.216 1.494 0 .456-.048.87-.144 1.242a3.197 3.197 0 0 1-.45 1.008 2.611 2.611 0 0 1-.756.738c-.3.204-.66.36-1.08.468-.42.12-.9.18-1.44.18-.6 0-1.128-.06-1.584-.18a3.86 3.86 0 0 1-1.152-.468 2.967 2.967 0 0 1-.774-.774 3.197 3.197 0 0 1-.45-1.008 5.65 5.65 0 0 1-.126-1.242v-.792l.036-.342c.132.024.294.042.486.054.204.012.42.018.648.018h.702c.228-.012.432-.024.612-.036-.012.12-.018.234-.018.342v.324c0 .504.048.906.144 1.206.096.288.264.492.504.612s.564.18.972.18ZM351.147 12.832h2.412v4.896c.012.864.018 1.698.018 2.502v2.25c.012.684.018 1.266.018 1.746.012.468.024.804.036 1.008a1.857 1.857 0 0 0-.396-.036h-1.728c-.144 0-.282.012-.414.036.012-.192.018-.522.018-.99.012-.48.018-1.062.018-1.746.012-.696.018-1.446.018-2.25v-7.416Zm-2.34-1.116h7.092c-.012.132-.018.3-.018.504v1.188c0 .204.006.384.018.54h-1.278a42.29 42.29 0 0 0-1.206-.018h-2.7c-.612 0-1.248.006-1.908.018a7.13 7.13 0 0 0 .018-.54v-1.17c0-.204-.006-.378-.018-.522ZM335.503 25.216c.012-.876.018-1.86.018-2.952.012-1.092.018-2.358.018-3.798V15.82c0-.816-.006-1.566-.018-2.25 0-.684-.006-1.302-.018-1.854h2.988c.06.168.138.396.234.684l.378.972c.144.36.294.762.45 1.206l.522 1.35c.192.468.378.948.558 1.44.192.48.372.954.54 1.422.144.396.276.816.396 1.26.132.444.246.9.342 1.368.108.468.198.924.27 1.368l-.396-.828.378-.09-.072 1.026c-.048-.564-.09-1.11-.126-1.638l-.108-1.566a34.88 34.88 0 0 1-.036-1.584c0-.432-.006-.882-.018-1.35 0-.48-.006-.96-.018-1.44 0-.48-.006-.942-.018-1.386-.012-.456-.024-.87-.036-1.242a70.398 70.398 0 0 0-.036-.972h2.178v1.17c0 .468-.006.996-.018 1.584 0 .588-.006 1.218-.018 1.89V22.3c.012 1.068.018 2.04.018 2.916h-2.628a26.583 26.583 0 0 0-.342-.99 44.294 44.294 0 0 0-.504-1.35 68.43 68.43 0 0 0-.612-1.548c-.204-.54-.42-1.086-.648-1.638a42.234 42.234 0 0 0-.666-1.638 18.982 18.982 0 0 1-.468-1.548 75.736 75.736 0 0 1-.378-1.584 39.43 39.43 0 0 1-.288-1.566l.486.918-.522.072.144-1.062c.036.648.072 1.272.108 1.872.036.588.066 1.152.09 1.692.024.54.042 1.05.054 1.53v2.43c.012.732.018 1.386.018 1.962v1.476c.012.408.018.732.018.972h-2.214ZM325.221 19.366v-2.034h2.934c.312-.012.618-.018.918-.018.3-.012.594-.018.882-.018 0 .144-.006.354-.018.63v1.476h-.864c-.3-.012-.606-.018-.918-.018h-.954a26.752 26.752 0 0 0-.99-.018h-.99Zm4.842 5.85h-6.984c.024-.576.036-1.2.036-1.872.012-.684.018-1.428.018-2.232v-4.68c0-.648-.006-1.254-.018-1.818 0-.564-.006-1.086-.018-1.566 0-.492-.006-.936-.018-1.332h6.984c-.012.12-.018.282-.018.486V13.39c0 .24.006.426.018.558h-1.062a30.292 30.292 0 0 0-1.044-.018H325.185l.378-1.548V24.37l-.378-1.422H326.985c.324-.012.654-.018.99-.018h1.044c.348-.012.696-.018 1.044-.018a6.576 6.576 0 0 0-.018.558v1.224c0 .216.006.39.018.522ZM314.028 23.326c.3 0 .546-.024.738-.072.204-.06.366-.144.486-.252a.981.981 0 0 0 .252-.432c.048-.18.072-.39.072-.63 0-.216-.018-.42-.054-.612a1.72 1.72 0 0 0-.198-.54 2.131 2.131 0 0 0-.378-.504 2.45 2.45 0 0 0-.558-.468 4.447 4.447 0 0 0-.828-.396 11.067 11.067 0 0 1-1.404-.666 5.806 5.806 0 0 1-1.008-.756 3.792 3.792 0 0 1-.666-.882 4.564 4.564 0 0 1-.36-1.008 6.068 6.068 0 0 1-.108-1.188c0-.528.078-1.002.234-1.422.168-.42.414-.774.738-1.062.324-.3.726-.528 1.206-.684.492-.168 1.062-.252 1.71-.252.576 0 1.074.054 1.494.162.432.096.798.24 1.098.432.312.18.564.414.756.702.192.288.33.624.414 1.008a5.052 5.052 0 0 1 .126 1.62v.378c0 .12-.006.246-.018.378h-1.746c-.204 0-.378.006-.522.018.012-.168.018-.336.018-.504.012-.18.018-.354.018-.522 0-.264-.024-.492-.072-.684a.99.99 0 0 0-.756-.774 2.796 2.796 0 0 0-.774-.09c-.276 0-.51.03-.702.09-.18.06-.33.144-.45.252a1.096 1.096 0 0 0-.252.414 1.91 1.91 0 0 0-.072.558c0 .192.012.372.036.54.036.168.09.336.162.504.084.156.198.312.342.468.156.156.348.306.576.45.24.144.534.288.882.432a7.553 7.553 0 0 1 1.494.774 4.72 4.72 0 0 1 1.08.972c.288.36.504.768.648 1.224.144.444.216.942.216 1.494 0 .456-.048.87-.144 1.242a3.197 3.197 0 0 1-.45 1.008 2.611 2.611 0 0 1-.756.738c-.3.204-.66.36-1.08.468-.42.12-.9.18-1.44.18-.6 0-1.128-.06-1.584-.18a3.86 3.86 0 0 1-1.152-.468 2.967 2.967 0 0 1-.774-.774 3.197 3.197 0 0 1-.45-1.008 5.65 5.65 0 0 1-.126-1.242v-.792l.036-.342c.132.024.294.042.486.054.204.012.42.018.648.018h.702c.228-.012.432-.024.612-.036-.012.12-.018.234-.018.342v.324c0 .504.048.906.144 1.206.096.288.264.492.504.612s.564.18.972.18ZM300.056 19.366v-2.034h2.934c.312-.012.618-.018.918-.018.3-.012.594-.018.882-.018 0 .144-.006.354-.018.63v1.476h-.864c-.3-.012-.606-.018-.918-.018h-.954a26.752 26.752 0 0 0-.99-.018h-.99Zm4.842 5.85h-6.984c.024-.576.036-1.2.036-1.872.012-.684.018-1.428.018-2.232v-4.68c0-.648-.006-1.254-.018-1.818 0-.564-.006-1.086-.018-1.566 0-.492-.006-.936-.018-1.332h6.984c-.012.12-.018.282-.018.486V13.39c0 .24.006.426.018.558h-1.062a30.292 30.292 0 0 0-1.044-.018H300.02l.378-1.548V24.37l-.378-1.422H301.82c.324-.012.654-.018.99-.018h1.044c.348-.012.696-.018 1.044-.018a6.576 6.576 0 0 0-.018.558v1.224c0 .216.006.39.018.522ZM284.436 11.716h4.284c.576 0 1.092.078 1.548.234.468.144.864.378 1.188.702.324.324.57.75.738 1.278.168.516.252 1.146.252 1.89 0 .732-.06 1.356-.18 1.872s-.312.936-.576 1.26a2.337 2.337 0 0 1-1.044.72c-.42.156-.936.24-1.548.252l1.098-.504v.774l-1.098-.432c.528.048.966.108 1.314.18.36.06.654.174.882.342.228.168.42.414.576.738.156.324.3.762.432 1.314.096.36.186.726.27 1.098l.234 1.008c.072.3.132.558.18.774h-2.394a.465.465 0 0 1-.306-.09c-.06-.06-.12-.18-.18-.36-.048-.18-.12-.438-.216-.774-.096-.6-.186-1.104-.27-1.512a7.097 7.097 0 0 0-.234-1.008 2.162 2.162 0 0 0-.27-.576.541.541 0 0 0-.324-.27 1.163 1.163 0 0 0-.432-.072h-.864c-.096 0-.204.006-.324.018h-.414l-.054-2.016c.072 0 .162.006.27.018.12 0 .258.006.414.018h1.134c.336 0 .612-.084.828-.252.228-.168.396-.426.504-.774.12-.36.18-.804.18-1.332s-.036-.948-.108-1.26c-.072-.324-.186-.57-.342-.738a1.074 1.074 0 0 0-.54-.342 2.918 2.918 0 0 0-.774-.09H287.676c-.12 0-.246.006-.378.018-.132 0-.264.006-.396.018a3.1 3.1 0 0 0-.342.018c-.096 0-.18.006-.252.018l.558-1.098v3.672c0 1.2.006 2.352.018 3.456.012 1.104.03 2.112.054 3.024.024.9.054 1.662.09 2.286h-2.592c.012-.66.018-1.32.018-1.98.012-.672.018-1.392.018-2.16.012-.78.018-1.65.018-2.61 0-1.428-.006-2.664-.018-3.708 0-1.056-.012-2.07-.036-3.042ZM274.13 25.216h-2.646c.024-.648.036-1.308.036-1.98.012-.672.018-1.392.018-2.16.012-.78.018-1.65.018-2.61 0-1.428-.006-2.682-.018-3.762-.012-1.092-.03-2.088-.054-2.988h3.96c.66 0 1.236.09 1.728.27a2.84 2.84 0 0 1 1.242.828c.348.384.606.894.774 1.53.168.636.252 1.422.252 2.358 0 .72-.054 1.35-.162 1.89a4.383 4.383 0 0 1-.504 1.368 3.142 3.142 0 0 1-.81.954c-.324.24-.708.42-1.152.54a5.94 5.94 0 0 1-1.44.162H274.724a2.32 2.32 0 0 0-.288-.018h-.306a31.359 31.359 0 0 0-.342-.036v-2.214h.162c.084 0 .174.006.27.018h.72c.384 0 .708-.036.972-.108.264-.084.474-.222.63-.414.168-.192.288-.468.36-.828.072-.36.108-.816.108-1.368 0-.552-.042-1.002-.126-1.35-.072-.36-.186-.636-.342-.828a1.297 1.297 0 0 0-.612-.414 2.626 2.626 0 0 0-.864-.126h-.27c-.108 0-.222.006-.342.018h-.36a3.1 3.1 0 0 0-.342.018h-.234l.468-1.242v7.164c.012 1.068.03 2.058.054 2.97.024.9.054 1.686.09 2.358ZM258.493 22.138c.444 0 .781.132 1.009.396.228.264.342.66.342 1.188 0 .516-.114.912-.342 1.188-.228.276-.565.414-1.009.414-.444 0-.779-.138-1.007-.414-.228-.276-.342-.672-.342-1.188 0-.528.114-.924.342-1.188.24-.264.575-.396 1.007-.396ZM247.761 19.366v-2.034h2.934c.312-.012.618-.018.918-.018.3-.012.594-.018.882-.018 0 .144-.006.354-.018.63v1.476h-.864c-.3-.012-.606-.018-.918-.018h-.954a26.752 26.752 0 0 0-.99-.018h-.99Zm4.842 5.85h-6.984c.024-.576.036-1.2.036-1.872.012-.684.018-1.428.018-2.232v-4.68c0-.648-.006-1.254-.018-1.818 0-.564-.006-1.086-.018-1.566 0-.492-.006-.936-.018-1.332h6.984c-.012.12-.018.282-.018.486V13.39c0 .24.006.426.018.558h-1.062a30.292 30.292 0 0 0-1.044-.018H247.725l.378-1.548V24.37l-.378-1.422H249.525c.324-.012.654-.018.99-.018h1.044c.348-.012.696-.018 1.044-.018a6.576 6.576 0 0 0-.018.558v1.224c0 .216.006.39.018.522ZM239.534 22.138c.444 0 .78.132 1.008.396.228.264.342.66.342 1.188 0 .516-.114.912-.342 1.188-.228.276-.564.414-1.008.414-.444 0-.78-.138-1.008-.414-.228-.276-.342-.672-.342-1.188 0-.528.114-.924.342-1.188.24-.264.576-.396 1.008-.396ZM233.434 25.216h-2.556c.012-.444.018-.912.018-1.404.012-.492.018-1.014.018-1.566.012-.552.018-1.14.018-1.764V16.45c0-.636-.006-1.23-.018-1.782 0-.552-.006-1.068-.018-1.548 0-.492-.006-.96-.018-1.404h2.556l-.036 1.386c0 .492-.006 1.014-.018 1.566V22.228c.012.552.018 1.074.018 1.566l.036 1.422ZM224.793 22.138c.444 0 .78.132 1.008.396.228.264.342.66.342 1.188 0 .516-.114.912-.342 1.188-.228.276-.564.414-1.008.414-.444 0-.78-.138-1.008-.414-.228-.276-.342-.672-.342-1.188 0-.528.114-.924.342-1.188.24-.264.576-.396 1.008-.396ZM215.788 12.832h2.412v4.896c.012.864.018 1.698.018 2.502v2.25c.012.684.018 1.266.018 1.746.012.468.024.804.036 1.008a1.857 1.857 0 0 0-.396-.036h-1.728c-.144 0-.282.012-.414.036.012-.192.018-.522.018-.99.012-.48.018-1.062.018-1.746.012-.696.018-1.446.018-2.25v-7.416Zm-2.34-1.116h7.092c-.012.132-.018.3-.018.504v1.188c0 .204.006.384.018.54h-1.278a42.29 42.29 0 0 0-1.206-.018h-2.7c-.612 0-1.248.006-1.908.018a7.13 7.13 0 0 0 .018-.54v-1.17c0-.204-.006-.378-.018-.522ZM209.208 22.138c.444 0 .78.132 1.008.396.228.264.342.66.342 1.188 0 .516-.114.912-.342 1.188-.228.276-.564.414-1.008.414-.444 0-.78-.138-1.008-.414-.228-.276-.342-.672-.342-1.188 0-.528.114-.924.342-1.188.24-.264.576-.396 1.008-.396ZM196.272 20.086c.168 0 .372.006.612.018.24 0 .486.006.738.018H199.692c.24-.012.486-.018.738-.018h.72c.24-.012.456-.018.648-.018l.054 1.944h-.72c-.24-.012-.486-.018-.738-.018h-2.7c-.252 0-.504.006-.756.018h-.72l.054-1.944Zm7.74 5.13h-2.79a9.972 9.972 0 0 0-.108-.882c-.06-.396-.138-.858-.234-1.386a84.72 84.72 0 0 0-.288-1.692 61.52 61.52 0 0 0-.324-1.872c-.12-.648-.24-1.284-.36-1.908a232.67 232.67 0 0 0-.306-1.764c-.096-.456-.18-.876-.252-1.26l-.198-1.044c-.06-.324-.108-.588-.144-.792l.396.468h-.702l.396-.468c-.036.204-.084.462-.144.774-.06.312-.126.666-.198 1.062-.072.396-.156.828-.252 1.296-.12.648-.246 1.344-.378 2.088s-.27 1.494-.414 2.25l-.378 2.124c-.108.672-.21 1.272-.306 1.8-.084.516-.144.918-.18 1.206h-2.574c.12-.48.252-1.05.396-1.71.156-.66.312-1.368.468-2.124.168-.768.336-1.548.504-2.34.168-.804.33-1.59.486-2.358.168-.768.318-1.482.45-2.142l.342-1.746c.108-.492.186-.852.234-1.08h3.888c.06.24.138.606.234 1.098.108.492.228 1.068.36 1.728.144.66.294 1.374.45 2.142.168.756.336 1.536.504 2.34.18.792.354 1.572.522 2.34l.468 2.142c.156.66.3 1.23.432 1.71ZM189.07 22.138c.444 0 .78.132 1.008.396.228.264.342.66.342 1.188 0 .516-.114.912-.342 1.188-.228.276-.564.414-1.008.414-.444 0-.78-.138-1.008-.414-.228-.276-.342-.672-.342-1.188 0-.528.114-.924.342-1.188.24-.264.576-.396 1.008-.396ZM179.95 25.216h-2.646c.024-.648.036-1.308.036-1.98.012-.672.018-1.392.018-2.16.012-.78.018-1.65.018-2.61 0-1.428-.006-2.682-.018-3.762-.012-1.092-.03-2.088-.054-2.988h3.96c.66 0 1.236.09 1.728.27a2.84 2.84 0 0 1 1.242.828c.348.384.606.894.774 1.53.168.636.252 1.422.252 2.358 0 .72-.054 1.35-.162 1.89a4.383 4.383 0 0 1-.504 1.368 3.142 3.142 0 0 1-.81.954c-.324.24-.708.42-1.152.54a5.94 5.94 0 0 1-1.44.162H180.544a2.32 2.32 0 0 0-.288-.018h-.306a31.359 31.359 0 0 0-.342-.036v-2.214h.162c.084 0 .174.006.27.018h.72c.384 0 .708-.036.972-.108.264-.084.474-.222.63-.414.168-.192.288-.468.36-.828.072-.36.108-.816.108-1.368 0-.552-.042-1.002-.126-1.35-.072-.36-.186-.636-.342-.828a1.297 1.297 0 0 0-.612-.414 2.626 2.626 0 0 0-.864-.126h-.27c-.108 0-.222.006-.342.018h-.36a3.1 3.1 0 0 0-.342.018h-.234l.468-1.242v7.164c.012 1.068.03 2.058.054 2.97.024.9.054 1.686.09 2.358ZM171.218 22.138c.444 0 .78.132 1.008.396.228.264.342.66.342 1.188 0 .516-.114.912-.342 1.188-.228.276-.564.414-1.008.414-.444 0-.78-.138-1.008-.414-.228-.276-.342-.672-.342-1.188 0-.528.114-.924.342-1.188.24-.264.576-.396 1.008-.396ZM161.717 23.326c.3 0 .547-.024.739-.072.204-.06.365-.144.485-.252a.981.981 0 0 0 .252-.432c.048-.18.073-.39.073-.63 0-.216-.018-.42-.054-.612a1.72 1.72 0 0 0-.198-.54 2.136 2.136 0 0 0-.379-.504 2.45 2.45 0 0 0-.558-.468 4.447 4.447 0 0 0-.828-.396 11.049 11.049 0 0 1-1.403-.666 5.816 5.816 0 0 1-1.009-.756 3.792 3.792 0 0 1-.666-.882 4.564 4.564 0 0 1-.36-1.008 6.072 6.072 0 0 1-.107-1.188c0-.528.077-1.002.234-1.422.167-.42.414-.774.738-1.062.324-.3.726-.528 1.206-.684.492-.168 1.062-.252 1.71-.252.576 0 1.073.054 1.493.162.432.096.799.24 1.099.432.312.18.563.414.755.702.192.288.331.624.415 1.008a5.054 5.054 0 0 1 .126 1.62v.378c0 .12-.006.246-.018.378H163.715c-.204 0-.378.006-.522.018.012-.168.019-.336.019-.504.012-.18.018-.354.018-.522 0-.264-.024-.492-.072-.684a.99.99 0 0 0-.756-.774 2.796 2.796 0 0 0-.774-.09c-.276 0-.51.03-.702.09-.18.06-.331.144-.451.252a1.096 1.096 0 0 0-.252.414 1.912 1.912 0 0 0-.071.558c0 .192.012.372.036.54.036.168.09.336.162.504.084.156.197.312.341.468.156.156.349.306.577.45.24.144.534.288.882.432a7.543 7.543 0 0 1 1.493.774 4.72 4.72 0 0 1 1.08.972c.288.36.505.768.649 1.224.144.444.215.942.215 1.494 0 .456-.048.87-.144 1.242a3.197 3.197 0 0 1-.45 1.008 2.607 2.607 0 0 1-.755.738c-.3.204-.66.36-1.08.468-.42.12-.901.18-1.441.18-.6 0-1.128-.06-1.584-.18a3.854 3.854 0 0 1-1.151-.468 2.967 2.967 0 0 1-.774-.774 3.197 3.197 0 0 1-.45-1.008 5.65 5.65 0 0 1-.126-1.242v-.792l.035-.342c.132.024.295.042.487.054.204.012.419.018.647.018h.702c.228-.012.432-.024.612-.036-.012.12-.017.234-.017.342v.324c0 .504.048.906.144 1.206.096.288.263.492.503.612s.564.18.972.18ZM182.212 178.217c.94-.164 1.786-.395 2.542-.695.75-.3 1.329-.62 1.731-.975.402-.354.682-.763.845-1.247.164-.477.246-.975.246-1.493 0-.613-.069-1.104-.212-1.479-.143-.374-.415-.749-.811-1.131-.402-.375-.988-.647-1.765-.818-.777-.17-1.765-.286-2.965-.361-1.199-.068-2.719-.041-4.559.096-3.578.299-6.638.347-9.18.136-2.542-.211-4.614-.648-6.216-1.309-1.601-.661-2.835-1.533-3.707-2.63-.873-1.091-1.472-2.386-1.799-3.885-.328-1.493-.498-3.258-.498-5.282 0-2.965.518-5.588 1.554-7.865 1.036-2.276 2.672-4.307 4.907-6.093 2.235-1.785 5.105-3.305 8.614-4.559 3.51-1.254 7.688-2.31 12.534-3.162 4.423-.784 8.219-1.261 11.374-1.438 3.156-.178 5.793-.089 7.913.265 2.12.355 3.789 1.036 5.016 2.045a8.322 8.322 0 0 1 2.61 3.776c.518 1.513.777 3.278.777 5.302 0 .375-.027.756-.075 1.145-.047.388-.082.784-.102 1.186-.027.402-.061.824-.109 1.254-1.036.136-2.304.279-3.817.422-1.506.15-3.094.362-4.763.627-1.67.273-3.238.539-4.696.791-1.316.232-2.542.463-3.674.681-1.131.225-2.092.43-2.896.614a3.06 3.06 0 0 0 .034-.818 5.57 5.57 0 0 1-.034-.593c0-.613-.082-1.138-.245-1.581-.164-.443-.471-.811-.921-1.111-.449-.3-1.049-.45-1.799-.457-.749-.006-1.744.096-2.964.314-.989.177-1.827.395-2.508.654-.682.259-1.2.552-1.554.873-.355.32-.627.661-.811 1.029-.191.361-.28.852-.28 1.465 0 .518.062.968.177 1.349.116.382.375.743.777 1.098.403.354 1.023.606 1.875.763.845.157 1.928.273 3.251.347 1.315.075 2.964.075 4.941.014 4-.232 7.367-.184 10.1.164 2.733.34 4.873 1.036 6.427 2.078 1.553 1.043 2.671 2.495 3.353 4.355.681 1.861 1.022 4.13 1.022 6.816 0 2.399-.293 4.559-.879 6.474a13.914 13.914 0 0 1-2.863 5.132c-1.315 1.506-3.046 2.869-5.193 4.096-2.14 1.227-4.777 2.351-7.912 3.374-3.135 1.022-6.768 1.901-10.912 2.63-4.614.811-8.498 1.309-11.654 1.493-3.155.177-5.793.102-7.912-.232-2.12-.334-3.803-.954-5.05-1.861-1.248-.906-2.12-2.167-2.611-3.775-.49-1.609-.742-3.469-.742-5.589 0-.375.013-.811.034-1.315.027-.498.047-.947.068-1.356.027-.402.061-.825.109-1.254 1.833-.232 4.014-.518 6.536-.873a204.89 204.89 0 0 0 7.66-1.213 992.26 992.26 0 0 0 3.251-.572 40.848 40.848 0 0 0 2.542-.518v1.131c0 1.084.15 1.915.457 2.495.306.579.906.967 1.799 1.165.893.198 2.092.163 3.605-.102l.007-.007ZM265.904 175.048l-49.438 8.717c.095-2.556.177-5.139.245-7.743a298.3 298.3 0 0 0 .109-8.526v-18.149c0-2.426-.014-4.702-.034-6.842-.027-2.14-.061-4.171-.109-6.093a207.231 207.231 0 0 0-.211-5.616l49.438-8.717c-.048.907-.082 2.004-.109 3.306a175.005 175.005 0 0 0-.035 3.782c0 1.22.014 2.611.035 4.021.027 1.411.061 2.536.109 3.374-1.929.388-3.899.75-5.896 1.077-2.003.327-3.953.661-5.861.995-1.908.334-3.803.661-5.684.968a351.17 351.17 0 0 0-5.404.92c-1.725.306-3.312.586-4.771.838l3.04-11.838v45.696l-3.108-11.177c1.506-.266 3.155-.559 4.941-.872a213.09 213.09 0 0 0 5.507-1.043c1.881-.382 3.816-.743 5.793-1.09 1.976-.348 3.932-.702 5.861-1.07a148.63 148.63 0 0 1 5.582-.948c0 .988-.014 2.242-.035 3.749a253.305 253.305 0 0 0-.034 4.525c0 1.227.014 2.563.034 4.021.028 1.458.035 2.699.035 3.735Zm-26.907-16.8v-11.797c1.785-.314 3.598-.634 5.438-.961 1.834-.327 3.674-.661 5.507-1.009 1.833-.347 3.626-.688 5.371-1.015 1.738-.327 3.462-.668 5.152-1.016 1.697-.347 3.319-.681 4.873-1.002a121.391 121.391 0 0 0-.102 3.906c-.028 1.56-.034 3.114-.034 4.668v3.953c-1.411.204-2.979.443-4.696.722-1.718.28-3.449.559-5.193.845-1.745.287-3.544.58-5.405.88-1.86.306-3.687.606-5.473.892-1.792.293-3.605.6-5.438.92v.014ZM307.225 137.53a1.812 1.812 0 0 1-.035-.627c.028-.191.035-.416.035-.675v-.6c0-1.697-.198-2.964-.6-3.816-.402-.845-1.022-1.411-1.874-1.684-.845-.272-1.956-.293-3.319-.047-.757.129-1.486.34-2.188.633a4.58 4.58 0 0 0-1.799 1.309c-.491.586-.907 1.322-1.234 2.229-.327.906-.566 2.044-.709 3.407-.143 1.363-.211 2.944-.211 4.737 0 1.697.082 3.176.245 4.443.164 1.268.416 2.297.743 3.081.327.79.743 1.438 1.234 1.935a3.136 3.136 0 0 0 1.799.92c.709.109 1.527.082 2.474-.081 1.363-.239 2.447-.702 3.251-1.384.797-.681 1.377-1.547 1.731-2.603.354-1.05.532-2.188.532-3.415 0-.422-.014-.845-.035-1.267a21.113 21.113 0 0 1-.034-1.336c1.275-.225 2.577-.443 3.919-.654a242.54 242.54 0 0 0 4.062-.682c1.363-.239 2.733-.484 4.096-.722 2.024-.355 4.062-.716 6.107-1.077 2.044-.361 4.014-.729 5.895-1.111 0 .613.013 1.152.034 1.615.027.47.034.947.034 1.445v1.377c0 3.346-.368 6.27-1.097 8.771-.73 2.508-1.875 4.743-3.428 6.713-1.554 1.97-3.531 3.66-5.937 5.071-2.399 1.41-5.275 2.657-8.614 3.741-3.346 1.084-7.156 2.004-11.443 2.76-4.566.805-8.56 1.193-11.974 1.159-3.415-.034-6.325-.559-8.724-1.568-2.399-1.015-4.341-2.508-5.827-4.484-1.486-1.976-2.569-4.478-3.251-7.51-.681-3.033-1.022-6.693-1.022-10.98 0-3.953.388-7.435 1.165-10.448.777-3.005 1.929-5.684 3.462-8.028 1.527-2.338 3.531-4.369 6.005-6.073 2.474-1.703 5.404-3.141 8.791-4.307 3.388-1.165 7.32-2.14 11.798-2.924 4.375-.77 8.253-1.233 11.62-1.376 3.366-.143 6.222.007 8.58.463 2.351.457 4.26 1.247 5.718 2.379 1.459 1.131 2.508 2.678 3.142 4.634.634 1.963.954 4.307.954 7.033 0 .423-.013.955-.034 1.595a91.033 91.033 0 0 1-.102 1.929l-.143 1.895a121.61 121.61 0 0 0-5.896.899c-2.003.355-3.993.702-5.97 1.05l-4.062.715-4.062.716a54.491 54.491 0 0 0-3.816.811l.014.014ZM336.673 109.594l36.374-6.413c3.625-.641 6.828-.948 9.602-.914 2.781.028 5.119.484 7.027 1.377 1.908.886 3.346 2.215 4.307 3.973.968 1.759 1.445 4.076 1.445 6.952 0 3.06-.402 5.684-1.2 7.872-.797 2.187-2.092 4.007-3.884 5.452-1.786 1.445-4.117 2.692-6.993 3.741-2.869 1.05-6.358 1.909-10.454 2.583l8.614-4.627v4.873l-8.546-.893c3.721-.47 6.883-.757 9.5-.866 2.617-.109 4.771.069 6.461.518 1.697.457 3.026 1.363 3.994 2.72.968 1.363 1.636 3.257 2.01 5.684.287 1.076.532 2.283.743 3.612.212 1.329.45 2.569.709 3.721.259 1.158.457 2.147.6 2.965l-20.623 3.639c-1.179.204-2.12.218-2.829.041-.708-.184-1.233-.675-1.588-1.486-.354-.811-.695-1.983-1.022-3.53-.191-1.806-.402-3.285-.634-4.444a45.461 45.461 0 0 0-.668-2.883c-.211-.763-.518-1.37-.92-1.819-.402-.443-.879-.668-1.444-.661-.566 0-1.248.081-2.052.218-.375.068-.729.129-1.056.184a8.272 8.272 0 0 1-1.097.122 20.4 20.4 0 0 0-1.166.103c-.375.04-.763.122-1.165.238a15.12 15.12 0 0 1-1.52.341l-.423-11.436c.423-.027.92-.068 1.486-.123a24.23 24.23 0 0 0 1.799-.245 68.79 68.79 0 0 0 2.052-.395c.729-.15 1.567-.314 2.508-.478 1.172-.204 2.126-.572 2.862-1.104.729-.531 1.275-1.274 1.622-2.228.355-.954.532-2.256.532-3.905 0-1.179-.109-2.134-.321-2.876-.211-.736-.538-1.268-.988-1.588-.45-.321-1.036-.525-1.765-.607-.729-.082-1.567-.041-2.508.123-.327.061-.756.129-1.274.225-.518.088-1.05.197-1.588.313-.539.123-1.118.266-1.731.45-.614.177-1.2.32-1.766.416-.565.095-1.104.204-1.622.32-.518.116-.967.232-1.342.341l3.53-4.791a557.932 557.932 0 0 0 0 12.676c.048 4.253.102 8.342.177 12.261.068 3.918.191 7.476.355 10.672.163 3.197.361 5.93.599 8.192l-24.719 4.362c.048-2.596.069-5.207.069-7.817 0-2.61.02-5.445.068-8.485.047-3.046.068-6.447.068-10.216 0-5.602-.014-10.462-.034-14.578a646.513 646.513 0 0 0-.177-11.872h.006ZM450.523 142.491l-49.438 8.717c.095-2.556.177-5.139.245-7.742.068-2.604.102-5.446.102-8.526v-18.149c0-2.426-.013-4.703-.034-6.843-.027-2.14-.061-4.171-.109-6.093a207.093 207.093 0 0 0-.211-5.615l49.438-8.717a90.017 90.017 0 0 0-.102 3.305 174.904 174.904 0 0 0-.034 3.783c0 1.22.013 2.61.034 4.021.02 1.41.061 2.535.102 3.373-1.929.389-3.899.75-5.895 1.077-2.004.327-3.953.661-5.862.995-1.908.334-3.802.661-5.683.968-1.882.307-3.688.613-5.405.92-1.717.307-3.312.586-4.771.838l3.04-11.838v45.697l-3.108-11.177c1.506-.266 3.156-.559 4.941-.873 1.786-.313 3.626-.661 5.507-1.043 1.881-.381 3.817-.742 5.793-1.09 1.976-.348 3.932-.702 5.861-1.07 1.929-.361 3.789-.682 5.582-.947 0 .988-.014 2.242-.034 3.748a244.242 244.242 0 0 0-.034 4.525c0 1.227.013 2.563.034 4.021a285.9 285.9 0 0 1 .034 3.735h.007Zm-26.907-16.799v-11.798c1.786-.313 3.605-.634 5.438-.961 1.841-.32 3.674-.661 5.507-1.008 1.834-.348 3.626-.689 5.371-1.016 1.744-.327 3.462-.668 5.159-1.015l4.873-1.002a142.109 142.109 0 0 0-.109 3.905 259.974 259.974 0 0 0-.034 4.668v3.953c-1.411.205-2.979.443-4.696.723-1.718.279-3.449.559-5.193.845-1.745.286-3.544.579-5.405.879-1.86.307-3.687.607-5.473.893-1.785.293-3.605.6-5.438.927v.007ZM453.985 88.91 503 80.267a204.151 204.151 0 0 0-.109 4.607c-.027 1.84-.034 3.653-.034 5.445 0 1.697.014 3.503.034 5.432.027 1.929.062 3.612.109 5.064a195.96 195.96 0 0 0-8.826 1.342 754.6 754.6 0 0 1-8.335 1.432c-2.637.443-5.063.858-7.272 1.247-3.298.579-7.087 1.247-11.374 2.003-4.287.757-8.69 1.629-13.208 2.611a83.3 83.3 0 0 0 .143-5.146V93.496c0-1.86-.048-3.394-.143-4.6v.013Zm11.3 7.68 26.416-4.655v9.467c0 3.155.013 6.222.034 9.207.02 2.985.034 5.807.034 8.472 0 2.664.034 5.091.102 7.292.068 2.201.109 4.042.109 5.527v3.285c-1.131.15-2.494.368-4.096.654-1.602.28-3.203.566-4.805.846-1.601.279-3.087.545-4.45.783-1.459.259-2.999.532-4.628.818-1.622.286-3.237.573-4.839.852-1.601.279-2.964.545-4.096.791-.047-.696-.047-1.806 0-3.319.048-1.513.069-3.367.069-5.555 0-2.188.013-4.614.034-7.279.027-2.664.047-5.493.068-8.485.027-2.992.034-6.065.034-9.221v-9.466l.014-.014ZM130.354 265.418l-40.966 7.225c.19-3.844.286-7.818.286-11.914v-24.862c0-3.06-.014-5.908-.034-8.539a171.007 171.007 0 0 0-.246-7.654l40.19-7.088c2.917-.518 5.555-.777 7.913-.797 2.358-.014 4.355.388 6.004 1.199 1.649.818 2.883 2.025 3.707 3.619.825 1.595 1.234 3.762 1.234 6.495 0 2.168-.198 3.994-.6 5.473a8.816 8.816 0 0 1-2.222 3.892c-1.083 1.11-2.61 2.146-4.593 3.107-1.554.791-3.578 1.466-6.072 2.024-2.495.559-5.18 1.186-8.049 1.881l9.037-3.503v3.04l-9.037-.102a103.83 103.83 0 0 0 7.871-1.002c2.522-.423 4.553-.559 6.107-.409 2.119.143 3.775.654 4.975 1.527 1.199.872 2.058 2.051 2.576 3.537.518 1.486.777 3.407.777 5.759 0 2.542-.354 4.75-1.063 6.611a12.216 12.216 0 0 1-3.319 4.825c-1.506 1.349-3.449 2.48-5.827 3.394-2.379.913-5.262 1.669-8.649 2.269v-.007Zm-20.268-18.742.143-9.343a72.973 72.973 0 0 0 5.118-.689c1.527-.272 2.931-.518 4.205-.743 1.227-.265 2.215-.647 2.965-1.158a4.495 4.495 0 0 0 1.663-2.092c.354-.886.531-1.991.531-3.306 0-1.227-.177-2.167-.531-2.835-.355-.668-.873-1.056-1.554-1.172-.682-.116-1.616-.068-2.788.136-1.411.252-2.944.545-4.593.879-1.65.341-3.415.695-5.296 1.077l3.387-5.05c-.047.9-.095 2.044-.143 3.414a92.175 92.175 0 0 0-.034 4.601c.021 1.69.034 3.469.034 5.329v16.773c0 1.744.014 3.366.034 4.866.021 1.506.055 2.883.103 4.15l-3.04-5.043c1.833-.232 3.578-.464 5.227-.709 1.65-.245 3.108-.477 4.376-.702.845-.15 1.601-.361 2.262-.647.662-.28 1.173-.668 1.554-1.159.375-.491.682-1.097.92-1.82.239-.722.355-1.581.355-2.569 0-1.363-.191-2.365-.566-3.005-.375-.641-.94-1.043-1.697-1.22-.756-.171-1.765-.15-3.04.075-.845.15-1.812.34-2.896.579-1.084.238-2.167.463-3.251.681-1.084.218-2.235.457-3.462.716l.014-.014ZM194.132 254.166l-40.258 7.102c.095-1.05.15-2.488.177-4.301.02-1.819.048-3.918.068-6.297.021-2.378.048-4.927.068-7.64.021-2.712.034-5.479.034-8.308 0-3.905-.027-7.551-.068-10.931a1392.99 1392.99 0 0 1-.102-8.99 393.72 393.72 0 0 0-.109-6.515l25.993-4.58c-.047.763-.068 1.806-.068 3.121 0 1.316-.034 2.87-.109 4.648a114.746 114.746 0 0 0-.068 5.841c.02 2.113.02 4.294 0 6.536a547.379 547.379 0 0 0-.034 6.611c0 1.506-.014 2.971-.034 4.389a107.027 107.027 0 0 0 0 4.164c.02 1.363.034 2.665.034 3.912 0 1.247.02 2.317.068 3.203l-3.176-8.976c1.227-.218 2.522-.456 3.885-.722 1.363-.266 2.835-.538 4.416-.811 1.575-.279 3.142-.579 4.696-.9 1.554-.32 3.08-.593 4.593-.811v20.269l-.006-.014ZM261.507 242.287l-27.758 4.894c.048-1.043 0-2.304-.143-3.79a430.6 430.6 0 0 0-.532-5.131c-.211-1.943-.47-3.981-.777-6.114-.307-2.133-.613-4.314-.92-6.549a133.439 133.439 0 0 0-1.097-6.727c-.43-2.256-.845-4.403-1.275-6.447a29.871 29.871 0 0 1-1.022-4.164 204.384 204.384 0 0 0-.777-4.205 93.558 93.558 0 0 1-.6-3.353l2.686 2.562-4.519.797 2.61-3.428c-.19.927-.402 2.086-.633 3.469-.239 1.384-.491 2.89-.777 4.519a77.45 77.45 0 0 1-.92 4.573 494.768 494.768 0 0 0-1.52 8.28 213.802 213.802 0 0 0-1.309 8.458 732.796 732.796 0 0 0-1.022 7.947 249.55 249.55 0 0 0-.743 6.767c-.191 2.011-.286 3.653-.286 4.921l-25.285 4.457c.613-1.942 1.234-4.287 1.874-7.04.634-2.746 1.309-5.67 2.011-8.758.709-3.094 1.424-6.256 2.153-9.493a517.4 517.4 0 0 0 2.045-9.473c.634-3.081 1.234-5.984 1.799-8.724.566-2.733 1.05-5.084 1.445-7.033.402-1.956.695-3.49.879-4.608l41.601-7.333c.095 1.023.361 2.481.811 4.376.45 1.901.968 4.089 1.554 6.576.586 2.488 1.226 5.153 1.908 7.995.681 2.848 1.377 5.738 2.085 8.676a196.479 196.479 0 0 0 2.297 8.669 262.314 262.314 0 0 1 2.188 7.98c.634 2.481 1.281 4.621 1.942 6.441l.027.013Zm-52.545-12.697a69.98 69.98 0 0 0 4.027-.531c1.507-.239 3.122-.504 4.839-.784 1.718-.279 3.401-.552 5.05-.818 1.65-.266 3.061-.504 4.24-.708 1.179-.205 2.542-.457 4.096-.757 1.553-.3 3.169-.593 4.838-.886 1.67-.293 3.272-.586 4.805-.879 1.527-.293 2.815-.6 3.851-.927l.777 12.574a91.517 91.517 0 0 0-4.628.641c-1.67.272-3.319.552-4.941.838-1.622.286-3.203.566-4.73.832-1.533.272-2.91.511-4.13.729-1.131.197-2.474.436-4.028.709-1.554.272-3.169.558-4.838.851-1.67.294-3.347.6-5.017.921-1.669.32-3.189.647-4.552.981l.354-12.779-.013-.007ZM298.024 205.621a1.785 1.785 0 0 1-.034-.627c.02-.191.034-.416.034-.675v-.599c0-1.697-.198-2.965-.6-3.817-.402-.845-1.022-1.411-1.874-1.683-.845-.273-1.956-.293-3.319-.048-.757.13-1.486.341-2.188.634a4.577 4.577 0 0 0-1.799 1.308c-.491.587-.907 1.323-1.234 2.229-.327.906-.565 2.045-.709 3.408-.143 1.369-.211 2.944-.211 4.736 0 1.697.082 3.176.246 4.444.163 1.267.408 2.297.742 3.08.328.791.743 1.438 1.234 1.936a3.123 3.123 0 0 0 1.799.92c.709.109 1.527.082 2.474-.082 1.363-.238 2.447-.702 3.251-1.383.797-.682 1.377-1.547 1.731-2.604.354-1.049.532-2.188.532-3.414 0-.423-.014-.845-.034-1.268a20.353 20.353 0 0 1-.034-1.336c1.274-.225 2.576-.443 3.918-.654 1.343-.211 2.692-.443 4.062-.681 1.37-.239 2.733-.484 4.096-.723 2.024-.354 4.062-.716 6.107-1.077 2.044-.361 4.014-.729 5.895-1.111 0 .614.014 1.152.034 1.616.02.47.034.947.034 1.444v1.377c0 3.346-.368 6.27-1.097 8.771-.729 2.508-1.874 4.744-3.428 6.713-1.554 1.97-3.531 3.66-5.936 5.071-2.399 1.411-5.275 2.658-8.615 3.742-3.346 1.083-7.156 2.003-11.443 2.76-4.566.804-8.56 1.192-11.974 1.158-3.415-.034-6.318-.558-8.724-1.567-2.399-1.016-4.341-2.508-5.827-4.485-1.486-1.976-2.569-4.477-3.251-7.51-.681-3.033-1.022-6.693-1.022-10.979 0-3.953.388-7.436 1.165-10.448.777-3.006 1.929-5.684 3.463-8.029 1.526-2.337 3.53-4.368 6.004-6.072 2.474-1.704 5.404-3.142 8.792-4.307 3.394-1.166 7.319-2.14 11.797-2.924 4.375-.77 8.253-1.234 11.62-1.377 3.367-.143 6.222.007 8.58.464 2.352.456 4.26 1.254 5.718 2.378 1.459 1.132 2.508 2.679 3.142 4.635.634 1.962.954 4.307.954 7.033 0 .423-.013.954-.034 1.595-.027.64-.061 1.281-.102 1.928-.048.648-.095 1.275-.143 1.895-1.929.245-3.898.545-5.895.9-2.004.354-3.994.702-5.971 1.049-1.322.232-2.671.471-4.061.716-1.391.245-2.74.484-4.062.715-1.316.232-2.59.505-3.817.812l.014.013ZM352.757 226.196l-25.496 4.499c.184-2.011.293-3.994.321-5.957.02-1.956.061-3.987.109-6.093.047-2.099.081-4.348.102-6.727a919.85 919.85 0 0 0 0-15.607 890.558 890.558 0 0 0-.102-6.794 745.186 745.186 0 0 1-.109-6.093 66.581 66.581 0 0 0-.321-5.698l25.496-4.498a138.995 138.995 0 0 0-.32 5.779 302.39 302.39 0 0 0-.143 6.277 517.83 517.83 0 0 0-.034 6.502v14.517c0 2.494.013 4.886.034 7.163.027 2.283.068 4.47.143 6.576a158.1 158.1 0 0 0 .32 6.161v-.007Zm36.728-6.474-23.731 4.185c-1.363.238-2.379.218-3.04-.062-.661-.286-1.179-.913-1.554-1.881-.374-.824-.776-1.738-1.199-2.719a93.626 93.626 0 0 0-1.411-3.108 75.243 75.243 0 0 0-1.554-3.08 80.852 80.852 0 0 0-1.622-2.89 32.658 32.658 0 0 0-1.663-2.569 11.864 11.864 0 0 0-1.663-1.895l4.308.511-7.627 1.343v-10.312l6.638-1.172.069 5.071-5.296 1.076a487.159 487.159 0 0 1 2.154-4.757c.777-1.69 1.554-3.346 2.331-4.968a135.733 135.733 0 0 0 2.153-4.723 223.351 223.351 0 0 0 2.685-6.727c.757-1.99 1.391-3.789 1.909-5.384a193.8 193.8 0 0 1 1.411-4.205l26.484-4.668a225.023 225.023 0 0 0-2.297 5.527 420.545 420.545 0 0 1-2.61 6.324c-.92 2.168-1.909 4.28-2.965 6.352a49.882 49.882 0 0 1-3.428 5.759c-1.227 1.772-2.529 3.306-3.919 4.614-1.39 1.302-2.91 2.222-4.552 2.747l.708-1.82v2.399l-.708-1.499c2.024-.075 3.755.041 5.193.354 1.438.314 2.658.852 3.673 1.615a12.016 12.016 0 0 1 2.542 2.556c.682.94 1.261 2.072 1.731 3.401a258.925 258.925 0 0 1 2.611 5.261 73.15 73.15 0 0 1 1.874 4.192c.497 1.233.954 2.255 1.377 3.073.422.818.756 1.513.988 2.086v-.007ZM188.045 321.086l-26.204 4.62c.095-2.467.163-5.029.211-7.701.048-2.665.068-5.534.068-8.594v-24.896c0-2.14-.014-4.178-.034-6.1a495.08 495.08 0 0 0-.109-5.704l46.896-8.267a270.897 270.897 0 0 1-.211 4.661 94.701 94.701 0 0 0-.143 5.078c0 1.458.02 2.964.068 4.505a132 132 0 0 1 .068 3.939c-3.156.511-6.25 1.022-9.289 1.533-3.04.511-5.971 1.016-8.792 1.513-2.828.498-5.466.961-7.913 1.397l4.519-15.77a87.204 87.204 0 0 0-.068 3.646c0 1.288-.014 2.638-.034 4.035-.028 1.39-.014 2.78.034 4.157.047 1.384.068 2.781.068 4.191v3.953c0 2.024.014 4.014.034 5.964.02 1.949.061 3.918.109 5.915.048 1.997.109 3.987.177 5.971.068 1.99.15 3.966.246 5.922.095 1.963.19 3.966.286 6.025l.013.007Zm-4.171-11.273v-16.241c4.335-.763 8.533-1.513 12.609-2.256a684.905 684.905 0 0 0 11.62-2.221c-.048.995-.096 2.221-.143 3.659a137.117 137.117 0 0 0-.068 4.533v8.437c-2.359.416-4.873.852-7.559 1.295-2.685.45-5.377.899-8.089 1.356-2.706.457-5.5.934-8.37 1.438ZM213.964 263.551l36.373-6.413c3.626-.641 6.829-.948 9.603-.913 2.78.027 5.118.483 7.026 1.376 1.909.886 3.347 2.215 4.308 3.974.967 1.758 1.444 4.075 1.444 6.951 0 3.06-.402 5.684-1.199 7.872-.804 2.187-2.099 4.007-3.885 5.452-1.792 1.445-4.123 2.692-6.992 3.742-2.869 1.049-6.359 1.908-10.455 2.583l8.615-4.628v4.873l-8.547-.893c3.721-.47 6.884-.756 9.501-.865 2.61-.11 4.771.068 6.461.518 1.697.456 3.026 1.363 3.993 2.719.968 1.363 1.636 3.257 2.011 5.684.286 1.077.532 2.283.743 3.612.211 1.329.45 2.569.709 3.721a63.65 63.65 0 0 1 .599 2.965l-20.623 3.639c-1.179.204-2.119.218-2.828.041-.709-.184-1.234-.675-1.588-1.486-.354-.811-.695-1.983-1.022-3.53-.191-1.806-.402-3.285-.634-4.444-.239-1.158-.457-2.119-.675-2.883-.211-.763-.518-1.369-.92-1.812-.402-.45-.879-.668-1.445-.662-.565 0-1.247.082-2.051.219-.375.068-.729.129-1.056.184a9.68 9.68 0 0 1-1.098.122c-.402.028-.79.055-1.165.102a6.968 6.968 0 0 0-1.166.239c-.402.116-.906.232-1.519.341l-.423-11.436c.423-.028.92-.068 1.486-.123a24.302 24.302 0 0 0 1.799-.245 69.426 69.426 0 0 0 2.051-.396c.73-.15 1.568-.313 2.508-.477 1.18-.204 2.127-.572 2.863-1.104.729-.531 1.274-1.274 1.622-2.228.354-.954.532-2.256.532-3.905 0-1.18-.11-2.134-.321-2.877-.211-.736-.545-1.267-.988-1.587-.45-.321-1.036-.525-1.765-.607-.729-.082-1.568-.041-2.508.123-.327.061-.757.136-1.275.225a37.3 37.3 0 0 0-1.588.313c-.538.123-1.117.266-1.731.45-.613.177-1.199.32-1.765.416-.566.102-1.104.204-1.622.32-.518.116-.968.232-1.343.341l3.531-4.791a557.932 557.932 0 0 0 0 12.676c.048 4.253.109 8.342.177 12.261.068 3.918.191 7.476.354 10.672.164 3.197.362 5.93.6 8.192l-24.719 4.362c.048-2.597.068-5.207.068-7.817 0-2.61.028-5.445.068-8.485.048-3.046.069-6.447.069-10.216 0-5.602-.014-10.462-.034-14.578a646.281 646.281 0 0 0-.178-11.872l.014-.007ZM303.803 300.674l-25.353 4.471c.048-1.936.082-3.885.109-5.848.021-1.956.048-4.001.068-6.12.021-2.12.034-4.375.034-6.754v-15.641c0-2.399-.013-4.669-.034-6.809-.027-2.14-.047-4.157-.068-6.058a532.715 532.715 0 0 0-.109-5.739l25.353-4.471c0 1.881-.027 3.797-.068 5.732a507.632 507.632 0 0 0-.143 12.949v15.573c0 2.379.027 4.648.068 6.802.048 2.16.082 4.184.109 6.093.02 1.901.034 3.843.034 5.82ZM342.221 293.899l-32.066 5.657c.047-2.501.082-5.084.109-7.756.02-2.665.048-5.513.068-8.56.027-3.039.034-6.42.034-10.141v-7.912c0-2.447-.027-4.737-.068-6.87a725.544 725.544 0 0 1-.109-6.052 399.766 399.766 0 0 1-.034-5.677l32.345-5.705c3.953-.695 7.449-1.111 10.489-1.247 3.039-.136 5.684.136 7.946.825 2.263.681 4.096 1.799 5.507 3.339 1.411 1.541 2.481 3.681 3.217 6.427.729 2.747 1.097 6.093 1.097 10.046 0 4.614-.32 8.601-.954 11.961-.634 3.36-1.649 6.297-3.04 8.798-1.39 2.508-3.175 4.553-5.37 6.134-2.188 1.588-4.859 2.917-8.015 3.994-3.155 1.076-6.876 1.99-11.156 2.746v-.007Zm-7.49-7.081-3.531-7.783c.75.055 1.459.082 2.12.089.661 0 1.308-.027 1.942-.096a24.299 24.299 0 0 0 1.977-.279c.681-.123 1.356-.239 2.01-.354a13.21 13.21 0 0 0 2.576-.702c.777-.3 1.438-.75 1.977-1.336.538-.586.974-1.363 1.308-2.317.327-.954.566-2.099.709-3.442.143-1.343.211-2.978.211-4.914 0-1.935-.081-3.585-.245-4.832-.164-1.24-.388-2.263-.668-3.06-.279-.797-.715-1.356-1.308-1.677a4.945 4.945 0 0 0-1.977-.572c-.729-.055-1.635 0-2.719.198-1.315.231-2.61.511-3.885.824-1.274.321-2.61.648-4.028.995l3.531-8.321a274.099 274.099 0 0 0-.109 4.43c-.028 1.533-.048 3.128-.069 4.777-.027 1.656-.047 3.319-.068 4.989a319.48 319.48 0 0 0-.034 5.125v5.97c0 1.766.021 3.374.068 4.826.048 1.451.096 2.787.144 4 .047 1.22.068 2.365.068 3.449v.013ZM437.355 277.127l-27.758 4.893c.047-1.042-.001-2.303-.144-3.789-.143-1.479-.32-3.196-.531-5.132a180.03 180.03 0 0 0-.777-6.113c-.307-2.133-.613-4.314-.92-6.55-.307-2.228-.668-4.47-1.097-6.726a307.444 307.444 0 0 0-1.275-6.448 29.836 29.836 0 0 1-1.022-4.164 205.64 205.64 0 0 0-.777-4.205 90.985 90.985 0 0 1-.6-3.353l2.685 2.563-4.518.797 2.61-3.428a98.173 98.173 0 0 0-.634 3.469c-.238 1.383-.49 2.89-.777 4.518a75.9 75.9 0 0 1-.92 4.574 505.176 505.176 0 0 0-1.52 8.28 215.646 215.646 0 0 0-1.308 8.458 708.645 708.645 0 0 0-1.022 7.946 250.03 250.03 0 0 0-.743 6.768c-.191 2.011-.28 3.653-.28 4.921l-25.284 4.457c.613-1.942 1.233-4.287 1.874-7.04.634-2.747 1.308-5.671 2.01-8.758.702-3.087 1.425-6.256 2.154-9.494a522.196 522.196 0 0 0 2.045-9.473c.633-3.08 1.233-5.984 1.799-8.723.565-2.733 1.049-5.085 1.445-7.034.402-1.956.695-3.489.879-4.607l41.6-7.333c.096 1.022.361 2.481.811 4.375.45 1.902.968 4.089 1.554 6.577.586 2.488 1.227 5.152 1.908 8.001a4672.52 4672.52 0 0 0 2.086 8.676 196.479 196.479 0 0 0 2.297 8.669 262.177 262.177 0 0 1 2.187 7.981c.634 2.48 1.282 4.62 1.943 6.44l.02.007Zm-52.546-12.697a70.902 70.902 0 0 0 4.028-.531c1.506-.239 3.122-.505 4.839-.784 1.717-.28 3.401-.552 5.05-.818 1.649-.266 3.06-.504 4.239-.709 1.179-.204 2.542-.456 4.096-.756 1.554-.3 3.169-.593 4.839-.886 1.67-.293 3.271-.586 4.805-.88 1.526-.293 2.815-.599 3.851-.926l.776 12.574a92.73 92.73 0 0 0-4.627.64c-1.67.273-3.319.552-4.941.839-1.622.286-3.203.565-4.73.831-1.533.273-2.91.511-4.13.729-1.131.198-2.474.437-4.028.709-1.554.273-3.169.559-4.839.852-1.67.293-3.346.6-5.016.92-1.67.32-3.189.648-4.552.982l.354-12.772-.014-.014ZM468.433 218.679l21.965-3.871c-.708 1.445-1.472 3.346-2.296 5.704a622.888 622.888 0 0 1-2.754 7.688 549.557 549.557 0 0 0-2.998 8.403c-.989 2.835-1.922 5.521-2.788 8.049a227.978 227.978 0 0 1-2.399 6.672c-.729 1.922-1.213 3.251-1.445 4.001-2.262.395-4.593.736-6.992 1.022-2.399.28-4.825.641-7.272 1.07-1.458.259-2.958.559-4.484.9a71.389 71.389 0 0 1-4.451.852c-1.438.231-2.658.484-3.673.756-1.016.273-1.752.45-2.222.532-.279-.75-.743-1.949-1.377-3.605a310.069 310.069 0 0 0-2.296-5.773c-.893-2.195-1.875-4.566-2.931-7.108s-2.099-5.037-3.108-7.47a273.052 273.052 0 0 0-2.862-6.631 206.728 206.728 0 0 0-2.188-4.737l25.285-4.457c.047.511.177 1.145.388 1.908.211.764.402 1.636.566 2.617.163.982.375 2.031.634 3.135.259 1.111.504 2.27.743 3.469.238 1.207.47 2.474.708 3.796a60.622 60.622 0 0 1 1.098 4.894c.306 1.69.613 3.292.92 4.818.306 1.527.552 2.788.743 3.79l-2.399-3.108 4.307-.757-2.61 4.062c.19-1.07.408-2.392.667-3.966.259-1.575.566-3.299.921-5.18.354-1.874.742-3.721 1.165-5.541.232-1.267.491-2.555.777-3.878a82.78 82.78 0 0 1 .879-3.755c.307-1.186.566-2.31.777-3.387.211-1.07.402-2.024.566-2.856.163-.831.32-1.513.456-2.058h-.02Zm-22.388 37.143 29.946-5.281c0 2.399.048 4.668.143 6.788.096 2.126.15 4.055.177 5.793.021 1.737.068 3.203.143 4.389.069 1.185.109 2.092.109 2.698-1.458.259-3.087.546-4.872.859-1.793.314-3.592.62-5.405.92a337.66 337.66 0 0 0-5.193.879c-1.65.293-3.401.614-5.262.961-1.86.355-3.7.689-5.506 1.009-1.813.32-3.401.6-4.771.838.095-.627.15-1.547.177-2.753.021-1.206.068-2.685.143-4.437.068-1.751.116-3.701.143-5.854.021-2.147.034-4.423.034-6.822l-.006.013Z"/><path fill="#EB5757" d="m23 113.342 11.382-2.003v5.527c-.696.122-1.377.231-2.045.327-.668.095-1.309.198-1.922.3-.613.109-1.165.204-1.67.293-.79.136-1.683.3-2.671.491-.995.184-2.018.388-3.067.592.027-.388.034-.838.034-1.349v-2.944c0-.511-.014-.927-.034-1.234H23Zm3.196 2.665 5.03-.886v4.471c0 1.595.014 3.21.034 4.859.02 1.649.034 3.251.034 4.805 0 1.554 0 2.985.02 4.287.014 1.301.028 2.412.035 3.332.013.92.02 1.561.02 1.916-.218.04-.484.081-.804.122-.32.048-.64.089-.954.13-.314.041-.6.088-.859.136-.286.048-.593.109-.913.177-.32.068-.634.136-.934.198-.3.068-.58.123-.845.163.048-.34.075-.981.075-1.915 0-.933 0-2.051.02-3.36.02-1.308.028-2.739.035-4.3.013-1.561.02-3.162.02-4.812v-9.337l-.014.014ZM41.238 137.053l-5.098.899v-3.946c0-1.342 0-2.78.02-4.328.014-1.547.02-3.278.02-5.193 0-2.849 0-5.35-.02-7.503-.013-2.154-.02-4.137-.02-5.957l5.098-.9c-.028.723-.041 1.554-.055 2.488-.014.934-.027 1.929-.034 2.971-.014 1.043-.02 2.059-.02 3.054v4.866l-.648-2.324a19.36 19.36 0 0 0 1.275-.191 95.72 95.72 0 0 0 1.383-.245c.43-.075.886-.157 1.363-.239.477-.082.9-.17 1.254-.259l-.572 2.542v-7.919c0-1.043 0-2.031-.02-2.958-.014-.934-.028-1.751-.055-2.467l5.098-.9a184.272 184.272 0 0 0-.055 5.97c.014 2.154.02 4.655.02 7.504 0 1.915 0 3.646-.02 5.193-.014 1.547-.02 2.992-.02 4.328 0 1.336.02 2.651.068 3.939l-5.098.9c.027-.77.04-1.622.055-2.556.013-.934.02-1.915.02-2.951v-7.722l.572 2.27-1.274.225c-.464.082-.913.163-1.35.238-.477.082-.954.171-1.417.253-.463.081-.88.156-1.24.218l.647-2.481v4.723c0 .968 0 1.963.02 2.978.014 1.016.028 1.997.035 2.938.013.94.027 1.799.054 2.555l.014-.013ZM64.287 132.991l-11.457 2.017a439.827 439.827 0 0 0 .075-8.233v-9.282c0-1.254 0-2.447-.02-3.571-.014-1.125-.027-2.175-.034-3.156-.014-.981-.02-1.874-.02-2.692l11.456-2.017c-.027.293-.034.668-.034 1.138v2.801c0 .518.013.913.034 1.193-.477.081-.988.177-1.527.272a62.68 62.68 0 0 1-1.547.252c-.49.075-.988.157-1.492.246-.505.088-.968.17-1.404.245-.43.075-.825.143-1.186.211l.681-3.782v2.229c0 .763 0 1.56-.02 2.392a72.12 72.12 0 0 0 0 2.426c.014.79.02 1.567.02 2.331v9.998c0 .756 0 1.485-.02 2.194-.014.709 0 1.384.02 2.024l-.715-3.462c.381-.068.804-.143 1.254-.218.456-.082.927-.17 1.417-.266.491-.095.975-.19 1.452-.272a44.42 44.42 0 0 0 1.506-.286 22.04 22.04 0 0 1 1.547-.253c-.027.314-.034.736-.034 1.261v2.999c0 .518.014.94.034 1.268l.014-.007Zm-7.074-14.803c.504-.089.995-.177 1.472-.259.477-.082.954-.177 1.438-.273.477-.095.94-.184 1.383-.259.443-.075.88-.17 1.309-.265.43-.103.859-.178 1.295-.225v4.668c-.43.102-.859.171-1.295.211-.43.041-.866.103-1.309.198-.443.089-.906.17-1.383.245-.477.075-.961.15-1.438.232-.477.082-.968.17-1.472.259v-4.532ZM71.722 131.682a1062.078 1062.078 0 0 0 .075-13.474v-5.261c0-1.595 0-3.067-.02-4.43a279.401 279.401 0 0 0-.055-3.762l5.814-1.022c.075.3.163.681.272 1.158.11.471.253 1.002.43 1.595s.361 1.234.559 1.929c.19.695.409 1.438.647 2.222.239.783.477 1.56.716 2.33.238.771.443 1.547.613 2.331.218.777.416 1.615.614 2.515.19.9.354 1.82.483 2.767.13.947.246 1.888.341 2.828l-.572-1.765.715-.231-.177 2.146c-.048-1.138-.109-2.242-.177-3.305a92.17 92.17 0 0 1-.218-6.175c0-.715-.014-1.479-.034-2.29-.028-.811-.041-1.622-.055-2.433-.013-.811-.027-1.601-.054-2.378-.028-.77-.041-1.493-.055-2.161a58.663 58.663 0 0 0-.054-1.785l4.34-.764v2.12c0 .906-.02 1.97-.054 3.19a139.155 139.155 0 0 0-.054 3.905v11.94c0 2.14.027 4.069.075 5.786l-5.207.92a81.042 81.042 0 0 1-.484-1.676 61.088 61.088 0 0 0-.613-2.065c-.225-.736-.47-1.506-.716-2.317-.252-.805-.504-1.623-.756-2.454a29.67 29.67 0 0 0-.846-2.419 72.49 72.49 0 0 1-.66-3.258 247.913 247.913 0 0 1-.594-3.36c-.19-1.125-.381-2.235-.572-3.326l.825 2.263-.9.3.218-2.658c.116 1.342.211 2.658.266 3.939.061 1.281.102 2.481.123 3.585.027 1.111.047 2.174.075 3.203 0 1.411 0 2.719.02 3.912.014 1.193.027 2.249.034 3.169.014.92.027 1.717.034 2.399.014.682.02 1.199.02 1.561l-4.382.77v-.014ZM102.705 112.252c0 2.133-.103 4.014-.307 5.657-.204 1.642-.498 3.053-.879 4.232-.382 1.179-.879 2.167-1.493 2.958-.613.79-1.301 1.41-2.065 1.853-.763.443-1.65.757-2.658.934-1.029.184-1.942.184-2.746.021a3.868 3.868 0 0 1-2.045-1.132c-.566-.586-1.043-1.397-1.438-2.44-.395-1.042-.681-2.351-.859-3.925-.177-1.575-.265-3.422-.265-5.555 0-2.133.102-3.973.306-5.527.205-1.554.505-2.883.9-3.98s.9-1.99 1.506-2.672a7.231 7.231 0 0 1 2.065-1.622 9.092 9.092 0 0 1 2.583-.852c1.152-.204 2.174-.17 3.067.089.9.259 1.677.825 2.331 1.69.654.866 1.152 2.133 1.492 3.796.334 1.663.505 3.824.505 6.482v-.007Zm-7.395 10.529c.361-.061.689-.259.988-.586.3-.327.539-.845.716-1.547.177-.702.327-1.656.45-2.862.122-1.206.177-2.733.177-4.573 0-1.84-.061-3.244-.177-4.348-.123-1.104-.266-1.943-.45-2.508-.177-.566-.423-.948-.716-1.145a1.326 1.326 0 0 0-.988-.205 1.892 1.892 0 0 0-1.043.545c-.286.293-.531.75-.736 1.384-.204.634-.354 1.527-.45 2.685-.095 1.152-.143 2.631-.143 4.423 0 1.793.048 3.347.144 4.519.095 1.165.245 2.072.45 2.705.204.634.45 1.064.735 1.289.287.224.634.299 1.043.231v-.007ZM103.638 99.126l11.382-2.004v5.527a61.13 61.13 0 0 1-2.045.327c-.668.096-1.308.198-1.922.3-.613.109-1.165.205-1.669.293-.791.136-1.684.3-2.672.491-.995.184-2.017.388-3.067.593.021-.389.034-.838.034-1.35v-2.944c0-.511-.013-.927-.034-1.233h-.007Zm3.197 2.664 5.029-.886v4.471c0 1.595.014 3.21.034 4.86.021 1.649.035 3.25.035 4.804 0 1.554 0 2.985.02 4.287.014 1.302.027 2.413.034 3.333.014.92.021 1.56.021 1.915-.219.041-.484.082-.805.123-.32.047-.64.088-.954.129-.313.041-.6.089-.859.136a20.71 20.71 0 0 0-.913.178c-.32.068-.634.136-.933.197-.3.068-.58.123-.846.164.048-.341.075-.982.075-1.915 0-.934 0-2.052.021-3.36.013-1.309.027-2.74.034-4.301.014-1.56.02-3.162.02-4.811v-9.337l-.013.013ZM119.797 107.331c.287-.048.614-.109.968-.17.361-.062.716-.13 1.077-.191s.709-.136 1.043-.218c.334-.082.599-.143.79-.177-.047.415-.075.824-.075 1.233v2.529c0 .422.028.824.075 1.226a7.133 7.133 0 0 0-.79.103c-.334.061-.682.116-1.043.163-.361.055-.716.109-1.077.171-.361.061-.668.116-.934.163-.286.048-.606.109-.954.171-.347.061-.715.129-1.097.211-.382.082-.722.143-1.022.198-.3.054-.532.109-.702.156v-4.989c.17-.027.402-.061.702-.088.3-.027.634-.075 1.002-.143.368-.068.736-.13 1.097-.191s.668-.116.934-.164l.006.007ZM131.431 117.091c.382-.068.688-.171.913-.307.225-.136.416-.314.559-.532.143-.218.252-.483.32-.811.075-.32.11-.715.11-1.165 0-.45-.041-.845-.123-1.234a7.588 7.588 0 0 0-.286-1.042c-.109-.307-.28-.6-.518-.88a4.65 4.65 0 0 0-.845-.77 6.361 6.361 0 0 0-1.132-.627c-.838-.259-1.554-.572-2.153-.933-.6-.362-1.091-.77-1.472-1.234a6.28 6.28 0 0 1-.955-1.574 8.796 8.796 0 0 1-.558-1.929c-.123-.695-.178-1.486-.178-2.372 0-1.151.137-2.174.416-3.073.273-.9.675-1.663 1.2-2.297.524-.634 1.192-1.159 2.01-1.574.811-.416 1.758-.723 2.835-.914.954-.17 1.793-.231 2.515-.19.716.04 1.322.184 1.813.436.491.252.886.613 1.186 1.104.3.484.518 1.083.661 1.785.143.71.218 1.561.218 2.563 0 .286 0 .579-.021.886-.013.3-.013.613 0 .934.014.32 0 .661-.02 1.029l-.681.122c-.266.048-.532.089-.805.123-.279.034-.559.082-.845.13-.381.068-.743.129-1.077.19-.334.062-.62.123-.858.191.027-.456.034-.893.034-1.302v-1.254c0-.504-.028-.92-.075-1.247-.048-.327-.143-.6-.286-.81a.793.793 0 0 0-.593-.362 3.386 3.386 0 0 0-.914.055 2.934 2.934 0 0 0-.824.272c-.266.13-.464.3-.593.518-.13.218-.232.47-.307.77-.075.3-.109.641-.109 1.023 0 .429.021.817.055 1.158.034.341.115.675.231 1.002.123.327.28.627.484.9.205.272.484.531.845.763.361.238.764.443 1.22.627.859.375 1.629.79 2.297 1.247a6.252 6.252 0 0 1 1.649 1.629c.43.627.757 1.37.988 2.215.225.845.341 1.84.341 2.992 0 .934-.075 1.785-.218 2.549a7.129 7.129 0 0 1-.715 2.085 6.555 6.555 0 0 1-1.241 1.636c-.491.47-1.104.865-1.833 1.186-.729.32-1.547.559-2.46.722-.982.171-1.847.225-2.583.15-.743-.075-1.37-.259-1.888-.566a3.772 3.772 0 0 1-1.254-1.179c-.321-.483-.552-1.083-.682-1.799a13.623 13.623 0 0 1-.197-2.406v-1.042c0-.334 0-.655.02-.955.014-.299.027-.599.055-.892.286-.028.647-.068 1.076-.116.43-.048.873-.116 1.329-.198.382-.068.757-.129 1.111-.197a9.19 9.19 0 0 0 .9-.198c-.027.341-.041.675-.055.995-.013.327-.02.62-.02.886 0 .886.061 1.561.177 2.031.123.47.334.784.647.947.314.164.696.198 1.152.123l.007.007ZM154.371 103.14c0 2.133-.102 4.014-.306 5.656-.205 1.643-.498 3.054-.88 4.233-.381 1.179-.879 2.167-1.492 2.958-.613.79-1.302 1.41-2.065 1.853-.763.443-1.649.757-2.658.934-1.029.184-1.942.184-2.747.02a3.814 3.814 0 0 1-2.044-1.131c-.566-.586-1.043-1.397-1.438-2.44-.396-1.042-.682-2.351-.859-3.925-.177-1.575-.273-3.422-.273-5.555 0-2.133.103-3.973.307-5.527.205-1.554.504-2.883.9-3.98.395-1.097.899-1.99 1.506-2.672a7.219 7.219 0 0 1 2.065-1.622 9.062 9.062 0 0 1 2.583-.852c1.152-.204 2.174-.17 3.067.089.899.259 1.676.825 2.331 1.69.661.866 1.151 2.133 1.492 3.796.334 1.663.504 3.824.504 6.482l.007-.007Zm-7.394 10.529c.361-.061.688-.259.988-.586.3-.327.538-.845.716-1.547.177-.702.327-1.656.449-2.862.123-1.206.178-2.733.178-4.573 0-1.84-.062-3.244-.178-4.348-.122-1.105-.265-1.943-.449-2.508-.178-.566-.423-.948-.716-1.145a1.325 1.325 0 0 0-.988-.205 1.891 1.891 0 0 0-1.043.545c-.286.293-.532.75-.736 1.384-.205.634-.354 1.526-.45 2.685-.095 1.152-.143 2.631-.143 4.423 0 1.793.048 3.347.143 4.519.096 1.172.245 2.072.45 2.705.204.634.45 1.064.736 1.288.286.225.634.3 1.043.232v-.007ZM159.544 100.325c.286-.048.613-.109.968-.17.361-.062.715-.13 1.077-.191.361-.061.702-.136 1.042-.218.334-.082.6-.143.791-.177-.048.415-.068.824-.068 1.233v2.529c0 .422.02.824.068 1.226a7.145 7.145 0 0 0-.791.103c-.334.061-.681.115-1.042.163-.362.055-.716.109-1.077.171-.361.061-.668.115-.934.163-.286.048-.606.109-.954.17-.348.062-.709.13-1.097.212-.382.082-.723.143-1.023.197a7.914 7.914 0 0 0-.701.157v-4.989c.17-.027.402-.061.701-.088.3-.027.634-.075 1.002-.143.368-.068.736-.13 1.098-.191.361-.061.667-.116.933-.164l.007.007ZM171.178 110.085c.381-.069.688-.171.913-.307.225-.136.416-.314.559-.532a2.32 2.32 0 0 0 .32-.811c.068-.32.109-.715.109-1.165 0-.45-.041-.845-.122-1.234a7.54 7.54 0 0 0-.287-1.042 2.785 2.785 0 0 0-.518-.88 4.616 4.616 0 0 0-.845-.77 6.35 6.35 0 0 0-1.131-.627c-.838-.259-1.554-.572-2.154-.933-.599-.362-1.09-.771-1.472-1.234a6.28 6.28 0 0 1-.954-1.574 8.847 8.847 0 0 1-.559-1.93c-.122-.694-.177-1.485-.177-2.37 0-1.153.136-2.175.416-3.075.272-.9.674-1.662 1.206-2.296.525-.634 1.193-1.159 2.011-1.575.811-.415 1.758-.722 2.835-.913.954-.17 1.792-.231 2.515-.19.715.04 1.322.183 1.812.436.491.252.886.613 1.186 1.104.3.483.518 1.083.661 1.785.143.709.218 1.56.218 2.563 0 .286 0 .58-.02.886-.014.3-.014.613 0 .934.014.32 0 .66-.02 1.029l-.682.122c-.266.048-.532.089-.811.123-.273.034-.559.082-.845.13-.382.068-.743.129-1.077.19a9.42 9.42 0 0 0-.859.191c.021-.457.034-.893.034-1.302v-1.254c0-.504-.027-.92-.075-1.24-.047-.327-.143-.6-.286-.811a.792.792 0 0 0-.593-.361 3.38 3.38 0 0 0-.913.054 2.94 2.94 0 0 0-.825.273c-.265.13-.463.3-.593.518-.129.218-.231.47-.306.77-.075.3-.109.64-.109 1.022 0 .43.02.818.054 1.159.034.34.116.675.232 1.002.116.327.279.627.484.9.204.272.484.53.845.763a6.8 6.8 0 0 0 1.22.627c.859.375 1.629.79 2.297 1.247a6.246 6.246 0 0 1 1.649 1.629c.429.627.756 1.37.988 2.215.225.845.341 1.84.341 2.992 0 .933-.075 1.785-.218 2.548a7.097 7.097 0 0 1-.716 2.086 6.57 6.57 0 0 1-1.24 1.636c-.491.47-1.104.865-1.833 1.185-.73.321-1.554.559-2.461.723-.981.17-1.847.225-2.583.15-.743-.075-1.37-.259-1.881-.566a3.791 3.791 0 0 1-1.254-1.179c-.32-.484-.552-1.084-.681-1.799-.13-.716-.198-1.52-.198-2.406v-1.043c0-.334 0-.654.021-.954.02-.3.027-.6.054-.893.286-.027.647-.068 1.077-.115a26.65 26.65 0 0 0 1.329-.198c.381-.068.756-.136 1.111-.198a8.44 8.44 0 0 0 .899-.197c-.027.34-.041.674-.054.995-.014.327-.021.62-.021.886 0 .886.062 1.56.178 2.031.115.47.333.783.647.947.314.163.695.198 1.152.123ZM191.283 110.596l-11.457 2.017a429.562 429.562 0 0 0 .075-8.233v-9.282c0-1.254 0-2.447-.02-3.571a607.617 607.617 0 0 1-.034-3.156c-.014-.981-.021-1.874-.021-2.692l11.457-2.017c-.027.293-.034.668-.034 1.138V87.6c0 .518.013.913.034 1.2-.477.081-.988.177-1.527.272-.538.096-1.056.177-1.547.252-.491.075-.988.157-1.492.246l-1.398.245c-.429.075-.824.143-1.185.211l.681-3.782v2.228c0 .764 0 1.561-.02 2.392a70.07 70.07 0 0 0 0 2.427c.013.79.02 1.567.02 2.33v9.999c0 .756 0 1.485-.02 2.194-.014.709 0 1.384.02 2.024l-.715-3.462c.381-.068.804-.143 1.254-.225.456-.082.926-.17 1.417-.266.491-.095.975-.19 1.452-.272.477-.082.981-.177 1.506-.287.525-.102 1.043-.19 1.547-.252-.027.314-.034.736-.034 1.261v2.999c0 .518.014.94.034 1.268l.007-.007Zm-7.074-14.803c.504-.089.995-.177 1.472-.259.477-.082.954-.177 1.438-.273.477-.095.94-.184 1.383-.259.443-.075.879-.17 1.309-.265a10.45 10.45 0 0 1 1.295-.225v4.668c-.43.102-.859.17-1.295.211-.43.041-.866.103-1.309.198-.443.089-.906.17-1.383.245-.477.075-.961.15-1.438.239-.477.082-.968.17-1.472.259v-4.54ZM202.16 93.169v-1.077c0-.334 0-.64.02-.92.014-.28.021-.538.021-.777 0-1.152-.075-2.024-.218-2.617-.143-.6-.355-.981-.627-1.145-.273-.17-.654-.211-1.131-.123a2.2 2.2 0 0 0-.716.273c-.239.136-.443.389-.613.757-.171.368-.314.872-.43 1.533-.123.654-.211 1.506-.272 2.563a68.853 68.853 0 0 0-.089 3.912c0 1.553.027 2.978.089 4.061.061 1.077.143 1.936.252 2.577.109.64.259 1.124.45 1.445.19.327.402.524.627.586.224.068.511.075.845.013.429-.075.79-.293 1.076-.654.287-.361.505-.9.648-1.602.143-.702.218-1.608.218-2.712 0-.334-.014-.682-.034-1.036-.027-.354-.034-.75-.034-1.18.266-.047.525-.095.79-.135.266-.048.518-.089.771-.137.252-.047.517-.088.811-.143.381-.068.77-.136 1.165-.204.395-.068.804-.143 1.24-.218v.715c0 .239 0 .505-.02.79-.014.294-.021.6-.021.941 0 1.316-.081 2.508-.252 3.578-.17 1.07-.422 2.011-.756 2.808-.334.804-.77 1.5-1.309 2.099a6.695 6.695 0 0 1-1.901 1.466c-.729.381-1.561.654-2.495.817-1.001.178-1.894.184-2.671.021a4.328 4.328 0 0 1-2.031-1.022c-.573-.518-1.05-1.295-1.418-2.318-.368-1.022-.634-2.324-.79-3.898-.157-1.574-.232-3.476-.232-5.704 0-2.229.082-3.974.252-5.541.171-1.56.436-2.883.811-3.967.368-1.083.838-1.976 1.397-2.685a6.514 6.514 0 0 1 2.045-1.71c.804-.43 1.717-.737 2.746-.914.961-.17 1.793-.211 2.515-.122.716.088 1.336.306 1.847.64.511.341.948.818 1.295 1.425.348.606.593 1.37.736 2.276.143.906.218 1.963.218 3.155 0 .41 0 .798-.02 1.173-.014.374-.021.729-.021 1.063 0 .334-.013.681-.034 1.05-.381.04-.777.102-1.186.17-.408.075-.824.143-1.254.225-.238.04-.49.088-.756.136-.266.048-.518.089-.77.136-.252.041-.511.103-.77.17l-.014-.013ZM209.2 80.513l7.327-1.295c1.029-.184 1.935-.218 2.712-.102.777.116 1.438.422 1.977.927.538.504.94 1.254 1.199 2.249.266.995.395 2.27.395 3.823 0 1.554-.102 2.876-.306 3.967-.205 1.09-.525 1.983-.968 2.685a4.747 4.747 0 0 1-1.813 1.663c-.763.409-1.677.722-2.726.934l1.976-1.534v1.902l-1.976-.655c.954-.075 1.745-.095 2.372-.061.62.034 1.151.177 1.581.422.429.246.77.668 1.022 1.275.252.6.463 1.424.627 2.474.143.668.259 1.37.341 2.113.082.736.177 1.424.286 2.051.109.627.211 1.152.307 1.561l-4.56.804c-.218.041-.388.02-.518-.055-.129-.075-.231-.231-.306-.483a13.768 13.768 0 0 1-.252-1.07 845.36 845.36 0 0 1-.362-3.279 23.42 23.42 0 0 0-.306-2.133c-.109-.531-.232-.927-.375-1.192-.143-.26-.314-.423-.505-.484a1.406 1.406 0 0 0-.681-.02l-.361.06-.361.062-.362.061a1.8 1.8 0 0 0-.34.096c-.11.04-.259.081-.45.115l-.109-4.11c.075.014.177.014.32 0 .143-.013.313-.033.518-.054a8.76 8.76 0 0 0 .607-.088c.197-.034.436-.075.701-.123.525-.095.934-.32 1.22-.681.287-.362.512-.893.682-1.595.17-.702.252-1.622.252-2.774 0-.981-.054-1.772-.163-2.378-.109-.607-.259-1.05-.45-1.343-.191-.286-.43-.47-.716-.539-.286-.068-.634-.068-1.043 0-.068.014-.184.034-.34.062a8.364 8.364 0 0 0-1.002.245c-.177.055-.368.11-.559.15a8.078 8.078 0 0 1-.518.11 2.167 2.167 0 0 0-.416.108l1.186-2.038c0 2.392 0 4.764.021 7.109.013 2.344.027 4.58.054 6.706.021 2.126.061 4.075.109 5.854.048 1.772.109 3.278.177 4.512l-5.132.906c.048-1.301.069-2.623.055-3.959a222.702 222.702 0 0 1 0-4.328c.014-1.547.02-3.278.02-5.193v-7.415c0-2.093-.027-4.11-.075-6.039l.007.014ZM236.557 102.615l-11.457 2.017c.021-1.199.041-2.48.055-3.83.013-1.35.02-2.821.02-4.403v-9.282c0-1.254 0-2.447-.02-3.571a607.499 607.499 0 0 1-.034-3.156c-.014-.981-.021-1.874-.021-2.692l11.457-2.017c-.027.293-.034.668-.034 1.138v2.801c0 .518.013.913.034 1.2-.477.082-.988.177-1.527.272-.538.096-1.056.178-1.547.252-.491.076-.988.157-1.492.246-.505.088-.968.17-1.404.245-.43.075-.825.143-1.186.212l.681-3.783v2.229c0 .763 0 1.56-.02 2.392a70.07 70.07 0 0 0 0 2.426c.013.79.02 1.567.02 2.33v9.999c0 .756 0 1.486-.02 2.194a39.4 39.4 0 0 0 .02 2.025l-.715-3.463c.381-.068.804-.143 1.254-.225.456-.081.927-.17 1.417-.265.491-.096.975-.191 1.452-.273.477-.082.981-.177 1.506-.286.525-.102 1.043-.191 1.547-.252-.027.313-.034.736-.034 1.26v2.999c0 .518.014.941.034 1.268l.014-.007Zm-7.075-14.803c.505-.088.996-.177 1.473-.259.477-.081.954-.177 1.438-.272.477-.096.94-.184 1.383-.26.443-.074.879-.17 1.309-.265a10.45 10.45 0 0 1 1.295-.225v4.668c-.43.103-.859.17-1.295.212-.43.04-.866.102-1.309.197-.443.089-.906.17-1.383.246-.477.075-.961.15-1.438.238-.477.082-.968.17-1.473.26v-4.54ZM237.961 75.436l11.381-2.004v5.527c-.695.123-1.376.232-2.044.327-.668.096-1.309.198-1.922.3-.614.11-1.166.205-1.67.293-.791.137-1.683.3-2.672.49-.995.185-2.017.39-3.066.594.02-.389.034-.838.034-1.35V76.67c0-.51-.014-.927-.034-1.233h-.007Zm3.196 2.664 5.03-.885v4.47c0 1.595.013 3.21.034 4.86.027 1.649.034 3.25.034 4.804 0 1.554 0 2.986.02 4.287.014 1.302.021 2.413.034 3.333.014.92.021 1.561.021 1.915-.218.041-.484.082-.811.123-.32.047-.641.088-.954.129-.314.041-.6.089-.866.136a20.43 20.43 0 0 0-.913.178c-.32.068-.634.136-.934.197-.3.068-.579.123-.845.164.048-.341.068-.982.068-1.915 0-.934 0-2.052.021-3.36.013-1.309.02-2.74.034-4.3.013-1.561.02-3.163.02-4.812v-9.317l.007-.007Z"/><path fill="#EAE9D8" d="m389.757 333.19-7.933 1.397c.027-1.275.034-2.577.034-3.899s0-2.78.021-4.348c.013-1.567.02-3.298.02-5.193v-7.613c0-1.124 0-2.167-.02-3.121a174.66 174.66 0 0 0-.055-2.754l8.042-1.417c1.22-.218 2.331-.307 3.34-.266 1.001.041 1.867.273 2.583.695.715.423 1.322 1.07 1.812 1.943.491.872.859 2.031 1.098 3.469.238 1.444.361 3.237.361 5.397 0 2.161-.109 4.205-.32 5.855-.218 1.656-.552 3.053-1.009 4.198-.457 1.145-1.043 2.099-1.758 2.862-.716.764-1.602 1.356-2.638 1.793-1.043.436-2.235.77-3.571 1.008l-.007-.006Zm-1.833-2.44-1.111-2.781c.266-.02.511-.041.736-.055.225-.013.436-.027.627-.04.191-.007.402-.034.627-.075.225-.041.436-.075.627-.109a5.995 5.995 0 0 0 1.418-.409 2.536 2.536 0 0 0 1.001-.805c.273-.361.498-.858.661-1.499.171-.641.3-1.452.396-2.44.095-.988.143-2.208.143-3.666 0-1.459-.048-2.617-.143-3.544-.096-.927-.239-1.67-.43-2.222-.19-.552-.422-.954-.702-1.206a1.488 1.488 0 0 0-.954-.409c-.361-.021-.79.013-1.295.102-.504.088-.954.17-1.363.238-.409.075-.852.164-1.329.273l1.111-2.958c0 .6 0 1.322-.02 2.174-.014.852-.028 1.779-.055 2.774-.027.995-.034 2.004-.034 3.019v6.788c0 1.091 0 2.045.021 2.87.013.824.027 1.56.054 2.214.027.655.027 1.248 0 1.779l.014-.013ZM418.265 328.16l-14.073 2.481c.027-1.227.041-2.508.054-3.851.014-1.343.021-2.801.021-4.382v-12.833c0-1.111 0-2.168-.021-3.156-.013-.988-.027-1.895-.054-2.699l14.073-2.48v5.602a32.49 32.49 0 0 1-1.901.354c-.648.102-1.275.204-1.888.3a83.39 83.39 0 0 0-1.833.307c-.607.109-1.179.211-1.704.299-.525.089-1.029.184-1.506.266l.79-4.266v4.614c0 .804 0 1.601.021 2.399.013.797.02 1.581.02 2.351v10.019c0 .742 0 1.465-.02 2.174-.021.708-.021 1.383-.021 2.031l-.824-3.946c.477-.082.995-.178 1.547-.273.552-.095 1.124-.205 1.724-.32.6-.116 1.206-.232 1.833-.341.621-.109 1.248-.225 1.888-.348a37.688 37.688 0 0 1 1.888-.313v6.031l-.014-.02Zm-8.764-9.801v-4.92c.62-.109 1.233-.218 1.833-.321.6-.102 1.193-.218 1.779-.333a64.8 64.8 0 0 1 1.724-.321c.559-.102 1.104-.197 1.636-.306a70.278 70.278 0 0 1 1.615-.3c0 .381 0 .899-.02 1.547a88.872 88.872 0 0 0-.021 1.922v1.635c-.524.096-1.049.171-1.581.246-.531.075-1.07.15-1.636.252-.565.102-1.144.197-1.737.286-.6.096-1.193.191-1.779.293-.586.102-1.193.211-1.813.32ZM441.819 324.009l-6.713 1.186c0-.429-.027-1.029-.089-1.799a60.167 60.167 0 0 0-.286-2.699 336.726 336.726 0 0 0-.429-3.278 467.465 467.465 0 0 0-.505-3.592c-.177-1.233-.361-2.46-.538-3.673a231.617 231.617 0 0 1-.484-3.469c-.123-.723-.238-1.452-.361-2.201-.123-.743-.225-1.425-.32-2.045a51.9 51.9 0 0 0-.253-1.52l.791.941-1.438.252.791-1.288c-.069.47-.164 1.022-.266 1.663-.109.64-.212 1.356-.321 2.14-.109.783-.218 1.594-.34 2.433a169.06 169.06 0 0 0-.627 4.314c-.205 1.52-.416 3.039-.627 4.559-.218 1.52-.396 2.951-.539 4.294a415.849 415.849 0 0 1-.395 3.605 37.05 37.05 0 0 0-.218 2.495l-6.175 1.09c.191-1.015.416-2.201.661-3.564a429.684 429.684 0 0 0 1.602-9.208c.259-1.636.531-3.244.811-4.811.273-1.568.525-3.04.756-4.403.225-1.37.409-2.549.539-3.544.129-.995.245-1.738.341-2.235l9.732-1.718c.122.484.259 1.193.416 2.133a338.706 338.706 0 0 0 1.329 7.463c.272 1.486.552 2.992.824 4.525.273 1.534.559 3.04.845 4.519.286 1.479.559 2.855.811 4.109.252 1.261.484 2.365.702 3.306l-.027.02Zm-15.368-7.844c.361-.061.763-.136 1.219-.218.457-.082.941-.157 1.452-.239.518-.081 1.009-.156 1.493-.225.477-.075.92-.143 1.329-.218.361-.061.763-.136 1.22-.218.456-.082.94-.17 1.451-.272.511-.103 1.002-.198 1.472-.293.471-.096.866-.171 1.207-.232l.109 4.757c-.43.075-.9.15-1.397.232-.505.075-.995.163-1.473.259-.477.095-.947.184-1.397.265-.456.082-.852.15-1.186.212-.408.068-.838.15-1.294.225-.457.081-.927.156-1.418.231-.491.075-.988.164-1.493.266-.504.102-.961.184-1.363.259l.075-4.784-.006-.007ZM457.658 321.215l-11.559 2.038c.027-.484.041-1.166.055-2.058.013-.886.013-1.956 0-3.197-.014-1.24-.014-2.562 0-3.966.013-1.404.02-2.822.02-4.26 0-2.133 0-4.048.02-5.745.014-1.704 0-3.21-.02-4.519-.027-1.308-.048-2.371-.075-3.182l6.359-1.118c-.048.416-.069.954-.055 1.608.014.655 0 1.418-.02 2.283-.028.866-.048 1.8-.075 2.795-.028.995-.034 2.072-.034 3.217v3.482c0 .934 0 1.902.02 2.903.014 1.002.021 1.963.034 2.883.014.92.027 1.752.034 2.488.014.743.021 1.288.021 1.649l-1.002-2.446c.361-.062.797-.144 1.308-.232.511-.089 1.05-.198 1.616-.321a41.106 41.106 0 0 1 1.724-.34 33.528 33.528 0 0 0 1.636-.327c0 .504 0 1.015-.021 1.547-.014.531-.02 1.056-.02 1.581 0 .525 0 1.063.02 1.615.014.552.021 1.084.021 1.615l-.007.007ZM469.36 314.666a4.24 4.24 0 0 0 1.151-.362c.314-.163.552-.334.716-.524.17-.184.286-.443.361-.784a4.75 4.75 0 0 0 .109-1.043c0-.456-.027-.852-.088-1.186a3.097 3.097 0 0 0-.321-.933 3.045 3.045 0 0 0-.627-.784 3.27 3.27 0 0 0-.988-.6c-.395-.157-.893-.3-1.492-.436a17.62 17.62 0 0 1-2.672-.75c-.777-.293-1.411-.654-1.902-1.083a4.809 4.809 0 0 1-1.165-1.52 7.981 7.981 0 0 1-.647-1.936c-.144-.702-.212-1.499-.212-2.385 0-1.2.164-2.276.505-3.231.334-.954.811-1.778 1.438-2.46.62-.681 1.444-1.274 2.46-1.765 1.015-.491 2.194-.852 3.537-1.09 1.152-.205 2.167-.294 3.053-.266.886.027 1.643.156 2.263.409.62.252 1.111.627 1.472 1.138.361.511.62 1.117.791 1.819.163.702.252 1.554.252 2.556 0 .191-.014.423-.034.689a4.2 4.2 0 0 0 0 .824c.027.286.027.573 0 .859-.266.048-.545.088-.845.129-.3.041-.627.089-.989.137-.361.054-.708.109-1.042.163-.43.075-.845.157-1.241.239-.395.082-.736.157-1.022.232a17 17 0 0 1 .034-1.009c.027-.341.034-.641.034-.907 0-.477-.041-.865-.122-1.165a2.008 2.008 0 0 0-.396-.756c-.177-.205-.436-.328-.77-.369a4.321 4.321 0 0 0-1.186.069c-.409.075-.763.19-1.077.354-.313.164-.545.354-.702.573a2.36 2.36 0 0 0-.34.708c-.075.252-.109.573-.109.954 0 .382.013.73.034 1.036.027.307.109.614.252.907.143.3.348.559.606.79.266.232.614.437 1.043.627.43.184.954.307 1.581.368 1.152.225 2.134.552 2.945.968.811.423 1.478.934 1.99 1.554.518.613.906 1.356 1.165 2.215.259.866.395 1.881.395 3.053 0 .961-.088 1.834-.265 2.631a7.164 7.164 0 0 1-.9 2.222 7.082 7.082 0 0 1-1.547 1.779c-.614.504-1.35.947-2.229 1.329-.872.381-1.86.667-2.964.865-1.248.218-2.318.307-3.21.259-.9-.048-1.657-.225-2.277-.532-.62-.306-1.131-.695-1.526-1.165-.396-.47-.682-1.07-.859-1.806a10.523 10.523 0 0 1-.273-2.467v-.934c0-.313 0-.6.021-.865.013-.266.027-.518.054-.764.362-.061.811-.122 1.363-.184a23.705 23.705 0 0 0 1.616-.231 22.89 22.89 0 0 0 1.349-.273c.395-.095.736-.177 1.022-.252 0 .313 0 .593-.02.845-.014.252-.021.477-.021.668 0 .818.082 1.438.232 1.881.157.436.416.736.791.886.375.15.858.17 1.451.068l-.006.014Z"/></g><defs><filter id="a" width="524.823" height="367.909" x=".589" y=".294" color-interpolation-filters="sRGB" filterUnits="userSpaceOnUse"><feFlood flood-opacity="0" result="BackgroundImageFix"/><feColorMatrix in="SourceAlpha" result="hardAlpha" values="0 0 0 0 0 0 0 0 0 0 0 0 0 0 0 0 0 0 127 0"/><feOffset dy="11.206"/><feGaussianBlur stdDeviation="11.206"/><feComposite in2="hardAlpha" operator="out"/><feColorMatrix values="0 0 0 0 0.117952 0 0 0 0 0.100356 0 0 0 0 0.100356 0 0 0 0.5 0"/><feBlend in2="BackgroundImageFix" result="effect1_dropShadow_237_619"/><feBlend in="SourceGraphic" in2="effect1_dropShadow_237_619" result="shape"/></filter></defs></svg>