<svg xmlns="http://www.w3.org/2000/svg" id="Layer_1" data-name="Layer 1" viewBox="0 0 213 60"><defs/><path d="M203.91 0H9.09L0 9.09v41.82L9.09 60h194.82l9.09-9.09V9.09L203.91 0Z" style="stroke-width:0;fill:#f37d71;fill-rule:evenodd"/><path d="m208.76 13.33-9.09-9.09-.31-.31H13.65l-.31.31.76.76-.76-.76-9.1 9.09-.31.31v32.7l.31.31.76-.76-.76.76 9.09 9.09.76-.76-.76.76.31.31h185.7l.31-.31 9.09-9.09-.76-.76.76.76.31-.31V13.65l-.31-.31Zm-10.29 40.59H14.54l-8.46-8.46V14.54l8.46-8.47h183.93l8.46 8.46v30.93l-8.46 8.46Z" style="fill:#da5a55;stroke-width:0"/><path d="M186.91 26.43v-2.75h1c.27 0 .55 0 .82.03h.82c.29 0 .58 0 .87.03-.02-.22-.03-.5-.03-.82v-1.8c0-.29 0-.54.03-.75h-6.33v1.93c.02.7.03 1.46.03 2.26v12.37c0 .96 0 1.87-.03 2.73h6.33c-.02-.24-.03-.52-.03-.85v-1.93c0-.33 0-.6.03-.82-.29 0-.57 0-.85.03h-2.67v-4.81h1.98c.26 0 .5 0 .72.03h.69v-3.06c-.22 0-.45 0-.69.03h-.72c-.24 0-.49 0-.75.03h-1.23v-1.85ZM179.36 36.3h-1.34c-.33 0-.71 0-1.16.03-.07 0-.13.01-.2.02.03-.11.06-.21.09-.33.15-.53.31-1.1.46-1.7.17-.6.34-1.18.51-1.75.17-.5.33-1.03.49-1.59.17-.57.33-1.14.49-1.72.17-.6.33-1.18.49-1.75.15-.57.3-1.1.44-1.59.14-.5.26-.93.36-1.31.12-.39.21-.69.28-.9v-3.34h-6.64v2.78c0 .21 0 .4-.02.59h1.05c.15-.02.32-.03.49-.03h.64c.46 0 .9 0 1.31-.03.08 0 .16-.02.24-.02-.09.31-.2.66-.32 1.05-.12.43-.25.87-.39 1.31s-.27.87-.39 1.29c-.15.5-.32 1.04-.49 1.62-.17.58-.35 1.18-.54 1.8-.17.62-.34 1.23-.52 1.83-.17.58-.33 1.13-.49 1.65-.14.5-.27.94-.39 1.34-.1.38-.19.65-.26.82v2.44c0 .27 0 .56-.03.85h6.74c0-.31 0-.59-.03-.85V37.5c.02-.21.03-.41.03-.62v-.59h-.44c-.15 0-.33 0-.51.03ZM169.72 30v-5.45c.02-.79.02-1.53.02-2.21.02-.7.03-1.36.03-1.98h-2.93c.02.62.03 1.28.03 1.98v2.24c.02.79.03 1.64.03 2.55v5.79c0 .89 0 1.73-.03 2.52v2.24c0 .69 0 1.35-.03 1.98h2.93c0-.63 0-1.3-.03-2.01 0-.7 0-1.45-.02-2.24v-5.4ZM163.12 36.92c-.05-.53-.11-1.05-.18-1.54-.1-.77-.23-1.39-.39-1.85-.14-.46-.33-.81-.57-1.03-.24-.24-.55-.4-.92-.49-.08-.02-.17-.03-.26-.05v-.17c.17-.04.34-.08.49-.14.43-.19.77-.5 1.03-.93.26-.45.44-1.05.57-1.8.12-.77.18-1.72.18-2.85s-.08-2.12-.23-2.85c-.15-.75-.39-1.34-.69-1.75-.29-.41-.67-.69-1.13-.85-.46-.17-1-.26-1.62-.26h-3.93v4.35c.02 1.49.03 3.26.03 5.3v3.73c0 1.1 0 2.13-.03 3.09v2.83h2.88c-.05-.89-.09-1.98-.13-3.27-.01-1.08-.03-2.27-.04-3.52h.07c.07-.02.13-.03.18-.03h.57c.17 0 .32.03.44.1s.21.21.28.44c.09.22.16.55.23.98.07.43.14 1 .21 1.72.07.7.14 1.59.21 2.65.05.22.09.4.13.54.03.14.09.24.15.31.07.05.16.08.28.08h2.55c-.03-.33-.09-.73-.15-1.21-.05-.48-.11-.99-.18-1.52Zm-4.06-6.63h-.67c-.09-.02-.16-.03-.23-.03v-7.07h.05c.1-.02.2-.03.28-.03h.49c.22 0 .42.04.59.13.17.09.31.25.41.49.12.24.2.6.26 1.08.07.46.1 1.09.1 1.88 0 .86-.05 1.54-.16 2.06-.08.51-.22.89-.41 1.13a.83.83 0 0 1-.72.36ZM151.03 21.77c-.29-.53-.67-.9-1.13-1.11-.46-.21-1.04-.31-1.72-.31h-3.78c.02 1.32.03 2.75.03 4.29.02 1.53.03 3.31.03 5.35 0 1.37 0 2.61-.03 3.73v3.11c0 .94 0 1.88-.03 2.8h2.91c-.03-.96-.07-2.09-.1-3.39 0-.45-.01-.94-.02-1.41h.2c.07 0 .14 0 .21.03h.46c.57 0 1.06-.06 1.49-.18.43-.14.79-.37 1.08-.69.31-.33.56-.76.75-1.31.19-.55.32-1.24.39-2.08.09-.84.13-1.85.13-3.03 0-1.46-.07-2.66-.21-3.6-.12-.94-.33-1.67-.64-2.19Zm-1.9 8.18c-.05.58-.14 1.02-.26 1.31-.1.29-.26.49-.46.59-.19.1-.43.15-.72.15h-.44s-.07-.01-.1-.01v-.04c-.02-1.54-.03-3.17-.03-4.89V23.2h.13c.12-.02.23-.03.33-.03h.23c.24 0 .45.06.62.18.17.1.32.31.44.62s.21.76.26 1.36c.05.58.08 1.36.08 2.34 0 .93-.03 1.68-.08 2.26ZM129.12 21.13v1.83c0 .31 0 .58-.02.82h1.75v5.32c0 1.18 0 2.35-.03 3.5 0 1.15 0 2.21-.03 3.19v2.47c0 .67 0 1.13-.03 1.39h.49c.17-.02.34-.03.51-.03h1c.19 0 .37 0 .54.03h.46c0-.26 0-.72-.03-1.39 0-.69 0-1.52-.03-2.49V23.79h1.7v-3.42h-6.32c.02.21.02.46.02.77ZM125.78 21.1c0-.29 0-.54.03-.75h-6.33v1.93c.02.7.03 1.46.03 2.26v12.37c0 .96 0 1.87-.03 2.73h6.33c-.02-.24-.03-.52-.03-.85v-1.93c0-.33 0-.6.03-.82-.29 0-.57 0-.85.03h-2.67v-4.81h1.98c.26 0 .5 0 .72.03h.7v-3.06c-.22 0-.46 0-.7.03h-.72c-.24 0-.49 0-.75.03h-1.23v-4.6h1c.27 0 .55 0 .82.03h.82c.29 0 .58 0 .87.03-.02-.22-.03-.5-.03-.82v-1.8ZM115.76 36.92c-.05-.53-.11-1.05-.18-1.54-.1-.77-.23-1.39-.39-1.85-.14-.46-.33-.81-.57-1.03-.24-.24-.55-.4-.93-.49-.08-.02-.17-.03-.26-.05v-.17c.17-.04.34-.08.49-.14.43-.19.77-.5 1.03-.93.26-.45.45-1.05.57-1.8.12-.77.18-1.72.18-2.85s-.08-2.12-.23-2.85c-.16-.75-.39-1.34-.69-1.75-.29-.41-.67-.69-1.13-.85-.46-.17-1-.26-1.62-.26h-3.93v4.35c.02 1.49.02 3.26.02 5.3v3.73c0 1.1 0 2.13-.02 3.09v2.83h2.88c-.05-.89-.09-1.98-.13-3.27-.01-1.08-.03-2.27-.04-3.52h.07c.07-.02.13-.03.18-.03h.57c.17 0 .32.03.44.1s.21.21.28.44c.08.22.16.55.23.98.07.43.14 1 .21 1.72.07.7.14 1.59.21 2.65.05.22.09.4.13.54s.09.24.15.31c.07.05.16.08.28.08h2.55c-.03-.33-.09-.73-.15-1.21-.05-.48-.11-.99-.18-1.52Zm-4.06-6.63h-.67c-.09-.02-.16-.03-.23-.03v-7.07h.05c.1-.02.2-.03.28-.03h.49c.22 0 .42.04.59.13.17.09.31.25.41.49.12.24.21.6.26 1.08.07.46.1 1.09.1 1.88 0 .86-.05 1.54-.15 2.06-.09.51-.22.89-.41 1.13a.83.83 0 0 1-.72.36ZM101.54 27.66c0 .29 0 .6-.03.93h2.67c.03-.27.05-.54.05-.8v-.82c.02-.29.02-.61.02-.95 0-.89-.04-1.66-.13-2.31-.09-.67-.22-1.23-.41-1.67-.19-.46-.43-.83-.72-1.11-.27-.27-.62-.47-1.03-.59-.4-.14-.86-.21-1.39-.21-.57 0-1.07.09-1.52.26-.43.17-.81.46-1.13.87-.31.41-.57.98-.77 1.7-.19.72-.33 1.64-.44 2.75-.09 1.11-.13 2.47-.13 4.06s.04 3.05.13 4.22c.09 1.15.22 2.11.41 2.88.21.77.46 1.38.77 1.83.33.43.7.74 1.13.93.43.17.93.26 1.52.26.53 0 .99-.08 1.39-.23.41-.17.76-.43 1.05-.77.31-.34.55-.77.72-1.29.19-.51.33-1.12.41-1.83.08-.72.13-1.54.13-2.47v-1.41c0-.19 0-.38-.02-.57h-2.68c.02.34.03.68.03 1a18.894 18.894 0 0 1-.07 2.98c-.07.5-.18.85-.33 1.05-.14.21-.33.31-.59.31-.15 0-.3-.03-.44-.1-.12-.09-.23-.25-.33-.49-.09-.24-.16-.61-.23-1.11-.07-.51-.12-1.19-.15-2.03-.02-.86-.03-1.92-.03-3.19s.02-2.25.05-3.06c.03-.82.08-1.47.13-1.95.07-.48.15-.83.23-1.05.1-.24.21-.39.33-.46.12-.07.26-.1.41-.1.22 0 .4.08.54.23.16.14.28.43.36.87.09.43.13 1.08.13 1.95 0 .21 0 .44-.03.69 0 .24 0 .51-.03.8ZM93 21.1c0-.29 0-.54.03-.75H86.7v1.93c.02.7.03 1.46.03 2.26v12.37c0 .96 0 1.87-.03 2.73h6.33c-.02-.24-.03-.52-.03-.85v-1.93c0-.33 0-.6.03-.82-.29 0-.57 0-.85.03h-2.67v-4.81h1.98c.26 0 .5 0 .72.03h.69v-3.06c-.22 0-.45 0-.69.03h-.72c-.24 0-.49 0-.75.03h-1.23v-4.6h1c.27 0 .55 0 .82.03h.82c.29 0 .58 0 .87.03-.02-.22-.03-.5-.03-.82v-1.8ZM82.24 31.34c-.24-.51-.54-.99-.9-1.41-.34-.45-.74-.87-1.18-1.29-.26-.24-.48-.48-.67-.72-.19-.26-.34-.51-.46-.75a4.77 4.77 0 0 1-.28-.77c-.07-.26-.12-.52-.15-.8-.02-.29-.03-.6-.03-.93 0-.31.02-.57.05-.8s.09-.4.18-.54c.09-.15.19-.26.31-.31.12-.07.27-.1.46-.1.17 0 .32.03.44.1.14.07.24.18.31.33.09.15.15.37.18.64.03.26.05.58.05.98v1.11c0 .36 0 .73-.03 1.11.15-.02.33-.03.51-.03h.64c.15 0 .3 0 .44.03h.82c.02-.29.03-.57.03-.82v-1.49c0-.72-.03-1.34-.1-1.85-.07-.53-.19-.98-.36-1.34-.17-.38-.39-.68-.67-.9-.27-.24-.61-.41-1-.51-.39-.1-.86-.15-1.39-.15-.6 0-1.13.09-1.59.26-.46.15-.84.41-1.13.77-.29.36-.51.83-.67 1.41-.15.57-.23 1.24-.23 2.03 0 .63.03 1.22.1 1.75.07.51.17 1 .31 1.47.14.45.32.87.54 1.26.22.38.49.75.8 1.11.33.34.69.68 1.11 1 .24.24.45.48.62.72.19.22.34.45.46.69.14.24.24.5.31.77.09.27.15.57.18.87.05.29.08.62.08.98 0 .33-.02.61-.05.85-.03.24-.09.43-.18.57-.07.14-.16.24-.28.31-.12.07-.27.1-.46.1-.26 0-.46-.07-.62-.21-.15-.15-.27-.42-.33-.8-.05-.38-.08-.9-.08-1.57v-.8c0-.29 0-.59.03-.9-.15.02-.33.03-.54.03h-1.39c-.22-.02-.41-.03-.57-.05-.02.22-.03.45-.05.69 0 .24 0 .49-.03.75v.87c0 .62.03 1.17.1 1.67.09.5.21.94.39 1.34.17.39.39.73.67 1 .27.26.62.45 1.03.59.43.14.93.21 1.49.21.51 0 .97-.06 1.36-.18s.73-.3 1-.54c.29-.26.52-.57.69-.95.19-.38.33-.81.41-1.31.09-.51.13-1.1.13-1.75 0-.77-.07-1.47-.21-2.08-.14-.63-.33-1.21-.59-1.72ZM66.56 34.11c-.12-1.11-.25-2.25-.39-3.39-.12-1.15-.24-2.26-.36-3.34-.1-1.1-.21-2.12-.31-3.06-.09-.94-.16-1.76-.23-2.44-.07-.69-.12-1.19-.15-1.52h-4.58c-.02.31-.06.81-.13 1.49-.07.69-.15 1.5-.26 2.44-.09.94-.19 1.96-.31 3.06-.1 1.1-.21 2.23-.33 3.39-.12 1.15-.24 2.27-.36 3.37-.1 1.1-.21 2.13-.33 3.09-.1.94-.2 1.76-.28 2.44h2.8c.02-.43.05-1.02.1-1.77.05-.77.11-1.65.18-2.62 0-.07.01-.14.02-.21h2.23l.09 1.29c.05.77.09 1.44.13 2.01.03.57.05 1 .05 1.31h3.06c-.09-.69-.19-1.5-.31-2.44-.1-.96-.21-1.99-.33-3.09Zm-3.78-1.9h-.93v-.05l.26-3.29c.1-1.1.2-2.13.28-3.11.05-.51.1-1.05.15-1.59.05-.55.09-1.06.13-1.54l.03-.33h.15c0 .12.02.23.03.36.03.48.08.99.13 1.54l.15 1.57c.07.81.14 1.67.21 2.6a111.649 111.649 0 0 1 .3 3.86h-.89ZM43.87 21.13v1.83c0 .31 0 .58-.03.82h1.75v5.32c0 1.18 0 2.35-.03 3.5 0 1.15 0 2.21-.03 3.19v2.47c0 .67 0 1.13-.03 1.39h.49c.17-.02.34-.03.51-.03h1c.19 0 .37 0 .54.03h.46c0-.26 0-.72-.03-1.39 0-.69 0-1.52-.03-2.49V23.79h1.7v-3.42h-6.33c.02.21.03.46.03.77ZM40.53 21.1c0-.29 0-.54.03-.75h-6.33v1.93c.02.7.03 1.46.03 2.26v12.37c0 .96 0 1.87-.03 2.73h6.33c-.02-.24-.03-.52-.03-.85v-1.93c0-.33 0-.6.03-.82-.29 0-.57 0-.85.03h-2.67v-4.81h1.98c.26 0 .5 0 .72.03h.69v-3.06c-.22 0-.45 0-.69.03h-.72c-.24 0-.49 0-.75.03h-1.23v-4.6h1c.27 0 .55 0 .82.03h.82c.29 0 .58 0 .87.03-.02-.22-.03-.5-.03-.82v-1.8ZM29.84 22c-.17-.45-.41-.81-.72-1.08-.29-.27-.64-.47-1.05-.59-.39-.14-.87-.21-1.41-.21-.6 0-1.13.09-1.59.26-.46.17-.86.47-1.18.9-.33.41-.59.98-.8 1.7-.21.72-.36 1.64-.46 2.75-.1 1.11-.15 2.45-.15 4.01 0 1.97.08 3.61.23 4.91.15 1.3.39 2.34.69 3.11.33.75.75 1.29 1.26 1.62.53.33 1.17.49 1.9.49.57 0 1.05-.08 1.47-.23.41-.15.75-.39 1.03-.72.29-.34.52-.78.69-1.31.19-.55.33-1.21.41-1.98.09-.79.14-1.7.15-2.73.02-1.05 0-2.24-.03-3.57-.26.02-.52.03-.8.05h-2.19c-.29-.02-.59-.03-.9-.03v2.7h.36c.14-.02.27-.03.41-.03h.57v1.47c-.02.87-.07 1.55-.15 2.03-.07.48-.18.81-.33 1-.14.19-.33.28-.59.28s-.48-.09-.67-.26c-.17-.19-.32-.53-.44-1.03-.1-.5-.18-1.21-.23-2.13-.05-.93-.08-2.14-.08-3.65s.03-2.62.08-3.5c.07-.89.16-1.56.28-2.01.12-.46.26-.77.41-.93.17-.17.38-.26.62-.26.22 0 .41.09.57.26.15.15.27.44.33.85.07.41.1 1.01.1 1.8v.44c0 .14 0 .29-.03.46 0 .17 0 .34-.03.51.19-.02.4-.03.64-.03h1.49c.22 0 .43 0 .62.03.02-.29.03-.57.03-.82.02-.26.03-.51.03-.77 0-.84-.04-1.57-.13-2.19-.09-.62-.22-1.15-.41-1.59Z" class="cls-2" fill="#61201E"/></svg>