<svg xmlns="http://www.w3.org/2000/svg" fill="none" viewBox="0 0 800 85"><path fill="#fff" d="M799.994 40.118V.368h-800v84.21c.76-.04 1.48-.15 2.13-.4.03-.02.05-.03.07-.04.64.17 1.43.05 2.07.22.64.01 1.21-.17 1.82-.25.49-.14.94-.31 1.17-.61.6-.98 1.83-.59 2.94-.46 1.02-.08 1.97-.31 2.87-.58.77-.23 1.51-.52 1.48-1.07.84.38 1.74.43 2.85.27 2.22-.31 4.51-.41 6.76-.71 3.76-.5 7.27-1.28 10.48-2.52.44-.17.81-.36.94-.66.59.31 1.29.25 2.03.07.83-.47 1.84-.65 2.97-.6.27-.01.53-.06.77-.12 1.22-.23 2.5-.25 3.74-.38 2.81-.28 5.86-.23 8.13-1.53.19-.14.37-.33.32-.47-.24-.65.47-.78 1.29-.87.04-.03.08-.07.12-.1.51.11 1.1.1 1.49.37.98.05 1.99.12 2.35-.63.49-.76 1.99-.64 2.89-1.04.05.01.1.02.15.04.18.83.82 1.18 2.33.93.86-.14 1.81-.09 2.64-.34.48-.14.94-.09 1.4.04 1.93.56 3.81.07 4.24-1.21.18-.54.59-.6 1.33-.77 2.98-.68 6.04-1.22 9.02-1.88.85-.08 1.29-.5 1.89-.78.1.05.21.08.34.1.94.15 1.71-.02 2.53-.34 1.89-.74 3.85-1.44 6.3-1.03.65.11 1.24.03 1.63-.28.68-.55 1.17-.32 1.65.09.68.59 1.61.84 2.81.71.42-.08.82-.19 1.18-.34 1.14-1.13 1.03-1.39-.77-1.66 1.07-.03 2.29.27 2.68-.57.26.08.55.1.74.02 1.7-.73 3.97-.59 5.68-1.29.3-.12.6-.23.91-.33.73-.58 1.55-1.04 2.91-1.02 1 0 1.57-.43 2.1-.86.5-.26 1.29-.42 1.03-.96-.48-.36-1.14-.35-1.86-.43 3.53.09 6.59-1.01 10.04-1.13.3.11.32.44.55.73.32.31.77.47 1.39.46 1.41-.49 2.89-.8 4.57-.63.99-.33 1.97-.68 2.45-1.33.2-.27.41-.54.25-.82 1.16-.13 2.09-.44 2.73-1.14.83-.92 1.56-.94 2.88-.18.84.49 2.06.41 3 .75.77.4 1.59.41 2.51.18 1.38-.35 2.9-.4 4.32-.67 1.12-.21 2.04.08 2.97.38.27 0 .51-.07.72-.16 1.46-.46 2.65-1.01 3.67-1.86 1.05-.89 3.06-.97 4.92-.75 1.21.13 2.47.07 3.66.28.45.08.86.02 1.23-.15.38-.41 1.07-.46 1.69-.37.99.15 1.85 0 2.71-.22 2.9.23 5.8.14 8.7.13 2.01 0 4.04.25 6.08.17.74.15 1.53.15 2.29.28.96.17 1.74.07 2.11-.49.55.28 1.24.19 1.89-.04.6-.21 1.39-.25 1.79-.65.15-.4-.43-.38-.8-.49 0-.71.89-.81 1.75-.74.69.06 1.28-.06 1.92-.12.12-.05.17-.11.15-.19.21-.12.26.11.44.08.97.33 1.93-.06 2.89 0 .52-.19 1.04-.12 1.56 0 1.06-.26 1.93.67 3.02.16.39-.26-.04-.61.31-.87.43-.21.85-.17 1.36-.07 2.6.54 5.22.37 7.85.08.72-.08 1.56-.27 2.22.16 1.53.52 3.07-.04 4.6 0 .42 0 .83-.06 1.25-.09 1.76-.11 2.76.26 2.46 1.55 1.09-.5.99-1.58 2.68-1.49.19.47-.69.81-.19 1.31.51-.46 2.07-.2 1.84-1.28.77.5 1.42.97 2.22.29.27-.23.48-.52 1.12-.42.79.12.09.59.53.81 1.07-.33 2.07-.53 3.18.05.57.3 1.57.27 1.97-.14.91-.91 2.47-1.11 3.94-1.4 2.04-.4 3.82-1.26 6.14-1.22.61.01 1.36-.15 1.62.23.27.41-.65.41-1 .62-.32.19-.92.24-.89.67 1.64.04 2.5-1.04 4.09-.99.8.23 1.53.36 2.36-.04.55-.27 1.39-.2 2.04-.39.64-.01 1.25.05 1.83.21.68.26 1.42.04 2.12.06.63.02 1.22-.03 1.54.37 1.22.17 1.91-.3 2.11-.85.19-.52.55-.42 1.11-.36.66.07 1.28.21 1.9.35.85.2 1.63.21 2.38-.15.93-.44 1.97-.38 2.82 0 .85.38 1.65.37 2.54.17.49-.06 1.02.09 1.49-.1.48-.65 1.22-1.12 2.31-1.45.76-.23 1.39-.57 1.81-1.02.54.52 1.25.98 1.54 1.59.38.19.79.25 1.24.09v-.21c.61-.31 1.22-.08 1.83 0l.73.21c.4-.35.72-.74 1.58-.8.81-.06 1.16.64 2.59.82 1 .13.92.97 2.06.84-.05-.7-.04-1.2 1.48-.53.53.23 1.52.99 2.41-.12.1.74.46 1.22 1.67.7.58-.25 1.19-.17 1.73-.03 1.21.31 2.44.32 3.71.21 1.41.12 2.99-.09 3.93.87.26.26.77-.07.98-.27.49-.46 1.14-.74 2.05-.81.52-.27 1.05-.02 1.57 0 2.06.06 4.21.55 5.98-.54.12-.08.53-.09.69-.03 1.94.71 3.9.89 6.01.23.46-.14 1.02-.16 1.39.24.55.58 1.91.54 2.37.34 1.36-.6 2.93-.38 4.34-.65.23.22.5.4 1.02.33.26-.03.73-.18.75.05.15 1.51 2.25.86 3.52 1.13.44.09 1.36-.17.75.54-.24.28.09.95 1.29.75v-.21c.55-.18 1.11-.58 1.74-.14.85.6 1.87.62 2.95.37 1.31-.31 2.73-.22 4.07-.39.02.07.03.15.05.22.54.55 1.34.62 2.28.42.12-.04.21-.08.29-.13.03.27 0 .52-.15.8-.41.8.18 1.13 1.6.95.54-.07 1.02-.21 1.47-.41 1.42-.6 2.84-.61 4.43-.16 1.35.39 2.83.75 4.22.04.37.51 1.13.74 2.01.8 2.37.15 4.51.7 6.68 1.21 1.97.6 3.99-.01 5.98.06.71.02 1.42-.08 2.08.15 1.04.11 1.88.49 2.81.74 2.5.68 5.14.24 7.69.42 1.24.08 2.51-.08 3.79-.03 1.47.06 2.9-.22 3.69-1.09.5-1.18 2.38-.78 3.28-.67 1.88.23 3.26.1 4.58-.7.49-.3 1.22-.47 1.75-.76 1.01-.56 1.58-.29 1.98.35.26.23.62.38 1.02.51 1.53.06 2.86.8 4.51.45.67-.14 1.5-.17 1.44-.73.75.3 1.67.21 2.5.31.42.05.93-.02 1.24.14 1.11.57 2.26.63 3.52.2.45-.15.81.05 1.21.11.45.06.87.03 1.27-.12.91-.46 1.77-.97 3.11-.93 1.09-.38 1.85.16 2.74.35 1.08.07 1.72.54 2.41.95.42.25.77.53 1.46.49.35-.06.6-.19.78-.38.52-.92 2.35-.56 3.23-1.13.85-.79 2.46-.74 3.66-.9 2.61-.34 5.33-.64 8.03-.07.6.13 1.32-.16 1.92.13 1.6.48 3.33.58 5.08.61 2.09.41 4.18.44 6.39.45 1.99 0 3.77-.56 5.44-.46 2.13.13 4.41-.16 6.47.43.32.09.72.01 1.09 0 1.14-.25 2.16-.64 3.11-1.08.31-.18.57-.42 1.09-.39.31 0 .6.02.9.07 2.12 0 4.24 0 6.33-.16.14-.03.29-.07.43.02.15.14.33.25.59.32.42.09.81-.03 1.21-.06.16-.03.3-.08.44-.14.12-.06.23-.13.31-.21.2-.19.48-.33.88-.37 1.78.31 3.54.13 5.03-.4 1.42-.51 2.89-.81 4.49-.97.39-.24.43-.46.27-.65 1.31.48 2.83.24 4.14.02 2.03-.34 3.91-.41 5.75.18.96.31 2.15.18 2.99.63 1.96.01 3.9-.1 5.83-.25.47-.05.88-.24 1.38-.22.16-.01.32-.04.46-.08.42-.19.9-.17 1.39-.17 1.33-.18 2.76-.04 3.99-.49 1.32-.1 2.59-.04 3.92.1 1.31.14 2.75.05 3.48-.84-.44-.46-.39-.81.49-1.1.28-.09.59-.2.82-.34.03 0 .06.01.08.02 2.14.47 4.02.09 5.83-.59 1.16-.44 2.42-.79 3.15-1.53a.79.79 0 0 1 .74-.24c1.02.26 2.11.3 3.18.41.48.05.37.42.56.63 1.14.89 2.69.95 4.37.75 1.87-.78 3.84-.95 6.15-.68 1.91.23 4.02-.22 5.9.23 1.46.35 3.07-.07 4.42.46 2.04.09 3.99-.37 6.03-.3 1.06-.28 2.03-.38 2.95.23.49.32 1.36.43 2.06.28 1.5-.32 2.97-.21 4.48-.08 1.77.15 3.35-.23 4.89-.71 1.04-.32 2.05-.61 3.23-.11.78.33 1.5.04 2.11-.26.35.03.33.2.39.32.18.34.23.76.95.84.78.09 1-.33 1.28-.63.24-.26.48-.59 1.05-.46 1.89.42 3.42-.28 5.1-.51 1.69-.23 3.31-.7 4.96.21.78.43 2.15.23 2.95 0 1.07-.32 1.95-.25 2.94-.09 1.16.03 2.02-.25 2.66-.78.14.13.35.22.78.14v.32c.24.12.48.12.71 0 .38-.59 1.09-.65 2.06-.54.6.07 1.26-.05 1.89-.09v.02c1.58.66 3.6.67 5.28 1.2.47.15 1.03-.02 1.35-.32-.01.02-.03.04-.04.06.07.45.62.63 1.25.63 1.42.01 2.74.22 4.1.44 1.04.18 2.23.29 3.25-.27.6-.33 1.49-.18 2.29-.13 1.07.06 2.21.17 2.94-.49.02-.06.02-.12 0-.16.08.03.16.07.26.12 1.24.34 2.28.08 3.27-.35.11-.1.24-.19.34-.29 2 .16 4.01.13 6.04.42 1.13.16 2.58.26 3.96.22.02.04.05.07.07.11 1.1 1.27 3.63 1.85 5.89 1.39 1.85-.37 3.76-.09 5.51.16 1.7.25 3.27.02 4.9.04 2.18-.2 4.42.26 6.57-.24 1.46-.2 2.95-.19 4.43-.16.32 0 .61 0 .83-.09.3.12.62.19.99.16.65-.23 1.37-.38 1.92-.7.15.08.34.12.56.12.49-.04.88-.27 1.4-.27.17-.01.34-.03.5-.06.81-.16 1.64-.18 2.48-.18.62 0 1.18-.05 1.46-.39.75.51 1.63 0 2.45.02 1.36-.61 2.91-.57 4.49-.44.72.06 1.41.25 2.16.19.73-.06 1.31-.25 1.35-.72.01-.14 0-.27-.05-.38.09.19.12.42.14.64.09 1.02.61 1.23 2.31 1.37 2.16.18 4.23.06 6.25-.34.92-.18 1.66-.08 2.39.22 1.56.24 3.26.08 4.73.58.89.2 1.74.09 2.32-.31.8-.56 1.63-.46 2.62-.25 1.43.31 2.98.3 4.44.55.78.13 1.54-.05 2.25-.3 1.37-.48 2.89-.77 4.44-.92 1.37-.13 2.77-.11 4.04.39.54.21 1.33.35 1.79-.04l.01.01c.24.26.78.43 1.23.24 1.91-.79 3.67.08 5.5.12.11 0 .22-.03.32-.06.78.51 1.79.28 2.72.19 1.23-.12 2.43-.43 3.72-.23.17 0 .35 0 .52-.02.23-.04.49-.08.62-.19.95-.87 2.19-.74 3.5-.35 1.18.02 2.18-.13 2.62-.81.16.02.31.03.48.03 1.13-.01 1.8-.69 2.93-.71.57.02 1.13.02 1.54-.26.17-.14.21-.3.14-.47-.02-.02-.04-.03-.06-.04 1.01.1 2.02.2 3-.1.01-.01.02-.03.04-.04 1.2.47 2.65.19 3.92.44.68.05 1.29-.05 1.88-.21-.09.1-.14.2-.03.32.11.14.3.22.56.25h.29c1.33.29 2.17-.17 2.98-.68.58-.88 2.22-.03 2.97-.63h1.08c1.1-.07 2.19-.13 3.29-.2.13-.71.7-1.08 1.95-.81.72.16 1.02-.07 1.32-.31l.61.03c1.57-.11 3.13-.26 4.6-.59h1.02v-.25l-.01-.04Z"/></svg>