<?xml version="1.0" encoding="UTF-8"?><svg id="b" xmlns="http://www.w3.org/2000/svg" viewBox="0 0 799.999756 85.799489"><defs><style>.d{fill:#fff;stroke-width:0px;}</style></defs><g id="c"><path class="d" d="m799.72876,69.999936c-.588867,1.2041-1.230956,2.40283-1.415038,3.660153-.029785.111328-.101562.210937-.21875.301269-1.359374.878905-1.780272,1.931639-1.771971,3.065915-.224121.83203-.827148,1.601561-1.214843,2.406248-.675292.376953-.809081.851073-.762695,1.358397-.04541.099609-.112305.193359-.214844.279297-.506347.731933-1.562987.926757-2.786619.859862-.860351-.046875-1.679686.030273-2.511716.090332-.673339-.040527-1.029296-.351562-1.515624-.557128-1.689452-.714843-3.44238-1.433104-5.69726-.957519-1.229979.259765-2.038572.06543-2.985837-.378906-1.720213-.807128-3.707516-1.238768-5.972163-.835937-.929687.165039-1.682616.077148-2.35156-.308105-.589843-.579589-1.589354-.436035-2.49365-.460937-.370605-.020996-.644042-.149902-.920409-.274902-1.926268-.774902-3.96777-1.210936-6.327143-.682128-2.163084.213379-4.330562.219238-6.500482.039062-1.430663-.618163-3.208493-.137207-4.874507-.596679-1.676268-.462402-3.821774-.430664-5.398921-1.199218-.717284-.035156-1.374999.244629-2.154295.039062-1.859862-.490234-2.585447-.386718-4.119625.461914-.122558.072266-.263672.129883-.426757.169922-2.325193.203125-4.591793,1.367675-7.005853.133301-.077637-.039551-.241211-.042969-.359375-.035156-1.362303.092285-2.540037-.04248-3.402341-.740234-.365234-.295898-1.070312-.202148-1.483397-.07373-.937011.291504-1.819823.185547-2.645994-.038086-.891112-.240722-1.527831-.105469-2.143064.251465-.327148.163574-.598632.374511-1.078124.409179-1.772459-.060547-3.2832.430664-4.874996.74707-.174316-.01709-.335449-.051758-.484375-.10791-.61914-.23291-1.412108-.258301-1.991697-.526367-1.385253-.641113-2.869138-.667968-4.440426-.270019-.729492.24414-1.479979.207031-2.30615.163086-1.808104-.09668-3.663083-.519531-5.441401-.004883-1.046874.303222-1.693358.120605-2.620603-.219726-1.325194-.486328-2.903318-.782226-4.495601-.228515-.263672.041504-.530273.070312-.805663.035156-.796386-.23291-1.449706-.61621-2.359373-.730468-.640624-.377441-1.597655-.594238-2.029295-1.050292-.92578-.978515-2.382322-1.45996-4.192379-1.691405-1.013183.081055-2.009276.231445-3.038083.246582-.755859-.210937-1.405272-.521484-2.15576-.735351-1.076171-.49121-1.800291-1.222167-3.214353-1.484374-1.625487-.302246-3.362302-.324218-5.027339-.529296h-39.852014c-2.472166.343261-4.712398,1.078612-6.670404,2.299314-1.479979.922362-3.252927,1.760252-5.80517,1.268065-.561035-.108398-1.063964.039551-1.592284.157715-2.151853.481445-4.208004,1.077636-6.286615,1.64453-.992187-.107422-1.964842-.114258-2.872556.186523-1.934569.641113-4.24023.272949-6.23974.743652-.091309.021484-.229004-.038574-.335449-.076172-.588867-.189941-1.157226-.422851-1.867186-.421386-1.527342.003418-2.625974-.530761-3.721676-1.0083-1.328124-.578613-2.948728-.842773-4.375973-.676757-2.061522.239746-3.760739-.125488-5.538081-.49707-.512207-.106933-1.004882-.40332-1.538085-.26123-1.284179.341797-2.516599.202637-3.788571.020996-.690429-.098633-1.307128.03418-1.916502.256347-1.258788.458496-2.55322.878417-3.994137.163086-.333984-.165527-.822753-.111816-1.246093-.151855-1.900389-.178711-3.414548.401855-5.02148.80371-.164062.036621-.333496.058105-.512695.054687-1.624999-.165527-.707031.695312-1.228026.977538-.205566.258789-.605956.381836-1.035644.485351-1.608397.333984-3.34277.256836-4.978511.495605-1.143554.209961-1.959959-.165527-2.793454-.512207-.93164-.365234-1.624022.416015-2.590818.148926-2.529783-.69873-4.167477.424316-6.067866,1.011718-.189941.109863-.404785.200683-.654785.263183-.977538.254883-2.316892-.130859-3.059079.552734-.664062.941405-2.322263,1.329589-3.669919,1.371092-2.017576.0625-3.242673.69873-4.61523,1.304198-1.081054.476562-2.168943.547363-3.569333.496093-2.619627-.096191-4.585445-.848144-6.606439-1.622557-1.399413-.384765-3.037595-.531738-4.011715-1.339354-.206543-.171387-.510742-.415527-.823241-.398437-2.275389.124512-2.700193-.987792-3.26904-1.757811-.67041-.907714-1.312499-.903319-2.600095-.491699-1.064452.340332-2.374998.688964-3.503415.314453-1.705565-.566406-3.155759-.427246-4.630855.160644-.596679.237793-1.159179.224609-1.696288-.011719-1.186034-.522949-2.230467-.239258-2.83447.331054-1.007323.951659-2.193357,1.043456-3.879879.668945-1.147948-.254394-2.053221-.558105-2.613279-1.20996-.552734-.643066-1.289061-1.003905-2.608884-.436035-.666992.286621-1.575682.390136-2.455076.183105-1.456053-.843261-2.731443-1.795409-4.953609-2.083494-1.155272-.149902-1.510253-.873046-2.230467-1.337401-.912109-.588378-.255859-1.122069.087402-1.683592-.549316.805663-1.510741,1.512206-1.213378,2.467771.200195.643554-.612304.905273-1.632811.770507-1.207518-.15918-2.203611-.415527-2.660642-1.249511-.67871-1.23828-1.219237-1.310546-3.488766-1.365233-1.647459-.040039-2.80322.447265-3.970699.964355-1.048339.464355-2.271482.52832-2.921384-.088867-1.012694-.96289-1.937987-.909667-3.196286-.252441-.404785.211426-.902831.228027-1.365721.051758-.508789-.193847-.686035-.487304-.629394-.826171.050293-.298828.387207-.555175.420898-.858398h-5.445308c.206543.646484-.29834,1.109862-1.136229,1.50244-.911132.14209-1.798338.786132-2.714841.365722-1.687987-.773925-3.531247-.60498-5.414058-.566406-.85205.017578-1.749022.003906-2.559568-.123047-2.224119-.347656-4.347652-.154297-6.468744.22998-1.301757-.268066-2.302732.434082-3.500485.367675-1.459471-.080566-2.469724.273926-3.332516.870116-.447265.11084-.916015.097168-1.386717.079101-1.589354-.407714-3.215329-.572753-4.917476-.253906-1.46826-.276855-2.5874-1.109862-4.508297-.644531-2.117674.512695-4.247066.169433-6.245111-.401367-1.847655-.739257-3.972164-.736816-6.093744-.745605-.343261-.015625-.68164.012207-1.020507.036621-3.484372-.18164-6.950189-.604492-10.473135-.26416-1.068847-.009766-2.0166-.205566-2.930661-.452636h-90.806069c-.265136.097656-.57666.162598-.918944.191894-2.349119.20166-4.695308.45166-7.080072.394043-1.590331-.038086-2.739255.304199-3.552731,1.062011-.499511.464843-1.100585.846191-2.145506.891112-1.807616.078125-3.687008.41455-5.121089-.605956-.300293-.213379-.886718-.224121-1.387694-.237793-1.015624-.027832-1.91699-.241699-2.756345-.55664-.535644-.153808-1.067382-.338867-1.668944-.096191-.249023.054199-.507324.074707-.77539.054687-.700683-.14209-1.328612-.336425-1.91699-.608886-.554687-.256347-1.205077-.476074-2.006834-.390625-.804198.085449-1.500975.047852-2.054197-.097656h-3.854489c-.288574.046875-.651367.065918-1.103515.058105-.3125-.005371-.601562-.023437-.88623-.058105h-4.788082c-.131348.041992-.262207.083496-.394531.131348-2.289549.830077-5.097652.822265-7.613763,1.310057-.282715.054687-.617187-.005859-.893066-.09082-.879882-.270508-1.631834-.185547-2.333982.216308-.303711.173828-.787597.193359-1.159179.301758-1.570799.459472-3.432614.321777-4.948726.736816-1.177733.322265-2.282713.399902-3.51904.4375-1.245604.038086-2.683591-.116699-3.70361.242676-1.689452.595214-3.489255,1.209472-4.326168,2.349607-.602539.306152-1.345214.296386-2.079588.292968-.879882-.004883-1.736815.078125-2.409666.409179-2.693357,1.325682-5.956049,1.677245-9.349601,1.821776-1.168456.135254-1.827147-.792968-3.079099-.47998-.157715.032715-.314941.067383-.472168.102051-1.394042.37207-2.83447.764648-4.376461.720214-2.189939-.062988-3.301267.541015-3.847164,1.647459-.334961.298828-.702636.613769-1.3916.608886-2.561521-.01709-4.715816.899413-7.229974.998046-.84082.033203-1.723143.016602-2.508298.261719-2.17285.724609-4.904781.570312-6.987298,1.460936-.464355.19873-1.136718.234375-1.778319.224121-1.559569-.024902-2.873533.350586-3.991207.933105-.548828.286133-1.104003.55957-1.727049.787109-1.319823.481933-2.655271.538574-3.911129-.047852-.507324-.236816-1.048827-.333496-1.664061-.40332-3.041989-.344726-6.080561.085937-9.119132-.007812-2.922361-.591796-6.482416.182617-8.960929-1.370604-.034668-.021484-.046875-.032227-.051758-.038086.003906.009277-.004883.025879-.120117.022461-1.118651-.036621-1.383788-.41455-1.42285-.98828-.074707-1.083007-.417968-1.187499-2.19824-.671386-1.026855.297363-1.945799.427246-2.789548-.150879-.60791-.606933-.824706-1.391112-2.503416-1.446288-2.012693-.065918-3.972653-.653808-6.048823-.095703-.648437.173828-1.449217.090332-2.157713-.046387-1.623534-.313965-2.869138-.035644-3.796383.764648-.155273.047363-.320312.077148-.495117.089844-.645019.010742-1.275878-.070801-1.646971-.374023-1.134276-.926269-2.223142-.596679-3.338864-.006348-.89453.473632-1.836424.545898-3.042478.32666-1.189452-.216797-2.519529-.4458-3.739743-.014648-1.138183.402343-2.120604.355957-3.227536-.075684-1.244139-.484375-2.109861-.343261-2.876462.395019-.482421.464355-1.058105.95996-1.885252,1.101073-1.393553.238281-1.854002.790527-2.189451,1.469237-1.214843.540039-2.614744.625488-4.106442.642089-1.093261.012207-2.328611-.033203-3.251462.330078-2.120115.835448-4.232906.746581-6.303705.069824-1.04248-.34082-1.884764-.361816-2.812497.026367-.162109.033691-.324707.066406-.488769.09668-2.458982.256347-4.970699-.09668-7.36181.067383-2.467283.168945-3.782223-.585937-5.355952-1.286132-1.592284-.711913-3.29736-.535156-4.890132-.082519-1.926268.547363-2.322263.506347-3.881832-.308105-.955077-.498535-1.827635-1.190917-3.378903-1.148925-.885741.023926-1.676756-.118164-2.49072-.301269-1.071288-.240722-2.119627-.432129-3.245114.09082-.768554.356933-1.930662.333496-2.847165.187988-.915038-.145508-1.673338-.02832-2.487302.094238-.903319-.112305-1.631346-.339355-1.84033-.910644-.106933-.276855-.319336-.531738-.480468-.796386-.193359-.318359-.58496-.535644-1.096679-.3125-2.719236,1.187499-5.14648-.293945-7.73095-.241211-.805175-1.00244-2.545896-.642578-3.883297-.850585-2.485838-.38623-4.84521-.298828-6.833002.781249-1.609862.475097-3.362302.384765-5.086909.415039-.177246-.004883-.349121-.020996-.519042-.051269-1.315428-.539062-2.001463.215332-2.934079.458984-.156738.041504-.322265.066894-.495605.070312-.952636-.053223-1.887694-.17334-2.833005-.249023-1.417967-.150879-2.888669-.170898-4.213375-.552734-1.02539-.177246-2.028318-.101562-3.020505.087891-1.518065.418457-3.085935.355957-4.667964.158691-1.003905-.228027-2.007322-.456054-3.010739-.68457-1.697752.041016-3.14111-.298828-4.535152-.845702-1.213378-.476562-2.542478-1.197753-4.119625-.70996-1.58203.489257-2.375974.101562-3.19531-.543945l-.46875-1.923338c-.305664-.673339.104004-1.372557-.233887-2.044432-.014648-.077148-.028809-.154785-.043457-.231933.054199-1.121581-.055664-2.239744-.174805-3.356931h-.178711V0h799.999756v69.999936h-.270996Z"/></g></svg>