<?xml version="1.0" encoding="UTF-8"?><svg id="b" xmlns="http://www.w3.org/2000/svg" viewBox="0 0 799.999756 84.27028"><defs><style>.d{fill:#fff;stroke-width:0px;}</style></defs><g id="c"><path class="d" d="m799.370362,74.415947c-.204101-.088867-.644531.006836-.87207.133789-2.407713,1.344725-4.983394,1.666991-7.834954,1.060546-.725097-.154297-1.659178.027344-2.398924.255859-2.915525.903319-5.696772.592773-8.526848-.28125-.966308-.298828-2.111814-.231445-3.361813-.348632.223144.660156.35791,1.057616.517089,1.528319-.850585-.323242-1.583006-.672851-2.375486-.870116-.390625-.097656-1.206542-.015625-1.292479.15625-.64746,1.290038-1.442381.562499-2.324217.115234-.474121.419921-.927245.86914-1.444335,1.265624-.434082.332031-.906249.802734-1.42578.862304-1.847166.213867-3.719723.330078-5.586909.378906-1.092772.02832-2.214842-.276367-3.282224-.168945-.613769.061523-1.14453.64746-1.77783,1.038085-1.739745-.826171-3.588376-.017578-5.271968.68164-1.989744.826171-4.069332.728515-6.120112,1.027343-2.48242.361328-4.55273-.328125-6.805658-.427734-1.164061-.051758-2.371092.864257-3.602536,1.257811-.485839.155273-1.088378.083984-1.63867.106445-.299804.011719-.629394-.060547-.89746.014648-1.514647.426757-2.98779.960937-4.526851,1.316405-1.873533.43164-3.677731.639648-5.764643.236328-1.0083-.194336-2.694822-1.073241-4.092281.03125-.335937.264648-1.431639-.040039-2.165525-.141601-3.686032-.510742-7.656243.861327-11.149892-1.123046-.547363-.30957-1.52246-.199219-2.296873-.18457-1.206054.023437-2.410154.129883-3.614743.202148-.123535.007812-.285156-.018555-.362304.03418-2.148924,1.443358-4.358394.474609-6.575189.161133-.460449-.06543-1.117675.172851-1.49951.439453-1.256835.874999-2.386717,1.694334-4.096676.493164-.460937-.323242-1.429686-.410156-2.078611-.295898-1.43994.254883-2.63574.061523-3.857907-.580078-.485839-.253906-1.253417-.167969-1.668456-.49121-.924804-.421875-1.792967-.982421-2.785642-1.236327-1.997557-.512695-4.038082-1.043944-6.107416-1.219725-1.964842-.166992-4.075192-.609374-5.96728.417968-.228027.124023-.627929.193359-.875487.124023-3.094235-.865234-5.804194.336914-8.678703.880859-2.520017.476562-5.150874.428711-7.662102-.36914-2.452146-.777343-4.789058-1.811522-7.681145-1.148436-.852538.195312-2.016111-.593749-3.075681-.80957-.808105-.165039-1.73242-.3125-2.509763-.160156-1.955076.383789-3.684567.168945-5.370601-.687499-.311523-.158203-.8833.025391-1.334471.025391-1.644041-.00293-3.243649.500976-4.897456-.519531-.819335-.504882-2.511228-.355468-3.714352-.15039-1.09912.1875-1.714354-.094726-2.63574-.443359-1.508299-.573242-3.273435-.713867-4.929683-1.041015-.402832-.080078-.826171-.129883-1.197753-.265625-2.354002-.864257-4.616207-1.965819-7.073236-2.542966-1.408202-.332031-3.032224-.697265-4.762691-.117187-.846191.284179-2.231932-.40039-3.351071-.697265-2.126951-.566406-4.203121-1.502928-6.366205-1.645506-1.509276-.098633-3.159665.815429-4.685054,1.382811-.700195.259765-1.251952.774413-1.855467,1.164061-1.930662-1.066405-3.273435-.850585-3.662106.220703-2.746091-.039062-5.431636-.364257-7.981926-.032227-2.554685.332031-4.688472-.286133-6.869623-.953124-1.962401-.598632-3.801754-1.450194-5.726069-2.134764-2.485838-.884765-3.310544-.799804-5.410151.345703-2.032225-.690429-3.96484-1.395507-5.946284-1.999022-.970214-.294922-1.913572-.419921-2.984861.193359-.488281.279297-1.674315-.216797-2.54492-.357422-.54541-.088867-1.104979-.274414-1.637206-.234375-2.081053.154297-4.153317.381836-6.228998.579101-1.656737.157226-3.313474.310547-4.970699.461914-.241699.022461-.485351.026367-.235351.013672-.899902-.885741-1.500975-1.632811-2.292478-2.215818-.858398-.631835-1.70117-.691406-2.546384.245117-.924804,1.02539-4.011715.978515-5.633784.003906-.813476.719726-1.548827,1.149413-2.875974.300781-.597656-.380859-2.225584-.125976-3.117673.24707-2.588865,1.08203-5.125484,1.24121-8.055168,1.000976-2.331541-.19043-4.769039-.89746-7.315911-.029297-1.122069.381836-2.807126-.361328-4.250484-.467773-.735839-.053711-1.50244.243164-2.256834.25-1.240233.010742-2.481931-.077148-3.721188-.141601-.456054-.023437-.940917-.208984-1.356444-.130859-2.436033.456054-4.634273-.627929-6.896478-.672851-2.693845-.053711-4.36523-1.521483-6.60351-2.106443-.953124-.25-1.997557-.27539-3.264645-.4375-.571777.652343-1.163573,1.880858-3.055173,1.434569-.052246-.012695-.136719-.000977-.177734.026367-2.641599,1.764647-5.471675.601562-8.252922.367187-.585449-.048828-1.288573.02832-1.791014.253906-2.151853.966796-4.076168.307617-6.091303-.320312-.858398-.267578-1.970701-.439453-2.809568-.237304-1.633299.393554-3.063474.012695-4.573726-.270508-1.778319-.333008-3.571774-.800781-5.368159-.831054-1.582518-.026367-3.168942.624023-4.77148.688476-1.266112.051758-2.654783-.163086-3.815426-.571289-1.148436-.405273-2.046385-.842773-3.140622.017578-.287597.226562-.861816.268554-1.31494.303711-.891601.069336-1.797362.140625-2.685544.088867-1.225097-.072266-2.449217-.413086-3.655758-.363281-2.546384.106445-3.900387-1.289061-5.661616-2.342771-.999511-.597656-2.711423-.416015-4.087399-.642578-1.243163-.205078-2.465818-.489257-3.697262-.739257-.230469-.046875-.618163-.189453-.665527-.135742-1.444823,1.623045-3.583005.001953-5.416499.550781.322265-.097656.644531-.195312.856445-.259765-1.713866-.873046-3.352536-1.584959-4.812496-2.481443-1.793944-1.100585-3.602536-1.658202-5.792475-.856445-.558105.204101-1.187011.314453-1.68994.579101-2.203611,1.161132-3.897457-.313476-5.799311-.674804-1.770506-.336914-3.519528-.745117-5.291011-1.076171-.328125-.061523-.848144-.008789-1.061522.163086-2.046385,1.649413-4.221188.355468-6.366693.164062.294433-.066406.588378-.133789.943847-.214844-.074707-.178711-.118652-.409179-.178711-.412109-1.017089-.044922-2.170408.172851-3.024411-.137695-1.395995-.507812-1.895018-.016602-2.431638.816406-.152832.237304-.574707.589843-.771484.551757-2.560056-.493164-5.361811-.248047-7.610833-1.718748-1.587889-1.037108-3.258786-2.237303-5.504878-.880859-2.385252-.950194-5.227534.555664-7.566888-.933593-.675292-.429687-1.77783-.791015-2.574705-.679687-3.382809.470703-5.969721-1.004882-8.76464-2.008787-.318359-.114258-.788573-.30957-.997558-.209961-1.190429.561523-1.460448-.254883-2.175779-.683593-1.284179-.770507-2.850583-1.24121-4.308102-1.841795-1.518553,1.041015-3.803707,1.080077-5.479975.09668-.236328-.137695-.548339-.302734-.811034-.287109-3.571286.200195-7.143548.401367-10.706533.679687-.621093.048828-1.177245.500976-1.799315.691406-1.659178.508789-3.305661.388672-5.007808.010742-3.205075-.711913-6.423334-1.412108-9.71044-.091797-.571289.229492-1.451659.017578-2.178221-.056641-1.003905-.101562-2.143064-.845702-2.784665.470703-.04541.09375-.437988.09375-.671874.112305-1.715819.134766-3.433591.250976-5.147456.397461-1.78369.152344-3.614743.195312-5.01855,1.308593-.117187.092773-.504394.064453-.700195-.013672-3.065915-1.21289-6.270014-.464843-9.390128-.321289-1.501952.069336-2.947751.793945-4.441402,1.162108-.468261.116211-1.028808.112305-1.515624.035156-1.078612-.169922-2.124998-.481445-3.20654-.624999-2.200682-.291992-4.409176-.614257-6.629388-.720702-1.279296-.060547-2.589353.271484-3.883786.435546-1.030761.129883-2.053709.30664-3.090329.396484-.663085.056641-1.356932.056641-2.014647-.02832-2.893064-.37207-5.711421-1.159179-8.741203-.625976-.89453.158203-1.932127-.294922-2.89404-.262695-1.469725.048828-2.930173.393554-4.395992.399414-2.435056.009766-4.982906,1.870115-7.3247-.238281-.205566-.185547-.668945-.28125-1.004394-.268554-3.272946.12207-5.400386-1.436522-7.553216-3.083982-.550292-.421875-1.617186-.448242-2.465818-.576171-.442382-.067383-1.11914.211914-1.359862.040039-1.510741-1.074218-2.907224-.65039-4.489742-.083984-1.96533.703124-3.730465-.201172-5.565913-.688476-1.517577-.40332-3.164548-.49121-4.749019-.739257-1.052245-.165039-2.095701-.366211-3.142087-.554687-2.305174-.412109-4.593258-.904296-6.918451-1.220702-2.79199-.378906-5.608882-.65332-8.427238-.883788-1.539061-.125-3.128415.067383-4.648433-.120117-2.083982-.257812-4.120113-.756835-6.185541-1.123046-2.152342-.381836-4.343746-1.091796-6.466791-.98828-2.132322.104492-3.850582-.876952-5.893549-.771484-2.054197.105469-4.130856.110351-6.182612-.005859-.790038-.043945-1.506835-.655273-2.316404-.804687-.865234-.160156-2.176756-.390625-2.628904-.041992-1.083983.833984-1.785643.629882-2.99365.200195-3.765622-1.339843-7.744134-1.674803-11.850575-1.191405-1.495604.175781-3.044919.178711-4.559078.112305-2.400877-.105469-4.064938.95996-5.2998,1.778319-1.713377-.460937-3.149411-.831054-4.571773-1.232421-1.606444-.453125-3.215329-.906249-4.796382-1.412108-1.003905-.321289-1.747069-.440429-2.845212.139648-.842773.444336-2.55322.512695-3.4082.112305-1.182128-.55371-2.144529-.470703-3.360837-.467773-1.307128.003906-2.612302-.574218-3.928707-.86914-.631835-.142578-1.28369-.233398-1.933104-.321289-1.149901-.155273-2.61572.008789-3.387692-.500976-1.3833-.912109-2.812497-.921874-4.323727-.798827-1.467284.119141-3.038083-.196289-4.291988.971679-.479003.445312-1.944334.546874-2.787107.344726-1.48828-.355468-2.252928.074219-2.78906,1.081054-1.091796-.70996-2.077635-1.350585-3.128903-2.034178-.083984.597656-.156738,1.107421-.173828,1.229491-1.592284.323242-2.889646.717773-4.219723.805663-.7583.050781-2.020018-.220703-2.281248-.64746-1.362792-2.23242-3.492673-2.825193-6.46142-2.701169-2.048826.085937-4.131832-.557617-6.206537-.58789-1.262694-.018555-2.669431.332031-3.767575.846679-1.000976.469726-1.739256.65039-2.606931.039062-2.028318-1.42871-4.623531-1.657225-7.093744-2.145506-.237304-.046875-.534179.137695-.811523.170898-.691894.083008-1.400389.097656-2.078611.221679-.709472.128906-1.569823.207031-2.046385.572265-.836913.640624-1.386229,1.51367-2.1416,2.23242-.786132.748046-1.629881.787109-2.634275.106445-2.021483-1.368163-4.535152-1.882811-7.021478-2.465818-.728027-.170898-1.283202-.807616-2.006346-1.289061-.865234.334961-1.827147.707031-2.788572,1.080077-1.76953.49121-3.223142-.107422-4.550777-1.176757-.895995-.722656-1.758299-.271484-2.195799.5-.684081,1.20703-1.534667,1.218749-2.557127.665038V0h799.999756v74.625908c-.207519-.05957-.415039-.117187-.629394-.209961Z"/></g></svg>