<?xml version="1.0" encoding="UTF-8"?><svg id="b" xmlns="http://www.w3.org/2000/svg" viewBox="0 0 800 84.209884"><defs><style>.d{fill:#fff;stroke-width:0px;}</style></defs><g id="c"><path class="d" d="m799.999268,39.745569h.000488-.000488l.000732-39.745569H.000244l-.000244,39.999963h.000488l-.000244,44.20992c.756347-.042969,1.480223-.151367,2.133055-.401367.025879-.015137.046875-.02832.072266-.042969.636718.168457,1.425292.054687,2.067869.21582.642578.012207,1.208007-.171875,1.818358-.245117.485839-.142578.937499-.307617,1.17285-.614257.603027-.978515,1.83203-.592285,2.941404-.463867,1.020019-.084961,1.973631-.313965,2.872068-.579589.766113-.226074,1.514647-.520019,1.484374-1.065429.841796.384765,1.742674.428222,2.846677.274414,2.223631-.310058,4.513668-.407226,6.762689-.705077,3.76318-.497558,7.26806-1.277343,10.483877-2.522947.439453-.169922.808593-.35791.936523-.661132.593749.311523,1.294432.24707,2.027342.07373.828124-.472168,1.835936-.64746,2.971677-.602539.269531-.014648.526367-.058105.773437-.120117,1.220214-.227539,2.497556-.251465,3.740231-.375488,2.813962-.28125,5.857417-.234863,8.132805-1.534178.185058-.140625.369629-.328125.316406-.473632-.238281-.652343.467773-.77832,1.285643-.865234.037109-.034668.077637-.06543.116699-.098633.509765.106445,1.09912.102539,1.492674.371582.984862.049316,1.990721.124023,2.353513-.630859.492675-.760253,1.987303-.636718,2.889646-1.035155.049805.013184.100098.023437.15039.039551.18164.827636.823241,1.183593,2.333494.930175.856445-.143555,1.805662-.091309,2.641599-.33789.475586-.140137.940429-.087891,1.396483.043945,1.929197.55664,3.81152.067871,4.240719-1.205077.181152-.537109.58789-.598144,1.333983-.767089,2.979001-.675781,6.035639-1.218749,9.019523-1.883787.851073-.075684,1.285643-.496582,1.887694-.778808.097168.04541.210449.079101.33789.103027.944823.146484,1.706053-.018555,2.530271-.339843,1.889158-.736327,3.854-1.436522,6.304193-1.032226.649902.106445,1.242186.034668,1.629393-.282226.675781-.553222,1.166503-.32373,1.645018.089844.682128.59082,1.607909.838378,2.811521.711913.422851-.078613.818359-.189453,1.182616-.336425,1.138671-1.1333,1.03369-1.391112-.773925-1.65869,1.06787-.030273,2.293943.272461,2.676267-.570312.260254.075684.545898.104004.744628.018555,1.7041-.732421,3.968746-.593261,5.682612-1.291991.298828-.115723.604003-.225586.913573-.330566.728515-.577636,1.547362-1.035644,2.910642-1.024413.998046.007812,1.568846-.429687,2.096678-.863769.502441-.260742,1.288573-.416992,1.034179-.959472-.475586-.35791-1.143554-.352539-1.858885-.43457,3.530758.086914,6.588861-1.013183,10.04296-1.126952.297851.105469.321289.439941.551269.725097.317871.306152.768066.474609,1.3916.459472,1.408202-.493164,2.89404-.797851,4.56982-.627441.987792-.333984,1.970213-.675292,2.446775-1.328124.195801-.268554.405761-.544921.251465-.81787,1.163573-.125488,2.09326-.444824,2.725095-1.141601.833007-.91748,1.562987-.936523,2.875486-.178222.84082.485351,2.06201.410156,2.998044.745117.768066.399414,1.593749.410156,2.511716.176758,1.379882-.351074,2.904294-.401855,4.324215-.672363,1.123534-.213867,2.043455.082031,2.971677.379882.270508-.009766.509765-.066406.724609-.161621,1.45703-.459961,2.652341-1.010253,3.667477-1.861815,1.054687-.885253,3.061521-.97412,4.921382-.750976,1.213378.129394,2.467283.066894,3.663083.281738.454101.075195.864257.020996,1.234374-.146484.380859-.409668,1.069335-.464843,1.690916-.37207.992187.148926,1.847655.000488,2.713376-.223633,2.89697.23291,5.795893.141113,8.704582.12793,2.009276-.008789,4.040035.249511,6.083491.171875.742675.145996,1.532225.149414,2.286131.282715.96289.17041,1.744139.06543,2.108397-.486328.551269.275879,1.23535.189941,1.893065-.036621.60205-.207031,1.392577-.248535,1.791014-.649902.15332-.401367-.43164-.384277-.802245-.488769.009277-.711913.894042-.812011,1.747557-.741699.69287.057129,1.282714-.062988,1.916502-.121094.119141-.045898.166504-.110351.145019-.185547.214355-.118164.26123.111816.435546.075684.967284.330078,1.926756-.061035,2.886228-.001465.519042-.189941,1.038573-.121094,1.560545.00293,1.055663-.26123,1.927244.668945,3.017575.161621.38916-.255859-.040039-.611328.311523-.87207.433593-.208984.853515-.17334,1.359862-.068359,2.596189.540039,5.215327.371093,7.850579.080566.722656-.07959,1.560545-.268066,2.218748.158691,1.534178.519531,3.066403-.039551,4.600093-.007812.415039.008301.833984-.059082,1.251952-.085937,1.757811-.112305,2.759275.261719,2.457517,1.547362,1.085448-.501464.985351-1.575194,2.677244-1.489745.185058.467285-.690429.814452-.191406,1.306639.508789-.458984,2.07324-.203613,1.835448-1.281249.766113.496582,1.420409.965819,2.222166.286133.274414-.23291.48291-.520507,1.118163-.421386.794433.123047.087891.585937.533691.812988,1.066894-.333496,2.074705-.525878,3.176755.045898.568847.295898,1.569335.266601,1.972654-.137207.910644-.91162,2.471189-1.106933,3.936032-1.396483,2.043943-.403808,3.822262-1.256347,6.141596-1.218749.611328.010254,1.364257-.151855,1.618163.229004.274414.410644-.648925.413574-1.002929.621093-.3208.187988-.915038.237793-.892577.673339,1.644041.041504,2.497556-1.038573,4.088863-.99121.795898.230469,1.529784.359375,2.355955-.041016.547363-.265625,1.386229-.203613,2.042479-.387695.639648-.013184,1.251952.054687,1.833983.21289l-.001953.000488c.682128.263672,1.415038.041504,2.119627.059082.627441.016113,1.215331-.025879,1.543456.372558v-.000488c1.223143.166015,1.909666-.296386,2.10742-.84912.186035-.520507.546874-.417968,1.109862-.359375.662109.068359,1.284179.205078,1.898924.347656.854491.198242,1.631834.209961,2.380369-.146484.934569-.444824,1.967772-.376464,2.824704.004883.853027.379394,1.646971.365234,2.542966.172363.490234-.057617,1.021483.085937,1.48828-.095703.47705-.645019,1.216796-1.119628,2.311033-1.453612.75537-.230469,1.394042-.57373,1.811522-1.023925.541992.518554,1.252929.981444,1.540526,1.587889.377929.188965.785156.246582,1.235839.091797.000977-.071777.001465-.14209.00293-.213379.608886-.307617,1.218749-.083496,1.8291-.002441.243652.071289.487304.142578.730956.214355.399902-.35205.720702-.74121,1.578124-.799804.811523-.055176,1.155272.63916,2.593259.824218.995605.12793.923339.971191,2.05908.839355-.052246-.696288-.039062-1.201171,1.479979-.534667.534179.234375,1.520018.990233,2.406736-.123047.104004.741699.463867,1.217284,1.670409.700195.583984-.25,1.193358-.169922,1.728514-.03418,1.213378.307617,2.443357.317383,3.707516.206054,1.412596.116211,2.986814-.091309,3.932125.867187.256836.26123.773925-.070312.983398-.266113.487304-.456543,1.135741-.740234,2.045408-.813964.516601-.266601,1.052245-.023926,1.572264-.009277,2.057127.058594,4.212887.549804,5.980463-.540527.123535-.076172.525878-.09375.688476-.034668,1.937987.709472,3.899899.893066,6.005854.232422.457031-.143555,1.020507-.155762,1.39453.238281.554199.584472,1.912596.537597,2.372068.335937,1.357421-.597656,2.930661-.380859,4.337398-.654785.233887.222168.502441.395019,1.017577.32959.257812-.033203.72705-.176758.749023.04834.147949,1.514159,2.254392.860839,3.516598,1.12744.439941.093262,1.362303-.170898.751464.544433-.238281.27832.086914.951171,1.290526.749999.002441-.069336.005371-.139648.006348-.209961h0c.552246-.182617,1.113769-.582519,1.73828-.137695.845702.601074,1.867674.624023,2.946775.368652,1.31494-.312011,2.728025-.224609,4.072262-.392578.015137.07373.026855.147949.046387.222168.544433.550292,1.336913.624999,2.27783.415527.118652-.037109.214355-.080566.29248-.129394.032715.26709-.008301.523437-.150879.800292-.412109.80371.181152,1.129882,1.59912.947753.540527-.069824,1.021972-.214844,1.472655-.40625,1.416503-.602539,2.836911-.614746,4.427242-.155273,1.348143.388672,2.826658.749999,4.221188.042969.368164.512207,1.125487.739745,2.005858.795409,2.365232.15039,4.511226.696777,6.681635,1.210448,1.972166.599609,3.988278-.010254,5.98437.061523.706054.024902,1.416014-.077637,2.076658.145996,1.035644.112793,1.884764.489746,2.812986.742187,2.502439.679687,5.137691.244629,7.693841.415039,1.236327.082519,2.505369-.083008,3.792965-.027832,1.470702.062988,2.895017-.217773,3.689938-1.090331.496582-1.176757,2.378904-.781738,3.275876-.67041,1.881346.234375,3.261716.097656,4.579586-.702636.49121-.29834,1.217284-.46582,1.74951-.759277,1.007812-.555664,1.581542-.291015,1.975096.346191.259277.226074.624999.376953,1.020019.507812,1.525878.063965,2.860837.796386,4.511715.446777.665038-.141113,1.500487-.171387,1.439452-.728515.754882.298828,1.665038.21289,2.500486.311035.415527.048828.927245-.016113,1.240233.143555,1.112304.569824,2.262205.630371,3.521481.203613.446289-.151367.813476.053223,1.213378.112793.447753.057617.873046.02832,1.265624-.115723.907226-.458007,1.772948-.965331,3.108884-.934569,1.090819-.376953,1.852537.160156,2.739255.345703,1.081054.071289,1.720702.537597,2.408201.949706.415527.249511.766601.534667,1.458983.486816.354492-.059082.602539-.194336.779784-.378906.520019-.924804,2.353025-.561035,3.229978-1.134765.848632-.794921,2.461912-.740234,3.6582-.895507,2.606931-.338379,5.333979-.63623,8.028313-.072754.603027.125976,1.323729-.159668,1.920897.132324,1.597655.482421,3.326169.582031,5.07812.610351,2.085447.405761,4.176266.442382,6.394037.449218,1.986815.006348,3.772457-.560546,5.440913-.459961,2.132811.128418,4.409664-.155273,6.469721.427734.317871.090332.72412.011719,1.089843-.004883,1.144042-.252929,2.156248-.638183,3.106442-1.082519.311523-.180176.569335-.415039,1.094237-.394043.305176-.00293.603515.017578.897948.066894,2.118162-.004395,4.236324.007812,6.333002-.163086.144043-.029785.293457-.071289.43457.021484.15332.137695.332519.251953.586914.3208.421875.090332.812011-.025391,1.214354-.056641.15918-.03125.304687-.078613.438964-.135742.12207-.05957.225097-.130859.310058-.209472.203613-.193847.483398-.328613.878417-.36914,1.781737.3125,3.53613.128906,5.025386-.404785,1.424315-.509765,2.893552-.806152,4.49023-.971191.388672-.24414.431152-.457031.269531-.650878,1.312499.481445,2.828611.240234,4.143063.022949,2.029783-.335937,3.907711-.414062,5.7456.183105.956054.311035,2.145994.178222,2.99072.631835,1.955076.010254,3.896969-.104004,5.833979-.247558.46875-.053711.875487-.238281,1.378417-.224121.161621-.011719.315918-.038086.464843-.07666.415039-.187988.904296-.168457,1.389159-.16748,1.325194-.175781,2.760251-.040527,3.987301-.488769,1.317382-.102539,2.592771-.037109,3.9165.100098,1.309081.136719,2.748044.053711,3.479001-.836913-.436523-.456543-.38623-.810058.485351-1.101073.283691-.094726.590331-.198242.824706-.343261.027832.005371.055176.010254.082519.015625,2.138182.472656,4.021969.094726,5.832026-.588867,1.156737-.437011,2.418943-.78955,3.145505-1.53369.151367-.155273.423828-.314941.743163-.235351,1.021483.255371,2.10742.300781,3.177731.412109.483886.050293.36914.418457.559082.633788,1.144042.885741,2.694333.9458,4.372555.749511,1.873533-.77832,3.840817-.950194,6.147944-.676269,1.907713.226562,4.021969-.219726,5.897456.230469,1.45996.350586,3.069821-.066894,4.421383.46289,2.038572.09375,3.993649-.373047,6.027338-.302734,1.061034-.276367,2.025389-.377929,2.951169.233398.490722.32373,1.359374.425781,2.057615.27832,1.501463-.318359,2.969236-.207031,4.477047-.077637,1.772459.151367,3.353024-.232422,4.885249-.706542,1.038573-.3208,2.052244-.609374,3.22656-.109863.776855.330566,1.499022.041016,2.109861-.263183.350586.030273.325195.195801.390625.3208.178222.33789.226074.759765.945312.843749.780761.09082.998046-.329101,1.276854-.634765.238769-.262695.480957-.59082,1.051269-.46289,1.890623.421386,3.420407-.277343,5.098628-.505371,1.686522-.228515,3.314938-.69873,4.96191.205078.781249.429199,2.147459.230957,2.948239-.008789,1.068358-.3208,1.945799-.251953,2.943357-.09375,1.160643.028809,2.022947-.254883,2.656248-.77832.14209.133789.352539.217285.780761.142578.001465.106445.003418.212402.004883.318359.237793.118652.475097.118652.711913-.000488.384765-.585449,1.088378-.652343,2.064451-.541992.599121.067383,1.256835-.04541,1.892088-.089844.001953.006836.000488.011719.002441.019043,1.583006.664062,3.599118.669921,5.28271,1.200194.473632.149414,1.029296-.019043,1.351561-.319336-.013184.02002-.02832.037109-.041016.057129.074707.447265.615234.627441,1.254882.6333,1.416014.012695,2.739255.215332,4.095211.443359,1.044433.175293,2.228025.291015,3.253903-.274414.60205-.332031,1.490721-.178711,2.286619-.134277,1.066894.058594,2.208006.17334,2.935056-.485839.01709-.060059.02002-.117676.005371-.161621.079101.029785.162598.066894.261719.119629,1.242186.336425,2.282224.077637,3.268063-.354492.109375-.095703.24414-.19043.34082-.286133,1.996092.163086,4.01025.134277,6.040034.42041,1.129393.15918,2.584959.258789,3.961422.216308.023437.037109.047852.073242.068359.114258,1.10205,1.272948,3.630856,1.851073,5.894038,1.39453,1.851073-.373535,3.756832-.088379,5.507319.164062,1.699217.245117,3.273435.016113,4.899898.039551,2.175291-.202637,4.422359.26416,6.5664-.239746,1.45996-.199707,2.945798-.185547,4.426754-.157715.324707.005859.607421.001953.83203-.090332.297363.124023.62207.187988.991698.156738.645996-.226562,1.373046-.380859,1.921873-.70166.152344.082519.341797.116699.558593.116211.492187-.041504.881347-.269043,1.399901-.265136.17041-.012207.335937-.032715.501464-.058105.80664-.160644,1.642577-.180176,2.480955-.175293.624023.003906,1.180663-.049805,1.458495-.388672.745117.51416,1.630858.003418,2.447263.019531,1.36328-.608398,2.913083-.570312,4.485836-.444824.720214.057617,1.40869.248535,2.15576.189453.727538-.058105,1.313964-.251465,1.353026-.72412.012207-.13623-.001953-.266113-.045898-.384765.09375.191894.115234.416504.13623.642089.09375,1.019042.613281,1.234374,2.314451,1.374022,2.155271.176758,4.226559.056152,6.253901-.338379.916503-.178711,1.65869-.083984,2.394041.224609,1.559081.243652,3.263181.076172,4.728511.583007.892577.200195,1.739256.088379,2.32031-.313965.804687-.55664,1.634276-.460937,2.617673-.246094,1.425292.312011,2.977048.301269,4.437496.552246.784179.134766,1.535643-.046387,2.249998-.296386,1.369628-.47998,2.892575-.774902,4.440426-.923827,1.366698-.131348,2.7749-.109375,4.041988.394531.536132.213379,1.334471.354004,1.790037-.039551.003418.003906.008301.007324.012207.011719.236816.263672.778808.433593,1.233886.244629,1.908201-.791991,3.670895.081055,5.500972.122558.112305-.009277.217285-.032227.317383-.060547.783202.514648,1.785155.277343,2.721189.188476,1.234862-.117187,2.430662-.431152,3.722165-.230957.17334.009766.345703.001953.516113-.019531.228515-.038086.493164-.07959.615722-.191406.954101-.873046,2.18701-.742675,3.503903-.353027,1.176757.01709,2.182615-.127441,2.620115-.807616.15625.021973.314453.029297.475097.025391,1.132811-.012207,1.803221-.686523,2.934079-.706054.567382.015625,1.126952.019043,1.544432-.26416.165527-.144531.207031-.302246.140137-.470214-.018555-.015625-.038086-.026855-.056641-.041504,1.010253.102539,2.019529.196777,2.998044-.10498.012207-.013672.024414-.027344.037598-.041016,1.201171.467773,2.647947.187988,3.921871.443847.677245.049316,1.291503-.047852,1.87744-.209961-.090332.101074-.144531.20459-.03418.321777.113769.141113.304199.221191.561523.248535l.145996.011719.143066-.018066c1.331053.286133,2.170896-.172851,2.979001-.679687.578124-.884765,2.217771-.030762,2.971189-.627929.36084-.00293.721679-.005371,1.08203-.007812,1.095702-.066894,2.191404-.134277,3.286618-.201172.126953-.706054.70166-1.080077,1.947752-.807616.71582.15625,1.02246-.074219,1.315428-.314941.20166.012695.404297.023926.606933.031738,1.569823-.112305,3.129392-.257812,4.603511-.588867h1.01831l-.000732-.254394Z"/></g></svg>