<svg xmlns="http://www.w3.org/2000/svg" fill="none" viewBox="0 0 801 86"><path fill="#fff" d="M799.996 46.05V0h-800v50h.93c.53.26 1.04.56 1.54.86 1.15.7 2.11 1.59 3.87 1.22.39-.08.96.48 1.5.63 3.56 1.01 5.56 3.27 7.87 5.44 2.72 2.55 5.76 5.01 10.15 5.98.75.16 1.33.78 2.02 1.14 1.56.83 3.08.07 4.64-.03 1.37-.08 2.89.03 4.14.44 3 .97 5.75.82 8.68-.24 1.1-.4 2.66-.03 4 .04.49.03.95.25 1.44.32 1.35.19 2.72.35 4.21.54-.38-.33-.79-.68-1.61-1.37.87-.16 1.8-.52 2.03-.34 1.46 1.18 2.43.73 3.36-.41.11-.14.43-.18.79-.32.27.38.51.73.88 1.26.49-.46.85-.81 1.21-1.15.06.13.13.26.19.38.77-.2 1.53-.46 2.32-.59 1.36-.22 2.74-.36 4.26-.55-.02-.04-.08-.26-.15-.47 1.93-.14 3.88-.29 5.83-.43l.11.42c.28-.24.69-.45.83-.74 1.19-2.32 4.1-2.5 6.56-3.17.5-.14 1.41.15 1.86.47 1.51 1.07 2.95 1.94 5.16 1.17 2.23-.78 3.69-.1 4.31 1.76 1.37-1.1 4.12 1.4 4.42-1.63 1.21.71 2.05 1.2 2.65 1.55 1.11-.2 2.42-.15 3.22-.63 2.36-1.42 3.44-.08 4.87 1.02.42.33 1.43.19 2.17.25 1 .09 1.99.18 2.99.26.96.07 1.93.11 3.14.18-.01-.02.11.22.25.49.92-.41.81-2.12 2.61-1.22.88.44 1.7.95 2.89 1.63.23-.99.46-1.99.68-2.96-.55-.12-1.19-.25-2.13-.44 1.22-.64 2.03-1.06 3.12-1.63-.74-.36-1.27-.47-1.39-.7-.19-.37-.2-1.19-.13-1.2 2.45-.4 4.48-2.3 7.39-1.21.66.25 1.69-.04 2.52-.17 1.93-.3 3.84-.66 5.84-1 .36-.4.83-1.02 1.45-1.53.1-.08.85.33 1.47.58 1.37-.78 3.02-.62 4.47.24 3.19 1.88 4.31 1.77 6.36-.87.12-.02.33-.07.35-.04 1.27 1.56 2.27.73 3.71 0 2.02-1.04 4.38-1.67 6.13-2.3 1.22.31 2.07.51 2.9.74.32.09.6.28.92.38.71.22 1.48.66 2.16.59 1.78-.19 3.37-.24 4.3 1.16 1.14-.27 2.2-.52 3.5-.82-.57-.41-.98-.7-1.58-1.13 1.56-.4 2.99-.76 4.7-1.19.51.44 1.2 1.04 1.82 1.57.71-.31 1.5-.65 2.65-1.15-.09.8-.14 1.18-.18 1.56.19.12.38.24.56.35.18-.4.36-.79.46-1.01.33-.05.41-.09.44-.07 2.87 1.42 5.82-1.13 8.74.1.52.22 1.4-.09 2.19-.17.11.26.29.69.62 1.5.34-.62.48-.87.73-1.32.79.55 1.52 1.06 2.4 1.68.28-.31.61-.67.95-1.04.87.61 1.73 1.21 2.64 1.85 1.9-.6 3.07.04 5.18 2.96.59-.1 1.19-.21 1.45-.26.85.43 1.45.73 2.05 1.03.63-.98 1.26-1.96 2.02-3.12.27.54.59 1.2 1.05 2.13.39.17 1.21.51 2.11.89.43-2.08 2.46-3.14 4.83-3.23 1.84-.07 4.33-.21 5.23 1.87.43-.3.89-.63 1.29-.91.65.54 1.28 1.07 1.78 1.49 1.44-.12 2.69-.23 3.94-.34.78.29 1.65.6 2.66.97-.03-.29-.07-.61-.12-1.09 2.2.67 4.7.01 6.68 1.27.79-.23 1.78-.53 2.44-.72 2.02 1.5 3.85 2.86 5.74 4.27.04-1.1.12-1.89 1.87-.93.45.25 1.71-.49 2.63-.66.48-.09 1.34-.08 1.51.13 1.64 2.11 4.45 2.46 7.12 3.05.69.15 1.34.37 2.02.55.58.16 1.23.51 1.74.41 1.71-.32 3.3-.59 4.94.28.77.41 1.79.62 2.74.72 1.58.17 3.2.09 4.77.28 2.02.24 3.67-1.27 5.88-.54.82.27 2.22-.3 3.21-.71.49-.2.65-.9.89-1.26.67.15 1.33.38 2.03.44 2.01.18 4.06.18 6.05.47 2.52.36 4.44-.82 6.84-1.01 1.85 1.02 3.94 2.3 6.21 3.35.74.34 2.18.37 2.87.02 1.33-.67 1.45.1 1.9.67.93-.91 1.77-1.03 2.9-.09.79.66 1.89 1.23 2.99 1.48.71.16 1.7-.27 2.51-.52.9-.29 1.95-1.12 2.59-.95 3.06.82 6.75-.13 9.3 2.02.6.51 1.04.62 1.63-.04.24-.26.82-.33 1.7-.66.85-1.51 3.46-.97 5.36-1.35 1.63-.33 2.86-1.06 3.85-1.76 1.93-1.37 4.05-2.21 6.48-2.65 1.15-.21 2.31-.9 3.64-.02.43.28 1.53-.05 2.32-.1l.12.41c.25-.29.51-.58.64-.73 1.18.39 2.21.72 3.22 1.07.3.11.79.28.81.45.11 1.02.85 1.16 1.96 1.05 1.04-.1 1.99-.16 2.14-1.24.04-.26.52-.55.89-.72.72-.32 1.5-.57 2.33-.87 1.32.67 3.52.6 5.11-.48.81-.55 1.31-.37 2.14-.2 1.19.24 2.46.2 3.7.29.28.02.57.07.85.12.81.14 1.62.29 2.42.44.05-.12.1-.23.15-.35.24.43.48.85.84 1.5.37-.62.61-1.04.84-1.42 1.25 0 2.42-.04 3.59 0 .4 0 .93.07 1.18.27 1.77 1.49 3.93 1.86 6.07 1.12.47.69.81 1.45 1.44 2.01.22.2 1.13-.07 1.72-.12-.01-.12-.03-.25-.04-.37-.38-.05-.75-.11-1.27-.18 1.02-.86 1.89-1.17 3.35-.66.84.3 1.87 1.12 3.09.31.23-.15 1.04.23 1.73.41.23-.37.51-.84.81-1.31 1.3 0 2.61-.01 4.14-.02-.38.47-.71.87-1 1.23.87.75 1.55 1.79 2.6 2.12 1.04.33 2.49.08 3.68-.17 2.26-.47 4.47-1.11 6.68-1.72.32-.09.54-.4.76-.23.98.04 1.97.02 2.94.13.92.1 1.98.16 2.69.56 1.08.6 1.92 1.48 3.12 2.44 1.29-.87 2.41-1.62 3.99-2.69 2.15-.27 4.56 2.16 7.74 1.74 1.22.22 2.43.6 3.65.6 1.33 0 2.81-.72 3.95-.44 2.15.54 4.8-.15 6.48 1.56 1.06 1.08 1.97 1.45 3.58.21 1.21-.93 3.04-1.65 5.09-1.12.4.1.93-.18 1.4-.19 1.17-.04 2.33-.02 3.73-.03-1.23 2.1-1.03 2.52 1.11 3.51.47.22.85.56 1.32.79.5.24 1.05.42 1.58.62.22-.41.44-.82.67-1.22.12-.21.25-.41.51-.85.6 1.05 2.26 1.72-.04 2.94 2.54-.5 5.57 1.21 6.45-2.17.74.39 1.34.72 1.71.91.69-.73 1.43-1.53 2.18-2.32.05.16.09.32.14.48 2.22-.09 4.44-.22 6.67-.24.63 0 1.26.42 1.9.44 1.77.03 3.56-.14 5.33-.06 1.32.06 2.61.41 3.92.62.54.08 1.22.3 1.63.14 2.62-1.03 4.78-.04 6.96.87.35.15.64.43.88.69.34.37.54 1.05.92 1.1.82.12 2.26.15 2.49-.19 1.31-1.92 3.23-1.13 5.04-.89.3.04.57.25.85.39.03.02 0 .13.02.14 2.05.52 3.33 1.69 4.42 3.06.07.09.54.11.55.08.72-1.34 1.28.41 1.97-.15 0 .67 0 1.12.02 1.96 1.06-.57 1.8-.97 2.65-1.43.09.42.16.76.27 1.27.98-.52 1.45-1.96 2.89-.81.02.02.45-.21.6-.37.21-.23.34-.5.5-.76.38.25.85.46 1.14.77.74.8 1.41 1.64 1.81 2.11 1.31-.41 2.12-.72 2.97-.91.84-.18 1.79-1.42 1.26-2.09 1.38-.23 2.67-.53 4-.63.39-.03.83.51 1.28.73.31.15.69.27 1.05.31.84.1 1.7.14 2.79.22.17-.15.51-.45.97-.84.49.79-1.32 2.38 1.32 2.11.07 2.02 1.37 2.66 4.09 2.01.91-.22 1.84-.44 2.71-.75 2.6-.94 5.17-.34 7.78-.03 1.38.17 2.84 0 4.26-.06.97-.04 1.93-.14 3.21-.23.173-.207.517-.167 1.03.12 1.06.59 1.89.21 2.42-.68.56-.93 1.53-1.72 2.36-2.6.62.17 1.2.32 1.77.48l-.3.19c.32.41.54 1.08.97 1.17.6.13 1.36-.17 2.07-.28.35-.42.9-1.37 1.16-1.32 1.6.29 3.16.75 4.67 1.26.48.16.76.67 1.28 1.16 0-.87-.01-1.5-.02-1.84 1.27-.34 2.25-.58 3.21-.86.69-.2 1.55-1.11 1.7.36.01.11.78.29 1.17.25 1.3-.12 2.58-.32 3.79-.48-.19-.34-.58-1.05-.97-1.76l.46-.17c.13.21.27.41.41.64 1.23-1.05 2.45-2.1 3.46-2.97 1.4.25 2.65.47 4.15.73-.05-.59-.04-.91-.1-1.22-.17-.95.15-1.42 1.57-1.42.78 0 1.56-.5 2.36-.75 1.03-.32 2.08-.6 3.11-.93.3-.1.55-.29.81-.44.94-.54 1.81-1.41 3.08-.38.09.07.23.21.25.2 2.59-1.3 3.64 1.08 5.54 1.47-.15.1-.34.23-.53.36.04.09.07.18.11.26 1.43-.31 2.85-.63 4.29-.94.23.28.57.87.71.84 1.71-.33 2.9.29 4.19 1.04.42.25 1.59-.07 2.26-.36.91-.4 3.1.38 3.78 1.42.19.3.83.73 1.04.66 2.76-.86 3.76.93 5.28 1.99 1.83-1.31 4.98.6 7.16 2.68 2.33-.31 4.44-1.43 7-1.01 1.23.2 2.34.33 3.11 1.22.24.28.78.42 1.2.59.2.08.66.1.66.14-.08 1.89 2.16 1.69 3.43 2.35 0-.83-.02-1.65-.02-2.57 2.8.7 1.67 2.05 1.71 3.45-.71-.26-1.16-.43-1.6-.59.49.54.98 1.09 1.74 1.93.53-1.3.92-2.27 1.32-3.26 1.11 0 2.23-.01 3.39-.02 1.19.57 2.53 1.2 3.85 1.87.16.08.15.34.26.5.19.26.4.71.62.72 3.59.15 4.22 2.63 5.94 4.41.37-.19.85-.45 1.68-.88-.62-.23-1.14-.42-1.84-.68.73-.52 1.1-.79 1.6-1.14.23.6.4 1.03.65 1.68.53-.5.88-.85 1.36-1.3l.93 1.12c-.04-1.4.31-2.56 2.23-2.89 1.29-.22 3.53 1.06 4.2 2.34.4-.54.73-1.01 1.1-1.5.48.53.91.99 1.62 1.77.35-.85.55-1.33.7-1.7-.41-.35-.96-.61-1-.91-.17-1.19-.18-2.42 1.57-2.96.35-.11.94.27 1.7.51.67-.25 1.66-.68 2.71-.96 1.1-.3 2.16.47 1.93 1.39-.1.41-.39.79-.65 1.32 1.04-.06 1.92-.1 2.91-.16 1.38 1.31 2.83 1.35 4.78-.06.76 1.79 2.62 1.7 4.24 1.25 1.43-.4 3.51-.54 3.35-2.63 1.25 2.07 3.72 2.88 6.33 2.29.3-.07.76-.24.89-.15 2.35 1.72 3.35-1.1 5.23-.94.17.01.38-.35.56-.35 2.79.05 4.82-2 7.69-1.69.24.03.49.04.73.05.62.04 1.24.07 1.86.1 0-.56 0-1.12-.02-1.83.96-.19 2.2-.5 3.46-.66.61-.08 1.29.12 1.93.22.22.03.5.26.63.21 2.35-.96 3.63.41 5.16 1.35.33.2 1.12.13 1.58-.02 1.38-.46 2.32-.26 3.45.6 1.02.78 2.5 1.3 3.89 1.67 1.85.5 3.79.9 5.73 1.04 1.53.11 3.14-.13 4.67-.4 3.52-.62 8.91-2.61 12.69-.57.38.21.87.33 1.36.4l.58-30.83h.07v-3.95l-.07-.1Z"/></svg>