<svg xmlns="http://www.w3.org/2000/svg" fill="none" viewBox="0 0 801 84"><path fill="#fff" d="M800.025 73.996c-.12.99-.22 1.99-.18 2.98-.12.21-.23.42-.35.63-1.02.86-2.68.53-4.08.64-.63.05-1.22.02-1.64.34-.82.33-1.99.31-2.6.84-.14.06-.3.11-.47.14-.94.04-1.75.3-2.51.56-.78.27-1.46.27-2.2 0a.796.796 0 0 1-.41-.4c-.99.64-2.95.82-4.89.35-.68-.16-1.31-.38-1.98-.56-.08-.06-.14-.12-.22-.18-.5.06-.82.23-.81.58h-.38c-1.22-.32-2.53-.46-3.86-.53-2.9.21-5.66-.25-8.46-.56-1.68-.18-3.29-.01-4.87.3-.63-.13-.79-.64-1.59-.64-.16-.03-.31-.08-.45-.13-.32-.18-.76-.32-.94-.56-.33.23-.63.48-1.15.59-.26.03-.51.02-.75-.05-.18-.08-.28-.18-.39-.28.01.06.02.12.05.17-1.33.3-2.76.19-4.13.32-.49.04-1.24-.02-1.38.21-.6 1.01-2.09.55-3.2.76-1.43.27-2.31.08-3.59-.26-1.42-.38-2.87-.85-4.47-.98-.97-.08-1.7-.32-2.35-.69-.08.21.11.48-.15.75-.42-.57-.84-.78-1.84-.33s-2.13.03-3.1-.26c-1.11-.34-1.75.18-2.47.43-.66.23.06.46.3.67-.47.2-.94.25-1.42.03-.68.5-1.66.74-2.67.97-1.03.23-2.16.26-2.76 1.01-.38.48-1.85.59-2.35.05-.78-.83-1.83-1.03-3.31-.87.62.53-.12.83-.88 1.13-.48.16-1.14 0-1.57.28-.78.5-1.63.37-2.25-.04-.7-.47-1.26-.38-2.05-.1-.78.28-1.61.56-2.57.6-.96.04-1.83-.06-2.42-.66.31.61.31 1.12-.41 1.55-.22.13-.69.29-.79.21-1.17-.92-2.7.57-3.86-.19-.08-.05-.18-.1-.23-.16-.62-.74-1.21-1.02-2.24-.12-.59.52-1.76.54-2.45.08-1.37-.92-3.45-1.4-4.51-2.52-1.03.69-2.59.7-3.81 1.1-.61.2-1.44.03-1.91-.25-2.14-1.3-4.75-1.17-7.4-.78-1.15.17-2.21.56-3.13-.24-.35-.3-.76.02-1.13.11-1.83.43-4.28.2-5.4-.5-.27-.17-.43-.35-.49-.56-.02 0-.04 0-.07-.01-.06-.01-.1-.03-.16-.04-.29.16-.68.19-1.18.12-.47-.07-.88-.03-.85.33.18.4.34.79-.47 1.04-.89 0-1.34-.5-2.15-.6-.83-.22-1.47-.62-2.25-.9-1.67 1.67-2.98 1.79-5.85.55-.34-.52-.47-1.11-1.47-1.41-.34-.14-.62-.31-.89-.5-.23-.17-.45-.35-.8-.43-.3.13-.27.38-.59.5-1.03.17-1.69-.15-2.05-.62-.23-.29-.62-.45-.98-.65-1.61.23-3.22.52-4.86.08-.49-.13-.95-.07-1.45.02-1.06.18-2.1.06-3.13-.11-.3-.05-.54-.23-.83-.22-.72.02-1.6.7-2.08.09-.64-.81-2.12-1.42-1.94-2.64-.58.66-.56 1.24-1.09 1.7-.04.04-.1.06-.15.1.76.37 1.38.66 1.03 1.22-.12.18-.46.31-.73.21-.87-.32-.58-.81-.6-1.3-.67.07-1.28.1-1.82.07.71.25.92.83 1.22 1.26.2.28-.45.52-1.26.53-.06-.56-1.79-.26-1.62-.89.08-.31.18-.87.8-.98-1.33-.22-2.18-.83-2.66-1.91-.67.5-1 1.23-2.34 1.14-1.13-.08-1.93-.47-2.4-1.05-.03-.06 0-.11-.02-.17-.81-.17-1.71-.2-2.29-.64-.57.43-.2.7.2.91 1.32.66.28 1.1-.6 1.21-1.22.15-2.14.52-3.17.84-.97.3-2.01.6-3.17.24-.49-.15-1.34.05-1.2.13.91.49.68 1.35 1.9 1.73.19.06.36.13.53.2-.67.03-1.33.04-2.02.08-.62.04-1.24.11-1.86.17-.31-.22-.39-.49.25-.83.11-.06-.02-.25-.04-.39-1.87.1-1.95-1.16-3.39-1.43-.45.62.27.94.85 1.3.27.17.87.51.55.57-1.18.22-1.27.62-1.2 1.04-.99.1-1.98.2-2.96.31-.24-.03-.49-.04-.76-.03-.64.02-1.18-.09-1.63-.29-.42.77-1.72.66-2.74.84-.42.04-.83.07-1.25.1-.12-.03-.24-.03-.33-.1-1.29-.99-2.98-1.11-4.92-.79-.69.11-1.36.1-1.75-.33.89-1.43-1.35-2.07-2.47-3.03-.13.22-.01.47-.31.64-.94.37-1.88-.02-2.38-.26-1.15-.56-2.42-1.08-3.27-1.8.05.34-.31.61-1.22.82-1.33.3-2.15.22-2.82-.6-1.04-1.28-10.39-.66-9.55-1.96.12-.18.19-.33-.04-.48-.31-.19-.68-.15-1.01-.03-.99.34-1.84.18-2.67-.13-.13.39-.76.42-1.39.34-1.94-.25-3.86-.56-5.87-.19-.58.1-1.08-.1-1.47-.36-1.18-.8-2.47-1.47-4.47-1.57-1.03-.05-1.34-.81-2.31-1.01-.94 1.5-1.93 1.65-4.13.61-.82-.38-1.63-.69-2.57-.08-.43.28-1.03.21-1.28-.05-.68-.69-1.65-.45-2.6-.35-.18-.01-.34-.05-.5-.1-2.03-.68-2.88-1.95-4.41-2.87-.51 1.2-2.62 1.4-3.88 2.08-.29 0-.51-.08-.69-.21-1.08-.86-3-1.15-4.21-1.93-.16-.1-.64-.09-.9-.02-2.22.58-4.52.2-6.78.16-1.22-.02-2.27.25-3.4.39-1.79-.29-3.48.05-5.12.35-1.47.27-3.81.27-4.58-.13-1.86-.97-4.32-.83-6.43-1.3-.17-.04-.4-.04-.54.03-1.85.85-3.89 1.02-6.13.6-.15-.03-.36.03-.55.03-.12 0-.23-.04-.35-.06h.02c.44.46 1.03.91-.29 1.15-.83.15-.79.59-1.2.87-.6.41-1.14.91-2.11.23-.05-.03-.1-.03-.14.02-.45.66-1.45.35-2.25.42-.17 0-.35 0-.52-.02-.74-.1-.95-.49-1.36-.79-.58.23-.65.81-1.63.71-.42-.08-.79-.21-1.16-.34-.35-.02-.7-.04-1.04-.07-.38-.44-1.39-.22-1.87-.55-.24-.11-.5-.2-.7-.32-.16-.06-.35-.09-.55-.06-.55.1-1.03.33-1.66.24-.19-.04-.34-.11-.45-.2-.23-.25-.19-.45-.05-.64-.46.16-.98.17-1.49.18-.72-.01-1.37-.25-2.15.19-.54.31-1.69.34-2.64.31-.42-.02-1.05-.04-1.18.18-.65 1.14-2.31.74-3.55.68-1.55-.08-3.27.13-4.6-.56-.38-.8-.94-1.43-2.76-1.31-.76.05-1.08-.23-1.31-.55-.14.06-.26.14-.43.17-.56.06-1.08.25-1.69.14-.28-.05-.52-.13-.73-.23-.22-.11-.4-.23-.56-.36-.67-.1-1.27-.25-1.06-.93.13-.41-.91-.53-1.47-.67-.61-.16-2.54.73-3.74.55-.48-.07-.81.07-1.2.2-1.91.63-3.67.19-4.43.41h-.75c-1.97.02-3.92.21-5.81.52-.3-.13-.62-.25-1-.34-.59-.07-1.17-.15-1.62-.4-.21-.16-.22-.21-1.2-.15-1.22.07-1.11-.13-1-.58.07-.3-.24-.46-.73-.51-.47-.05-.93.02-1.11.27-.35.48-.66.98-.9 1.49-.35.73-2.67.79-2.72 1.77-.01.31-.14.58-.77.59-.61 0-1.21-.02-1.42-.48-.25-.53-.23-1.1-.79-1.57-.43-.04-.68-.18-.75-.42-.8-.16-1.37-.48-1.88-.85-.63-.16-1.25-.33-1.88 0-.35.52 1.55.06 1.07.95-.62 1.17-1.86.66-2.95.74-.22.16-.42.4-.85.25-.41-.15-.24-.44-.28-.67-.68.68-1.9.81-3.06 1.01v.06c0 .01-.1.03-.14.03-.06 0-.12-.02-.17-.04-1.07.9-1.21.89-2.11-.08-1.73.67-3.9.72-4.08 1.09-.65-.24-2.04.08-2.14.09-1.19.15-1.47.39-.7.72 2.15.92.19 1.02-.73 1.35l-.25-.03c-1.46-.45-.71-1.37-1.26-2.05-.84.35-.26.67-.15.98.37 1.03-.39 1.47-2.16 1.12-.94-.19-1.43.4-2.25.24-.88-.1-1.36-.4-1.43-.9-.44-.2.04-.75-.67-.75-.95 0-.56.48-.62.8-.05.24-.2.5-.78.48-.31-.01-.75-.12-.67-.29.55-1.13-1.24-.77-1.76-1.02-1.09.06.7 1.05-1.15.79h-.36c-.69.25-.46.81-1.11 1.07 0 .06-.02.12-.04.19-.56.09-1.07-.07-1.57-.16-.72-.13-.83.13-1.04.38-.29.21-.84.2-1.12.42-2.59.14-5.14-.04-7.69-.28-.03-.01-.06-.02-.08-.03-1.27.59-2.37 1.37-4.37 1.13-.66-.08-.57.26-.64.48-2.44.35-4.57-.36-6.81-.66-.71-.1-1.39-.26-2.14-.23-.39-.3-1.39.17-1.56-.39-.84-.41-2.6-.25-2.45-1.23.07.93-.1 1.01-1.6.87-.61-.06-1.23-.38-1.89-.05-.49-.84-1.17-1.59-2.85-1.97-.16.49.78.58.96.91.12.23.5.49.04.66-.55.2-.7-.12-.9-.33-.18-.18-.4-.44-.78-.33-.21.06-.2.37-.28.56-1.37-.4-.73-1.08-.71-1.67-1.33.39-2.22-.34-3.36-.44-.52-.05-.94-.49-1.48.07-.32.33-.76.04-1.18-.14-.78-.35-1.68-.48-2.61-.12v.42c-.81-.23-1.13-.04-1.12.42-.44.1-.73-.04-.91-.23-.81-.87-2.66-1-3.54-.63-.61.26-1.24.01-1.83-.21.04.35-.09.67-.84.87h-.75c-.84 0 .16-.67-1.08-.79-1.34-.13-2.46-.94-1.36.6.33.47-.46.83-1.49.73-.4-.04-.69-.27-1.2-.14-1.58.41-1.71.37-2.71-.47-.62.5-.2 1.32-1.54 1.55-1.51-.08-2.18-.8-3.04-1.37-.67.38.36.43.12.71-1.86.34-2.78-.54-3.99-1.1-.81.48.48 1.05-.38 1.48-.65.02-.88-.66-1.73-.37-.76.46-1.56.88-.15 1.47.76.32.11 1.06-1.31 1.38 1.93.26 2.09.73.71 1.38l-.75-.21c-.95.3-1.26 1.09-2.63 1.06h-.37c-.22.22-.29.5-.76.63-.56.85-1.81.37-1.87.07-.11-.57-.8-.73-1.29-1.05-.99.86-3.63 1.03-3.22 2.47-.09.45-.52.63-1.31.53-.07-.03-.14-.07-.2-.1-.6-.54-.97-.15-1.4.1-.69.39-1.26.51-1.47-.22-.2-.7-1.32-.98-2.13-1.39-.53-.27-.97-.1-1.48.11-.53.23-.79.78-1.78.55-.03-.03-.05-.09-.08-.09-1.26-.11 1.05-1.03-.71-1.01-.81.01-1.68-.14-2.42.29-.033-.52-.567-.913-1.6-1.18-.53.23-.07.58-.34.86-.32.33-.34.73-1.32.36-.69-.27-1.31.13-1.94.42-.01-.56.85-.73.92-1.13l-.75-.42c-.27-.14-.55-.24-.97-.26-2.72-.08-7.06-.6-8.78-.35-1 .14.53.93-.76 1.03-.5-.14-.78.09-1.12.22 0 .07 0 .14-.01.2.5.49.07.82-.64 1.04-.62.2-1.08-.12-1.11-.35-.06-.41-1.81-.61-.44-1.17.71-.29.65-.81.84-1.22.13-.29-.93-.19-1.39-.44-.37-.2-1.08-.02-1 .44-.67-.37-1.27-.65-1.99.02-.45.42-1.13.78-2.18.47-.32-.1-.66-.07-.68.17-.07.86-1.67 1.07-2.27 1.72-.29.31-3.13-.03-3.58-.47-.34-.33-.63-.45-1.34-.53-.72-.08-1.83-.42-.99-1.09.64-.51-.47-.73-.48-1.12-.74-.16-1.03-.71-2.34-.35-1.42.39-4.3.35-4 .91.11.2-.69.33-.99.08-.46-.38-1.18-.5-1.79-.73-.24.83-2.3 1.23-3.65.73-1.46-.5-3.32-.45-4.71-1.03 0 .02.02.04.02.06.27.37.29.72-.43.88-.73.16-1.55.29-2.1-.21.11-.12-.07.05.05-.07-.04 0-.04.02-.08.03-1.69.42-3.3.24-4.42-.49-.99-.65-2.18-.85-3.45-.8-2.16.08-4.02-.42-5.88-.84-.83-.19-2.5.09-3.64.26-.72.09-1.02-.68-1.89-.29-.49.27-1.35.13-1.73.53-.37.38-.89.71-1.74.58-.94-.14-1.29-.59-1.4-1.1-.02-.08-.01-.16-.02-.23-1.28.33-5.04 1.36-6.13 2.32-.85.75-1.13.47-1.74.16-.38-.2-.48-.6-1.23-.47-.68.12-.61.41-.63.76-.04.6-.23.6-1.8-.01-.66.42-.6.94-.61 1.45-.71 0-1.37-.1-1.83-.43-.5-.36-1.19-.37-1.61-.08-1 .69-1.46.16-1.54-.25-.2-.93-1.27-1.09-2.73-1.18.02.67 1.15 1.29.11 2.12-.57-1.18-2.54-1.49-3.61-2.3-.28-.21-.4-.59-1.03-.53-.86.08-.04.58-.51.78-.55-.12-.25-.45-.52-.63-.49-.33-1.28-.23-1.28.08 0 1.44-1.3.76-2.36.52-.22.11-.46.14-.73.07-1.09-.43-2.18-.87-3.21-1.35-.31-.15-.5-.25-.94-.15-1.31.29-2.25-.09-3.1-.58-.12 0-.24-.01-.36 0-.32.05-.62.2-.98.09-.06-.03-.1-.07-.1-.12-1.03-.52-3.99-1.05-5.78-1.62-.32-.1-.63.01-.95.11.13.03.24.09.32.17-.39.12-.77.23-1.16.35-.96-.1-1.92-.21-2.88-.31-.72.19-1.38.62-2.26.18-.41-.27-.98-.19-1.49-.22-.2-.09-.39-.19-.47-.32-.87.08-1.6-.1-2.27-.4-.07.05-.16.1-.22.15-.04.04-.09.09-.15.12-.62-.19-1.22-.2-1.8.04-.18-.43-.47-.05-.71-.03-1.06-.44-2.26.14-3.34-.15-.86.19-1.61.66-2.68.34-.37-.12-.59-.27-.6-.45-1.26.15-2.47 0-3.74-.11-2.4-.21-4.85-.13-7.25.14.16.07.29.16.35.29.06.17.01.33-.12.48-.62.47-1.43.52-2.31.3-1.59-.4-3.15-.32-4.55.2-.71.26-1.45.36-2.22.46-.18.01-.35 0-.53-.02-.52-.11-1-.32-1.6-.31-.39 0-.79 0-1.11-.11-.08.02-.16.04-.25.05-1.42.23-2.77.32-4.15.87-1.15.46-3.29.58-5.23.28.18.4.83.76.31 1.16-.11.08-.24.14-.41.18h-.72c-1.52-.11-2.63.5-3.99.7-.68.02-1.35.03-2.03.05-.14-.03-.27-.06-.4-.14-.01-.21.27-.42 0-.63-1.08-.7.25-1.41 0-2.11-.06.02-.13.03-.15.05-.35.45-.05 1.15-1.31 1.24-.85.06-2.19-.77-2.58-1.45-.11.13-.26.24-.45.31-.94.37-1.31.86-1.26 1.48-.82.27-1.62.2-2.41-.04-1.15-.33-2.33 0-3.5-.04-.94.07-1.62.43-2.4.67.21.13.29.29-.16.29-1.43.02-2.58.53-3.93.6-1.78.1-2.56-.49-1.98-1.43-.39-.45-1.33.38-1.66-.22-.21-.12-.31-.36-.75-.21-.13.07-.25.14-.38.21-.91.25-1.57.16-1.87-.43-.5-.56-1.36-.69-2.34-.57-1.05.13-1.98.1-2.53-.5-.23-.25-.56-.23-.94-.2-.85.06-.31.34-.28.54.04.24-.13.5-.53.47-1.73-.13-3.27.66-5.09.27-.79-.17-1.63.07-2.2.47-1.18.83-1.72.74-2.87-.13-.45-.34-1.52-.34-2.36-.12-.5-.14-1-.28-1.5-.43.13-.37 1-.21 1.22-.53-.2-.24-.51-.29-.85-.3-.1.09-.2.18-.34.27-.15.11-.2.25-.32.37-.32.3-.21.91-1.08.81-.62-.07-.69-.31-.64-.57-.22.08-.47.12-.7.19-2.11.62-4.23.49-5.73-.41-.94-.57-1.44-.11-1.91.22-1.63 1.16-2.18 1.16-3.83-.05-.42-.31-1.21-.39-1.46-.79-.18.27-.45.52-.87.68-1.4.55-2.55 1.23-3.56 1.99-.9.68-2.16.57-3.43.45-1.14-.11-2.16-.28-3 .54-.56.55-1.92.79-3.09.2-.81-.72-1.79-1.15-3.39-.71-.83.23-1.48.08-1.73-.43-.56-1.13-2.4-1.41-3.92-1.9-.41-.13-.97-.13-1.38-.3-.42-.17-.77-.39-.6-.71.15-.27.61-.31 1.06-.32.86-.02 1.73-.09 2.69-.08-2.39-.08-4.75-.17-5.69-1.65-.36.57-1 1.07-1.48 1.6-.65.72-1.97.92-3.35.89-1.12-.02-1.99 0-2.32.82-.32.79-1.42.76-2.48.35l-.54.15c.03.04.08.08.08.14-.62.93-1.53 1.19-3.28.97V.956h800V73.997h.03Z"/></svg>