<svg xmlns="http://www.w3.org/2000/svg" fill="none" viewBox="0 0 800 86"><path fill="#fff" d="M799.436 75.252c-.2-.09-.64 0-.87.13-2.41 1.34-4.98 1.67-7.83 1.06-.73-.15-1.66.03-2.4.26-2.92.9-5.7.59-8.53-.28-.97-.3-2.11-.23-3.36-.35.22.66.36 1.06.52 1.53-.85-.32-1.58-.67-2.38-.87-.39-.1-1.21-.02-1.29.16-.65 1.29-1.44.56-2.32.12-.47.42-.93.87-1.44 1.27-.43.33-.91.8-1.43.86-1.85.21-3.72.33-5.59.38-1.09.03-2.21-.28-3.28-.17-.61.06-1.14.65-1.78 1.04-1.74-.83-3.59-.02-5.27.68-1.99.83-4.07.73-6.12 1.03-2.48.36-4.55-.33-6.81-.43-1.16-.05-2.37.86-3.6 1.26-.49.16-1.09.08-1.64.11-.3.01-.63-.06-.9.01-1.51.43-2.99.96-4.53 1.32-1.87.43-3.68.64-5.76.24-1.01-.19-2.69-1.07-4.09.03-.34.26-1.43-.04-2.17-.14-3.69-.51-7.66.86-11.15-1.12-.55-.31-1.52-.2-2.3-.18-1.21.02-2.41.13-3.61.2-.12 0-.29-.02-.36.03-2.15 1.44-4.36.47-6.58.16-.46-.07-1.12.17-1.5.44-1.26.88-2.39 1.69-4.1.49-.46-.32-1.43-.41-2.08-.3-1.44.25-2.64.06-3.86-.58-.49-.25-1.25-.17-1.67-.49-.92-.42-1.79-.98-2.79-1.24-2-.51-4.04-1.04-6.11-1.22-1.96-.17-4.08-.61-5.97.42-.23.12-.63.19-.88.12-3.09-.87-5.8.34-8.68.88-2.52.48-5.15.43-7.66-.37-2.45-.78-4.79-1.81-7.68-1.15-.85.2-2.02-.59-3.08-.81-.81-.17-1.73-.31-2.51-.16-1.96.38-3.68.17-5.37-.69-.31-.16-.88.03-1.33.03-1.64 0-3.24.5-4.9-.52-.82-.5-2.51-.36-3.71-.15-1.1.19-1.71-.09-2.64-.44-1.51-.57-3.27-.71-4.93-1.04-.4-.08-.83-.13-1.2-.27-2.35-.86-4.62-1.97-7.07-2.54-1.41-.33-3.03-.7-4.76-.12-.85.28-2.23-.4-3.35-.7-2.13-.57-4.2-1.5-6.37-1.65-1.51-.1-3.16.82-4.69 1.38-.7.26-1.25.77-1.86 1.16-1.93-1.07-3.27-.85-3.66.22-2.75-.04-5.43-.36-7.98-.03-2.55.33-4.69-.29-6.87-.95-1.96-.6-3.8-1.45-5.73-2.13-2.49-.88-3.31-.8-5.41.35-2.03-.69-3.96-1.4-5.95-2-.97-.29-1.91-.42-2.98.19-.49.28-1.67-.22-2.54-.36-.55-.09-1.1-.27-1.64-.23-2.08.15-4.15.38-6.23.58-1.66.16-3.31.31-4.97.46-.24.02-.49.03-.24.01-.9-.89-1.5-1.63-2.29-2.22-.86-.63-1.7-.69-2.55.25-.92 1.03-4.01.98-5.63 0-.81.72-1.55 1.15-2.88.3-.6-.38-2.23-.13-3.12.25-2.59 1.08-5.13 1.24-8.06 1-2.33-.19-4.77-.9-7.32-.03-1.12.38-2.81-.36-4.25-.47-.74-.05-1.5.24-2.26.25-1.24.01-2.48-.08-3.72-.14-.46-.02-.94-.21-1.36-.13-2.44.46-4.63-.63-6.9-.67-2.69-.05-4.37-1.52-6.6-2.11-.95-.25-2-.28-3.26-.44-.57.65-1.16 1.88-3.06 1.43-.05-.01-.14 0-.18.03-2.64 1.76-5.47.6-8.25.37-.59-.05-1.29.03-1.79.25-2.15.97-4.08.31-6.09-.32-.86-.27-1.97-.44-2.81-.24-1.63.39-3.06.01-4.57-.27-1.78-.33-3.57-.8-5.37-.83-1.58-.03-3.17.62-4.77.69-1.27.05-2.65-.16-3.82-.57-1.15-.41-2.05-.84-3.14.02-.29.23-.86.27-1.31.3-.89.07-1.8.14-2.69.09-1.23-.07-2.45-.41-3.66-.36-2.55.11-3.9-1.29-5.66-2.34-1-.6-2.71-.42-4.09-.64-1.24-.21-2.47-.49-3.7-.74-.23-.05-.62-.19-.67-.14-1.44 1.62-3.58 0-5.42.55.32-.1.64-.2.86-.26-1.71-.87-3.35-1.58-4.81-2.48-1.79-1.1-3.6-1.66-5.79-.86-.56.2-1.19.31-1.69.58-2.2 1.16-3.9-.31-5.8-.67-1.77-.34-3.52-.75-5.29-1.08-.33-.06-.85 0-1.06.16-2.05 1.65-4.22.36-6.37.16.29-.07.59-.13.94-.21-.07-.18-.12-.41-.18-.41-1.02-.04-2.17.17-3.02-.14-1.4-.51-1.9-.02-2.43.82-.15.24-.57.59-.77.55-2.56-.49-5.36-.25-7.61-1.72-1.59-1.04-3.26-2.24-5.5-.88-2.39-.95-5.23.56-7.57-.93-.68-.43-1.78-.79-2.57-.68-3.38.47-5.97-1-8.76-2.01-.32-.11-.79-.31-1-.21-1.19.56-1.46-.25-2.18-.68-1.28-.77-2.85-1.24-4.31-1.84-1.52 1.04-3.8 1.08-5.48.1-.24-.14-.55-.3-.81-.29-3.57.2-7.14.4-10.71.68-.62.05-1.18.5-1.8.69-1.66.51-3.31.39-5.01.01-3.21-.71-6.42-1.41-9.71-.09-.57.23-1.45.02-2.18-.06-1-.1-2.14-.85-2.78.47-.05.09-.44.09-.67.11-1.72.13-3.43.25-5.15.4-1.78.15-3.61.2-5.02 1.31-.12.09-.5.06-.7-.01-3.07-1.21-6.27-.46-9.39-.32-1.5.07-2.95.79-4.44 1.16-.47.12-1.03.11-1.52.04-1.08-.17-2.12-.48-3.21-.62-2.2-.29-4.41-.61-6.63-.72-1.28-.06-2.59.27-3.88.44-1.03.13-2.05.31-3.09.4a9 9 0 0 1-2.01-.03c-2.89-.37-5.71-1.16-8.74-.63-.89.16-1.93-.29-2.89-.26-1.47.05-2.93.39-4.4.4-2.44 0-4.98 1.87-7.32-.24-.21-.19-.67-.28-1-.27-3.27.12-5.4-1.44-7.55-3.08-.55-.42-1.62-.45-2.47-.58-.44-.07-1.12.21-1.36.04-1.51-1.07-2.91-.65-4.49-.08-1.97.7-3.73-.2-5.57-.69-1.52-.4-3.16-.49-4.75-.74-1.05-.17-2.1-.37-3.14-.55-2.31-.41-4.59-.9-6.92-1.22-2.79-.38-5.61-.65-8.43-.88-1.54-.12-3.13.07-4.65-.12-2.08-.26-4.12-.76-6.19-1.12-2.15-.38-4.34-1.09-6.47-.99-2.13.1-3.85-.88-5.89-.77-2.05.11-4.13.11-6.18 0-.79-.04-1.51-.66-2.32-.8-.87-.16-2.18-.39-2.63-.04-1.08.83-1.79.63-2.99.2-3.77-1.34-7.74-1.67-11.85-1.19-1.5.18-3.04.18-4.56.11-2.4-.11-4.06.96-5.3 1.78-1.71-.46-3.15-.83-4.57-1.23-1.61-.45-3.22-.91-4.8-1.41-1-.32-1.75-.44-2.85.14-.84.44-2.55.51-3.41.11-1.18-.55-2.14-.47-3.36-.47-1.31 0-2.61-.57-3.93-.87-.63-.14-1.28-.23-1.93-.32-1.15-.16-2.62 0-3.39-.5-1.38-.91-2.81-.92-4.32-.8-1.47.12-3.04-.2-4.29.97-.48.45-1.94.55-2.79.34-1.49-.36-2.25.07-2.79 1.08-1.09-.71-2.08-1.35-3.13-2.03-.08.6-.16 1.11-.17 1.23-1.59.32-2.89.72-4.22.81-.76.05-2.02-.22-2.28-.65-1.36-2.23-3.49-2.83-6.46-2.7-2.05.09-4.13-.56-6.21-.59-1.26-.02-2.67.33-3.77.85-1 .47-1.74.65-2.61.04-2.03-1.43-4.62-1.66-7.09-2.15-.24-.05-.53.14-.81.17-.69.08-1.4.1-2.08.22-.71.13-1.57.21-2.05.57-.84.64-1.39 1.51-2.14 2.23-.79.75-1.63.79-2.63.11-2.02-1.37-4.54-1.88-7.02-2.47-.73-.17-1.28-.81-2.01-1.29-.87.33-1.83.71-2.79 1.08-1.77.49-3.22-.11-4.55-1.18-.9-.72-1.76-.27-2.2.5-.68 1.21-1.53 1.22-2.56.67V.872h800v74.63c-.21-.06-.41-.12-.63-.21l.07-.04Z"/></svg>