<?xml version="1.0" encoding="UTF-8"?><svg id="b" xmlns="http://www.w3.org/2000/svg" viewBox="0 0 799.999756 82.107771"><defs><style>.d{fill:#fff;stroke-width:0px;}</style></defs><g id="c"><path class="d" d="m799.999756,73.040949c-.118164.993651-.221191,1.987303-.177246,2.983884-.115723.210937-.230957.422363-.347168.633788-1.023925.864257-2.684568.529785-4.076168.641601-.631835.051269-1.216796.021484-1.639647.337402-.819335.325195-1.988279.307129-2.596677.842773-.141113.062988-.297851.108398-.466796.140137-.938964.039551-1.745604.296386-2.510252.55957-.775878.26709-1.461913.272949-2.198728.007324-.225097-.109375-.339355-.249511-.408203-.401855-.987304.638183-2.945798.818847-4.885249.352539-.678222-.163086-1.314452-.377929-1.978026-.559082-.083496-.055176-.141113-.118164-.21582-.175781-.504882.060059-.8208.225586-.805175.577636-.125488,0-.251465-.000488-.376464-.000488-1.224608-.322265-2.529783-.459472-3.864254-.527343-2.902829.209961-5.663081-.251953-8.456535-.55664-1.679686-.183105-3.289548-.010254-4.872066.303711-.631835-.133789-.791991-.635742-1.589354-.641601-.162598-.031738-.312011-.077148-.454101-.130859-.322754-.183594-.764648-.317383-.941894-.562988-.327148.231445-.626464.47998-1.154296.593261-.262695.033691-.513671.017578-.754882-.050293-.182617-.07959-.282226-.18164-.391113-.280761.012207.058594.023437.118164.047852.172363-1.325682.302734-2.755857.190918-4.127438.315918-.491699.044434-1.244628-.017578-1.379393.209472-.600097,1.010253-2.088865.549804-3.198239.76123-1.425292.270996-2.309568.081543-3.586422-.255859-1.416014-.375-2.868161-.845214-4.467769-.976562-.967773-.080078-1.701659-.317383-2.351072-.686523-.081543.214355.112793.478515-.148437.753417-.42041-.567382-.839843-.780761-1.839842-.332031-.999511.448242-2.131346.03418-3.097165-.262695-1.114745-.342773-1.751952.180176-2.466795.428222-.659667.229004.05957.461425.296875.673828-.473144.195801-.944823.245605-1.415038.027832-.677734.502441-1.662596.740234-2.665525.966308-1.027343.231445-2.155271.259765-2.760251,1.011718-.3833.47705-1.849119.585449-2.350584.050781-.775878-.825683-1.831541-1.028808-3.312009-.874023.623046.534179-.120605.832519-.883788,1.12744-.483886.162109-1.139159,0-1.568846.276855-.775878.5-1.631346.368652-2.252928-.044922-.703124-.46875-1.258788-.382324-2.051268-.102051-.783202.276855-1.610838.558105-2.574705.600097-.955077.041992-1.825682-.0625-2.41992-.659667.314941.609374.312011,1.118651-.410156,1.553221-.221191.132812-.694824.289551-.790038.214355-1.173339-.924804-2.697751.568847-3.855954-.192871-.081055-.053711-.182617-.101562-.234863-.164062-.623535-.742187-1.212401-1.020995-2.236326-.123535-.591308.517578-1.758787.53955-2.448728.077148-1.368163-.915038-3.451169-1.400878-4.50732-2.522947-1.027343.690429-2.589841.6958-3.812985,1.099608-.609374.201172-1.437499.034668-1.908201-.250488-2.142576-1.29785-4.747066-1.171874-7.398431-.777831-1.152831.170898-2.207029.558593-3.128903-.235351-.350097-.301269-.763671.020996-1.128417.106445-1.830076.427734-4.281734.203125-5.399897-.495117-.266113-.166015-.430664-.352539-.488281-.564453-.022949-.003418-.044922-.007812-.068359-.011719-.056641-.010742-.102051-.028809-.158203-.040039-.286621.163086-.680663.194824-1.179198.121094-.472656-.069824-.875976-.03125-.84912.331543.175293.396972.338867.791503-.469238,1.044433-.889159-.00293-1.34326-.5-2.1499-.596679-.83496-.223633-1.468749-.617187-2.245603-.896484-1.673827,1.673338-2.979489,1.789549-5.847163.554199-.339843-.518066-.465332-1.106444-1.468749-1.40576-.336425-.142578-.624999-.312988-.889648-.49707-.229004-.172363-.446289-.350586-.797851-.43457-.302734.130371-.26709.3833-.587402.498046-1.034667.166992-1.693358-.154785-2.054197-.61621-.229004-.292968-.624023-.452148-.975097-.651367-1.612303.232422-3.222165.520996-4.8623.075195-.49414-.134277-.949706-.068848-1.445311.01709-1.055175.183105-2.101561.055664-3.130857-.105957-.299804-.046875-.53955-.234375-.832519-.224609-.716308.023926-1.604002.695312-2.082518.087891-.642089-.814452-2.117186-1.423827-1.93994-2.638669-.584472.659179-.556152,1.242186-1.092284,1.698729-.041504.037109-.104004.063965-.153808.095703.763183.367675,1.382811.662597,1.026366,1.22412-.116211.182617-.464355.314941-.733398.213867-.867187-.323242-.579101-.809081-.599121-1.30078-.674316.070312-1.278319.095215-1.818846.072754.705077.249511.916991.827148,1.220214,1.257811.196777.27832-.45166.524902-1.264159.53125-.062012-.557128-1.791502-.262207-1.619139-.892089.083008-.305176.176269-.86621.798339-.981444-1.327636-.220215-2.175779-.833007-2.658201-1.906248-.669433.504882-.996581,1.229979-2.339842,1.135741-1.12744-.078613-1.927244-.466796-2.404783-1.05371-.03125-.058594-.007324-.113281-.019531-.171387-.807616-.165527-1.708983-.195801-2.29199-.640136-.569335.430664-.203613.703613.202637.906249,1.319823.657226.277343,1.101561-.599121,1.211913-1.218749.154297-2.138182.522949-3.166989.836913-.971679.296875-2.005858.596679-3.171384.236816-.486816-.149902-1.344237.052246-1.195311.133301.910644.49414.679199,1.353514,1.895994,1.728514.194336.060059.355957.133789.530273.20166-.671874.026367-1.33496.035644-2.0166.07959-.623046.040039-1.239745.113281-1.86035.166015-.308593-.218262-.387695-.487793.248535-.828124.106445-.057617-.024414-.254394-.044434-.387207-1.865233.104004-1.953123-1.16455-3.392575-1.431151-.45166.61914.273437.939941.853515,1.301268.272949.169433.867187.509277.546874.568359-1.178222.218262-1.270995.617675-1.202636,1.043456-.987792.103027-1.975096.200195-2.961423.307617-.239746-.027344-.492187-.039551-.761718-.030762-.641601.021973-1.180663-.086914-1.633299-.287597-.419433.765624-1.721678.659179-2.735837.837402-.415039.038086-.831542.065918-1.247557.098144-.116211-.026367-.24414-.03418-.330566-.101562-1.286132-.990233-2.975583-1.106444-4.919917-.793456-.685058.11084-1.361327.100098-1.75244-.333496.889159-1.432128-1.354979-2.066404-2.474607-3.034177-.128906.222656-.014648.469726-.305664.640136-.944823.370605-1.882322-.021973-2.382322-.26416-1.149413-.555664-2.421873-1.079101-3.273435-1.795409.054687.339843-.305664.610839-1.217284.818359-1.325682.301758-2.151853.223633-2.818357-.600585-1.038085-1.282714-10.386221-.658203-9.550773-1.956541.118652-.18457.191406-.330566-.037598-.475586-.305176-.192383-.67871-.150879-1.013671-.033691-.987792.344726-1.843748.183105-2.667966-.129883-.129394.393066-.762695.421386-1.394042.340332-1.943846-.250488-3.855465-.555664-5.871088-.193847-.580566.104004-1.084472-.099121-1.466307-.35791-1.180175-.801757-2.465818-1.466796-4.472652-1.565917-1.029784-.050781-1.338866-.806152-2.310545-1.009276-.94287,1.504881-1.925779,1.646483-4.129391.613281-.819823-.383789-1.631346-.691406-2.571287-.083008-.425781.27539-1.026366.213379-1.282714-.046387-.677734-.687988-1.646971-.453125-2.604002-.345215-.178711-.013672-.344238-.049805-.495605-.104492-2.031736-.676757-2.883298-1.947752-4.41357-2.865232-.509277,1.2041-2.615232,1.396483-3.875485,2.084959-.289062-.007812-.511718-.084961-.690429-.208496-1.081542-.861327-3.000486-1.145995-4.208004-1.928709-.161621-.10498-.640136-.091797-.900878-.024414-2.223142.575683-4.523433.197754-6.781244.164551-1.223632-.018066-2.270017.245117-3.395016.387207-1.791502-.286133-3.475094.053223-5.121577.351074-1.471678.266601-3.810543.271972-4.582515-.130859-1.859862-.970702-4.315914-.833984-6.430658-1.298827-.172851-.038574-.398437-.036133-.537597.02832-1.845213.845702-3.890133,1.018554-6.128901.60498-.152344-.027832-.362793.030762-.550781.03418-.123047-.007324-.229492-.039551-.346191-.057129.005371.003906.014648.004395.019531.009277.439453.460449,1.030272.907226-.291504,1.153319-.825683.153808-.786132.59082-1.200194.871581-.60205.407714-1.137694.913573-2.106443.230957-.049805-.034668-.103516-.034668-.138672.016602-.447265.662109-1.453612.354492-2.246092.418457-.174316.001953-.347656-.006348-.519042-.023926-.74414-.095703-.954101-.49121-1.359374-.790527-.579101.225586-.647949.807616-1.632811.706054-.419921-.080566-.793945-.209961-1.164061-.342773-.347168-.022949-.695312-.044922-1.042968-.067383-.380859-.444336-1.387694-.221679-1.872069-.554687-.235351-.10791-.501953-.196777-.700683-.324218-.164062-.064453-.347168-.085937-.551757-.060547-.549316.097656-1.030272.330078-1.660643.244629-.19043-.040039-.338867-.106445-.454589-.199707-.228027-.250976-.193847-.454101-.051758-.637695-.459472.159668-.976073.166992-1.489745.183105-.724609-.013184-1.36621-.254394-2.145994.192383-.53955.310058-1.69287.341797-2.642087.308105-.418457-.015137-1.053222-.042969-1.183104.183594-.654296,1.140136-2.306639.743163-3.548337.68164-1.546385-.07666-3.265134.129394-4.602535-.555175-.377929-.796874-.938476-1.425292-2.761228-1.306151-.759765.049805-1.078612-.231445-1.307616-.55371-.13623.062012-.257324.13623-.430664.167969-.557617.062988-1.08203.25-1.685545.144531-.27539-.045898-.516113-.126465-.729003-.233398-.223633-.107422-.399414-.23291-.555664-.364746-.67041-.099121-1.265624-.245117-1.055663-.92871.126465-.413086-.911132-.525878-1.473631-.668945-.60791-.155273-2.537595.729003-3.744137.546874-.48291-.072754-.814941.071777-1.198729.198242-1.914549.627441-3.666989.186523-4.433101.410644-.248047.000488-.502929-.006348-.748046-.003418-1.96826.020508-3.916012.208984-5.811518.518554-.303711-.12793-.617187-.250488-.999023-.33789-.594238-.06543-1.17285-.15039-1.623534-.399414-.211914-.161133-.217285-.208496-1.196776-.151855-1.216307.071289-1.106444-.132812-1.000487-.579589.071289-.299804-.236328-.457519-.729003-.505859-.470214-.046387-.926757.021973-1.108397.273926-.351562.484375-.66455.980468-.904784,1.48535-.348632.72998-2.671873.792968-2.716306,1.768065-.01416.308105-.143555.581542-.770019.589843-.60791.007324-1.209472-.023926-1.422362-.47998-.24707-.52539-.231933-1.095702-.788573-1.571776-.427734-.041016-.676269-.183105-.751464-.422851-.802245-.156738-1.374022-.47705-1.876951-.845702-.625488-.162598-1.250975-.325683-1.877928-.001465-.352539.523437,1.552733.056152,1.074218.950194-.623535,1.165526-1.858397.662109-2.94531.742187-.221191.155762-.423828.402832-.851073.246582-.407714-.149414-.23584-.4375-.282715-.668945-.679687.67871-1.898436.812499-3.058591,1.005858-.003418.021484.008789.040039.003906.061523-.003418.012695-.095703.028809-.143555.026367-.05957-.002441-.116211-.022949-.173828-.036133-1.06787.895019-1.211425.889648-2.106443-.080078-1.731444.673828-3.896969.720702-4.082028,1.094237-.648437-.238281-2.041502.079101-2.13574.09082-1.192382.15332-1.469725.386718-.696288.719238,2.147459.923339.191894,1.02246-.733398,1.347655-.084473-.011719-.17041-.023437-.254883-.034668-1.462889-.445312-.712402-1.369139-1.260741-2.051268-.843261.351074-.256836.673828-.148437.975097.368164,1.028319-.394531,1.47412-2.162107,1.124999-.943359-.185547-1.430663.402343-2.24951.24414-.883788-.097656-1.356444-.400879-1.427733-.904296-.435058-.201172.040039-.753417-.673828-.751464-.9458.002441-.560058.484863-.623535.80371-.04834.240722-.200195.499023-.775878.479003-.313476-.010254-.749023-.120117-.66748-.286133.551757-1.129393-1.237304-.769531-1.758787-1.015624-1.085937.064941.697265,1.054198-1.151854.785644-.118652-.004883-.237793-.005371-.356933-.001953-.686523.253418-.456054.808105-1.110351,1.072753-.007324.062012-.019043.123535-.035156.185058-.563964.09375-1.074706-.068848-1.565428-.155762-.719238-.127441-.831542.134766-1.041015.376953h-.00293c-.29248.209472-.843261.20166-1.124999.420898l-.006348.002441c-2.588377.133789-5.140132-.046387-7.689934-.277832-.027344-.011719-.055176-.021973-.083008-.033691-1.271483.590331-2.36865,1.372557-4.369625,1.130858-.662109-.07959-.573242.256347-.636718.481933-2.438474.347168-4.574703-.357422-6.813959-.659179-.714843-.096191-1.390624-.256836-2.144529-.228027-.385742-.300293-1.385741.172363-1.561522-.392578-.837402-.412597-2.603025-.254883-2.45117-1.22705.067871.930663-.102539,1.010253-1.603026.866698-.613281-.059082-1.230956-.380859-1.887205-.054199-.493652-.835937-1.172362-1.589842-2.854001-1.965819-.161621.486816.781738.582519.958495.91455.121582.226562.500976.486328.038086.658203-.548828.20459-.696288-.124023-.904784-.326172-.182129-.175781-.395019-.4375-.783202-.325683-.210449.060547-.196777.367675-.283691.563476-1.373534-.401855-.728027-1.076171-.711913-1.665526-1.333983.38916-2.216795-.340332-3.361325-.439453-.523437-.045898-.937499-.490234-1.480467.06543-.322754.331543-.761718.044922-1.178222-.140137-.777831-.346679-1.684569-.47998-2.612791-.120605-.002441.140625-.003418.280761-.005859.420898-.808105-.228027-1.129393-.04248-1.124511.419433h-.001953c-.442871.099121-.732421-.039062-.911132-.229492-.811034-.865722-2.656248-1.002929-3.542477-.630859-.614257.258789-1.244628.013672-1.829588-.214844.039551.350097-.091797.667968-.841796.869628-.249511,0-.498535,0-.747558.000488-.84082-.007324.160156-.672363-1.081054-.793945-1.340819-.131836-2.457517-.944823-1.358397.599121.334961.469726-.459961.833984-1.490721.72705-.398925-.041504-.685058-.270996-1.203612-.137695-1.584471.40625-1.714842.373047-2.714353-.470703-.621581.499511-.199219,1.321288-1.53662,1.55371-1.509276-.075684-2.183103-.803222-3.043943-1.369628-.666015.379394.355468.428222.125.711425-1.858397.341308-2.781247-.540039-3.989742-1.09619-.813476.479492.478027,1.054687-.375488,1.484374-.652831.024902-.877929-.663085-1.727049-.365234-.756835.463867-1.556151.876464-.148926,1.469237.760741.319824.108887,1.058593-1.307128,1.382811,1.925291.259277,2.088865.734374.706054,1.374999-.249023-.069336-.498046-.138183-.74707-.207519-.947265.295898-1.259764,1.094237-2.631345,1.055663-.121582.001465-.243652.001953-.365722.001953-.220215.223144-.288574.504394-.763183.630371-.55957.850585-1.812498.371093-1.869139.070312-.108398-.567382-.796874-.734863-1.287108-1.05371-.985839.858886-3.628903,1.030761-3.218259,2.465818-.093262.446777-.516601.634277-1.312987.529296-.067871-.033691-.13623-.067383-.20459-.101562-.597167-.542968-.968749-.145996-1.402342.099609-.694824.392578-1.262694.509765-1.472167-.218262-.202148-.698242-1.322264-.978026-2.130857-1.392089-.530761-.271484-.973632-.102051-1.475585.113281-.528808.227539-.78955.784179-1.77783.54541-.027832-.030762-.04834-.086914-.083496-.090332-1.262206-.113281,1.05371-1.03369-.707519-1.007323-.812499.011719-1.682127-.142578-2.419431.290039q-.049805-.782226-1.598631-1.182128c-.526367.225586-.068359.577636-.338867.857421-.320312.331543-.34082.734863-1.320311.35791-.693359-.266113-1.307128.134277-1.93994.42041-.01416-.560546.852538-.72705.920409-1.126952-.250488-.141113-.502441-.282226-.753906-.423339-.274414-.144531-.554199-.242676-.973632-.255371-2.719724-.07959-7.061517-.601074-8.776847-.353027-1.003417.144531.529785.92578-.758788,1.032226h-.001953c-.503418-.142578-.776855.094238-1.120116.21582-.002441.067871-.006348.13623-.010742.20459.503418.486816.06543.816894-.640624,1.044433-.616699.199219-1.078124-.124023-1.112304-.350097-.060547-.405761-1.806151-.608398-.436523-1.167968.710449-.291015.647949-.814941.836425-1.217284.133789-.286621-.930175-.189453-1.391112-.438964-.374511-.202637-1.079589-.02002-1.004394.441406-.671874-.370605-1.267577-.64746-1.990233.019531-.449707.415039-1.132811.777831-2.178221.469238-.322265-.095215-.656249-.074219-.675781.166015-.069336.861816-1.673827,1.070312-2.270017,1.717284-.291504.314453-3.125974-.029297-3.581051-.472168-.343261-.333496-.628417-.446777-1.338866-.529785-.719726-.083496-1.831053-.424804-.99414-1.091308.642578-.512695-.465332-.730956-.48291-1.121581-.735351-.162109-1.028808-.705077-2.341306-.348144-1.418944.385254-4.298336.351074-4.000485.908202.106933.20166-.689941.32666-.986327.076172-.455078-.382324-1.17871-.496093-1.790526-.72998-.242676.830077-2.295896,1.234862-3.646481.72705-1.460448-.503418-3.315427-.446777-4.705562-1.029296.001465.02002.017578.044434.017578.058594.273926.36914.29248.724609-.428222.879394-.72705.155762-1.545897.287109-2.104979-.207519.114258-.118164-.073242.047363.053223-.074707-.042969-.008789-.041992.019531-.080078.031738-1.686522.419433-3.302243.243164-4.418941-.486328-.992187-.647949-2.183103-.845214-3.450192-.799804-2.157225.076172-4.015621-.418457-5.878901-.839355-.828124-.187012-2.49658.091797-3.64404.255859-.72412.094726-1.017089-.680175-1.887205-.289551-.487793.268066-1.348632.133789-1.725584.526855-.36914.384277-.886718.708495-1.739256.577636-.940429-.144043-1.291014-.588867-1.396971-1.099608-.015137-.077637-.014648-.15625-.021973-.234863-1.281737.334472-5.036616,1.358885-6.125971,2.324217-.848144.750488-1.129882.470703-1.735838.159668-.384277-.197265-.478027-.603027-1.233397-.46582-.677245.123047-.60791.414062-.628417.75537-.035156.603027-.22998.602539-1.795409-.014648-.662597.424804-.604003.941894-.609374,1.449217-.713867-.001953-1.371581-.100098-1.83203-.427734-.504882-.358886-1.191893-.366699-1.60742-.078613-.996581.690917-1.456542.157715-1.54492-.252929-.197754-.933593-1.271483-1.094237-2.72949-1.182128.016602.673828,1.145507,1.291991.106933,2.124998-.571289-1.177245-2.542966-1.485838-3.60986-2.304197-.276855-.211914-.398437-.586425-1.025878-.526855-.857421.080566-.040527.575683-.510742.782226-.549804-.116699-.252929-.450195-.515625-.627441-.491699-.331054-1.278319-.227051-1.276366.075684.007812,1.435546-1.295897.76123-2.358885.523437-.21582.112793-.456054.140137-.726074.066406-1.091796-.43164-2.182615-.868163-3.20654-1.34912-.312988-.146973-.499511-.248535-.936523-.151367-1.307616.289551-2.248533-.091797-3.104489-.579589-.120117-.005371-.239258-.01416-.36084-.004395-.322265.048828-.61621.200195-.975097.086914-.063965-.030762-.097168-.070312-.098144-.117676-1.031249-.517578-3.993649-1.054687-5.778315-1.616698-.315429-.099609-.627929.014648-.950194.105957.129394.033691.240722.085449.322754.167969-.386718.115723-.773925.230957-1.160643.346191-.960937-.104004-1.922362-.208496-2.88281-.3125-.721679.190918-1.384276.620605-2.26074.175293-.40625-.269531-.976562-.1875-1.492674-.221679-.200195-.094726-.388183-.191894-.470214-.315918-.872558.080566-1.600584-.104004-2.266111-.400879-.069336.051269-.155273.096191-.217773.149902-.041016.044434-.09082.085449-.151367.12207-.615234-.185547-1.217772-.200683-1.80078.042969-.179199-.432129-.470214-.053223-.711913-.030762v.003906c-1.057128-.443359-2.262205.13916-3.340329-.151855-.862792.185547-1.611327.657714-2.676755.339843-.370117-.123535-.591308-.270508-.603515-.450683-1.262694.150879-2.471677-.001953-3.744137-.110351-2.398435-.205078-4.848628-.131348-7.254876.141601.159668.074707.293945.162109.345703.293945.055664.167969.011719.327636-.122558.47998-.61621.469726-1.434081.517578-2.308592.299804-1.59326-.395996-3.150388-.317871-4.551754.202148-.71289.26416-1.451659.356933-2.222166.461914-.175781.010742-.353027.003906-.52539-.018555-.524902-.111816-.995116-.317383-1.601073-.305664-.390625-.007324-.791015.002441-1.111327-.108887-.082031.017578-.164551.039551-.246582.053711-1.415038.226074-2.771482.319824-4.148434.868163-1.148436.457031-3.289059.582031-5.228999.284668.178711.40332.833007.757812.314453,1.160643-.107422.082031-.244629.143555-.411132.183105-.239746.001953-.47998.004395-.719238.006348-1.51953-.11084-2.634763.504394-3.985836.702148-.675292.019043-1.352538.032715-2.028318.053711-.135254-.034668-.270996-.060059-.401367-.139648-.01123-.210937.274414-.421386.003906-.6333-1.075683-.700195.254883-1.405272.004395-2.112791-.061523.021484-.130371.03125-.147461.054199-.346679.446777-.046875,1.147948-1.309081,1.239745-.846191.061035-2.186033-.770507-2.577634-1.453124-.105957.128906-.255859.239258-.445312.313476-.944335.369629-1.311034.855468-1.255858,1.477049-.818359.273926-1.620604.200683-2.413084-.036621-1.154296-.333008-2.332517.005859-3.497067-.037109-.938964.065918-1.615721.429687-2.404783.668456.212402.132812.294433.290527-.157226.294922-1.432616.015137-2.579587.526855-3.931149.602539-1.775389.099121-2.562986-.493164-1.983885-1.428221-.394043-.450195-1.326171.377441-1.65869-.21582-.207519-.118652-.307617-.35791-.750976-.211426-.125488.071777-.251953.143066-.377441.214844-.905761.250488-1.568846.163086-1.874022-.425781-.500488-.555175-1.357421-.690429-2.344236-.572753-1.054198.125488-1.98242.098144-2.534666-.501953-.233887-.253906-.55957-.228515-.937011-.204101-.854491.055176-.311035.335937-.276367.535156.040527.237793-.12793.499023-.530761.469238-1.734862-.12793-3.274899.659179-5.090816.272461-.790038-.168457-1.62744.067383-2.201658.46875-1.182128.826659-1.72412.74414-2.868161-.134277-.447753-.343261-1.52246-.344726-2.360349-.119629-.499023-.141601-.997558-.283691-1.496581-.425293.131348-.367187.998046-.209961,1.216307-.533691-.200683-.240234-.514648-.288086-.850585-.297363-.09668.09082-.195312.180664-.338379.266113-.149902.112305-.199219.252441-.324218.368652-.320312.297363-.214844.906249-1.081542.810546-.621093-.068848-.687988-.308593-.635742-.57373-.220703.076172-.471191.115234-.696288.186035-2.108397.617187-4.232906.488281-5.728022-.412109-.939452-.565917-1.438475-.111328-1.907713.220703-1.632323,1.155761-2.183103,1.163573-3.826168-.04541-.419433-.309082-1.208007-.392089-1.458983-.791503-.177246.272461-.454101.515136-.870116.678222-1.396483.548339-2.547361,1.227538-3.562497,1.994139-.895995.676269-2.162596.571777-3.426755.45166-1.141112-.10791-2.160154-.284668-2.995114.541503-.558593.553222-1.921385.787597-3.090329.197754-.810546-.719238-1.791991-1.151854-3.387692-.710449-.83496.231445-1.482909.084473-1.734862-.426269-.55957-1.128905-2.402342-1.414549-3.918942-1.901854-.408691-.131348-.967284-.12793-1.375975-.296875-.416504-.171387-.77246-.391113-.599609-.705077.149902-.272461.605468-.312988,1.062499-.321777.864257-.018066,1.728514-.090332,2.690916-.07959-2.387205-.084473-4.75146-.168945-5.689936-1.650877-.363769.571289-.999023,1.066405-1.482421,1.603514-.648925.719238-1.966795.922851-3.354977.894042-1.115233-.023437-1.991697-.006348-2.324705.821288-.317871.790527-1.415526.758788-2.484373.348144-.180176.050293-.359863.100586-.540039.151855.033203.043945.077637.084473.083008.138183-.624511.933593-1.526854,1.185058-3.278806.969237l.000488-22.209452h-.000488V0h799.999756v49.999466h0v23.041483Z"/></g></svg>