<svg xmlns="http://www.w3.org/2000/svg" fill="none" viewBox="0 0 800 86"><path fill="#fff" d="M799.725 70.126c-.59 1.2-1.23 2.4-1.42 3.66a.56.56 0 0 1-.22.3c-1.36.88-1.78 1.93-1.77 3.07-.22.83-.83 1.6-1.21 2.41-.68.38-.81.85-.76 1.36-.05.1-.11.19-.21.28-.51.73-1.56.93-2.79.86-.86-.05-1.68.03-2.51.09-.67-.04-1.03-.35-1.52-.56-1.69-.71-3.44-1.43-5.7-.96-1.23.26-2.04.07-2.99-.38-1.72-.81-3.71-1.24-5.97-.84-.93.17-1.68.08-2.35-.31-.59-.58-1.59-.44-2.49-.46-.37-.02-.64-.15-.92-.27-1.93-.77-3.97-1.21-6.33-.68-2.16.21-4.33.22-6.5.04-1.43-.62-3.21-.14-4.87-.6-1.68-.46-3.82-.43-5.4-1.2-.72-.04-1.38.24-2.15.04-1.86-.49-2.59-.39-4.12.46-.12.07-.26.13-.43.17-2.33.2-4.59 1.37-7.01.13-.08-.04-.24-.04-.36-.04-1.36.09-2.54-.04-3.4-.74-.37-.3-1.07-.2-1.48-.07-.94.29-1.82.19-2.65-.04-.89-.24-1.53-.11-2.14.25-.33.16-.6.37-1.08.41-1.77-.06-3.28.43-4.88.75-.17-.02-.34-.05-.48-.11-.62-.23-1.41-.26-1.99-.53-1.39-.64-2.87-.67-4.44-.27-.73.24-1.48.21-2.31.16-1.81-.1-3.66-.52-5.44 0-1.05.3-1.69.12-2.62-.22-1.33-.49-2.9-.78-4.5-.23-.26.04-.53.07-.81.04-.8-.23-1.45-.62-2.36-.73-.64-.38-1.6-.59-2.03-1.05-.93-.98-2.38-1.46-4.19-1.69-1.01.08-2.01.23-3.04.25-.76-.21-1.41-.52-2.16-.74-1.08-.49-1.8-1.22-3.21-1.48-1.63-.3-3.36-.32-5.03-.53h-39.85c-2.47.34-4.71 1.08-6.67 2.3-1.48.92-3.25 1.76-5.81 1.27-.56-.11-1.06.04-1.59.16-2.15.48-4.21 1.08-6.29 1.64-.99-.11-1.96-.11-2.87.19-1.93.64-4.24.27-6.24.74-.09.02-.23-.04-.34-.08-.59-.19-1.16-.42-1.87-.42-1.53 0-2.63-.53-3.72-1.01-1.33-.58-2.95-.84-4.38-.68-2.06.24-3.76-.13-5.54-.5-.51-.11-1-.4-1.54-.26-1.28.34-2.52.2-3.79.02-.69-.1-1.31.03-1.92.26-1.26.46-2.55.88-3.99.16-.33-.17-.82-.11-1.25-.15-1.9-.18-3.41.4-5.02.8-.16.04-.33.06-.51.05-1.62-.17-.71.7-1.23.98-.21.26-.61.38-1.04.49-1.61.33-3.34.26-4.98.5-1.14.21-1.96-.17-2.79-.51-.93-.37-1.62.42-2.59.15-2.53-.7-4.17.42-6.07 1.01-.19.11-.4.2-.65.26-.98.25-2.32-.13-3.06.55-.66.94-2.32 1.33-3.67 1.37-2.02.06-3.24.7-4.62 1.3-1.08.48-2.17.55-3.57.5-2.62-.1-4.59-.85-6.61-1.62-1.4-.38-3.04-.53-4.01-1.34-.21-.17-.51-.42-.82-.4-2.28.12-2.7-.99-3.27-1.76-.67-.91-1.31-.9-2.6-.49-1.06.34-2.38.69-3.5.31-1.71-.57-3.16-.43-4.63.16-.6.24-1.16.22-1.7-.01-1.19-.52-2.23-.24-2.83.33-1.01.95-2.19 1.04-3.88.67-1.15-.25-2.05-.56-2.61-1.21-.55-.64-1.29-1-2.61-.44-.67.29-1.58.39-2.46.18-1.46-.84-2.73-1.8-4.95-2.08-1.16-.15-1.51-.87-2.23-1.34-.91-.59-.26-1.12.09-1.68-.55.81-1.51 1.51-1.21 2.47.2.64-.61.91-1.63.77-1.21-.16-2.2-.42-2.66-1.25-.68-1.24-1.22-1.31-3.49-1.37-1.65-.04-2.8.45-3.97.96-1.05.46-2.27.53-2.92-.09-1.01-.96-1.94-.91-3.2-.25-.4.21-.9.23-1.37.05-.51-.19-.69-.49-.63-.83.05-.3.39-.56.42-.86h-5.45c.21.65-.3 1.11-1.14 1.5-.91.14-1.8.79-2.71.37-1.69-.77-3.53-.6-5.41-.57-.85.02-1.75 0-2.56-.12-2.22-.35-4.35-.15-6.47.23-1.3-.27-2.3.43-3.5.37-1.46-.08-2.47.27-3.33.87-.45.11-.92.1-1.39.08-1.59-.41-3.22-.57-4.92-.25-1.47-.28-2.59-1.11-4.51-.64-2.12.51-4.25.17-6.25-.4-1.85-.74-3.97-.74-6.09-.75-.34-.02-.68.01-1.02.04-3.48-.18-6.95-.6-10.47-.26-1.07 0-2.02-.21-2.93-.45h-90.81c-.27.1-.58.16-.92.19-2.35.2-4.7.45-7.08.39-1.59-.04-2.74.3-3.55 1.06-.5.46-1.1.85-2.15.89-1.81.08-3.69.41-5.12-.61-.3-.21-.89-.22-1.39-.24a8.313 8.313 0 0 1-2.76-.56c-.54-.15-1.07-.34-1.67-.1-.25.05-.51.07-.78.05a8.63 8.63 0 0 1-1.92-.61c-.55-.26-1.21-.48-2.01-.39-.8.09-1.5.05-2.05-.1h-3.85c-.29.05-.65.07-1.1.06-.31 0-.6-.02-.89-.06h-4.79c-.13.04-.26.08-.39.13-2.29.83-5.1.82-7.61 1.31-.28.05-.62 0-.89-.09-.88-.27-1.63-.19-2.33.22-.3.17-.79.19-1.16.3-1.57.46-3.43.32-4.95.74-1.18.32-2.28.4-3.52.44-1.25.04-2.68-.12-3.7.24-1.69.6-3.49 1.21-4.33 2.35-.6.31-1.35.3-2.08.29-.88 0-1.74.08-2.41.41-2.69 1.33-5.96 1.68-9.35 1.82-1.17.14-1.83-.79-3.08-.48-.16.03-.31.07-.47.1-1.39.37-2.83.76-4.38.72-2.19-.06-3.3.54-3.85 1.65-.33.3-.7.61-1.39.61-2.56-.02-4.72.9-7.23 1-.84.03-1.72.02-2.51.26-2.17.72-4.9.57-6.99 1.46-.46.2-1.14.23-1.78.22-1.56-.02-2.87.35-3.99.93-.55.29-1.1.56-1.73.79-1.32.48-2.66.54-3.91-.05-.51-.24-1.05-.33-1.66-.4-3.04-.34-6.08.09-9.12 0-2.92-.59-6.48.18-8.96-1.37-.03-.02-.05-.03-.05-.04 0 0 0 .03-.12.02-1.12-.04-1.38-.41-1.42-.99-.07-1.08-.42-1.19-2.2-.67-1.03.3-1.95.43-2.79-.15-.61-.61-.82-1.39-2.5-1.45-2.01-.07-3.97-.65-6.05-.1-.65.17-1.45.09-2.16-.05-1.62-.31-2.87-.04-3.8.76-.16.05-.32.08-.5.09-.65.01-1.28-.07-1.65-.37-1.13-.93-2.22-.6-3.34 0-.89.47-1.84.55-3.04.33-1.19-.22-2.52-.45-3.74-.01-1.14.4-2.12.36-3.23-.08-1.24-.48-2.11-.34-2.88.4-.48.46-1.06.96-1.89 1.1-1.39.24-1.85.79-2.19 1.47-1.21.54-2.61.63-4.11.64-1.09.01-2.33-.03-3.25.33-2.12.84-4.23.75-6.3.07-1.04-.34-1.88-.36-2.81.03-.16.03-.32.07-.49.1-2.46.26-4.97-.1-7.36.07-2.47.17-3.78-.59-5.36-1.29-1.59-.71-3.3-.54-4.89-.08-1.93.55-2.32.51-3.88-.31-.96-.5-1.83-1.19-3.38-1.15-.89.02-1.68-.12-2.49-.3-1.07-.24-2.12-.43-3.25.09-.77.36-1.93.33-2.85.19-.92-.15-1.67-.03-2.49.09-.9-.11-1.63-.34-1.84-.91-.11-.28-.32-.53-.48-.8-.19-.32-.58-.54-1.1-.31-2.72 1.19-5.15-.29-7.73-.24-.81-1-2.55-.64-3.88-.85-2.49-.39-4.85-.3-6.83.78-1.61.48-3.36.38-5.09.42-.18 0-.35-.02-.52-.05-1.32-.54-2 .22-2.93.46-.16.04-.32.07-.5.07-.95-.05-1.89-.17-2.83-.25-1.42-.15-2.89-.17-4.21-.55-1.03-.18-2.03-.1-3.02.09-1.52.42-3.09.36-4.67.16-1-.23-2.01-.46-3.01-.68-1.7.04-3.14-.3-4.54-.85-1.21-.48-2.54-1.2-4.12-.71s-2.38.1-3.2-.54l-.47-1.92c-.31-.67.1-1.37-.23-2.04-.01-.08-.03-.15-.04-.23.05-1.12-.06-2.24-.17-3.36h-.12v-70h800v70h-.27v.01Z"/></svg>