<?xml version="1.0" encoding="UTF-8"?><svg id="b" xmlns="http://www.w3.org/2000/svg" viewBox="0 0 799.999756 85.907148"><defs><style>.d{fill:#fff;stroke-width:0px;}</style></defs><g id="c"><path class="d" d="m799.999268,46.047321l.000488-.003418h-.000488l.000488-46.043903H0v49.999954h.934081c.534667.256347,1.044921.558105,1.538573.856933,1.148925.695312,2.113279,1.594237,3.872555,1.216796.392089-.084473.958007.47705,1.495604.630371,3.556637,1.009765,5.559077,3.273923,7.872063,5.444819,2.716306,2.549802,5.759272,5.014644,10.154288,5.975092.748534.164062,1.325682.777343,2.015135,1.143065,1.557616.827636,3.082028.065918,4.641109-.025879,1.368651-.081055,2.890622.032227,4.144039.439453,3.003415.974608,5.749018.820312,8.682609-.237304,1.09619-.395507,2.658201-.032715,4.002926.039551.487793.026367.952148.250976,1.442381.3208,1.354491.193847,2.716794.353515,4.21484.544433-.384277-.328125-.794921-.679199-1.606444-1.373534.868163-.159668,1.804686-.521972,2.026365-.342773,1.462401,1.182616,2.43115.729492,3.360837-.412109.113769-.139648.427246-.180176.788085-.321777.265136.378418.512207.731445.882323,1.260253.488281-.461914.851562-.806152,1.214843-1.15039.063477.128418.126953.256347.190918.384277.772949-.202148,1.53076-.463867,2.32324-.592773,1.357421-.220703,2.736814-.358398,4.255855-.549316-.015137-.044434-.083984-.256836-.152832-.469726,1.931151-.143066,3.879391-.287597,5.827143-.43164l.106933.42041c.284668-.244629.687499-.451171.83496-.737792,1.193847-2.317869,4.096188-2.495603,6.557123-3.168942.500976-.137207,1.40576.149414,1.857908.470703,1.505858,1.067382,2.954587,1.944334,5.164058,1.170409,2.232908-.781738,3.693844-.098144,4.314937,1.756346,1.367186-1.101561,4.120113,1.400878,4.419918-1.632811,1.214843.70996,2.054686,1.201171,2.647459,1.54785,1.111327-.200195,2.420896-.154785,3.218747-.632324,2.364744-1.415526,3.444333-.07959,4.86523,1.018065.420898.325195,1.431151.186523,2.171873.253906.996093.090332,1.991209.18457,2.988767.257324.96289.069824,1.929197.114258,3.138669.183594-.012695-.024902.111328.221191.246094.487793.916015-.407714.812988-2.115232,2.611326-1.22412.881347.436523,1.700194.951171,2.892575,1.625487.227051-.989257.456543-1.989256.678222-2.958982-.554687-.115234-1.185546-.246582-2.130857-.443359,1.222167-.637695,2.03369-1.061034,3.116208-1.625975-.740234-.355957-1.271483-.46582-1.393553-.703613-.191406-.372558-.201172-1.190917-.125488-1.202636,2.45117-.395507,4.479-2.299314,7.389642-1.211425.659667.24707,1.688963-.035156,2.5249-.165039,1.928221-.299804,3.841305-.655761,5.844233-1.003417.356445-.397461.83203-1.015624,1.452147-1.525389.097168-.080078.853027.329101,1.46826.580078,1.369628-.77832,3.018552-.621581,4.472164.238769,3.185056,1.884764,4.308102,1.765623,6.363764-.868163.12207-.016602.326172-.073242.353027-.040527,1.273925,1.555663,2.269529.730956,3.710446-.009766,2.019529-1.037108,4.378902-1.668944,6.126459-2.304197,1.220702.308593,2.069822.509277,2.903806.742675.322265.089844.598632.276367.916991.376464.714355.224609,1.484374.657226,2.158201.585449,1.779784-.189941,3.366208-.238281,4.298824,1.157226,1.141112-.268554,2.19824-.517089,3.498044-.82373-.565429-.405273-.980468-.702148-1.5791-1.131347,1.563475-.395019,2.988767-.75537,4.698726-1.187499.507812.4375,1.203124,1.037108,1.817869,1.566893.713867-.310058,1.499022-.650878,2.649412-1.15039-.091797.797363-.135742,1.176268-.179199,1.555174.187988.117676.375488.235351.562988.353515.180176-.396484.360351-.792968.458984-1.010741.327148-.051758.407226-.085937.444824-.067383,2.869626,1.420897,5.815424-1.127929,8.742179.100586.520019.21875,1.403807-.093262,2.188475-.166992.106933.257812.288086.693847.624999,1.503417.340332-.615234.481933-.871093.733398-1.324706.790527.553222,1.51953,1.063476,2.404783,1.681639.284179-.312988.610351-.672363.946288-1.041991.868163.609374,1.729491,1.21289,2.644529,1.854002,1.896971-.602539,3.07031.037109,5.182612,2.961911.585937-.104492,1.188964-.212402,1.447753-.258301.847655.425293,1.448729.726562,2.049803,1.027831.630371-.977538,1.261229-1.955565,2.015135-3.124021.265136.537597.592285,1.203612,1.05078,2.134275.390625.165039,1.210448.51123,2.107908.890136.425293-2.0791,2.463377-3.140134,4.832515-3.229001,1.839354-.068848,4.334469-.210937,5.229487,1.869627.425781-.301269.888183-.627441,1.291503-.913085.650878.542968,1.277343,1.065917,1.783201,1.487792,1.435546-.12207,2.689939-.229004,3.935055-.335449.781738.285156,1.646483.600097,2.657712.968749-.03125-.289062-.065918-.606445-.118652-1.093749,2.19824.668945,4.696285.011719,6.684076,1.26953.787109-.233398,1.778319-.526855,2.436033-.721191,2.022947,1.504881,3.847653,2.861326,5.741694,4.269039.044434-1.104491.12207-1.889158,1.868651-.933105.450195.246094,1.708006-.487304,2.628416-.659179.480468-.089844,1.34326-.084961,1.508299.126953,1.6416,2.105955,4.446285,2.4624,7.117181,3.048825.685058.149902,1.344237.373535,2.019529.55371.582031.15625,1.232421.505371,1.743651.410644,1.710448-.316894,3.301755-.590331,4.940913.278808.771484.409179,1.79492.615234,2.738767.71582,1.578612.167969,3.201657.086914,4.77441.275879,2.021483.243164,3.672848-1.266112,5.883784-.542968.8208.268554,2.224119-.299316,3.212399-.707031.493652-.203613.651367-.904784.885253-1.264159.666503.149414,1.33496.376953,2.02783.439453,2.014647.18164,4.064938.18457,6.052729.467285,2.515623.358398,4.437008-.819335,6.839837-1.009765,1.850584,1.020507,3.942379,2.302244,6.210444,3.351559.738769.341308,2.179686.371582,2.873044.023437,1.331542-.666992,1.447753.101074,1.897459.667968.934569-.913085,1.768065-1.032226,2.897458-.094238.79248.658691,1.892576,1.227538,2.989255,1.477538.714355.163086,1.695311-.265625,2.50781-.523437.902831-.286133,1.945799-1.124511,2.587888-.951659,3.056638.822753,6.754877-.128418,9.299308,2.020994.599121.506347,1.037597.62207,1.626952-.036133.235351-.263183.819335-.334961,1.70117-.664062.854491-1.508299,3.455075-.973632,5.356929-1.354003,1.630858-.32666,2.864743-1.062987,3.847164-1.760252,1.930174-1.368163,4.047848-2.213865,6.479975-2.650876,1.152831-.207031,2.309568-.901855,3.635251-.020996.427734.284179,1.528807-.051269,2.320799-.103027.038574.137695.07666.274902.115723.412109.252441-.288086.505371-.57666.636718-.726562,1.179686.389648,2.210447.716796,3.22363,1.072265.304199.106933.787597.278808.805663.446777.112305,1.020019.854491,1.159667,1.957029,1.051757,1.042968-.102539,1.988279-.164551,2.13574-1.242186.036621-.264648.524414-.552246.888671-.71582.719726-.322754,1.498046-.565429,2.331053-.871093,1.323729.666992,3.520993.601562,5.110835-.47705.810058-.550292,1.308104-.365722,2.136229-.199707,1.187499.237304,2.463865.200195,3.701168.289062.284668.020508.567382.069824.847167.118652.80957.142578,1.616698.291992,2.424314.438476.049805-.116699.099609-.233398.148926-.350586.237793.425293.476074.851073.839843,1.500975.366699-.623046.609374-1.03662.836425-1.422362,1.252929-.006348,2.424314-.035644,3.59277-.005371.402343.009766.932616.069336,1.17578.272949,1.773436,1.48535,3.931149,1.860838,6.071772,1.123534.46582.694335.80957,1.448241,1.435546,2.010252.222656.200195,1.128417-.06543,1.722655-.118164-.013672-.123047-.026855-.246582-.040039-.370117-.376464-.052734-.753417-.105957-1.270507-.178711,1.017577-.864257,1.889158-1.174804,3.345212-.657226.836425.296875,1.865721,1.11914,3.092282.30664.230469-.152344,1.041503.232422,1.731932.40625.225586-.366211.514648-.835937.80957-1.31494,1.299803-.006348,2.606443-.013184,4.137692-.020996-.381347.46582-.710937.868652-1.004882,1.228515.871093.754394,1.552733,1.79492,2.599607,2.122068,1.039062.325683,2.494138.075684,3.680661-.172851,2.263182-.474609,4.471187-1.112792,6.684076-1.722166.320312-.088379.540527-.396972.75537-.226562.980956.038574,1.972166.021973,2.940427.131348.921874.104492,1.979002.164062,2.690916.559082,1.083495.601074,1.920408,1.475096,3.11572,2.437009,1.28955-.868652,2.412107-1.624999,3.990231-2.688474,2.1499-.270996,4.564449,2.163084,7.735833,1.739256,1.217284.215332,2.433592.595703,3.653317.602539,1.325194.006836,2.814451-.72412,3.945309-.437988,2.147947.543457,4.802242-.151367,6.483393,1.560057,1.062987,1.082519,1.965819,1.448729,3.577145.211914,1.212401-.93164,3.042966-1.649413,5.088374-1.118651.395019.102539.927245-.176758,1.400878-.191894,1.166015-.036621,2.334471-.021973,3.730954-.029297-1.229491,2.103025-1.033202,2.518552,1.107421,3.510739.472656.219238.851562.562499,1.319335.790527.496093.242187,1.047851.415039,1.575682.618652.223144-.408691.443359-.81787.670898-1.224608.117187-.208984.248047-.413574.512207-.851562.601562,1.054198,2.255369,1.717772-.037109,2.939939,2.542966-.503906,5.565425,1.209472,6.451654-2.173338.740234.394531,1.344725.717284,1.706541.910155.686035-.731445,1.432616-1.527831,2.179686-2.324217.045898.15918.091309.317383.137207.476562,2.221678-.090332,4.442867-.220703,6.665033-.24414.630859-.006836,1.262206.423828,1.900877.436035,1.774412.032715,3.559567-.140625,5.326167-.055176,1.317382.063965,2.610837.413574,3.919918.61621.541992.083496,1.216307.300293,1.625975.138672,2.619627-1.031737,4.776851-.035156,6.95849.869628.354004.146973.63916.432129.882323.694824.33789.365234.54248,1.047362.916991,1.100097.822265.115723,2.260252.148926,2.489256-.186035,1.313475-1.918455,3.230466-1.129393,5.03857-.890136.302246.040527.570312.248535.846191.388183.032715.016602,0,.130859.023437.13623,2.045897.516113,3.334958,1.690428,4.415035,3.061032.069824.088867.536132.113281.55371.080566.722167-1.336425,1.276366.408691,1.970701-.151855.005371.666015.009277,1.123046.016113,1.962889,1.058593-.570312,1.802244-.969726,2.648923-1.42578.087891.416992.159668.757812.26709,1.26953.977538-.519531,1.4541-1.956053,2.893064-.813476.021973.017578.447753-.208984.596679-.371093.210937-.229492.339843-.504882.503418-.760741.383789.254883.848144.46289,1.136718.77246.743163.795898,1.40869,1.636717,1.808592,2.11035,1.313964-.409179,2.119627-.724609,2.971189-.906249.84082-.177734,1.786131-1.416014,1.256835-2.088865,1.376464-.234375,2.673826-.530273,3.99609-.634765.389648-.030762.827636.506835,1.284667.732421.311035.15332.685058.270996,1.048339.312011.844726.096191,1.700682.136719,2.790525.218262.167969-.146973.514648-.44873.965331-.840331.489746.793456-1.324218,2.379392,1.318358,2.114744.072754,2.020506,1.367186,2.663083,4.085934,2.008787.914062-.220703,1.840819-.435546,2.70654-.74707,2.604978-.937499,5.166011-.338867,7.778801-.025391,1.3833.166015,2.837888-.005859,4.258297-.061523.966796-.038086,1.929686-.136719,3.207517-.231445q.255371-.311523,1.030272.119141c1.05664.586914,1.890135.213867,2.41992-.67871.555175-.934569,1.532713-1.715819,2.363767-2.604002.620117.166504,1.196776.321289,1.773436.476562l-.296386.1875c.317383.409668.543945,1.076659.972167,1.167479.60498.129883,1.357909-.166015,2.065428-.282226.353515-.416992.902831-1.36621,1.160155-1.320311,1.597655.286133,3.157224.746093,4.666011,1.260741.478027.164062.761718.674804,1.279784,1.163085-.007324-.867187-.012695-1.499999-.015625-1.839354,1.267577-.33789,2.250975-.580078,3.213864-.86328.685058-.201172,1.546385-1.113769,1.696288.355468.011719.114746.782714.289062,1.173339.253418,1.295897-.117676,2.579587-.318359,3.793942-.478027-.186035-.33789-.578613-1.049804-.970702-1.761229l.456543-.166015c.133301.206054.266601.412109.413086.637206,1.226073-1.05078,2.446775-2.096189,3.460446-2.965329,1.397948.245605,2.648923.465332,4.147945.728515-.045898-.589355-.044434-.907226-.099121-1.219725-.166992-.949218.146973-1.423827,1.570799-1.421874.784179.000977,1.561034-.502441,2.355955-.749999,1.029296-.321777,2.080076-.602539,3.106442-.929687.29834-.095215.546386-.287597.812499-.440918.941405-.54248,1.81494-1.40576,3.075192-.384765.085449.069336.226562.210449.245605.200683,2.594236-1.302245,3.642575,1.08496,5.538081,1.47412-.149414.102539-.337402.231933-.525878.361328.035156.087891.070801.175781.105957.263672,1.42578-.313965,2.852048-.627441,4.289059-.943359.233887.284668.572265.870116.714843.842773,1.708495-.332519,2.89697.285644,4.188473,1.03955.421386.246094,1.593749-.069336,2.258787-.358398.910644-.396484,3.096189.382812,3.777829,1.416014.194824.295898.825683.725097,1.035644.660156,2.759275-.861816,3.758297.92871,5.283687,1.98535,1.825682-1.312011,4.978511.596679,7.155755,2.680662,2.332517-.310058,4.438472-1.429686,6.999505-1.006347,1.232421.203613,2.341795.32666,3.105466,1.220214.239746.280273.775878.416992,1.197265.588867.20459.083008.659179.099609.657714.137695-.080566,1.890623,2.159178,1.693358,3.432126,2.35156-.007812-.826171-.015137-1.648436-.022461-2.57031,2.801755.695312,1.670897,2.048826,1.714354,3.454098-.708007-.261719-1.156249-.426757-1.604491-.591796.490234.544921.980468,1.090819,1.73535,1.930662.526367-1.295897.923339-2.273435,1.323729-3.258786,1.106933-.004883,2.234373-.011719,3.393552-.017578,1.187011.570312,2.532713,1.203124,3.853024,1.868162.158203.079101.149414.341797.26416.499023.187988.257812.398925.706054.624023.71582,3.585446.147461,4.217281,2.628904,5.938471,4.414058.370117-.193359.854003-.445312,1.683592-.877929-.62207-.230469-1.138183-.421875-1.838377-.682617.72998-.521484,1.103515-.788085,1.59912-1.142577.230957.595703.398437,1.028319.652343,1.681639.527343-.504882.883788-.846679,1.357909-1.299803.346191.418945.637206.771484.92871,1.124999-.039551-1.396483.3125-2.564451,2.233396-2.892575,1.290038-.220703,3.530758,1.05664,4.202633,2.343748.395996-.542968.734374-1.007812,1.09619-1.503905.48291.526367.91162.993163,1.622069,1.7666.347656-.846679.546386-1.3291.700195-1.703123-.406738-.354492-.95996-.610351-1.003417-.912109-.171875-1.186522-.178711-2.422849,1.571288-2.958005.351562-.107422.944823.269531,1.697752.508789.672363-.245117,1.656248-.677734,2.706052-.964843,1.103515-.301758,2.155271.474609,1.934569,1.393553-.098144.410156-.385742.791991-.654785,1.319335,1.044921-.056641,1.917479-.104492,2.909665-.15918,1.384764,1.306639,2.832029,1.353514,4.778804-.064453.75537,1.785155,2.622556,1.700194,4.237789,1.247069,1.430174-.401367,3.510739-.538085,3.34863-2.63281,1.248046,2.067381,3.718258,2.87695,6.325678,2.291014.298828-.067383.759277-.240234.885741-.147461,2.345213,1.721678,3.354977-1.098632,5.23437-.938476.168945.014648.378418-.350586.563964-.346679,2.788083.052734,4.817867-1.999022,7.689446-1.686522.242187.026367.486816.041016.731445.054687.620605.036133,1.242186.067383,1.86328.100586-.004883-.557617-.009277-1.115233-.015137-1.83203.964843-.19043,2.199217-.5,3.464352-.658203.613281-.076172,1.287596.118164,1.927733.216797.223633.03418.502929.260742.629882.208008,2.346678-.958983,3.628415.40625,5.162105,1.348632.328125.201172,1.116698.130859,1.578612-.023437,1.381346-.461914,2.317381-.261719,3.445309.600585,1.023925.783202,2.499509,1.299803,3.890133,1.67285,1.849608.49707,3.791012.90039,5.729487,1.041015,1.529784.111328,3.144528-.129883,4.668941-.399414,3.51904-.62207,8.914054-2.610349,12.693836-.574218.384277.206054,1.520506.325195,2.014158.40332v-30.83005h-.000488v-3.952633Z"/></g></svg>