<svg xmlns="http://www.w3.org/2000/svg" fill="currentColor" viewBox="0 0 222 60"><path d="M30.398 60a30.01 30.01 0 0 0 21.213-8.786A30.011 30.011 0 0 0 60.398 30 30.01 30.01 0 0 0 51.61 8.786 30.01 30.01 0 0 0 30.398 0 30.01 30.01 0 0 0 9.183 8.786 30.01 30.01 0 0 0 .397 30a30.048 30.048 0 0 0 8.796 21.204A30.052 30.052 0 0 0 30.398 60Zm-11.95-21.892C9.316 36.487 3.64 33.113 3.64 30c0-3.113 5.723-6.486 14.807-8.108a75.433 75.433 0 0 0 0 16.216ZM4.452 36.487a36.691 36.691 0 0 0 14.448 5.01 36.685 36.685 0 0 0 5.01 14.449 26.795 26.795 0 0 1-19.458-19.46ZM21.235 30c-.01-2.882.164-5.764.519-8.628a68.547 68.547 0 0 1 8.643-.52 68.34 68.34 0 0 1 8.628.52 68.35 68.35 0 0 1 .52 8.628 68.357 68.357 0 0 1-.52 8.628 68.332 68.332 0 0 1-8.628.52 68.341 68.341 0 0 1-8.628-.52A68.35 68.35 0 0 1 21.25 30h-.014Zm9.163 26.757c-3.114 0-6.487-5.723-8.109-14.807 2.692.294 5.4.44 8.108.44s5.416-.146 8.109-.44c-1.622 9.131-4.995 14.807-8.108 14.807Zm6.486-.811a36.687 36.687 0 0 0 5.01-14.449 36.684 36.684 0 0 0 14.45-5.01 26.796 26.796 0 0 1-19.46 19.459Zm5.482-17.838a75.364 75.364 0 0 0 0-16.216c9.08 1.622 14.807 5.01 14.807 8.108-.003 3.097-5.694 6.486-14.825 8.108h.018Zm13.977-14.594a36.692 36.692 0 0 0-14.449-5.011 36.684 36.684 0 0 0-5.01-14.449 26.796 26.796 0 0 1 19.46 19.46ZM30.397 3.244c3.114 0 6.487 5.722 8.108 14.806a75.42 75.42 0 0 0-16.216 0c1.622-9.131 4.995-14.807 8.108-14.807Zm-6.486.81a36.69 36.69 0 0 0-5.01 14.449 36.683 36.683 0 0 0-14.45 5.01 26.796 26.796 0 0 1 19.46-19.459ZM219.735 33.144c.816 0 1.368.272 1.656.816.288.528.28 1.376-.024 2.544-.224.896-.568 1.576-1.032 2.04a2.302 2.302 0 0 1-1.656.672c-.816 0-1.36-.272-1.632-.816-.272-.56-.256-1.432.048-2.616.208-.896.544-1.56 1.008-1.992a2.318 2.318 0 0 1 1.632-.648ZM207.467 31.68l.96-3.936h2.088c.352-.016.696-.024 1.032-.024h.984l.936-.048c-.08.32-.192.736-.336 1.248-.128.496-.256 1-.384 1.512s-.232.952-.312 1.32a16.47 16.47 0 0 0-.912-.024 18.295 18.295 0 0 0-.96-.024h-1.032c-.336-.016-.68-.024-1.032-.024h-1.032Zm3.312 7.32h-9.528l.696-2.592c.224-.896.464-1.864.72-2.904.272-1.056.56-2.224.864-3.504l.672-2.688c.208-.832.4-1.608.576-2.328.176-.736.344-1.432.504-2.088.16-.656.312-1.288.456-1.896h9.528c-.08.288-.176.64-.288 1.056-.096.416-.2.816-.312 1.2-.08.416-.176.856-.288 1.32a45.52 45.52 0 0 1-.288 1.104 25.974 25.974 0 0 0-1.128-.024h-1.128a24.87 24.87 0 0 0-1.08-.024h-1.944l1.512-3.576a107.64 107.64 0 0 0-.384 1.536 75.816 75.816 0 0 1-.408 1.56c-.128.512-.256 1.032-.384 1.56a53.26 53.26 0 0 1-.36 1.536c-.128.496-.248.976-.36 1.44-.16.592-.312 1.176-.456 1.752-.144.576-.288 1.136-.432 1.68a117.43 117.43 0 0 1-.384 1.584 50.24 50.24 0 0 0-.36 1.488c-.112.48-.232.936-.36 1.368l.336-3.672h1.968c.368-.016.736-.024 1.104-.024h1.128c.384-.016.752-.024 1.104-.024-.096.32-.208.72-.336 1.2l-.336 1.392c-.096.432-.208.888-.336 1.368l-.288 1.2ZM194.596 33.144c.816 0 1.368.272 1.656.816.288.528.28 1.376-.024 2.544-.224.896-.568 1.576-1.032 2.04a2.302 2.302 0 0 1-1.656.672c-.816 0-1.36-.272-1.632-.816-.272-.56-.256-1.432.048-2.616.208-.896.544-1.56 1.008-1.992a2.318 2.318 0 0 1 1.632-.648ZM185.489 39h-5.088c.176-.624.352-1.264.528-1.92.16-.672.336-1.368.528-2.088.176-.72.36-1.488.552-2.304l.672-2.688c.24-.96.464-1.848.672-2.664.208-.832.4-1.608.576-2.328.192-.736.36-1.432.504-2.088.16-.656.312-1.296.456-1.92h5.088c-.16.624-.328 1.264-.504 1.92l-.552 2.064c-.176.72-.368 1.496-.576 2.328-.192.816-.408 1.704-.648 2.664l-.672 2.688a99.72 99.72 0 0 1-.576 2.328l-.504 2.064a69.11 69.11 0 0 1-.456 1.944ZM173.746 33.144c.816 0 1.368.272 1.656.816.288.528.28 1.376-.024 2.544-.224.896-.568 1.576-1.032 2.04a2.302 2.302 0 0 1-1.656.672c-.816 0-1.36-.272-1.632-.816-.272-.56-.256-1.432.048-2.616.208-.896.544-1.56 1.008-1.992a2.318 2.318 0 0 1 1.632-.648ZM162.768 24.192h5.184c-.24.992-.496 2.016-.768 3.072-.256 1.04-.512 2.072-.768 3.096-.24 1.024-.48 2.008-.72 2.952-.224.928-.432 1.784-.624 2.568a355.23 355.23 0 0 1-.456 1.968c-.128.544-.224.936-.288 1.176a5.89 5.89 0 0 0-.816-.048 18.295 18.295 0 0 0-.96-.024h-1.8c-.32 0-.632.008-.936.024-.304 0-.584.016-.84.048l.312-1.176c.144-.544.312-1.2.504-1.968.208-.784.432-1.64.672-2.568.24-.944.488-1.928.744-2.952.272-1.024.536-2.056.792-3.096.272-1.056.528-2.08.768-3.072ZM161.496 21h9.288c-.096.336-.208.76-.336 1.272a50.24 50.24 0 0 0-.36 1.488c-.128.464-.256.96-.384 1.488a35.82 35.82 0 0 0-.312 1.392c-.56-.016-1.12-.024-1.68-.024a53.146 53.146 0 0 0-1.56-.024H162.6c-.8 0-1.632.016-2.496.048.112-.4.232-.864.36-1.392.128-.528.256-1.024.384-1.488.128-.496.248-.992.36-1.488.128-.496.224-.92.288-1.272ZM151.958 33.144c.816 0 1.368.272 1.656.816.288.528.28 1.376-.024 2.544-.224.896-.568 1.576-1.032 2.04a2.302 2.302 0 0 1-1.656.672c-.816 0-1.36-.272-1.632-.816-.272-.56-.256-1.432.048-2.616.208-.896.544-1.56 1.008-1.992a2.318 2.318 0 0 1 1.632-.648ZM135.231 31.68c.224.016.488.024.792.024.304 0 .624.008.96.024h4.536c.32-.016.592-.032.816-.048l-.888 3.912h-.888a19.71 19.71 0 0 0-.984-.024h-3.48c-.32 0-.648.008-.984.024h-.936l1.056-3.912Zm8.28 7.32h-5.208c.08-.304.176-.72.288-1.248.112-.528.232-1.136.36-1.824l.408-2.208c.144-.8.288-1.616.432-2.448.144-.832.28-1.664.408-2.496.128-.832.248-1.624.36-2.376.032-.4.08-.848.144-1.344.08-.496.152-.968.216-1.416.08-.464.136-.832.168-1.104l.24.936h-.936l.744-.936c-.096.272-.232.64-.408 1.104l-.504 1.416c-.16.48-.328.936-.504 1.368-.32.896-.656 1.84-1.008 2.832-.336.992-.664 1.976-.984 2.952l-.912 2.784c-.272.864-.52 1.648-.744 2.352-.208.688-.36 1.24-.456 1.656h-5.016c.272-.656.584-1.424.936-2.304a514.1 514.1 0 0 0 1.08-2.856c.4-1.024.8-2.064 1.2-3.12.416-1.056.816-2.096 1.2-3.12s.736-1.976 1.056-2.856c.336-.88.616-1.64.84-2.28.24-.656.416-1.144.528-1.464h8.064c-.048.336-.112.832-.192 1.488-.064.64-.152 1.4-.264 2.28-.096.88-.208 1.832-.336 2.856a384.083 384.083 0 0 1-.36 3.12 957.944 957.944 0 0 1-.336 3.12 142.856 142.856 0 0 0-.288 2.832c-.08.88-.152 1.648-.216 2.304ZM124.593 33.144c.816 0 1.368.272 1.656.816.288.528.28 1.376-.024 2.544-.224.896-.568 1.576-1.032 2.04a2.302 2.302 0 0 1-1.656.672c-.816 0-1.36-.272-1.632-.816-.272-.56-.256-1.432.048-2.616.208-.896.544-1.56 1.008-1.992a2.318 2.318 0 0 1 1.632-.648ZM110.63 39h-4.92c.24-.864.472-1.744.696-2.64l.72-2.88c.272-1.04.56-2.2.864-3.48.48-1.904.896-3.56 1.248-4.968.352-1.424.672-2.768.96-4.032h5.544c.96 0 1.768.112 2.424.336.672.224 1.176.616 1.512 1.176.352.56.528 1.328.528 2.304 0 .976-.184 2.208-.552 3.696a27.949 27.949 0 0 1-.84 2.712c-.272.752-.584 1.384-.936 1.896a4.16 4.16 0 0 1-1.224 1.2 4.653 4.653 0 0 1-1.632.648c-.624.128-1.352.192-2.184.192h-1.392a2.549 2.549 0 0 0-.36-.024l.96-3.84h.192c.064 0 .128.008.192.024H112.886c.304 0 .568-.04.792-.12.224-.096.416-.248.576-.456.176-.224.336-.536.48-.936.16-.4.312-.92.456-1.56.176-.704.288-1.272.336-1.704.064-.448.064-.792 0-1.032s-.176-.4-.336-.48c-.16-.096-.376-.144-.648-.144h-.24c-.112 0-.232.008-.36.024h-.384c-.128 0-.248.008-.36.024-.096 0-.184.008-.264.024l1.344-1.536c-.4 1.568-.784 3.104-1.152 4.608a387.62 387.62 0 0 0-1.032 4.272c-.32 1.344-.608 2.584-.864 3.72-.24 1.136-.44 2.128-.6 2.976ZM99.055 33.144c.816 0 1.368.272 1.656.816.288.528.28 1.376-.024 2.544-.224.896-.568 1.576-1.032 2.04a2.302 2.302 0 0 1-1.656.672c-.816 0-1.36-.272-1.632-.816-.272-.56-.256-1.432.048-2.616.208-.896.544-1.56 1.008-1.992a2.318 2.318 0 0 1 1.632-.648ZM85.486 35.448c.175 0 .328-.024.456-.072a.904.904 0 0 0 .36-.216c.111-.096.2-.216.263-.36.064-.16.129-.344.192-.552.064-.272.105-.512.12-.72a1.48 1.48 0 0 0-.023-.6 1.101 1.101 0 0 0-.216-.504 1.59 1.59 0 0 0-.48-.432 3.526 3.526 0 0 0-.745-.408c-.591-.224-1.087-.472-1.487-.744a3.256 3.256 0 0 1-.936-.936 3.572 3.572 0 0 1-.432-1.152 5.138 5.138 0 0 1-.049-1.416 13.59 13.59 0 0 1 .337-1.728c.207-.864.48-1.6.816-2.208.351-.624.775-1.128 1.271-1.512a5.374 5.374 0 0 1 1.8-.864c.704-.192 1.513-.288 2.424-.288.833 0 1.544.072 2.136.216.592.128 1.072.328 1.44.6.368.256.64.576.816.96.176.368.264.792.264 1.272s-.072 1-.216 1.56c-.047.176-.096.368-.143.576a11.66 11.66 0 0 1-.168.6c-.049.192-.105.4-.168.624a4.784 4.784 0 0 0-.72-.048 13.535 13.535 0 0 0-.84-.024h-2.304c.063-.224.12-.432.167-.624.048-.208.096-.4.144-.576.049-.224.073-.416.073-.576a.727.727 0 0 0-.073-.432.432.432 0 0 0-.263-.264c-.113-.064-.273-.096-.48-.096-.16 0-.313.024-.457.072a.933.933 0 0 0-.335.216c-.097.08-.184.192-.264.336-.08.144-.145.312-.193.504-.047.224-.087.44-.12.648-.016.192-.008.384.025.576.032.176.104.344.216.504.111.16.272.32.48.48.223.144.495.288.816.432.656.288 1.192.608 1.608.96.431.352.743.76.936 1.224.207.464.303 1.008.287 1.632 0 .624-.103 1.36-.311 2.208a14.35 14.35 0 0 1-.6 1.824 5.348 5.348 0 0 1-.84 1.416c-.32.384-.704.704-1.152.96-.433.256-.953.448-1.56.576-.593.128-1.288.192-2.089.192-.88 0-1.632-.08-2.256-.24-.608-.144-1.104-.352-1.488-.624-.384-.272-.663-.592-.84-.96a2.804 2.804 0 0 1-.288-1.272c0-.48.064-.992.192-1.536l.192-.624c.048-.224.104-.44.168-.648.064-.224.129-.44.192-.648.337.016.72.04 1.152.072.448.016.912.024 1.392.024h.769c.256 0 .472-.008.648-.024-.08.192-.145.384-.193.576-.032.176-.064.336-.096.48-.096.368-.144.672-.144.912s.065.416.193.528c.144.112.352.168.624.168Z"/></svg>