<?xml version="1.0" standalone="no"?>
<!DOCTYPE svg PUBLIC "-//W3C//DTD SVG 20010904//EN"
 "http://www.w3.org/TR/2001/REC-SVG-20010904/DTD/svg10.dtd">
<svg version="1.0" xmlns="http://www.w3.org/2000/svg"
 width="1200.000000pt" height="1200.000000pt" viewBox="0 0 1200.000000 1200.000000"
 preserveAspectRatio="xMidYMid meet">
<metadata>
Created by potrace 1.11, written by Peter Selinger 2001-2013
</metadata>
<g transform="translate(0.000000,1200.000000) scale(0.100000,-0.100000)"
fill="#000000" stroke="none">
<path d="M760 11980 c-331 -72 -610 -320 -712 -634 -50 -156 -47 177 -45
-5371 1 -2843 6 -5185 11 -5204 63 -264 213 -484 423 -618 97 -62 193 -101
338 -140 17 -4 2354 -9 5195 -10 5558 -2 5217 -5 5379 47 131 42 282 138 384
245 106 110 194 264 239 420 l23 80 2 5185 c2 3198 -1 5198 -7 5220 -5 19 -16
64 -25 100 -34 131 -120 285 -221 391 -143 152 -262 223 -484 287 -50 15 -518
16 -5235 18 -4997 2 -5183 2 -5265 -16z m5673 -2994 c15 -2 60 -7 100 -11 40
-3 79 -8 87 -10 8 -2 35 -7 60 -10 181 -26 508 -112 645 -170 17 -7 66 -28
110 -46 121 -51 309 -149 421 -220 116 -74 314 -219 314 -230 0 -4 -35 -59
-78 -121 -43 -62 -100 -147 -127 -188 -28 -41 -52 -77 -55 -80 -3 -3 -45 -63
-93 -135 -207 -307 -386 -568 -394 -576 -4 -4 -38 14 -74 40 -230 169 -505
312 -750 389 -82 26 -110 34 -154 43 -5 1 -28 6 -50 12 -91 21 -227 35 -340
34 -213 -1 -363 -56 -460 -169 -55 -65 -74 -127 -71 -233 4 -140 46 -214 179
-314 80 -59 307 -173 492 -246 66 -26 140 -55 165 -65 50 -20 151 -54 162 -55
3 0 10 -3 14 -7 4 -5 14 -8 21 -8 18 0 288 -100 413 -152 157 -66 328 -152
445 -222 61 -37 119 -72 130 -79 11 -7 22 -14 25 -17 3 -3 39 -30 80 -61 295
-220 493 -525 564 -869 25 -122 31 -196 30 -380 0 -175 -5 -237 -29 -370 -30
-170 -118 -407 -197 -535 -54 -86 -102 -158 -124 -185 -193 -230 -358 -362
-614 -490 -120 -61 -348 -145 -445 -164 -11 -3 -49 -11 -85 -20 -36 -8 -83
-17 -105 -21 -23 -3 -50 -7 -61 -9 -11 -2 -47 -7 -79 -11 -33 -4 -73 -9 -90
-12 -50 -9 -506 -10 -586 -2 -41 5 -105 11 -142 14 -37 4 -75 8 -85 10 -9 1
-53 8 -97 15 -66 10 -147 25 -235 45 -230 51 -435 117 -608 196 -35 16 -66 29
-69 29 -13 0 -254 127 -353 185 -119 71 -302 200 -413 292 l-76 62 94 128 c52
70 98 133 103 138 11 15 134 181 157 215 142 201 442 600 451 600 7 0 16 -5
19 -10 13 -21 239 -184 353 -254 342 -212 638 -324 982 -371 142 -19 386 -12
481 14 160 44 275 128 328 240 23 49 26 68 26 161 -1 126 -19 174 -98 251
-131 129 -333 224 -902 425 -972 342 -1434 684 -1629 1206 -25 65 -65 214 -72
266 -15 117 -19 177 -18 317 0 189 14 343 38 423 3 10 7 28 10 42 2 14 16 63
31 109 157 491 511 860 1024 1067 203 83 465 142 698 160 48 3 89 8 91 9 5 4
484 -4 515 -9z"/>
</g>
</svg>
