<svg id="frame" xmlns="http://www.w3.org/2000/svg" viewBox="0 0 360 180"><defs><style>.cls-1{fill:none;}.cls-2{fill:#172a3d;}</style></defs><title>Untitled-1</title><rect class="cls-1" width="360" height="180"/><path class="cls-2" d="M152.91,60.2l-9.74,28.26h-5.78L127.65,60.2h5.24l7.38,21.45,7.38-21.45h5.25Z"/><path class="cls-2" d="M156.29,57.88l4.31-.42h0.64V88h-4.95V57.88Z"/><path class="cls-2" d="M183.3,88.46a7.19,7.19,0,0,1-1.22-.11,5.17,5.17,0,0,1-1.22-.38,6.28,6.28,0,0,1-1.23-.7,7.66,7.66,0,0,1-1.23-1.12l-1.25.91a7.37,7.37,0,0,1-1.28.72,7.59,7.59,0,0,1-1.51.5,8.63,8.63,0,0,1-1.87.18,11.47,11.47,0,0,1-1.6-.11,8,8,0,0,1-1.6-.42,7.26,7.26,0,0,1-1.6-.78,4.8,4.8,0,0,1-1.28-1.27,6.41,6.41,0,0,1-.88-1.87,8.86,8.86,0,0,1-.32-2.55,8.09,8.09,0,0,1,.38-2.59,4.34,4.34,0,0,1,1.27-1.91,5.94,5.94,0,0,1,2.35-1.2,13.94,13.94,0,0,1,3.68-.42h2q1.07,0,2.53.14V74.36a4.92,4.92,0,0,0-.34-1.94,3.2,3.2,0,0,0-.93-1.28,3.52,3.52,0,0,0-1.36-.69,6.62,6.62,0,0,0-1.6-.19,9.75,9.75,0,0,0-1.46.11,13.18,13.18,0,0,0-1.52.32q-0.75.21-1.51,0.48a14.18,14.18,0,0,0-1.39.58l-1.17-4.31a20.2,20.2,0,0,1,3.83-1.35,17.4,17.4,0,0,1,4.18-.51,12.72,12.72,0,0,1,3.11.37,7.14,7.14,0,0,1,2.61,1.23,6,6,0,0,1,1.79,2.23,7.8,7.8,0,0,1,.66,3.4V81a3.35,3.35,0,0,0,.24,1.35,2.56,2.56,0,0,0,.69.95,3.3,3.3,0,0,0,1,.61,8,8,0,0,0,1.31.38Zm-5.89-9.29h-3a9.74,9.74,0,0,0-2.26.24,2.88,2.88,0,0,0-1.41.74,2.07,2.07,0,0,0-.48,1.47,2.53,2.53,0,0,0,.86,2.07,3.35,3.35,0,0,0,2.21.72,6.74,6.74,0,0,0,1.17-.13,3.89,3.89,0,0,0,1.38-.54A3.56,3.56,0,0,0,177,82.56a3.94,3.94,0,0,0,.46-2.08V79.15Z"/><path class="cls-2" d="M204.81,88.46a7.18,7.18,0,0,1-1.22-.11,5.19,5.19,0,0,1-1.23-.38,6.26,6.26,0,0,1-1.23-.7,7.59,7.59,0,0,1-1.23-1.12l-1.27.91a7.3,7.3,0,0,1-1.28.72,7.66,7.66,0,0,1-1.51.5,8.63,8.63,0,0,1-1.87.18,11.53,11.53,0,0,1-1.6-.11,8,8,0,0,1-1.6-.42,7.3,7.3,0,0,1-1.6-.78,4.8,4.8,0,0,1-1.28-1.27A6.41,6.41,0,0,1,187,84a8.89,8.89,0,0,1-.32-2.55,8.09,8.09,0,0,1,.38-2.59,4.34,4.34,0,0,1,1.27-1.91,6,6,0,0,1,2.35-1.2,14,14,0,0,1,3.68-.42h2q1.07,0,2.53.14V74.36a4.92,4.92,0,0,0-.34-1.94,3.2,3.2,0,0,0-.93-1.28,3.52,3.52,0,0,0-1.36-.69,6.62,6.62,0,0,0-1.6-.19,9.74,9.74,0,0,0-1.46.11,13.18,13.18,0,0,0-1.52.32q-0.75.21-1.51,0.48a14.23,14.23,0,0,0-1.39.58l-1.15-4.31a20.15,20.15,0,0,1,3.83-1.35,17.38,17.38,0,0,1,4.18-.51,12.81,12.81,0,0,1,3.12.37,7.13,7.13,0,0,1,2.61,1.23,6,6,0,0,1,1.79,2.23,7.77,7.77,0,0,1,.66,3.4V81a3.35,3.35,0,0,0,.24,1.35,2.6,2.6,0,0,0,.69.95,3.3,3.3,0,0,0,1,.61,8,8,0,0,0,1.31.38Zm-5.89-9.29h-3.06a9.74,9.74,0,0,0-2.26.24,2.87,2.87,0,0,0-1.41.74,2.05,2.05,0,0,0-.48,1.47,2.53,2.53,0,0,0,.86,2.07,3.35,3.35,0,0,0,2.21.72,6.71,6.71,0,0,0,1.15-.13,3.89,3.89,0,0,0,1.38-.54,3.57,3.57,0,0,0,1.14-1.17,3.94,3.94,0,0,0,.46-2.08V79.17Z"/><path class="cls-2" d="M210,66.11h4.18l0.48,1.71a12.81,12.81,0,0,1,3.33-1.6,12.32,12.32,0,0,1,3.67-.56,10.2,10.2,0,0,1,3,.45,7,7,0,0,1,2.53,1.39A6.84,6.84,0,0,1,229,69.94a8.7,8.7,0,0,1,.66,3.52V88h-4.93V74.92a4.81,4.81,0,0,0-.42-2.08,3.94,3.94,0,0,0-2.68-2.18,7.56,7.56,0,0,0-1.87-.24,9,9,0,0,0-2.51.35,8.84,8.84,0,0,0-2.26,1V88H210V66.11Z"/><path class="cls-2" d="M253.33,88h-3.67l-0.88-1.6a11.66,11.66,0,0,1-2.66,1.51,8.62,8.62,0,0,1-3.2.56,9.1,9.1,0,0,1-4.12-.88,8.55,8.55,0,0,1-2.92-2.34,9.92,9.92,0,0,1-1.73-3.33,13.5,13.5,0,0,1-.58-3.92,15.23,15.23,0,0,1,.88-5.43,10.59,10.59,0,0,1,2.43-3.84,10,10,0,0,1,3.68-2.27,14,14,0,0,1,4.68-.75h1.6l1.68,0.16v-8l4.18-.42h0.75V88h-0.14Zm-4.95-17.27a16.85,16.85,0,0,0-1.86-.35,13.21,13.21,0,0,0-1.6-.11,7.69,7.69,0,0,0-2.58.42,5,5,0,0,0-2,1.28,6,6,0,0,0-1.28,2.13,8.89,8.89,0,0,0-.45,3,8.65,8.65,0,0,0,.34,2.43,7,7,0,0,0,1,2.11,5.21,5.21,0,0,0,1.6,1.51,4.53,4.53,0,0,0,2.31.56,7.64,7.64,0,0,0,2.31-.37,10,10,0,0,0,2.18-1V70.77Z"/><path class="cls-2" d="M274.86,82.36v4.81a9.88,9.88,0,0,1-1.6.59,16,16,0,0,1-1.6.4,15.62,15.62,0,0,1-1.6.24h-1.49a13.05,13.05,0,0,1-4.32-.7,10.41,10.41,0,0,1-3.59-2.13A10,10,0,0,1,258.18,82a12.81,12.81,0,0,1-.91-5,13.13,13.13,0,0,1,.85-4.9,11,11,0,0,1,2.24-3.57,9.18,9.18,0,0,1,3.2-2.18,9.39,9.39,0,0,1,3.62-.74,13.24,13.24,0,0,1,1.39.1,8.38,8.38,0,0,1,1.91.48,8.92,8.92,0,0,1,2,1,7.06,7.06,0,0,1,1.79,1.75,9.1,9.1,0,0,1,1.3,2.72,13.55,13.55,0,0,1,.5,3.92v3.3h-13.3a6.1,6.1,0,0,0,.95,2.24,5.62,5.62,0,0,0,1.6,1.49,6.41,6.41,0,0,0,1.91.82,8.59,8.59,0,0,0,2.08.26,10.89,10.89,0,0,0,2.82-.38,12.59,12.59,0,0,0,2.69-1.06ZM271.46,75a6.62,6.62,0,0,0-.48-2.07A4.68,4.68,0,0,0,270,71.5a3.6,3.6,0,0,0-1.27-.8,4.12,4.12,0,0,0-1.41-.26,4.55,4.55,0,0,0-1.51.26,4.26,4.26,0,0,0-1.38.82,5.41,5.41,0,0,0-1.14,1.43,6.41,6.41,0,0,0-.69,2.07h8.81Z"/><path class="cls-2" d="M292.65,71.56a8,8,0,0,0-1.86-.83,6.63,6.63,0,0,0-1.86-.27,6.41,6.41,0,0,0-2.31.42,8.76,8.76,0,0,0-2.11,1.19v16h-4.95v-22h4.18l0.51,1.79a10.51,10.51,0,0,1,2.53-1.6,7.38,7.38,0,0,1,3-.62h1a3.53,3.53,0,0,1,1.2.14,9.84,9.84,0,0,1,1.17.27,5.11,5.11,0,0,1,1,.4Z"/><path class="cls-2" d="M311.52,82.36v4.81a9.9,9.9,0,0,1-1.6.59,16,16,0,0,1-1.6.4,15.62,15.62,0,0,1-1.6.24h-1.49a13.05,13.05,0,0,1-4.32-.7,10.41,10.41,0,0,1-3.59-2.13A10,10,0,0,1,294.85,82a12.81,12.81,0,0,1-.91-5,13.13,13.13,0,0,1,.85-4.9A11,11,0,0,1,297,68.55a9.18,9.18,0,0,1,3.2-2.18,9.39,9.39,0,0,1,3.62-.74,13.23,13.23,0,0,1,1.39.1,8.38,8.38,0,0,1,1.84.43,8.92,8.92,0,0,1,2,1,7.06,7.06,0,0,1,1.79,1.75,9.1,9.1,0,0,1,1.3,2.72,13.55,13.55,0,0,1,.5,3.92v3.3H299.32a6.1,6.1,0,0,0,.95,2.24,5.62,5.62,0,0,0,1.6,1.49,6.41,6.41,0,0,0,1.91.82,8.59,8.59,0,0,0,2.08.26,10.89,10.89,0,0,0,2.82-.38,12.59,12.59,0,0,0,2.69-1.06ZM308.13,75a6.62,6.62,0,0,0-.48-2.07,4.68,4.68,0,0,0-.95-1.44,3.6,3.6,0,0,0-1.27-.8,4.12,4.12,0,0,0-1.41-.26,4.55,4.55,0,0,0-1.51.26,4.26,4.26,0,0,0-1.38.82A5.43,5.43,0,0,0,300,72.94a6.41,6.41,0,0,0-.69,2.07h8.81Z"/><path class="cls-2" d="M316.23,66.11h4.18l0.48,1.71a12.81,12.81,0,0,1,3.33-1.6,12.32,12.32,0,0,1,3.67-.56,10.2,10.2,0,0,1,3,.45,7,7,0,0,1,2.53,1.39,6.84,6.84,0,0,1,1.75,2.43,8.7,8.7,0,0,1,.66,3.52V88h-4.93V74.92a4.81,4.81,0,0,0-.42-2.08,3.94,3.94,0,0,0-2.68-2.18,7.56,7.56,0,0,0-1.87-.24,9,9,0,0,0-2.51.35,8.84,8.84,0,0,0-2.26,1V88h-4.95V66.11h0Z"/><path class="cls-2" d="M144.56,104.65l-4.18,12.17h-2.43l-4.18-12.17h1.87l3.52,10.24,3.52-10.24h1.87Z"/><path class="cls-2" d="M155.25,111.24h-7.59a5.37,5.37,0,0,0,.42,1.84,4.18,4.18,0,0,0,.88,1.3,3.41,3.41,0,0,0,1.23.78,4.34,4.34,0,0,0,1.49.26,6.12,6.12,0,0,0,1.6-.22,9.13,9.13,0,0,0,1.6-.64h0v1.6a8.39,8.39,0,0,1-1.79.67,7.42,7.42,0,0,1-1.7.21,6.15,6.15,0,0,1-2.16-.38,4.81,4.81,0,0,1-1.79-1.19,5.75,5.75,0,0,1-1.23-2,8.23,8.23,0,0,1-.46-2.92,9.31,9.31,0,0,1,.3-2.43,5.51,5.51,0,0,1,1.11-1.86,4.36,4.36,0,0,1,1.6-1.3,5.43,5.43,0,0,1,2.37-.46,5.09,5.09,0,0,1,1.6.22,3.67,3.67,0,0,1,1.14.59,3.08,3.08,0,0,1,.74.88,4.71,4.71,0,0,1,.43,1.07,6.6,6.6,0,0,1,.19,1.19v2.79h0Zm-1.78-1.6a8.43,8.43,0,0,0-.13-1.33,3.52,3.52,0,0,0-.38-1.11,2,2,0,0,0-.74-0.75,2.32,2.32,0,0,0-1.19-.27,2.93,2.93,0,0,0-1.25.26,3.09,3.09,0,0,0-1,.72,3.75,3.75,0,0,0-.69,1.09,5.82,5.82,0,0,0-.38,1.38h5.72Z"/><path class="cls-2" d="M158.5,104.65h1.22l0.42,1.38a5.48,5.48,0,0,1,1.41-1.2,3.2,3.2,0,0,1,1.6-.42h0.48l0.53,0.08,0.53,0.14,0.46,0.18-0.64,1.6a3.75,3.75,0,0,0-.82-0.27,4,4,0,0,0-.85-0.11,2.35,2.35,0,0,0-1.43.46,4.5,4.5,0,0,0-1.09,1.17v9.1H158.5V104.65h0Z"/><path class="cls-2" d="M167.42,100.1l1.7-.24h0.11v5.64a5.46,5.46,0,0,1,1.41-.78,5.22,5.22,0,0,1,3.89.19,4.93,4.93,0,0,1,1.6,1.31,6.05,6.05,0,0,1,1.06,2,8.39,8.39,0,0,1,0,4.92,5.69,5.69,0,0,1-1.12,2,5.45,5.45,0,0,1-1.91,1.39,6.63,6.63,0,0,1-2.74.51,9.07,9.07,0,0,1-2.18-.26,13.1,13.1,0,0,1-1.89-.61V100.1h0.06ZM169.25,115a4.81,4.81,0,0,0,1.19.3,10.07,10.07,0,0,0,1.19,0,4.16,4.16,0,0,0,1.68-.34,3.76,3.76,0,0,0,1.33-1,4.4,4.4,0,0,0,.86-1.6,6.41,6.41,0,0,0,.3-2.07,6.62,6.62,0,0,0-.21-1.71,4,4,0,0,0-.66-1.39,3.2,3.2,0,0,0-1.14-.95,3.67,3.67,0,0,0-1.6-.35,4.12,4.12,0,0,0-1.6.34,2.88,2.88,0,0,0-1.22,1v7.59Z"/><path class="cls-2" d="M188.9,111.24h-7.59a5.37,5.37,0,0,0,.42,1.84,4.18,4.18,0,0,0,.88,1.3,3.41,3.41,0,0,0,1.23.78,4.34,4.34,0,0,0,1.49.26,6.1,6.1,0,0,0,1.6-.22,9.1,9.1,0,0,0,1.6-.64h0v1.6a8.36,8.36,0,0,1-1.79.67,7.43,7.43,0,0,1-1.7.21,6.15,6.15,0,0,1-2.16-.38,4.81,4.81,0,0,1-1.79-1.19,5.75,5.75,0,0,1-1.23-2,8.23,8.23,0,0,1-.46-2.92,9.31,9.31,0,0,1,.3-2.43,5.51,5.51,0,0,1,1.09-1.86,4.36,4.36,0,0,1,1.6-1.3,5.43,5.43,0,0,1,2.37-.46,5.08,5.08,0,0,1,1.6.22,3.64,3.64,0,0,1,1.14.59,3,3,0,0,1,.74.88,4.65,4.65,0,0,1,.43,1.07,6.5,6.5,0,0,1,.21,1.19q0,0.61,0,1.19v1.6h0Zm-1.78-1.6a8.83,8.83,0,0,0-.13-1.33,3.56,3.56,0,0,0-.38-1.11,2,2,0,0,0-.74-0.75,2.31,2.31,0,0,0-1.19-.27,2.93,2.93,0,0,0-1.25.26,3.09,3.09,0,0,0-1,.72,3.75,3.75,0,0,0-.69,1.09,5.82,5.82,0,0,0-.38,1.38h5.8Z"/><path class="cls-2" d="M200,111.24h-7.59a5.43,5.43,0,0,0,.42,1.84,4.15,4.15,0,0,0,.88,1.3,3.38,3.38,0,0,0,1.23.78,4.36,4.36,0,0,0,1.49.26,6.14,6.14,0,0,0,1.6-.22,9.18,9.18,0,0,0,1.6-.64h0v1.6a8.44,8.44,0,0,1-1.79.67,7.4,7.4,0,0,1-1.7.21,6.17,6.17,0,0,1-2.16-.38,4.81,4.81,0,0,1-1.79-1.19,5.77,5.77,0,0,1-1.23-2,8.27,8.27,0,0,1-.46-2.92,9.32,9.32,0,0,1,.3-2.43,5.48,5.48,0,0,1,.95-2,4.36,4.36,0,0,1,1.6-1.3,5.41,5.41,0,0,1,2.35-.46,5.09,5.09,0,0,1,1.6.22,3.67,3.67,0,0,1,1.14.59,3.11,3.11,0,0,1,.74.88,4.81,4.81,0,0,1,.43,1.07,7.06,7.06,0,0,1,.21,1.19v2.79Zm-1.78-1.6a8.41,8.41,0,0,0-.13-1.33,3.49,3.49,0,0,0-.38-1.11,1.94,1.94,0,0,0-.74-0.75,2.32,2.32,0,0,0-1.19-.27,2.92,2.92,0,0,0-1.25.26,3.06,3.06,0,0,0-1,.72,3.78,3.78,0,0,0-.69,1.09,5.74,5.74,0,0,0-.38,1.38h5.72Z"/><path class="cls-2" d="M202.65,100.1l1.68-.24h0.11v17h-1.81V100.1h0Z"/><path class="cls-2" d="M217.48,116.86h-1.15L216,115.79a5.93,5.93,0,0,1-1.6.95,4.81,4.81,0,0,1-1.89.35,4.52,4.52,0,0,1-2.18-.51,5.16,5.16,0,0,1-1.6-1.41,6.41,6.41,0,0,1-1.06-2.05,8.28,8.28,0,0,1-.37-2.51,7.54,7.54,0,0,1,.37-2.4,5.43,5.43,0,0,1,1.14-2,5.14,5.14,0,0,1,1.91-1.31,7.18,7.18,0,0,1,2.72-.46,9.14,9.14,0,0,1,1.15,0l1.11,0.18v-4.58l1.7-.24h0.11v17Zm-1.81-10.27a6.6,6.6,0,0,0-2.39-.48,4.69,4.69,0,0,0-1.6.29,3.54,3.54,0,0,0-1.33.86,4.08,4.08,0,0,0-.88,1.46,6,6,0,0,0-.3,2,7.1,7.1,0,0,0,.21,1.75A4.47,4.47,0,0,0,210,114a3.33,3.33,0,0,0,1.14,1,3.4,3.4,0,0,0,1.6.38,4.07,4.07,0,0,0,1.6-.32,3,3,0,0,0,1.23-1v-7.46Z"/><path class="cls-2" d="M221.23,101.37a1.17,1.17,0,0,1,.1-0.48,1.27,1.27,0,0,1,.67-0.67,1.23,1.23,0,0,1,1,0,1.44,1.44,0,0,1,.4.26,1.3,1.3,0,0,1,.27.4,1.22,1.22,0,0,1,.1.48,1.14,1.14,0,0,1-.37.86,1.35,1.35,0,0,1-.4.27,1.23,1.23,0,0,1-.48.1,1.15,1.15,0,0,1-.88-0.37A1.14,1.14,0,0,1,221.23,101.37Zm0.35,3.32h1.81v12.17h-1.81V104.69Z"/><path class="cls-2" d="M227.51,104.65h1.22l0.34,1.12,0.82-.48a9.61,9.61,0,0,1,.95-0.45,7.19,7.19,0,0,1,1-.32,3.86,3.86,0,0,1,.91-0.11,5.67,5.67,0,0,1,1.6.24,3.51,3.51,0,0,1,1.38.78,3.78,3.78,0,0,1,.95,1.43A6.07,6.07,0,0,1,237,109v7.78h-1.73v-7.69a4.37,4.37,0,0,0-.21-1.47,2.5,2.5,0,0,0-.56-0.95,2.1,2.1,0,0,0-.83-0.46,3.6,3.6,0,0,0-1-.14,3.54,3.54,0,0,0-.85.11,6.31,6.31,0,0,0-.83.27,6.81,6.81,0,0,0-.78.37l-0.74.42v9.61h-1.81V104.65h-0.08Z"/><path class="cls-2" d="M245.46,114.26a7.82,7.82,0,0,1,2.19.27,4.48,4.48,0,0,1,1.6.75,3.2,3.2,0,0,1,.9,1.11,3,3,0,0,1,.3,1.3,3.4,3.4,0,0,1-.54,1.86,5.43,5.43,0,0,1-1.44,1.49,7.48,7.48,0,0,1-4.28,1.38,5.43,5.43,0,0,1-1.89-.3,4.31,4.31,0,0,1-1.41-.83A3.57,3.57,0,0,1,240,120a3.67,3.67,0,0,1-.32-1.52,3.8,3.8,0,0,1,.37-1.6,5.22,5.22,0,0,1,1.07-1.6,1.51,1.51,0,0,1-.43-0.37,2.61,2.61,0,0,1-.3-0.5,2.68,2.68,0,0,1-.26-1.09,2.72,2.72,0,0,1,.22-1,4.34,4.34,0,0,1,.66-1.09,2.77,2.77,0,0,1-.43-0.59,4.23,4.23,0,0,1-.32-0.72,4.58,4.58,0,0,1-.19-0.78,4.93,4.93,0,0,1,0-.78,3.83,3.83,0,0,1,1.27-2.9,4.23,4.23,0,0,1,1.43-.86,5.59,5.59,0,0,1,3.09-.16,4.48,4.48,0,0,1,1.09.42,6.55,6.55,0,0,1,.82-0.53,8,8,0,0,1,.83-0.4,4.63,4.63,0,0,1,.78-0.24,3.52,3.52,0,0,1,.69,0l0.54,1.6a6.5,6.5,0,0,0-1.09.29,6.12,6.12,0,0,0-1.2.59,3.88,3.88,0,0,1,.7,2.26,4.1,4.1,0,0,1-.34,1.6,4.39,4.39,0,0,1-.93,1.36,4.47,4.47,0,0,1-1.44.95,4.81,4.81,0,0,1-1.83.34,4.69,4.69,0,0,1-1.2-.14,6,6,0,0,1-1-.38,1.6,1.6,0,0,0-.42,1,1,1,0,0,0,.38.77,1.73,1.73,0,0,0,1.12.32h2.31Zm-3,1.6a4.71,4.71,0,0,0-.78,1.23,3.2,3.2,0,0,0-.29,1.31,3,3,0,0,0,.16,1,1.92,1.92,0,0,0,.51.78,2.39,2.39,0,0,0,.91.51,4.47,4.47,0,0,0,1.38.18,5,5,0,0,0,1.68-.27,4.81,4.81,0,0,0,1.33-.7,3.11,3.11,0,0,0,.86-1,2.24,2.24,0,0,0,.3-1.09,1.51,1.51,0,0,0-.37-1.07,2.39,2.39,0,0,0-1-.61,6.41,6.41,0,0,0-1.51-.26h-3.19Zm1.92-9.8a2.93,2.93,0,0,0-1.2.22,2.75,2.75,0,0,0-.86.59,2.42,2.42,0,0,0-.53.82,2.39,2.39,0,0,0,0,1.83,2.55,2.55,0,0,0,.53.82,2.63,2.63,0,0,0,.86.59,3,3,0,0,0,1.22.22,3,3,0,0,0,1.19-.22,2.55,2.55,0,0,0,.85-0.59,2.35,2.35,0,0,0,.51-0.8,2.53,2.53,0,0,0,.18-0.9,2.57,2.57,0,0,0-1.55-2.34A3,3,0,0,0,244.39,106.06Z"/><path class="cls-2" d="M275.94,104.65l-3.86,12.17h-2.24l-2.71-9.27-2.71,9.27h-2.27l-3.84-12.17h1.76l3.2,10.17,3-10.17h1.6l3,10.17,3.2-10.17h1.84Z"/><path class="cls-2" d="M286.63,111.24H279a5.43,5.43,0,0,0,.42,1.84,4.15,4.15,0,0,0,.88,1.3,3.38,3.38,0,0,0,1.23.78,4.36,4.36,0,0,0,1.49.26,6.14,6.14,0,0,0,1.6-.22,9.18,9.18,0,0,0,1.6-.64h0v1.6a8.44,8.44,0,0,1-1.79.67,7.4,7.4,0,0,1-1.7.21,6.17,6.17,0,0,1-2.16-.38,4.81,4.81,0,0,1-1.79-1.19,5.77,5.77,0,0,1-1.23-2,8.27,8.27,0,0,1-.46-2.92,9.31,9.31,0,0,1,.3-2.43,5.48,5.48,0,0,1,1.07-1.86,4.36,4.36,0,0,1,1.6-1.3,5.41,5.41,0,0,1,2.35-.46,5.09,5.09,0,0,1,1.6.22,3.67,3.67,0,0,1,1.14.59,3.11,3.11,0,0,1,.74.88,4.81,4.81,0,0,1,.43,1.07,7.06,7.06,0,0,1,.21,1.19v2.79h0.06Zm-1.78-1.6a8.41,8.41,0,0,0-.13-1.33,3.49,3.49,0,0,0-.38-1.11,1.94,1.94,0,0,0-.74-0.75,2.32,2.32,0,0,0-1.19-.27,2.92,2.92,0,0,0-1.25.26,3.06,3.06,0,0,0-1,.72,3.78,3.78,0,0,0-.69,1.09,5.74,5.74,0,0,0-.38,1.38h5.78Z"/><path class="cls-2" d="M289.88,104.65h1.22l0.42,1.38a5.46,5.46,0,0,1,1.41-1.2,3.2,3.2,0,0,1,1.6-.42H295l0.53,0.08,0.58,0.16,0.46,0.18-0.62,1.6a3.81,3.81,0,0,0-.82-0.27,4.07,4.07,0,0,0-.86-0.11,2.34,2.34,0,0,0-1.43.46,4.47,4.47,0,0,0-1.09,1.17v9.1h-1.81V104.65h-0.06Z"/><path class="cls-2" d="M307.32,117.1a2.42,2.42,0,0,1-1-.29,6.71,6.71,0,0,1-1.06-.69,10.86,10.86,0,0,1-1.09-.95q-0.54-.54-1-1.12c-0.34-.37-0.66-0.75-0.95-1.12s-0.54-.72-0.77-1a8.85,8.85,0,0,1-.53-0.85,3.92,3.92,0,0,1-.24-0.43v6.18h-1.81V100.18l1.7-.32h0.11v10.59l4.81-5.77h2.32l-4.95,5.89a2.15,2.15,0,0,0,.32.59,10.22,10.22,0,0,0,.69.9,13.67,13.67,0,0,0,.95,1q0.53,0.53,1.09,1A9.61,9.61,0,0,0,307,115a4.18,4.18,0,0,0,1,.5Z"/><path class="cls-2" d="M308.85,104.65h1.35v-2.18l1.7-.32H312v2.5h3.33v1.68H312v6a4.92,4.92,0,0,0,.18,1.41,2.8,2.8,0,0,0,.46.95,1.6,1.6,0,0,0,.69.54,2.23,2.23,0,0,0,.86.16,3.52,3.52,0,0,0,1.11-.19,6.63,6.63,0,0,0,1.19-.53l0.5,1.6a9.16,9.16,0,0,1-1.6.54,5.89,5.89,0,0,1-1.47.19,4.13,4.13,0,0,1-1.49-.26,3.2,3.2,0,0,1-1.2-.83,3.75,3.75,0,0,1-.82-1.47,7.27,7.27,0,0,1-.29-2.18v-6h-1.35v-1.62h0.13Z"/><rect class="cls-2" x="104.83" y="19.76" width="0.67" height="140.48" transform="translate(-23.38 38.65) rotate(-18.78)"/><path class="cls-2" d="M83.15,89.71c-3.2-2.48-4.81,0-6.84-.14-1.73-.14-3.36-2.95-4.71-2.27-2.56,1.3,1,5.93,2.59,6.86a37.63,37.63,0,0,0,3.56,1.79,5.19,5.19,0,0,1,3.2,4.69,9,9,0,0,1-.13,2.27c-0.95,4-8,7.62-11.95,4.81a9.08,9.08,0,0,1-4.21-5.93c-1.07-5.25-4.81-9.1-6.09-14.24-0.74-3.12-1.28-6.41-2.1-9.61s-1.6-6.41-2.35-9.4a83.42,83.42,0,0,0-2.87-9.34c-3.83-10-5.57-9.29-5.57-9.29s1.39,2.77,6.41,27.33A145.35,145.35,0,0,0,55.5,92.61c0.48,1.28,1.33,4,1.87,5.21,1.6,3.52,5.88,8.84,6.17,13.65,0.16,2.77.48,5.08,0.54,7.18a22.43,22.43,0,0,0,.72,4.23c1,2.93,9.45,12.38,18.37,12.38v-7.16c-8.87,0-17.22-5-17.43-5.49a19.38,19.38,0,0,1,1.06-5.14A8.39,8.39,0,0,1,74,111.57c4.29-.3,6.89.95,9.16,0.95V89.71h0Z"/><path class="cls-2" d="M44.63,63.69C44.31,69.06,36,76.4,33.41,81.11a34.71,34.71,0,0,0-3.2,8.59,22.91,22.91,0,0,0,1.86,14.13c2.76,6.58-.37,9,1.78,7.67,2.66-2.16,2.26-7.22,2.07-10.38a45,45,0,0,1,0-8.52c0.74-5.72,4.2-11.84,7.14-16.13a14.74,14.74,0,0,0,1.6-12.81"/><path class="cls-2" d="M46.23,78.94s0.88,4.24-2.87,15.19c-9.8,28.59,8.94,31.3,14.27,38,0,0,2.07-2.92-6.41-12.24-3.06-3.41-5.86-10.91-3.4-21.67,3.52-15.52-1.51-19.35-1.51-19.35"/><path class="cls-2" d="M27.76,60.19a13.76,13.76,0,0,1-.48-4.55c0.45-6.73,6.55-9.43,8-10.44,0,0,2.74-1.87,3.09-3.78,0,0,2.8,7.08-3.64,11.13a18.32,18.32,0,0,0-7,7.64"/><path class="cls-2" d="M43.14,53.7c0.35,0.69,2.88,4.39-7.48,12.93s-7,14.64-7,14.64-11-6.13,1.6-16.74S40.32,51.71,40.32,51.71a3.2,3.2,0,0,1,2.8,1.92"/><path class="cls-2" d="M56.59,57c1.79,0.24,2.93,5.81,7.06,7,3,0.88,6.28.4,7,2.24A1.6,1.6,0,0,0,71.76,69C72.93,65.76,73.46,53.15,56.59,57Zm5.57,2.51c0.14-.4.37,0,0.82-0.37a5,5,0,0,1,1.76-1.46,3.2,3.2,0,0,1,1.86.11c0.35,0.08.14,1-.13,1.22-0.56.42-2.21-.27-2.21,1,0,2,2.74,0,4.15,0C69.1,64.91,60.95,63.55,62.17,59.48Z"/></svg>