<svg id="frame" xmlns="http://www.w3.org/2000/svg" viewBox="0 0 360 180"><defs><style>.cls-1{fill:none;}.cls-2{fill:#172a3d;}</style></defs><title>client-logo</title><rect class="cls-1" width="360" height="180"/><path class="cls-2" d="M72.34,42.88A47.12,47.12,0,1,0,119.59,90,47.24,47.24,0,0,0,72.34,42.88Zm8.54,14.22q-0.08-3-.19-5.91a39.57,39.57,0,0,1,8,2.65c0.94,0.43,1.86.88,2.76,1.37-0.08,1.86-.14,3.77-0.2,5.72q-0.14,4.72-.19,9.8c0,0.78,0,1.56,0,2.35Q90.95,92,93.16,104.84h0L80,106.52c0.34-5.32.6-11.36,0.77-18.08C80.91,83.65,81,78.52,81,73S81,62.28,80.88,57.11ZM54,126H53v-0.78c0-.39-1-0.84-1.72-1.28A16.66,16.66,0,0,1,46.37,120h0s0-1.19,0-1.8c0-1.41,0-2.82,0-4.29,0-4.87-.16-9.31-0.47-13.36A101.54,101.54,0,0,0,44.7,90.42l9.72-1.31c-0.07,1.2-.13,2.46-0.19,3.76-0.26,6-.39,13.39-0.39,21.44C53.84,118.17,53.91,122,54,126ZM48.7,87.17a6.49,6.49,0,1,1,6.5-6.49A6.5,6.5,0,0,1,48.7,87.17Zm24.53,42.5H72.34a39.8,39.8,0,0,1-8.36-.9c-0.59-.13-1.18-0.25-1.76-0.4h0q0.44-9.88.45-21.56,0-18.91-2.3-31.74l6-.81,7.1-1c-0.06,1-.11,2.09-0.17,3.17-0.21,4.3-.36,9-0.47,14.15S72.7,101,72.7,106.83c0,3.5,0,6.93.11,10.31q0.09,4.14.24,8.17C73.11,126.77,73.16,128.23,73.23,129.67Zm-0.44-62.5a8.74,8.74,0,1,1,1.75-5.24A8.77,8.77,0,0,1,72.79,67.17Zm14.83,59.55h0c-0.25,0-.5,0-0.75,0H86.72a8.76,8.76,0,0,1-.76-17.3l0.24,0a8.84,8.84,0,0,1,1.53-.13h0A8.76,8.76,0,1,1,87.62,126.72Z"/><polygon class="cls-2" points="130.14 82.25 132.55 82.25 135.95 94.06 136 94.06 139.41 82.25 141.81 82.25 136.86 97.75 135.09 97.75 130.14 82.25"/><path class="cls-2" d="M146.09,89h3.45a2.39,2.39,0,0,0,2.55-2.48,2.09,2.09,0,0,0-.75-1.76,2.56,2.56,0,0,0-1.67-.48h-3.57V89Zm-2.27-6.8h5.87a4.53,4.53,0,0,1,3.07,1,4.18,4.18,0,0,1,1.49,3.31,4.31,4.31,0,0,1-2.9,4.3l3.48,6.88h-2.7L149,91.13h-2.91v6.63h-2.27V82.25Z"/><rect class="cls-2" x="157.1" y="82.25" width="2.27" height="15.5"/><path class="cls-2" d="M163,94.43a2.5,2.5,0,0,0,.83.72,2.13,2.13,0,0,0,1.18.33,2.6,2.6,0,0,0,1.73-.65,2.2,2.2,0,0,0,.63-0.87,3.18,3.18,0,0,0,.24-1.31V82.18h2.27V92.87a4.69,4.69,0,0,1-1.48,3.62,4.86,4.86,0,0,1-3.32,1.33,4.64,4.64,0,0,1-4-2Z"/><polygon class="cls-2" points="171.84 82.25 174.24 82.25 176.6 93.27 176.64 93.27 179.55 82.25 181.2 82.25 184.11 93.27 184.15 93.27 186.51 82.25 188.91 82.25 185.16 97.75 183.26 97.75 180.4 86.57 180.35 86.57 177.48 97.75 175.59 97.75 171.84 82.25"/><rect class="cls-2" x="191.31" y="82.25" width="2.27" height="15.5"/><polygon class="cls-2" points="196.93 82.25 199.2 82.25 199.2 95.54 206.52 95.54 206.52 97.75 196.93 97.75 196.93 82.25"/><polygon class="cls-2" points="209.04 82.25 211.31 82.25 211.31 95.54 218.63 95.54 218.63 97.75 209.04 97.75 209.04 82.25"/><rect class="cls-2" x="221.15" y="82.25" width="2.27" height="15.5"/><path class="cls-2" d="M231.63,89.23H237v3.15a5.57,5.57,0,0,1-1.54,3.9,5.22,5.22,0,0,1-3.81,1.6,5.39,5.39,0,0,1-4.7-2.79c-0.11-.23-0.21-0.46-0.3-0.67a4.5,4.5,0,0,1-.21-0.83,26.79,26.79,0,0,1-.15-3.59,26.74,26.74,0,0,1,.15-3.62,4.37,4.37,0,0,1,.5-1.48A5.32,5.32,0,0,1,228.66,83a5.05,5.05,0,0,1,3-.87,5,5,0,0,1,3.54,1.33,5.92,5.92,0,0,1,1.73,3.27h-2.41a3.44,3.44,0,0,0-1-1.6,2.9,2.9,0,0,0-1.85-.65,3.06,3.06,0,0,0-1.38.33,2.88,2.88,0,0,0-.95.8,2.6,2.6,0,0,0-.59,1.29,19.17,19.17,0,0,0-.17,3.12,18.75,18.75,0,0,0,.17,3.1,2.62,2.62,0,0,0,.59,1.31,2.68,2.68,0,0,0,.95.78,2.61,2.61,0,0,0,1.38.35,2.87,2.87,0,0,0,2.2-.94,3.33,3.33,0,0,0,.89-2.36V91.44h-3.07V89.23Z"/><polygon class="cls-2" points="240.05 82.25 249.64 82.25 249.64 84.46 242.32 84.46 242.32 88.9 248.57 88.9 248.57 90.98 242.32 90.98 242.32 95.54 249.64 95.54 249.64 97.75 240.05 97.75 240.05 82.25"/><path class="cls-2" d="M254.43,89h3.45a2.39,2.39,0,0,0,2.55-2.48,2.09,2.09,0,0,0-.75-1.76,2.56,2.56,0,0,0-1.67-.48h-3.57V89Zm-2.27-6.8H258a4.53,4.53,0,0,1,3.06,1,4.18,4.18,0,0,1,1.49,3.31,4.31,4.31,0,0,1-2.9,4.3l3.48,6.88h-2.7l-3.11-6.63h-2.91v6.63h-2.27V82.25Z"/><path class="cls-2" d="M265.63,94a6.47,6.47,0,0,0,4.27,1.55q2.93,0,3-2.16a2,2,0,0,0-2-2.08l-2-.29A4.86,4.86,0,0,1,266,89.53a4.2,4.2,0,0,1-1-2.87,4.32,4.32,0,0,1,1.31-3.28,5,5,0,0,1,3.59-1.25,8.25,8.25,0,0,1,4.87,1.6l-1.27,1.93a6.74,6.74,0,0,0-3.72-1.19A2.78,2.78,0,0,0,268,85a2,2,0,0,0-.75,1.68,1.74,1.74,0,0,0,.5,1.21,2.86,2.86,0,0,0,1.62.77c0.41,0.07,1,.15,1.69.24a4.63,4.63,0,0,1,3.12,1.57,4.5,4.5,0,0,1,1,2.9q-0.11,4.45-5.27,4.51a8.38,8.38,0,0,1-5.73-2.12Z"/><polygon class="cls-2" points="276.58 82.25 278.99 82.25 281.34 93.27 281.38 93.27 284.3 82.25 285.95 82.25 288.85 93.27 288.89 93.27 291.26 82.25 293.66 82.25 289.91 97.75 288.01 97.75 285.14 86.57 285.1 86.57 282.23 97.75 280.33 97.75 276.58 82.25"/><polygon class="cls-2" points="296.06 82.25 305.65 82.25 305.65 84.46 298.33 84.46 298.33 88.9 304.58 88.9 304.58 90.98 298.33 90.98 298.33 95.54 305.65 95.54 305.65 97.75 296.06 97.75 296.06 82.25"/><path class="cls-2" d="M310.44,89h3.45a2.39,2.39,0,0,0,2.55-2.48,2.09,2.09,0,0,0-.75-1.76,2.56,2.56,0,0,0-1.67-.48h-3.57V89Zm-2.27-6.8H314a4.53,4.53,0,0,1,3.06,1,4.18,4.18,0,0,1,1.49,3.31,4.31,4.31,0,0,1-2.9,4.3l3.48,6.88h-2.7l-3.11-6.63h-2.91v6.63h-2.27V82.25Z"/><polygon class="cls-2" points="321.45 82.25 323.72 82.25 323.72 90.23 323.77 90.23 329.95 82.25 332.65 82.25 327.84 88.36 333.16 97.75 330.45 97.75 326.36 90.17 323.72 93.03 323.72 97.75 321.45 97.75 321.45 82.25"/></svg>