<svg class="h-full w-full" id="laravel" xmlns="http://www.w3.org/2000/svg" viewBox="0 0 304.82 208.62"><title>laravel</title><path d="M351.3,193.3c-2-2.3-29.9-37.2-34.8-43.1s-7.3-4.8-10.3-4.4-38.1,6.4-42.5,7.1-6.7,2.3-4.1,5.9l30.6,43.3-92.4,22L124.4,101.5c-2.9-4.3-3.5-6-10.1-5.6s-57.6,4.8-61.2,4.8-7.7,1.9-4,10.5,61.4,133.3,63,136.8a12.22,12.22,0,0,0,15.6,7.1c10.1-2.4,44.9-11.5,64-16.5,10.1,18.3,30.6,55.2,34.4,60.5,5,7.1,8.6,5.9,16.3,3.5,6.1-1.9,95.3-33.9,99.1-35.5s6.5-2.8,3.8-6.9c-2-2.8-25.4-34.2-37.7-50.4l41.6-11.1C352.8,197.4,353.3,195.4,351.3,193.3ZM183.4,227.6l-55.6,13.2c-2.8.6-2.8,0.3-3.1-.6S63.2,113.1,62.4,111.5s-0.8-2.8,0-2.8,48.8-4.3,50.5-4.4,1.5,0.3,2.1,1.3l69,119.2C185.3,226.7,185.7,227,183.4,227.6Zm145.8,27.3c0.8,1.3,1.7,2.1-1,3.1s-87.5,29.6-89.1,30.4-3,1-5-2.1-29.7-50.9-29.7-50.9l90-23.4c2.6-.9,3.2-0.5,4.4,1s29.9,40.7,30.4,41.9h0ZM335,191l-35,8.7-27-37.1c-0.8-1.1-1.4-2.1.5-2.4s32.6-5.8,34-6.1a3.34,3.34,0,0,1,4.3,1.6c1.7,2.3,25.1,31.9,26,33.1s-0.8,1.8-2.8,2.2h0Z" transform="translate(-47.64 -95.84)" style="fill:#f0543f"/><path d="M185.1,226.5c0,0.5-.3.7-1.6,1l-7.3,1.8,6.6,11.6,9.1-2.4" transform="translate(-47.64 -95.84)" style="fill:#2b2626;opacity:0.4000000059604645;isolation:isolate"/><g style="opacity:0.4000000059604645"><path d="M297.4,211.6a4,4,0,0,1,1.3,1.3l4.4,6.2,9.5-2.9-5.1-6.7" transform="translate(-47.64 -95.84)" style="fill:#2b2626"/></g></svg>
