<svg class="w-auto h-full" xmlns="http://www.w3.org/2000/svg" viewBox="0 0 595.28 255.12">
<style type="text/css">
	.st0{fill:#007B99;}
	.st1{fill:#FFFFFF;}
</style>
<g>
	<g>
		<g>
			<g>
				<path class="st0" d="M0.7,10.4C0.7,5,5.3,0.6,11,0.6l574,0c5.7,0,10.3,4.4,10.3,9.8v235.3c0,5.4-4.6,9.8-10.3,9.8H11
					c-5.6,0-10.3-4.4-10.3-9.8L0.7,10.4z"/>
			</g>
		</g>
		<g>
			<path class="st1" d="M96.2,157.1l10.9-14.8c6.4,5.3,13.8,8.9,21.5,8.9c5.4,0,8.3-2.4,8.3-5.8v-0.1c0-3.2-2.4-5.1-11.7-8.4
				c-14.9-5.1-25.5-10.5-25.5-24.9v-0.3c0-14.4,11-24.4,28.3-24.4c10.6,0,20,2.9,28.3,9.6L146,112.1c-5.4-4.2-12-7.2-18.4-7.2
				c-4.6,0-7.2,2.3-7.2,5.2v0.1c0,3.5,2.5,5.3,12.6,9c15,4.9,24.4,11,24.4,24.4v0.2c0,15.4-11.9,24.9-28.8,24.9
				C116.7,168.7,105.5,165.1,96.2,157.1z"/>
			<path class="st1" d="M176.2,88.5h28.3c18.7,0,30.9,9.7,30.9,27.5v0.5c0,19-13.8,28.1-31.1,28.3h-7.8v23h-20.2V88.5z"/>
			<path class="st1" d="M267.6,88h20.6l27.9,79.6h-76.4L267.6,88z"/>
			<path class="st1" d="M338.9,106.7h-19.6V88.4h59.5v18.3h-19.6v60.9h-20.4V106.7z"/>
			<path class="st1" d="M396.4,88.4h20.4v79.2h-20.4V88.4z"/>
			<path class="st1" d="M444.8,88.4h54.5v17.9H465v13h31v16.9h-31v13.6h34.8v17.9h-55V88.4z"/>
		</g>
	</g>
	<path class="st0" d="M295.7,163.4c-4.6-0.9-7.3-1.1-14.5-1.2v10.3c0,0.3-1.6,0.5-3.6,0.5c-2,0-3.6-0.2-3.6-0.5v-10.3
		c-7.3,0.1-9.9,0.4-14.5,1.2h0c0,0,6.5-9.1,11.7-18.4c-2.2,0.2-4.3,0.5-6.3,0.9h0c0,0,5.9-9.1,9.6-17.2c-1.5,0.1-2.9,0.3-4.1,0.7h0
		c0,0,5.9-11.3,7.1-17.1h0.4c1.1,5.8,7.1,17.1,7.1,17.1h0c-1.3-0.3-2.7-0.5-4.1-0.7c3.8,8.1,9.6,17.2,9.6,17.2h0
		c-2-0.4-4.1-0.7-6.3-0.9C289.2,154.2,295.7,163.4,295.7,163.4L295.7,163.4z"/>
	<g>
		<g>
			<ellipse class="st0" cx="203.7" cy="117.2" rx="11.3" ry="10.6"/>
		</g>
		<g>
			<path class="st0" d="M206,104.5h-4.5c-0.3,0-0.5,0.2-0.5,0.5v2.4c0,0.3,0.2,0.5,0.5,0.5h4.5c0.3,0,0.5-0.2,0.5-0.5V105
				C206.5,104.8,206.2,104.5,206,104.5z"/>
		</g>
		<g>
			<rect x="203.1" y="83.7" class="st0" width="1.2" height="21.7"/>
		</g>
	</g>
	<g>
		<g>
			<ellipse class="st0" cx="217.9" cy="103.4" rx="7" ry="6.6"/>
		</g>
		<g>
			<path class="st0" d="M219.1,95.5h-2.4c-0.3,0-0.5,0.2-0.5,0.5v1.1c0,0.3,0.2,0.5,0.5,0.5h2.4c0.3,0,0.5-0.2,0.5-0.5V96
				C219.7,95.7,219.4,95.5,219.1,95.5z"/>
		</g>
		<g>
			<rect x="217.5" y="82.5" class="st0" width="0.7" height="13.5"/>
		</g>
	</g>
	<polygon class="st1" points="413.4,65.3 407.2,46 416.7,63.9 421.1,58 420.1,65.2 439.4,59.1 421.5,68.6 427.4,72.9 420.2,72 
		426.3,91.3 416.8,73.4 412.5,79.2 413.4,72 394.1,78.2 412,68.7 406.2,64.3 	"/>
</g>
</svg>
