<svg id="logo-flux50" xmlns="http://www.w3.org/2000/svg" viewBox="0 0 360 180"><defs><style>.cls-1{fill:none;}.cls-2{fill:#172a3d;}</style></defs><title>Flux50</title><rect class="cls-1" width="360" height="180"/><path class="cls-2" d="M232.49,111.3L216.44,94l16.17-16.5a5.82,5.82,0,1,0-8.31-8.16L208.5,85.52l-4.58-4.92c-7.85-8.72-15.33-13.15-22.24-13.15-10.26,0-18,6.42-20.82,17.18-1.19,3.64-3.09,10.42-4,13.93-2.49,9.4-9.77,10.8-13.88,10.8a10.2,10.2,0,0,1-7.17-2.95,9.71,9.71,0,0,1-3-7V73.35a5.8,5.8,0,1,0-11.6,0V99.46a21.23,21.23,0,0,0,6.46,15.26A21.72,21.72,0,0,0,143,121,25,25,0,0,0,168,101.55C169,98,170.87,91.3,171.93,88.08l0.06-.19,0-.2a12.81,12.81,0,0,1,3.58-6.55,8.73,8.73,0,0,1,6-2.07c3.41,0,6.06.91,13.62,9.31,0.22,0.24,17.71,19,28.71,30.84a5.8,5.8,0,1,0,8.49-7.91"/><path class="cls-2" d="M108.93,109.37a10.19,10.19,0,0,1-7.17-2.95,9.7,9.7,0,0,1-3-7V52a5.8,5.8,0,1,0-11.59,0V99.46a21.22,21.22,0,0,0,6.46,15.26A21.72,21.72,0,0,0,108.93,121a5.8,5.8,0,0,0,0-11.61"/><path class="cls-2" d="M65.4,52.15a10.19,10.19,0,0,1,7.16-2.95,5.8,5.8,0,0,0,0-11.61,21.71,21.71,0,0,0-15.28,6.26,21.24,21.24,0,0,0-6.46,15.26v8.29H46.67a5.8,5.8,0,0,0,0,11.61h4.15v36.14a5.8,5.8,0,1,0,11.6,0V79H72.59a5.8,5.8,0,0,0,0-11.61H62.42V59.12a9.71,9.71,0,0,1,3-7"/><path class="cls-2" d="M232.39,78.34"/><path class="cls-2" d="M199.8,102.79a5.81,5.81,0,0,0-8.22.26l-8,8.13a5.82,5.82,0,1,0,8.49,8l8-8.14a5.83,5.83,0,0,0-.26-8.23"/><path class="cls-2" d="M314.55,91.3a18.94,18.94,0,0,0-32.39,13.4l0,18.64a19,19,0,0,0,19,19.06,19,19,0,0,0,19-19V104.76A19,19,0,0,0,314.55,91.3Zm-23.88,13.41a10.44,10.44,0,1,1,20.87,0v18.63a10.46,10.46,0,0,1-3.06,7.42,10.34,10.34,0,0,1-7.38,3.06,10.5,10.5,0,0,1-10.45-10.51Z"/><path class="cls-2" d="M267.61,108a19,19,0,0,0-12.06-4.38h-5.12V93.74h19.19a4.28,4.28,0,0,0,0-8.55h-23.5a4.27,4.27,0,0,0-4.24,4.3v18.14a4.62,4.62,0,0,0,4.44,4.49h9.23a10.39,10.39,0,0,1,6.64,2.43,10.52,10.52,0,0,1-6.72,18.62,10.67,10.67,0,0,1-8.18-3.86,4.27,4.27,0,1,0-6.6,5.41A19.07,19.07,0,1,0,267.61,108Z"/></svg>
