<svg id="logo-krauthammer" xmlns="http://www.w3.org/2000/svg" viewBox="0 0 360 180"><defs><style>.cls-1{fill:none;}.cls-2{fill:#172a3d;}</style></defs><title>Krauthammer</title><rect class="cls-1" width="360" height="180"/><path class="cls-2" d="M48.53,129.27v-5.46H47.27v-1.17h1.26v-2.71h1.35v2.71h2.89v1.17H49.89v5.28a1.35,1.35,0,0,0,1.53,1.49,2.79,2.79,0,0,0,1.31-.32v1.17a3.61,3.61,0,0,1-1.62.41,2.29,2.29,0,0,1-2.57-2.57m6.59-10.38h1.35v5.28a3.39,3.39,0,0,1,3.11-1.76A3.33,3.33,0,0,1,63.06,126v5.59H61.71v-5.28a2.39,2.39,0,0,0-2.48-2.71,2.64,2.64,0,0,0-2.71,2.84v5.19H55.16V118.89h0Zm10.2,8.3a4.46,4.46,0,0,1,4.33-4.74c2.66,0,4.2,2.12,4.2,4.78v0.45H66.67a3.16,3.16,0,0,0,3.2,3.07,3.67,3.67,0,0,0,2.84-1.26l0.86,0.77A4.78,4.78,0,0,1,69.83,132a4.56,4.56,0,0,1-4.51-4.78m7.17-.54c-0.14-1.62-1.08-3.07-2.89-3.07a3.11,3.11,0,0,0-2.93,3.07h5.82Zm9-7.76h1.35v5.28a3.39,3.39,0,0,1,3.11-1.76A3.33,3.33,0,0,1,89.41,126v5.59H88.05v-5.28a2.39,2.39,0,0,0-2.48-2.71,2.64,2.64,0,0,0-2.71,2.84v5.19H81.51V118.89h0Zm10.24,8.3A4.46,4.46,0,0,1,96,122.46c2.66,0,4.2,2.12,4.2,4.78v0.45H93.06a3.16,3.16,0,0,0,3.2,3.07,3.67,3.67,0,0,0,2.84-1.26l0.86,0.77A4.78,4.78,0,0,1,96.22,132a4.56,4.56,0,0,1-4.51-4.78m7.17-.54c-0.14-1.62-1.08-3.07-2.89-3.07a3.11,3.11,0,0,0-2.93,3.07h5.82Z"/><path class="cls-2" d="M101.9,129.09c0-1.94,1.58-3,3.88-3a8.33,8.33,0,0,1,2.8.41V126.2c0-1.62-1-2.48-2.71-2.48a6,6,0,0,0-2.75.68l-0.41-1.08a7.54,7.54,0,0,1,3.29-.77,4,4,0,0,1,2.93,1,3.55,3.55,0,0,1,.95,2.66v5.55h-1.31V130.4a4,4,0,0,1-3.29,1.58c-1.67,0-3.38-1-3.38-2.89m6.68-.72v-0.86a10,10,0,0,0-2.66-.41c-1.71,0-2.66.72-2.66,1.85v0a2,2,0,0,0,2.26,1.8c1.71,0,3.07-1,3.07-2.44m4.15-5.68h1.35V125a4,4,0,0,1,3.7-2.53v1.44h-0.09c-2,0-3.56,1.4-3.56,4.15v3.61h-1.35l0-9h0Zm7.53,6.59v-5.46H119v-1.17h1.26v-2.71h1.35v2.71h2.89v1.17h-2.89v5.28a1.35,1.35,0,0,0,1.53,1.49,2.79,2.79,0,0,0,1.31-.32v1.17a3.61,3.61,0,0,1-1.62.41,2.31,2.31,0,0,1-2.57-2.57"/><path class="cls-2" d="M131.54,127.19a4.68,4.68,0,0,1,4.62-4.74h0.12A4.63,4.63,0,0,1,141,127s0,0.08,0,.12v0a4.71,4.71,0,0,1-4.67,4.74h-0.06a4.64,4.64,0,0,1-4.69-4.59s0-.1,0-0.15m8.08,0a3.41,3.41,0,0,0-3.34-3.56,3.37,3.37,0,0,0-3.29,3.52v0a3.4,3.4,0,0,0,3.28,3.52h0.06a3.34,3.34,0,0,0,3.29-3.52m4.33-3.38h-1.26v-1.17h1.26v-0.77a3.33,3.33,0,0,1,.77-2.35,2.71,2.71,0,0,1,1.94-.72,4.7,4.7,0,0,1,1.49.23v1.17a4.69,4.69,0,0,0-1.31-.23c-1,0-1.58.63-1.58,1.94v0.72h2.89v1.17H145.3v7.85h-1.35v-7.85h0Zm10.56,3.38a4.46,4.46,0,0,1,4.33-4.74c2.66,0,4.2,2.12,4.2,4.78v0.45h-7.17a3.16,3.16,0,0,0,3.2,3.07,3.67,3.67,0,0,0,2.84-1.26l0.86,0.77A4.78,4.78,0,0,1,159,132a4.56,4.56,0,0,1-4.51-4.78m7.22-.54c-0.14-1.62-1.08-3.07-2.89-3.07a3.11,3.11,0,0,0-2.93,3.07h5.82Zm3.7-4h1.35v1.58a3.39,3.39,0,0,1,3.11-1.76,3.33,3.33,0,0,1,3.47,3.61v5.59H172v-5.28a2.39,2.39,0,0,0-2.48-2.71,2.64,2.64,0,0,0-2.71,2.84v5.19h-1.35l0-9.07h0Zm10.69,10.6,0.63-1a5.66,5.66,0,0,0,3.47,1.17,3,3,0,0,0,3.29-3.2v-1.08a4.29,4.29,0,0,1-3.56,1.89,4.18,4.18,0,0,1-4.24-4.11s0-.08,0-0.13v0a4.27,4.27,0,0,1,7.76-2.48v-1.62h1.35v7.49a4.22,4.22,0,0,1-1.17,3.2,4.75,4.75,0,0,1-3.43,1.22,7.35,7.35,0,0,1-4.11-1.26m7.4-6.54a3.2,3.2,0,0,0-3.34-3.11,3,3,0,0,0-3.11,2.8q0,0.11,0,.22v0a3,3,0,0,0,3,3.07h0.08a3.15,3.15,0,0,0,3.34-3m3.61,2.35c0-1.94,1.58-3,3.88-3a8.33,8.33,0,0,1,2.8.41V126.2c0-1.62-1-2.48-2.71-2.48a6,6,0,0,0-2.75.68l-0.41-1.08a7.54,7.54,0,0,1,3.29-.77,4,4,0,0,1,2.93,1,3.55,3.55,0,0,1,.95,2.66v5.55H193.8V130.4A4,4,0,0,1,190.5,132c-1.67,0-3.38-1-3.38-2.89m6.68-.72v-0.86a10,10,0,0,0-2.66-.41c-1.71,0-2.66.72-2.66,1.85v0a2,2,0,0,0,2.26,1.8c1.71,0,3.07-1,3.07-2.44m4.06,4.92,0.63-1a5.66,5.66,0,0,0,3.47,1.17,3,3,0,0,0,3.29-3.2v-1.08a4.29,4.29,0,0,1-3.56,1.89,4.18,4.18,0,0,1-4.24-4.11s0-.08,0-0.13v0a4.27,4.27,0,0,1,7.76-2.48v-1.62h1.35v7.49a4.22,4.22,0,0,1-1.17,3.2,4.75,4.75,0,0,1-3.43,1.22,7.13,7.13,0,0,1-4.11-1.26m7.4-6.54a3.2,3.2,0,0,0-3.34-3.11,3,3,0,0,0-3.11,2.8q0,0.11,0,.22v0a3,3,0,0,0,3,3.07h0.08a3.15,3.15,0,0,0,3.34-3m3.74,0.45a4.46,4.46,0,0,1,4.33-4.74c2.66,0,4.2,2.12,4.2,4.78v0.45h-7.17a3.16,3.16,0,0,0,3.2,3.07,3.67,3.67,0,0,0,2.84-1.26l0.86,0.77a4.78,4.78,0,0,1-3.74,1.71,4.56,4.56,0,0,1-4.51-4.78m7.17-.54c-0.14-1.62-1.08-3.07-2.89-3.07a3.11,3.11,0,0,0-2.93,3.07h5.82Zm3.74-4h1.35v1.53a3.28,3.28,0,0,1,2.93-1.71,3,3,0,0,1,2.89,1.8,3.61,3.61,0,0,1,3.2-1.8c2.08,0,3.34,1.4,3.34,3.65v5.59h-1.35v-5.28c0-1.76-.86-2.71-2.35-2.71a2.51,2.51,0,0,0-2.48,2.8v5.23H226.1v-5.32c0-1.71-.9-2.71-2.35-2.71a2.61,2.61,0,0,0-2.53,2.84v5.14h-1.35v-9.07h0ZM236,127.19a4.46,4.46,0,0,1,4.33-4.74c2.66,0,4.2,2.12,4.2,4.78v0.45h-7.17a3.16,3.16,0,0,0,3.2,3.07,3.67,3.67,0,0,0,2.84-1.26l0.86,0.77a4.78,4.78,0,0,1-3.74,1.71,4.56,4.56,0,0,1-4.51-4.78m7.17-.54c-0.14-1.62-1.08-3.07-2.89-3.07a3.11,3.11,0,0,0-2.93,3.07h5.82Zm3.74-4h1.35v1.58a3.39,3.39,0,0,1,3.11-1.76,3.33,3.33,0,0,1,3.47,3.61v5.59h-1.35v-5.28a2.39,2.39,0,0,0-2.48-2.71,2.64,2.64,0,0,0-2.71,2.84v5.19h-1.35v-9.07h0Zm11.23,6.59v-5.46h-1.26v-1.17h1.26v-2.71h1.35v2.71h2.89v1.17h-2.89v5.28a1.35,1.35,0,0,0,1.53,1.49,2.79,2.79,0,0,0,1.31-.32v1.17a3.61,3.61,0,0,1-1.62.41,2.31,2.31,0,0,1-2.57-2.57"/><path id="SVGID" class="cls-2" d="M229.3,54.2l0.32,0.68s30.86-11.64,62.89-4.51C328,58.26,329.82,79.1,329.82,79.1s-8.89-18-42.81-22.6c-27.2-3.7-53.87,6.18-53.87,6.18l0.32,0.68s24.5-7.67,48.9-2c25,5.82,28,22.38,28,22.38s-7.44-13.26-33.07-16.69c-19.49-2.62-40.51,3.52-40.51,3.52l0.32,0.63s14.39-3.65,33.29.72c20.26,4.65,23.19,16.74,23.19,16.74s-3.38-7.13-20-10.65C259,75,240.4,78.56,240.4,78.56l0.36,0.81s41.28-6.32,48,11.86c4.83,13-19.17,26.53-19.17,26.53l0.18,0.36s26-11.5,28.11-27.16c2.35-17.68-25-21.47-25-21.47s30.81,2.62,32.08,21.7c1,15.7-21.34,29.41-21.34,29.41L283.8,121s23.55-10.74,30.45-29.1c7.22-19.26-15.79-28.51-15.79-28.51s25.94,6.14,24.63,27.52c-1.13,18.77-25.58,32.71-25.58,32.71l0.18,0.36s29.05-13.76,36.5-34.51c6.45-18-6.81-34.29-28.29-40.2a110.34,110.34,0,0,0-29.14-3.79A133.92,133.92,0,0,0,229.3,54.2"/><path class="cls-2" d="M227.95,112h-6.32V100.71c0-2.71-.86-4.11-3.07-4.11s-3.47,1.44-3.47,4.11V112h-6V100.71c0-2.71-1.31-4.11-3.47-4.11S202,98.05,202,100.71V112h-5.77V91.51h6v2.75a7.44,7.44,0,0,1,6-3.16,6.22,6.22,0,0,1,5.82,3.2,8.6,8.6,0,0,1,6.77-3.2c4.51,0,7.08,2.8,7.08,7.67Zm-80.84-9.47c-2.93,0-4.69,1.22-4.69,3.29v0.09c0,1.8,1.58,3,3.88,3,3.11,0,5.37-1.8,5.37-4.29v-1.31a14.44,14.44,0,0,0-4.56-.77M145,112.44c-3.52,0-7.31-2-7.31-6.36V106c0-4.24,3.11-6.63,8.48-6.63a17.45,17.45,0,0,1,5.37.81V99.81c0-2.84-1.71-4.33-5-4.33a13.76,13.76,0,0,0-5.77,1.26l-0.09,0L139.39,93l0.09,0a17.65,17.65,0,0,1,7.71-1.67c3,0,5.37.81,6.81,2.3a8.71,8.71,0,0,1,2.21,6.36v12.18h-4.74v-2.44a8.15,8.15,0,0,1-6.5,2.8M46.55,112H44.38L33,97.33l-7.08,6.95V112H24.17V84.43h1.71v17.5l18-17.5h2.44L34.19,96.16Zm2.12-20.53h1.89v5.59a9.32,9.32,0,0,1,8.71-5.91v2.08H59.09c-4.56,0-8.53,3.43-8.53,9.83V112H48.67V91.46h0Zm25.9,1.89a8.67,8.67,0,0,0-6.32-2.21,15.81,15.81,0,0,0-7,1.71l-0.14,0,0.81,1.89,0.14,0a12.77,12.77,0,0,1,6.09-1.58c4.11,0,6.36,2.08,6.36,5.86V100a24.55,24.55,0,0,0-6.36-.81c-5.23,0-8.75,2.75-8.75,6.81v0.09a5.65,5.65,0,0,0,2.48,4.74,9.2,9.2,0,0,0,5.23,1.58,9.07,9.07,0,0,0,7.4-3.47v3h2.12V99a7.58,7.58,0,0,0-2-5.64m-7.35,17c-2.75,0-5.55-1.49-5.55-4.38v-0.09c0-2.89,2.48-4.74,6.36-4.74a26.14,26.14,0,0,1,6.54.86v2.12c0,3.47-3.34,6.23-7.35,6.23m27.7-18.9v12A5.86,5.86,0,0,1,89,109.64c-3.43,0-5.46-2.21-5.46-6V91.46H80.43v13a8.45,8.45,0,0,0,2,5.82,8.11,8.11,0,0,0,12.45-1.49v3.29H98V91.37Zm21.79-7.53h4.38V94.8a7.38,7.38,0,0,1,6.36-3.56c4.6,0,7.13,3.07,7.13,7.8v13H130V100.49c0-3.16-1.58-5-4.38-5s-4.6,1.89-4.6,5.05V112H116.7V83.88ZM100.91,94.76h2.71v11.86c0,4,1.8,5.82,5.68,5.82a8.17,8.17,0,0,0,4-.9v-3.11a7.22,7.22,0,0,1-2.57.5,2.73,2.73,0,0,1-3-3.07V94.76h5.68V91.42h-5.68V85.55h-4v5.82H101v3.34h0v0Zm83.82-3.61A8.38,8.38,0,0,0,178,94.4a6.14,6.14,0,0,0-5.77-3.25,7.91,7.91,0,0,0-6.59,3.29V91.51h-5.05l0,20.48h5V100.44a3.75,3.75,0,0,1,4.06-4.06c3.52,0,3.65,3.38,3.65,4.15,0,0.54,0,11.46,0,11.46h5.32V100.58c0-2.75,1.62-4.15,3.79-4.15s3.7,1.4,3.7,4.15V112h5.55V98.64c0-5-2.66-7.49-6.95-7.49m46.15,10.56v-0.09c0-6,4.29-10.69,10.29-10.69,7,0,10.29,5.19,10.29,11.19,0,0.45,0,1,0,1.49H237.74a4.24,4.24,0,0,0,4.42,3.34,6,6,0,0,0,4.51-2.08l4,3.29a10.72,10.72,0,0,1-8.84,4.15c-6.36,0-10.92-4.29-10.92-10.6m13.89-1.76c-0.27-2.26-1.62-3.7-3.56-3.7s-3.16,1.44-3.56,3.7h7.13Z"/><path class="cls-2" d="M254.43,112H262V105.4s0-3.65,2-5.19a6.89,6.89,0,0,1,4.51-1.13v-8a9,9,0,0,0-3.52.63,6.06,6.06,0,0,0-2.93,3.07V91.33h-7.58l0,20.66h0Z"/></svg>
