<svg id="logo-mutsy" xmlns="http://www.w3.org/2000/svg" viewBox="0 0 360 180"><defs><style>.cls-1{fill:none;}.cls-2{fill:#172a3d;}</style></defs><title>Mutsy</title><rect class="cls-1" width="360" height="180"/><path class="cls-2" d="M24.14,89.88V59.25c0-9.66,7.3-14.73,18.14-14.73,4.74,0,9.93,3,13.21,6.75a17.64,17.64,0,0,1,14-6.75c8.75,0,16.77,5.12,16.77,14.73V89.87H74.09V63.27c0-4.56-2.11-7.11-6.38-7.11a7.42,7.42,0,0,0-6.38,4.11V89.89H49.11V63.27c0-4.56-2.09-7.11-6.37-7.11s-6.38,2.56-6.38,7.11V89.88H24.14Z"/><path class="cls-2" d="M104.61,45.52V72.12c0,4.56,2.37,7.11,6.64,7.11s6.66-2.55,6.66-7.11V45.52h11.63V76.15c0,9.65-7.49,14.73-18.33,14.73S92.9,85.77,92.9,76.15V45.52h11.71Z"/><path class="cls-2" d="M156.28,45.52v11.3h-7.1V74c0,3.28,1.65,4.9,4,4.9h4.48V89.81h-6.1c-10.8,0-14-6.37-14-16.22V33.68h11.65V45.52h7.1Z"/><path class="cls-2" d="M164.12,78.88h15c2.19,0,3.3-1.09,3.3-2.46,0-5.56-17.88-6.88-17.88-17.87,0-9.57,6.74-13,14.4-13h14V56.45H179.53c-1.48,0-2.94.17-2.94,2,0,4,18.76,6.2,18.76,17.87,0,8.84-6.56,13.48-14.95,13.48H164.12V78.88h0Z"/><path class="cls-2" d="M213.42,45.52V71.4c0,4.9,1.83,7.86,6.88,7.86s6.88-2.94,6.88-7.86V45.52h11.67V73.76c0,8.21-4,14.59-12.42,16.41v13.5H214.16V90.19a14.86,14.86,0,0,1-9.29-5.85,17.49,17.49,0,0,1-3.1-10.58V45.52h11.66Z"/><path class="cls-2" d="M310.78,85.31A5.18,5.18,0,1,0,316,90.49v0a5.19,5.19,0,0,0-5.19-5.19m-19.31,0a5.18,5.18,0,1,0,5.18,5.19,5.18,5.18,0,0,0-5.18-5.19m30-6.59a4.28,4.28,0,0,0,3.92-4.28,4.32,4.32,0,0,0-4.28-4.3h-29.8L312.46,49a4.28,4.28,0,1,0-6-6.07L278,71.33a4.18,4.18,0,0,0-1.24,3,4.29,4.29,0,0,0,3.92,4.3h40.84ZM301.1,33.92a34.76,34.76,0,1,1-34.75,34.77v0A34.75,34.75,0,0,1,301.1,33.92"/><path class="cls-2" d="M332.11,133.92a4.34,4.34,0,0,1-4.15,2.63,4.47,4.47,0,0,1-4.53-4.42,2.59,2.59,0,0,1,0-.31,5,5,0,0,1,1.25-3.41,4.57,4.57,0,0,1,6.47,0,4.65,4.65,0,0,1,.94,1.4h3.75a8.09,8.09,0,1,0,0,4h-3.75Zm-19.64,5.59h3.66V124.16h-3.66v15.35Zm0-17.42h3.66v-3.27h-3.66v3.27Zm-17.23,9.7a4.55,4.55,0,0,1,4.43-4.67h0.15a4.23,4.23,0,0,1,3.46,1.54,5.11,5.11,0,0,1,1.12,3.3,4.7,4.7,0,0,1-1.32,3.27,4.37,4.37,0,0,1-3.27,1.32,4.54,4.54,0,0,1-4.59-4.48v-0.25h0v0Zm12.84-7.62h-3.69v2.06a5.65,5.65,0,0,0-5-2.51,8.15,8.15,0,0,0-.47,16.27h0.47a5.47,5.47,0,0,0,5-2.74v1.33a4.46,4.46,0,0,1-4.27,4.62h-0.29a4.38,4.38,0,0,1-2-.53,3.46,3.46,0,0,1-1.6-1.58H292c0.56,2.37,2.84,5.23,7.62,5.23a8.86,8.86,0,0,0,7.05-3.15,8.67,8.67,0,0,0,1.43-5.43V124.16h0Zm-33.14,7.71a4.63,4.63,0,0,1,4.45-4.78h0.2a4.52,4.52,0,0,1,4.28,2.71,4.8,4.8,0,0,1,.42,2.16,5.24,5.24,0,0,1-.58,2.15,4.33,4.33,0,0,1-4.08,2.46,4.59,4.59,0,0,1-4.67-4.53V131.9h0v0Zm13-7.71h-3.66v2.23a5.73,5.73,0,0,0-5.18-2.71,7.77,7.77,0,0,0-7.81,7.72c0,0.14,0,.27,0,0.41,0,4.33,2.88,8.16,7.8,8.16a5.73,5.73,0,0,0,5.18-2.68v2.25h3.66V124.16Zm-43.59,15.38H248v-8.31a5.62,5.62,0,0,1,.58-2.66,2.89,2.89,0,0,1,2.63-1.43,2.7,2.7,0,0,1,2.52,1.43,5.77,5.77,0,0,1,.47,2.55v8.42h3.66v-8.42a4.85,4.85,0,0,1,.53-2.57,2.86,2.86,0,0,1,2.66-1.39,2.45,2.45,0,0,1,2.41,1.25,5.3,5.3,0,0,1,.62,2.86v8.27h3.66v-8.42c0-3.17-.29-4.42-1.68-5.89a6,6,0,0,0-8,0,6.33,6.33,0,0,0-1.11,1.45,6.92,6.92,0,0,0-.92-1.39,5,5,0,0,0-3.77-1.58,5.07,5.07,0,0,0-4.48,2.41v-2h-3.44v15.37h0Zm-27.84,0h3.66v-8.47c0-2.15.89-3.92,3.5-3.92s3.33,1.76,3.33,4.06v8.34h3.7v-9.25c0-2.71-1-6.54-6-6.57a5,5,0,0,0-4.78,2.51v-2h-3.44v15.33h0ZM199,131.92a4.63,4.63,0,0,1,4.45-4.78h0.2a4.52,4.52,0,0,1,4.28,2.71,4.8,4.8,0,0,1,.42,2.16,5.44,5.44,0,0,1-.58,2.15,4.33,4.33,0,0,1-4.08,2.46,4.59,4.59,0,0,1-4.67-4.53v-0.14h0v0Zm13-7.76h-3.66v2.23a5.73,5.73,0,0,0-5.18-2.71,7.77,7.77,0,0,0-7.81,7.72c0,0.14,0,.27,0,0.41,0,4.33,2.88,8.16,7.8,8.16a5.73,5.73,0,0,0,5.18-2.68v2.25H212V124.16Zm-43.63,15.38h3.66v-8.31a5.62,5.62,0,0,1,.58-2.66,2.87,2.87,0,0,1,2.63-1.43,2.69,2.69,0,0,1,2.51,1.43,5.58,5.58,0,0,1,.48,2.55v8.42h3.66v-8.42a4.85,4.85,0,0,1,.53-2.57,2.86,2.86,0,0,1,2.66-1.39,2.45,2.45,0,0,1,2.41,1.25,5.19,5.19,0,0,1,.62,2.86v8.27h3.66v-8.42c0-3.17-.29-4.42-1.68-5.89a5.82,5.82,0,0,0-9.11,1.45,6.92,6.92,0,0,0-.92-1.39,5,5,0,0,0-3.77-1.58,5.07,5.07,0,0,0-4.48,2.41v-2H168.4v15.37h0Zm-4.48-15.38h-3.66v8.52c0,2.19-.89,3.92-3.53,3.92s-3.35-1.76-3.35-4v-8.36H149.7v9.28c0,2.68,1,6.51,6,6.54a4.9,4.9,0,0,0,4.78-2.51v2h3.45v-15.4h0Zm-32.34,15.38h3.66V131a4.48,4.48,0,0,1,.65-2.46,3.14,3.14,0,0,1,2.83-1.34,3.06,3.06,0,0,1,2.66,1.19,5.1,5.1,0,0,1,.7,2.94v8.24h3.66V131.1a9.27,9.27,0,0,0-1.2-5.23c-0.89-1.34-2.37-2.15-4.76-2.15a4.91,4.91,0,0,0-4.53,2.28v-7.15h-3.66v20.69h0Zm-25.19-9.25a4.16,4.16,0,0,1,4.33-3.48,4.22,4.22,0,0,1,4.36,3.48h-8.69Zm12.3,2.79a8.27,8.27,0,0,0-2.27-7,7.83,7.83,0,0,0-5.74-2.35,8.15,8.15,0,1,0,.06,16.3,7.58,7.58,0,0,0,4.38-1.34,8.6,8.6,0,0,0,3.1-3.86h-3.77a3.92,3.92,0,0,1-3.69,2.07,4.22,4.22,0,0,1-4.45-3.81h12.37Zm-23.17,6.46h3.66V118.82H95.51v20.72Zm-7.36-7.66a4.63,4.63,0,0,1-4.53,4.72H83.47A4.62,4.62,0,0,1,78.81,132V131.9a4.91,4.91,0,0,1,1.32-3.39,4.54,4.54,0,0,1,3.33-1.39,4.63,4.63,0,0,1,4.71,4.57v0.16h0v0Zm-12.84,13H79v-7.4A6,6,0,0,0,84.19,140c4.51,0,7.61-3.66,7.61-8,0-3.72-2.27-8.28-7.62-8.28a6.43,6.43,0,0,0-5.43,2.71v-2.23H75.32v20.72h0Zm-27.79-5.33h3.66v-8.31a5.62,5.62,0,0,1,.58-2.66,2.87,2.87,0,0,1,2.63-1.43,2.72,2.72,0,0,1,2.48,1.39,5.77,5.77,0,0,1,.47,2.55v8.46H61v-8.42a4.85,4.85,0,0,1,.53-2.57,2.86,2.86,0,0,1,2.66-1.39,2.45,2.45,0,0,1,2.41,1.25,5.3,5.3,0,0,1,.62,2.86v8.27H70.9v-8.42c0-3.17-.27-4.42-1.68-5.89a5.82,5.82,0,0,0-9.11,1.45,6.92,6.92,0,0,0-.92-1.39,5,5,0,0,0-3.77-1.58A5.05,5.05,0,0,0,51,126.09v-2H47.55v15.42h0Zm-8.11,0h3.66V124.16H39.41v15.38Zm0-17.42h3.66v-3.27H39.41v3.27Zm-4,6.21c-0.31-3.69-3.38-4.62-5.45-4.62-2.94,0-5.51,1.87-5.51,4.9,0,2.21,1.71,3.35,3.77,4,2.83,1,3.92,1.34,3.92,2.66a2,2,0,0,1-2.1,1.79,2.14,2.14,0,0,1-2.27-2H24.14c0.27,3.71,3.5,4.9,5.89,4.9,3.22,0,5.89-2,5.81-5.17s-2.68-4-5.14-4.71c-1.45-.42-2.57-1-2.61-2a1.6,1.6,0,0,1,1.69-1.54H29.9A1.62,1.62,0,0,1,31.75,128a2.42,2.42,0,0,1,0,.31h3.6v0Z"/></svg>
