<svg xmlns="http://www.w3.org/2000/svg" xmlns:xlink="http://www.w3.org/1999/xlink" version="1.1" id="Layer_1" x="0px" y="0px" viewBox="0 0 351 217" style="enable-background:new 0 0 351 217;" xml:space="preserve">
<style type="text/css">
	.st0{fill:#172a3d;}
</style>
    <g>
	<path class="st0" d="M95.3,200.2c-0.6-0.8-1.3-1.8-2-2.9c-0.7-1.1-1.4-2.1-2.1-3c-0.4-0.5-0.7-1-1.1-1.4c-0.4-0.4-0.8-0.7-1.2-1   v-0.1c0.8-0.3,1.6-0.6,2.3-1c0.7-0.4,1.4-0.9,1.9-1.4s1-1.2,1.3-1.9c0.3-0.7,0.5-1.5,0.5-2.4c0-1.5-0.3-2.7-1-3.6   c-0.7-1-1.5-1.7-2.6-2.3c-1.1-0.6-2.2-0.9-3.5-1c-1.3-0.1-2.7-0.1-4.4-0.1c-0.7,0-1.5,0-2.6,0s-2.1,0-3.2,0c-1.1,0-2,0-2.8,0   c-0.8,0-1.3,0-1.5,0v0.4c0.7,0.1,1.2,0.2,1.7,0.3c0.5,0.1,0.9,0.4,1.2,0.8c0.1,0.1,0.3,0.4,0.3,0.7c0.1,0.3,0.1,0.7,0.2,1.1   c0,0.4,0.1,0.8,0.1,1.3c0,0.5,0,0.9,0,1.3v7.2c0,0.7,0,1.4,0,2.1c0,0.7,0,1.4,0,2.1c0,0.7,0,1.3,0,1.9c0,0.6,0,1.1,0,1.4   c0,0.4,0,0.8,0,1.2c0,0.4-0.1,0.8-0.1,1.2c0,0.4-0.1,0.7-0.2,1c-0.1,0.3-0.2,0.5-0.3,0.7c-0.3,0.4-0.8,0.7-1.3,0.9   c-0.6,0.2-1.1,0.3-1.8,0.4v0.4H85v-0.4c-1,0-1.8-0.2-2.3-0.6c-0.6-0.3-0.9-0.7-1.1-1c-0.2-0.4-0.4-0.8-0.4-1.4c0-0.6,0-1.2-0.1-2   c0-0.8,0-1.8,0-3c0-1.2,0-2.6,0-4.1c0.3,0,0.6,0,0.8,0c0.2,0,0.6,0,1.1,0.1c0.6,0.1,1.2,0.4,1.8,0.9c0.6,0.5,1.1,1,1.6,1.6   c0.6,0.7,1.1,1.3,1.5,1.9c0.4,0.5,0.8,1.1,1.2,1.6c0.4,0.5,0.7,1.1,1.1,1.6c0.4,0.6,0.8,1.2,1.2,1.9c0.4,0.6,0.7,1,0.9,1.3   c0.2,0.3,0.3,0.5,0.5,0.6c0.1,0.1,0.2,0.3,0.3,0.4c0.1,0.1,0.3,0.3,0.5,0.5h7.5v-0.4c-1.1-0.2-2.2-0.5-3-1.1   C97.1,202.4,96.2,201.4,95.3,200.2z M86.3,190.9c-0.8,0.3-1.6,0.4-2.5,0.5c-0.9,0.1-1.8,0.1-2.8,0.1c0-0.2,0-0.7,0-1.4   c0-0.8,0-1.6,0-2.6c0-1,0-2,0-3.1c0-1.1,0-2,0.1-2.9c0-0.6,0-1,0.1-1.3c0-0.3,0-0.5,0-0.7c0-0.2,0-0.3,0.1-0.4c0-0.1,0-0.2,0.1-0.4   c0.2,0,0.4,0,0.7-0.1c0.3,0,0.7,0,1.2,0c0.7,0,1.4,0.1,2,0.2c0.6,0.1,1.3,0.3,1.9,0.6c1.2,0.6,2.1,1.3,2.7,2.3c0.6,1,0.9,2,0.9,3.3   c0,0.7-0.1,1.3-0.3,1.9c-0.2,0.6-0.4,1.2-0.8,1.7c-0.4,0.5-0.8,1-1.4,1.4C87.7,190.3,87.1,190.6,86.3,190.9z"/>
        <path class="st0" d="M141.8,178.9c-0.2,0.2-0.3,0.4-0.5,0.6c-0.2,0.2-0.3,0.3-0.4,0.4c-0.1,0.1-0.2,0.2-0.3,0.2   c0,0-0.3-0.1-0.7-0.4c-0.4-0.3-1-0.6-1.7-0.9c-0.7-0.3-1.7-0.6-2.8-0.9c-1.1-0.3-2.4-0.4-3.9-0.4c-1.6,0-3.1,0.2-4.4,0.5   c-1.3,0.3-2.5,0.8-3.5,1.4c-1,0.6-1.9,1.2-2.7,2c-0.8,0.8-1.4,1.6-1.9,2.4c-0.4,0.7-0.8,1.4-1.1,2.1c-0.3,0.7-0.5,1.4-0.7,2   c-0.2,0.6-0.3,1.2-0.3,1.8c-0.1,0.6-0.1,1.1-0.1,1.5c0,2,0.3,3.8,1,5.4c0.7,1.7,1.7,3.1,3,4.3s2.8,2.1,4.7,2.8c1.8,0.6,3.9,1,6.2,1   c1.4,0,2.6-0.1,3.6-0.3c1.1-0.2,1.9-0.5,2.7-0.8c0.7-0.3,1.3-0.6,1.7-0.8c0.4-0.3,0.6-0.4,0.7-0.4c0.1,0,0.3,0.2,0.7,0.5   c0.3,0.3,0.6,0.7,0.9,1.1h0.4l0.1-8.1h-0.4c-0.2,1.1-0.6,2.1-1.2,3.1c-0.6,1-1.3,1.9-2.2,2.6c-0.9,0.8-1.9,1.4-3,1.8   c-1.1,0.5-2.3,0.7-3.6,0.7c-1.6,0-3.1-0.3-4.4-1c-1.3-0.7-2.4-1.6-3.4-2.7c-0.9-1.1-1.6-2.5-2.1-4c-0.5-1.5-0.8-3.2-0.8-5   c0-1.7,0.2-3.3,0.7-4.9c0.5-1.6,1.2-3,2.1-4.2c0.9-1.2,2-2.2,3.3-3c1.3-0.8,2.8-1.1,4.5-1.1c1.2,0,2.4,0.2,3.5,0.7   c1.1,0.4,2.1,1,2.9,1.8c0.9,0.8,1.6,1.7,2.3,2.7c0.6,1,1.1,2.1,1.4,3.3l0.4,0v-8.2h-0.4C142.1,178.5,142,178.7,141.8,178.9z"/>
        <path class="st0" d="M184.9,200.2c-0.6-0.8-1.3-1.8-2-2.9c-0.7-1.1-1.4-2.1-2.1-3c-0.4-0.5-0.7-1-1.1-1.4c-0.4-0.4-0.8-0.7-1.2-1   v-0.1c0.8-0.3,1.6-0.6,2.3-1c0.7-0.4,1.4-0.9,1.9-1.4s1-1.2,1.3-1.9c0.3-0.7,0.5-1.5,0.5-2.4c0-1.5-0.3-2.7-1-3.6   c-0.7-1-1.5-1.7-2.6-2.3c-1.1-0.6-2.2-0.9-3.5-1c-1.3-0.1-2.7-0.1-4.4-0.1c-0.7,0-1.5,0-2.6,0s-2.1,0-3.2,0c-1.1,0-2,0-2.8,0   c-0.8,0-1.3,0-1.5,0v0.4c0.7,0.1,1.2,0.2,1.7,0.3c0.5,0.1,0.9,0.4,1.2,0.8c0.1,0.1,0.3,0.4,0.3,0.7c0.1,0.3,0.1,0.7,0.2,1.1   c0,0.4,0.1,0.8,0.1,1.3c0,0.5,0,0.9,0,1.3v7.2c0,0.7,0,1.4,0,2.1c0,0.7,0,1.4,0,2.1c0,0.7,0,1.3,0,1.9c0,0.6,0,1.1,0,1.4   c0,0.4,0,0.8,0,1.2c0,0.4-0.1,0.8-0.1,1.2c0,0.4-0.1,0.7-0.2,1c-0.1,0.3-0.2,0.5-0.3,0.7c-0.3,0.4-0.8,0.7-1.3,0.9   c-0.6,0.2-1.1,0.3-1.8,0.4v0.4h11.7v-0.4c-1,0-1.8-0.2-2.3-0.6c-0.6-0.3-0.9-0.7-1.1-1c-0.2-0.4-0.4-0.8-0.4-1.4c0-0.6,0-1.2-0.1-2   c0-0.8,0-1.8,0-3c0-1.2,0-2.6,0-4.1c0.3,0,0.6,0,0.8,0c0.2,0,0.6,0,1.1,0.1c0.6,0.1,1.2,0.4,1.8,0.9c0.6,0.5,1.1,1,1.6,1.6   c0.6,0.7,1.1,1.3,1.5,1.9c0.4,0.5,0.8,1.1,1.2,1.6c0.4,0.5,0.7,1.1,1.1,1.6c0.4,0.6,0.8,1.2,1.2,1.9c0.4,0.6,0.7,1,0.9,1.3   c0.2,0.3,0.3,0.5,0.5,0.6c0.1,0.1,0.2,0.3,0.3,0.4c0.1,0.1,0.3,0.3,0.5,0.5h7.5v-0.4c-1.1-0.2-2.2-0.5-3-1.1   C186.7,202.4,185.8,201.4,184.9,200.2z M175.8,190.9c-0.8,0.3-1.6,0.4-2.5,0.5c-0.9,0.1-1.8,0.1-2.8,0.1c0-0.2,0-0.7,0-1.4   c0-0.8,0-1.6,0-2.6c0-1,0-2,0-3.1c0-1.1,0-2,0.1-2.9c0-0.6,0-1,0.1-1.3c0-0.3,0-0.5,0-0.7c0-0.2,0-0.3,0.1-0.4c0-0.1,0-0.2,0.1-0.4   c0.2,0,0.4,0,0.7-0.1c0.3,0,0.7,0,1.2,0c0.7,0,1.4,0.1,2,0.2c0.6,0.1,1.3,0.3,1.9,0.6c1.2,0.6,2.1,1.3,2.7,2.3c0.6,1,0.9,2,0.9,3.3   c0,0.7-0.1,1.3-0.3,1.9c-0.2,0.6-0.4,1.2-0.8,1.7c-0.4,0.5-0.8,1-1.4,1.4C177.3,190.3,176.6,190.6,175.8,190.9z"/>
        <path class="st0" d="M234,183.4c-0.7-0.9-1.5-1.8-2.4-2.4c-0.9-0.7-1.9-1.2-2.9-1.7c-0.8-0.3-1.6-0.6-2.4-0.8   c-0.8-0.2-1.6-0.3-2.4-0.4c-0.8-0.1-1.6-0.1-2.4-0.1c-0.8,0-1.6,0-2.3,0c-2.7,0-5.1,0-7,0c-1.9,0-3.4,0-4.4,0v0.4   c0.6,0.1,1.2,0.2,1.7,0.4c0.5,0.2,1,0.5,1.3,0.9c0.1,0.2,0.3,0.4,0.3,0.7c0.1,0.3,0.1,0.6,0.2,1c0,0.4,0.1,0.8,0.1,1.2   c0,0.4,0,0.9,0,1.3v7.2c0,0.7,0,1.4,0,2.1c0,0.7,0,1.4,0,2.1c0,0.7,0,1.3,0,1.9c0,0.6,0,1.1,0,1.4c0,0.4,0,0.8,0,1.2   c0,0.4-0.1,0.8-0.1,1.2c0,0.4-0.1,0.7-0.2,1c-0.1,0.3-0.2,0.5-0.3,0.6c-0.3,0.3-0.7,0.6-1.3,0.9c-0.6,0.2-1.2,0.4-1.8,0.5v0.4H221   c1.1,0,2.3-0.1,3.5-0.2c1.2-0.2,2.4-0.4,3.5-0.8c1.1-0.4,2.2-0.9,3.2-1.6c1-0.7,1.9-1.5,2.6-2.5s1.4-2.2,1.8-3.6   c0.4-1.4,0.7-3,0.7-4.8c0-1.6-0.2-3-0.6-4.2C235.2,185.4,234.7,184.3,234,183.4z M229.8,199c-1.3,2.2-3.3,3.7-5.9,4.4   c-0.6,0.2-1.2,0.3-1.8,0.3c-0.6,0.1-1.3,0.1-1.9,0.1c-0.7,0-1.4-0.1-2.1-0.2c-0.7-0.1-1.4-0.4-1.9-0.9c-0.1-0.1-0.3-0.4-0.4-0.7   c-0.1-0.3-0.2-0.6-0.2-1c0-0.4-0.1-0.8-0.1-1.2c0-0.4-0.1-0.8-0.1-1.1c0-0.8,0-1.8,0-3.1c0-1.3,0-2.7,0-4.3c0-2.9,0-5.4,0-7.5   c0-2.1,0.1-3.8,0.2-5c0.2,0,0.4-0.1,0.7-0.1c0.3,0,0.6-0.1,0.9-0.1c0.3,0,0.7-0.1,1-0.1c0.3,0,0.7,0,1,0c0.9,0,1.6,0,2.2,0.1   c0.6,0.1,1.1,0.1,1.6,0.2c1.3,0.2,2.4,0.7,3.5,1.5c1.1,0.8,2,1.7,2.8,2.8c0.8,1.1,1.4,2.3,1.8,3.7c0.4,1.3,0.7,2.7,0.7,4.1   C231.7,194.1,231.1,196.8,229.8,199z"/>
        <path class="st0" d="M276.3,192.5c-0.5-0.6-1-1.1-1.6-1.5c-2.6-2-10-2.3-13.1-3.7c-2.6-1.2-3-2.6-3-3.3c0-1.7,0.9-3.1,2.1-4   c3.3-2.3,10.8-2.1,13.3,1.9c0.4,0.6,0.8,1.2,1.1,1.8c0.4,0.6,0.6,1.3,0.9,2h0.4l-0.1-7.5h-0.3c-0.2,0.3-0.4,0.6-0.7,0.9   c-0.2,0.3-0.4,0.5-0.5,0.5c-0.1,0-2.4-0.9-3.3-1.2c-2.3-0.7-8-1.9-12.8,1c-2.5,1.6-3.3,4-3.3,6.2c0,1.8,1.2,4.6,5.3,6.1   c3.7,1.4,9.6,0.9,12.5,3.8c0.8,0.8,1.2,1.9,1.2,3.2c0,0.8-0.1,1.6-0.4,2.3c-0.3,0.7-0.9,1.5-1.5,1.9c-3.6,2.9-9.4,1.9-11.9,0.7   c-2.9-1.4-3.4-2.6-4.1-3.9c-0.5-0.9-0.7-1.9-0.8-2.5h-0.4v6.9h0.4c0.2-0.3,0.4-0.6,0.7-0.9c0.2-0.3,0.4-0.4,0.5-0.4   c0,0,1.1,0.6,1.6,0.9c5.4,2.8,13,2.8,16.5-0.3c2.7-2.5,2.8-5.3,2.8-6.6c0-0.8-0.1-1.6-0.4-2.3C277.1,193.7,276.7,193,276.3,192.5z"/>
        <rect x="115.7" y="158.7" class="st0" width="119.7" height="1"/>
        <path class="st0" d="M52.5,138.2c-0.7-1-1.5-1.8-2.4-2.5c-0.9-0.7-1.9-1.3-3-1.7c-4.8-2-16.7,0.4-22.2-0.3   c-4.6-0.6-5.8-2.5-6.1-3.5c-0.7-2.5,0.1-5,1.7-6.8c4.3-5,16.8-7.7,22.2-2.6c0.8,0.7,1.7,1.4,2.5,2.3c0.8,0.8,1.5,1.7,2.1,2.6   c0.2,0,0.4-0.1,0.6-0.1c-0.9-3.7-1.8-7.4-2.7-11.1c-0.2,0-0.4,0.1-0.6,0.1c-0.2,0.5-0.5,1-0.8,1.5c-0.3,0.5-0.5,0.8-0.6,0.9   c-0.1,0-4.3-0.4-5.7-0.5c-4-0.2-14.2,0.3-21.3,7.8c-3.1,3.4-2.8,6.4-1.8,9.7c0.8,2.6,3.9,6.2,11,6.7c6.3,0.4,15.4-2.6,21,0.6   c1.5,0.9,2.5,2.3,3,4.3c0.3,1.3,0.3,2.4,0.1,3.5c-0.2,1.1-0.9,2.6-1.5,3.4c-4.4,5.5-13.5,6.4-17.9,5.6c-4.9-0.9-6.3-2.5-7.8-4   c-1.2-1.2-1.9-2.5-2.2-3.3c-0.2,0.1-0.4,0.1-0.6,0.2c1,3.4,2,6.8,3,10.2c0.2-0.1,0.4-0.1,0.6-0.2c0.2-0.5,0.4-1.1,0.6-1.6   c0.2-0.5,0.4-0.8,0.5-0.9c0,0,1.9,0.5,2.8,0.6c9.3,1.7,20.6-1,24.9-6.9c3.3-4.6,2.6-8.8,2.1-10.9C53.6,140.3,53.2,139.2,52.5,138.2   z"/>
        <path class="st0" d="M105.2,105.5c0.6-0.1,1.2-0.1,1.7-0.2c0.6,0,1.3-0.1,2-0.2c1.6-0.1,2.9-0.1,3.9,0c1,0.1,2.3,0.5,3.3,1.2   c0.4,0.2,0.8,0.6,1.3,1.1c0.5,0.5,1,1.1,1.6,1.7c0.5,0.6,1.1,1.3,1.6,1.9c0.5,0.7,1,1.4,1.4,2c0.2-0.1,0.4-0.1,0.5-0.2   c-1-3.7-2-7.3-3-11c-2.4,1.2-5,1.4-6.4,1.6c-1.6,0.2-3,0.3-4.2,0.5c-1.2,0.2-2.4,0.3-3.6,0.5c-1.2,0.2-2.4,0.3-3.6,0.5   c-1.2,0.2-2.6,0.3-4.1,0.5c-1.5,0.2-2.9,0.4-4.1,0.6c-1.2,0.2-2.4,0.3-3.5,0.5c-1.2,0.2-2.4,0.3-3.6,0.5c-1.2,0.2-2.9,0.4-4.5,0.6   c-1.5,0.2-4,0.7-6.2,0.3c0,3.7,0,7.4,0,11.1c0.2,0,0.4,0,0.6,0.1c0.1-0.7,0.3-1.5,0.6-2.3c0.3-0.8,0.6-1.5,1-2.2   c0.4-0.7,0.7-1.4,1.1-2c0.3-0.6,0.7-1.1,0.9-1.4c0.7-0.9,1.6-1.6,2.5-2c1-0.5,2.5-0.9,4.1-1.2c0.8-0.1,1.5-0.2,2.1-0.3   c0.6-0.1,1.2-0.2,1.7-0.3c0.6-0.1,1.2-0.2,1.8-0.3c0.7-0.1,1.4-0.2,2.3-0.3c0.9,6.3,1.8,12.5,2.6,18.8c0.1,1,0.3,2.1,0.5,3.2   c0.2,1.1,0.3,2.2,0.4,3.3c0.1,1.1,0.2,2,0.3,2.9c0.1,0.9,0.2,1.6,0.3,2.1c0.1,0.6,0.2,1.2,0.2,1.9c0.1,0.6,0.1,1.2,0.1,1.8   c0,0.6,0,1.1,0,1.5c0,0.4-0.1,0.8-0.3,1c-0.7,1.1-1.6,1.9-2.4,2.3c-0.9,0.4-1.8,0.7-2.8,1c0,0.2,0.1,0.4,0.1,0.6   c6.2-1,12.5-1.8,18.7-2.5c0-0.2,0-0.4-0.1-0.6c-0.9-0.1-1.8-0.2-2.9-0.3c-1.1-0.2-2-0.6-2.7-1.4c-0.4-0.4-0.6-1.1-0.8-2.1   c-0.2-1-0.4-2-0.5-3.1c-0.5-4.2-1.1-8.4-1.6-12.6c-0.2-1.2-0.3-2.6-0.6-4.3c-0.2-1.7-0.5-3.5-0.7-5.3c-0.2-1.8-0.4-3.5-0.6-5.1   c-0.2-1.6-0.3-2.9-0.5-3.9c0.9-0.1,1.7-0.2,2.3-0.3C104.1,105.7,104.7,105.6,105.2,105.5z"/>
        <path class="st0" d="M260.1,127c1.1-0.5,2.1-1.1,3.1-1.8c0.9-0.8,1.7-1.7,2.4-2.7c0.7-1.1,1.1-2.3,1.3-3.7c0.4-2.3,0.1-4.3-0.8-6.2   c-0.9-1.8-2.2-3.4-3.9-4.5c-1.7-1.2-3.6-2.1-5.7-2.6c-2.1-0.5-4.5-1-7.2-1.3c-0.7-0.1-1.7-0.2-2.8-0.3c-1.1-0.1-2.2-0.3-3.4-0.4   c-1.2-0.1-2.5-0.2-3.7-0.4c-1.2-0.1-2.4-0.2-3.5-0.3c-1.1-0.1-2-0.2-2.8-0.2c-0.7-0.1-1.2-0.1-1.5-0.1c0,0.2,0,0.4-0.1,0.6   c1.1,0.3,2.1,0.5,3.1,0.8c1,0.3,1.7,0.8,2.3,1.5c0.2,0.3,0.4,0.6,0.5,1.2c0.1,0.5,0.1,1.1,0.1,1.7c0,0.6,0,1.3-0.1,2   c-0.1,0.7-0.1,1.4-0.2,2.1c-0.4,3.7-0.8,7.4-1.2,11.1c-0.1,1-0.2,2.1-0.3,3.3c-0.1,1.1-0.2,2.3-0.4,3.3c-0.1,1.1-0.3,2.1-0.4,3   c-0.1,0.9-0.2,1.6-0.3,2.2c-0.1,0.6-0.1,1.2-0.3,1.9c-0.1,0.6-0.2,1.2-0.3,1.8c-0.1,0.6-0.3,1.1-0.4,1.5c-0.2,0.4-0.4,0.8-0.6,1   c-0.6,0.6-1.3,0.9-2.2,1.2c-0.9,0.2-2.1,0.3-3.1,0.4c0,0.2,0,0.4-0.1,0.6c6.2,0.6,12.5,1.3,18.7,2.1c0-0.2,0-0.4,0.1-0.6   c-1.6-0.3-2.8-0.7-3.6-1.3c-0.8-0.6-1.4-1.2-1.6-1.7c-0.3-0.6-0.5-1.4-0.4-2.2c0.1-0.9,0.1-1.9,0.2-3.1c0.1-0.6,0.1-1.2,0.2-1.8   c0-0.6,0.1-1.2,0.2-1.8c0.1-0.6,0.2-1.4,0.3-2.2c0.1-0.9,0.2-1.9,0.4-3.1c1,0.1,2,0.2,3.2,0.4c1.2,0.1,2.5,0.3,3.8,0.3   c1.3,0.1,2.6,0.1,3.9,0.1c1.3,0,2.5-0.1,3.7-0.4C257.9,127.8,259,127.5,260.1,127z M250.9,127c-1.3,0.3-2.7,0.3-4.1,0.3   c-1.4-0.1-3-0.2-4.6-0.4c0-0.3,0.1-1.1,0.3-2.5c0.2-1.4,0.3-3,0.6-4.8c0.2-1.8,0.4-3.7,0.7-5.6c0.2-1.9,0.5-3.5,0.7-4.8   c0.1-0.9,0.3-1.5,0.4-2c0.1-0.5,0.2-0.8,0.3-1.1c0.1-0.3,0.1-0.5,0.2-0.6c0.1-0.2,0.2-0.4,0.2-0.6c0.3,0,0.7,0,1.2,0   c0.5,0,1.2,0.1,2,0.2c1.2,0.1,2.3,0.4,3.4,0.7c1.1,0.3,2.1,0.7,3,1.3c1.9,1.1,3.3,2.6,4.2,4.5c1,1.9,1.3,3.9,1,6.1   c-0.3,2.4-1.3,4.4-3,6.2C255.7,125.4,253.6,126.5,250.9,127z"/>
        <path class="st0" d="M337.2,135.9c-0.1-2-0.4-3.8-1.1-5.6c-0.7-1.7-1.8-3.4-3-4.9c-1.2-1.4-2.6-2.7-4.1-3.8   c-1.2-0.9-2.4-1.5-3.6-2.2c-2.8-1.5-10.5-3.4-11.8-3.7c-4.6-1.1-8.1-1.9-11.4-2.6c-3.2-0.7-5.5-1.1-7.2-1.5c0,0.2-0.1,0.4-0.1,0.6   c1,0.3,1.7,0.7,2.5,1.1c0.8,0.4,1.4,1.1,1.9,1.9c0.2,0.3,0.3,0.7,0.3,1.2c0,0.5,0,1-0.1,1.6c-0.1,0.6-0.2,1.2-0.3,1.9   c-0.1,0.7-0.3,1.3-0.4,2c-0.8,3.6-1.6,7.3-2.3,10.9c-0.2,1-0.4,2.1-0.7,3.3c-0.2,1.1-0.5,2.2-0.7,3.3c-0.2,1.1-0.5,2-0.7,2.9   c-0.2,0.9-0.4,1.6-0.5,2.1c-0.1,0.6-0.3,1.2-0.5,1.8c-0.2,0.6-0.4,1.2-0.6,1.8c-0.2,0.5-0.4,1-0.6,1.5c-0.2,0.4-0.4,0.7-0.6,0.9   c-0.6,0.4-1.3,0.7-2.3,0.9c-1,0.2-1.7,0.3-2.7,0.2c0,0.2-0.1,0.4-0.1,0.6c6.8,1.4,13.5,2.9,20.3,4.5c1.7,0.4,3.6,0.7,5.5,1   c1.9,0.2,3.8,0.3,5.7,0.1c1.9-0.1,4.1-0.4,5.9-1c1.8-0.6,3.2-1.5,4.8-2.7c1.6-1.2,3.1-2.7,4.4-4.6c1.3-1.9,2.4-4.2,3.2-7   C337.1,140.1,337.4,137.9,337.2,135.9z M329.5,140.7c-1.3,4.8-3.5,8.6-6.4,11.4c-2.9,2.8-6.6,4.2-11,4.3c-0.9,0-1.9,0-2.9-0.2   c-1-0.2-2-0.3-3-0.6c-1-0.2-2.1-0.6-3.2-1.1c-1.1-0.5-2-1.2-2.6-2.1c-0.2-0.3-0.3-0.7-0.4-1.2c-0.1-0.5-0.1-1.1,0-1.7   c0.1-0.6,0.1-1.2,0.2-1.8c0.1-0.6,0.2-1.2,0.3-1.7c0.2-1.2,0.6-2.8,1-4.8c0.4-2,0.9-4.2,1.5-6.5c1-4.4,1.9-8.3,2.7-11.5   c0.8-3.2,1.5-5.7,2.1-7.5c0.3,0,0.7,0,1.2,0.1c0.5,0.1,1,0.1,1.6,0.2c0.6,0.1,1.1,0.2,1.7,0.3c0.6,0.1,1.1,0.2,1.6,0.3   c1.4,0.3,2.6,0.7,3.6,1c1,0.3,1.8,0.7,2.6,1c2,0.9,3.8,2.1,5.3,3.7c1.5,1.6,2.6,3.4,3.5,5.4c0.8,2,1.3,4.1,1.5,6.3   C330.3,136.4,330.1,138.5,329.5,140.7z"/>
        <path class="st0" d="M197.8,127.9c0.1-2.1,0.2-4.1,0.2-6.2c0.1-1.8,0.1-3.5,0.2-5.2c0.1-1.7,0.2-3.5,0.3-5.3   c0.1-1.3,0.2-2.7,0.3-4.1c0.1-1.4,0.3-2.4,0.6-3c0.4-0.8,1-1.5,1.9-2.1c0.9-0.6,2.1-0.9,3.8-0.8c0-0.2,0-0.4,0-0.6   c-4.4-0.2-8.7-0.4-13.1-0.5c-0.1,0.3-0.7,1.4-1.6,3.3c-0.9,1.9-2.1,4.3-3.5,7.2c-1.4,2.9-3,6.1-4.7,9.7c-1.7,3.6-3.5,7.2-5.2,10.8   c-4.7-10.4-9.7-20.8-14.9-31c-4.4,0.1-8.9,0.3-13.3,0.5c0,0.2,0,0.4,0,0.6c0.5,0.1,1.1,0.1,1.8,0.3c0.7,0.1,1.4,0.4,2,0.7   c0.6,0.4,1.2,0.9,1.7,1.5c0.5,0.7,0.8,1.5,0.8,2.6c0.1,1.1,0.1,2,0.2,2.8c0,0.8,0.1,1.5,0.1,2.2c0,0.7,0.1,1.4,0.1,2.2   c0,0.8,0.1,1.7,0.1,2.8c0.1,2.6,0.2,5,0.2,7.2c0,2.2,0.1,4.2,0,5.8c0,2,0,3.6-0.2,5c-0.2,1.4-0.5,2.5-1,3.5   c-0.5,0.9-1.7,3.4-4.7,3.5c0,0.2,0,0.4,0,0.6c4.9-0.2,9.7-0.4,14.6-0.5c0-0.2,0-0.4,0-0.6c-1.7-0.2-3-0.5-4-1   c-1-0.5-1.7-1.2-2.2-2.1c-0.5-0.9-0.8-2-1-3.3c-0.2-1.3-0.3-2.9-0.3-4.7c-0.1-2.8-0.2-5.2-0.3-7.3c-0.1-2.1-0.1-4.1-0.2-6   c0-1.9-0.1-3.8-0.1-5.7c0-1.9-0.1-4.2-0.2-6.7c0.2,0.4,0.6,1.2,1.2,2.4c0.6,1.2,1.3,2.6,2.3,4.4c0.9,1.7,1.9,3.7,3,5.9   c1.1,2.2,2.3,4.6,3.5,7.2c1.2,2.6,2.5,5.2,3.8,8c1.3,2.8,2.5,5.6,3.8,8.4c0.1,0,0.2,0,0.3,0c0.1-0.2,0.3-0.7,0.6-1.4   c0.3-0.7,0.6-1.5,1-2.4c0.4-0.9,0.7-1.7,1.1-2.5c0.4-0.8,0.6-1.4,0.8-1.8c1.3-2.8,2.5-5.4,3.6-7.8c1.1-2.3,2.2-4.6,3.4-6.9   c1.1-2.2,2.3-4.5,3.4-6.9c1.2-2.3,2.5-4.9,3.9-7.7c-0.1,5.4-0.3,10.8-0.4,16.2c-0.1,2.4-0.1,4.8-0.2,7.1c-0.1,2.3-0.2,4.7-0.3,7.2   c-0.1,0.8-0.2,1.5-0.3,2.3c-0.1,0.7-0.3,1.4-0.6,1.9c-0.4,0.8-1.2,1.5-2.3,2.1c-1.1,0.6-2.5,0.9-4.2,1c0,0.2,0,0.4,0,0.6   c6.5,0.1,12.9,0.3,19.4,0.6c0-0.2,0-0.4,0-0.6c-2.1-0.1-3.6-1.3-4.7-2.4c-0.3-0.3-0.4-0.5-0.4-0.6c-0.2-0.4-0.4-1-0.4-1.8   c-0.1-0.7-0.1-1.5-0.1-2.2C197.6,132.1,197.7,130,197.8,127.9z"/>
</g>
    <path class="st0" d="M175.4,86l27.5-18l4.9-37.9l-32.4-18.7L143,30l0,0l4.9,37.9L175.4,86z M176.5,84l5.6-14.2l6.7,6.2L176.5,84z   M189.7,75.4l-7.2-6.6l4.4-7.6l14.5,6.5L189.7,75.4z M182.3,42.9l1.7-8.7l3.5-1.9l6.3,8.6L182.3,42.9z M194.1,41.9l-0.8,5.1  l-2.8-1.2l1-3.5L194.1,41.9z M190.4,42.5l-0.9,3.2l-8.6,4.6l1.3-6.4L190.4,42.5z M189.9,46.7l3.2,1.4l-1.1,6.9h-12.1l0.6-3.3  L189.9,46.7z M192.4,56.2l8.3,10.1l-13-5.9L192.4,56.2z M202.1,66.4L193,55.3l2.2-13.8l11.4-9.9L202.1,66.4z M176,12.8l16.2,9.3  L176,31.5V12.8z M176,32.7l17.2-9.9l13.2,7.6l-8.9,7.8l2.8-6.1l-4.2-5.8l-6.7,3.8l6.8,9.3l-1.4,1.2l-7-9.6L176,37.5V32.7z M196.5,38  l-5.6-7.6l4.9-2.7l3.3,4.5L196.5,38z M176,38.6l6.9-3.8l-0.9,4.6h-6V38.6z M176,67.3l4.9,0.6l0.1,0l0.1-1l-5.1-0.6v-1.5l4.4-1.9  l-0.6,1.5l1,0.4l1.4-3.7l0-0.1l-6.2,2.7V40.5h5.8l-3,15.4l0,0.1h12.5l-4.8,4.3l0,0l-4.8,8.3l-5.6,1.9V67.3z M176,71.6l5-1.8l-5,12.8  V71.6z M149.5,67.7l14.5-6.5l4.4,7.6l-7.2,6.6L149.5,67.7z M159.3,42.3l1,3.5l-2.8,1.2l-0.8-5.1L159.3,42.3z M157,40.9l6.3-8.6  l3.5,1.9l1.7,8.6L157,40.9z M160.9,46.7l9.4,5l0.7,3.3h-12.2l-1.1-6.9L160.9,46.7z M163.2,60.4l-13.1,5.9l8.3-10.1L163.2,60.4z   M162.1,76l6.7-6.2l5.6,14.2L162.1,76z M174.9,82.6l-5-12.8l5,1.8V82.6z M174.9,63.6l-6.2-2.7l1.4,3.7l0,0.1l1-0.4l-0.6-1.5l4.4,1.9  v1.5l-5,0.6l-0.1,0l0.1,1l5-0.6v3.2l-5.6-1.9l-4.7-8.3l0,0l-4.9-4.3h12.5l-0.9-5l0,0l-9.9-5.2l-0.9-3.2l9.4,1.6l0.1,0l-0.7-3.6h5.7  V63.6z M174.9,39.4H169l-0.9-4.6l6.9,3.8V39.4z M174.9,12.8v18.7l-16.2-9.4L174.9,12.8z M157.7,22.8l17.3,10v4.7L163,30.9l-7,9.6  l-11.6-10.1L157.7,22.8z M155.6,41.5l2.2,13.8l-9.1,11.1l-4.5-34.8L155.6,41.5z"/>
</svg>
