<svg id="frame" xmlns="http://www.w3.org/2000/svg" viewBox="0 0 360 180"><defs><style>.cls-1{fill:none;}.cls-2{fill:#172a3d;}</style></defs><title>Untitled-1</title><rect class="cls-1" width="360" height="180"/><path class="cls-2" d="M77.68,81.79c-1.47-1.92-3.23-3.73-5.54-4a30,30,0,0,0-4.13-.4l-24.62-.17a4.31,4.31,0,0,1-1.64-.11,2.14,2.14,0,0,1-.28-1.92L44,65.61H36.49L25.18,104s-1.13,3.85-.91,4.81a6,6,0,0,0,1.79,3.52,5.42,5.42,0,0,0,3.59,1.57c1.75,0,33.89,0,33.89,0a5.54,5.54,0,0,0,2.21-.28,8,8,0,0,0,4.92-3.51c2.21-3,2.32-3.51,3.51-7.64s4.13-13.58,4.13-13.58a5.21,5.21,0,0,0,.62-2.15,6.82,6.82,0,0,0-1.24-5M71.23,87.5c-0.23.9-5.09,16.92-5.09,16.92a8.17,8.17,0,0,1-.74,1.64,2.64,2.64,0,0,1-1.7,1.59c-1.08.17-28.06,0-28.06,0a4.44,4.44,0,0,1-1.7-.17,1.56,1.56,0,0,1-1.3-2,10.6,10.6,0,0,1,.73-2.9c0.55-1.67,4.7-16.24,4.7-16.24s0.34-2,1.75-2H69a2.35,2.35,0,0,1,1.89,1.22,2.22,2.22,0,0,1,.31,1.89"/><path class="cls-2" d="M127.67,81.92c-1.47-1.92-3.22-3.73-5.55-4a29.66,29.66,0,0,0-4.13-.39l-24.61-.17-1.27,0a16.47,16.47,0,0,0-5.16,1.18,11.36,11.36,0,0,0-5.87,6.32l-5.91,19.28a23.55,23.55,0,0,0-.91,4.81,4.31,4.31,0,0,0,1.66,3.5,5.08,5.08,0,0,0,3.72,1.59h33.89a5.47,5.47,0,0,0,2.21-.28,8,8,0,0,0,4.92-3.51c2.21-3,2.32-3.51,3.51-7.64s4.13-13.58,4.13-13.58a5.19,5.19,0,0,0,.62-2.15,6.82,6.82,0,0,0-1.24-5m-6.55,5.58c-0.23.91-5.09,16.92-5.09,16.92a8.14,8.14,0,0,1-.74,1.64,2.64,2.64,0,0,1-1.7,1.59c-1.08.17-28.06,0-28.06,0a4.38,4.38,0,0,1-1.7-.17,1.56,1.56,0,0,1-1.3-2,10.62,10.62,0,0,1,.73-2.9c0.55-1.67,4.7-16.24,4.7-16.24s0.34-2,1.75-2h29.2a2.34,2.34,0,0,1,1.89,1.22,2.22,2.22,0,0,1,.32,1.89"/><path class="cls-2" d="M177,64.82l-3.34,10.25a4.77,4.77,0,0,1-.81,1.81,2.45,2.45,0,0,1-2.13.74l-3.4,0-24.61-.17-1.27,0a16.43,16.43,0,0,0-5.16,1.18A11.36,11.36,0,0,0,130.45,85l-5.91,19.28s-1.13,3.85-.91,4.81a7.5,7.5,0,0,0,1.92,3.45c0.9,0.74,1.7,1.64,3.45,1.64H162.9a5.46,5.46,0,0,0,2.21-.28,8,8,0,0,0,4.92-3.51c2.21-3,2.32-3.51,3.51-7.64s4.13-13.58,4.13-13.58l7-24.33H177ZM170.5,87.6c-0.22.91-5.09,16.92-5.09,16.92a8.32,8.32,0,0,1-.73,1.64,2.64,2.64,0,0,1-1.7,1.59c-1.08.17-28.06,0-28.06,0a4.38,4.38,0,0,1-1.7-.17,1.56,1.56,0,0,1-1.3-2,10.63,10.63,0,0,1,.73-2.9c0.55-1.67,4.69-16.24,4.69-16.24s0.34-2,1.75-2h29.2a2.34,2.34,0,0,1,1.89,1.22,2.21,2.21,0,0,1,.32,1.89"/><path class="cls-2" d="M226.69,81a7.24,7.24,0,0,0-3.48-2.76c-0.89-.39-1.27-0.72-4.37-0.77-2,0-36.2-.06-36.2-0.06l-2.16,6.91h37.09s1.93,0.28,2,1.16-0.11,2-1.27,2.16-30.4,0-30.4,0-4.37.41-6,1.6a10.81,10.81,0,0,0-4,5.25c-0.91,2.31-3.43,10.83-3.7,11.72s-0.61,4.08.88,5.64c1.21,1.27,1.66,2,5.31,2.1s39.74,0,39.74,0l7.68-26.48s0.72-3.87-1.1-6.46m-9.45,15.7c-0.28,1.16-2.82,9.18-2.82,9.18a1.25,1.25,0,0,1-.5.94c-0.55.55-.94,0.5-3,0.55s-26.31,0-26.31,0a2.22,2.22,0,0,1-1.55-.55c-0.61-.61-1.05-0.88-0.39-3.26s2-6.41,2-6.41a3.41,3.41,0,0,1,1.88-2,10.08,10.08,0,0,1,3.26-.39c1.93-.06,24.43,0,24.43,0s2.71-.11,2.93.44,0.33,0.33.06,1.49"/><path class="cls-2" d="M221.88,114h7.68l6.19-20.9s2.43-9.18,13.38-8.9c3.37,0.09,6.3.44,6.3,0.44l2.26-6.74a36.16,36.16,0,0,0-9.84-.94,28.22,28.22,0,0,0-6.8,1.44,1.1,1.1,0,0,1-1.27-.55,1.45,1.45,0,0,0-.39-0.5h-7.13Z"/><path class="cls-2" d="M285.83,107.33L283.51,114H264.16s-3.81-.06-5.75-2.55c-1.42-1.83-2.77-3.15-.83-10.33S262,84.36,262,84.36h-3.65l2-7H263a2.25,2.25,0,0,0,2.1-1.78c0.66-1.88,3.26-10.72,3.26-10.72L276,64.94l-3.43,12.4H293.4l-1.93,7H270.68l-5.25,17.55s-1.88,5.09.83,5.25,19.57,0.16,19.57.16"/><path class="cls-2" d="M309.32,113.33a4.17,4.17,0,0,1-3.52,1.76c-3.37,0-3.89-2.39-3.89-3.4,0-2,1.33-2.93,2.91-3.77-0.7-1-1.38-1.66-1.38-2.93a2.58,2.58,0,0,1,2.81-2.56c1.55,0,3,.85,3,2.55a3.93,3.93,0,0,1-2.34,3.23l2.25,2.74a6.58,6.58,0,0,0,.4-1.94H311a7,7,0,0,1-.84,3.07l2.42,2.81h-1.94Zm-3.68-4.46c-1.17.66-2.16,1.33-2.16,2.81a2.26,2.26,0,0,0,2.37,2.11,3.13,3.13,0,0,0,2.65-1.48Zm2.15-3.8a1.43,1.43,0,0,0-2.86,0,4.11,4.11,0,0,0,1.2,2.16A2.84,2.84,0,0,0,307.79,105.06Z"/><path class="cls-2" d="M327.28,106.18a3.28,3.28,0,0,0-3.49-2.65c-3,0-4.22,2.44-4.22,5,0,2.84,1.26,5.21,4.24,5.21a3.52,3.52,0,0,0,3.59-3.59h1.66c-0.31,3.1-2.25,5-5.39,5-3.87,0-5.75-2.86-5.75-6.49s2.06-6.56,5.89-6.56c2.6,0,4.74,1.39,5.13,4h-1.66Z"/><path class="cls-2" d="M333.25,102.51a2.51,2.51,0,1,1-2.51,2.51A2.5,2.5,0,0,1,333.25,102.51Zm0,4.15a1.64,1.64,0,1,0-1.64-1.64A1.61,1.61,0,0,0,333.25,106.66Z"/></svg>