<?xml version="1.0" encoding="utf-8"?>
<!-- Generator: Adobe Illustrator 19.2.0, SVG Export Plug-In . SVG Version: 6.00 Build 0)  -->
<svg version="1.1" id="Layer_1" xmlns="http://www.w3.org/2000/svg" xmlns:xlink="http://www.w3.org/1999/xlink" x="0px" y="0px"
	 width="720px" height="266.89px" viewBox="0 0 720 266.89" style="enable-background:new 0 0 720 266.89;" xml:space="preserve">
<style type="text/css">
	.st0{fill:#005D94;}
	.st1{fill:#4F9C4A;}
	.st2{fill:url(#SVGID_2_);}
	.st3{fill:#005C93;}
</style>
<path class="st0" d="M69.9,201.2v-12.1h-2.8v-2.6h2.8v-6h3v6h6.4v2.6h-6.4v11.7c0,2.4,1.4,3.3,3.4,3.3c1,0,1.9-0.2,2.9-0.7v2.6
	c-1,0.5-2.2,0.9-3.6,0.9C72.3,206.9,69.9,205.4,69.9,201.2 M84.5,178.2h3v11.7c1.3-2.2,3.4-3.9,6.9-3.9c4.8,0,7.7,3.3,7.7,8v12.4h-3
	v-11.7c0-3.7-2-6-5.5-6s-6,2.5-6,6.3v11.5h-3v-28.3H84.5z M107.1,196.6c0-5.9,4.1-10.5,9.6-10.5c5.9,0,9.3,4.7,9.3,10.6v1h-15.9
	c0.4,4.3,3.5,6.8,7.1,6.8c2.8,0,4.7-1.1,6.3-2.8l1.9,1.7c-2,2.2-4.5,3.8-8.3,3.8C111.6,207.1,107.1,202.9,107.1,196.6 M123,195.4
	c-0.3-3.6-2.4-6.8-6.4-6.8c-3.5,0-6.1,2.9-6.5,6.8H123z M142.9,178.2h3v11.7c1.3-2.2,3.4-3.9,6.9-3.9c4.8,0,7.7,3.3,7.7,8v12.4h-3
	v-11.7c0-3.7-2-6-5.5-6s-6,2.5-6,6.3v11.5h-3v-28.3H142.9z M165.6,196.6c0-5.9,4.1-10.5,9.6-10.5c5.9,0,9.3,4.7,9.3,10.6v1h-15.9
	c0.4,4.3,3.5,6.8,7.1,6.8c2.8,0,4.7-1.1,6.3-2.8l1.9,1.7c-2,2.2-4.5,3.8-8.3,3.8C170.1,207.1,165.6,202.9,165.6,196.6 M181.5,195.4
	c-0.3-3.6-2.4-6.8-6.4-6.8c-3.5,0-6.1,2.9-6.5,6.8H181.5z"/>
<path class="st1" d="M188.2,200.8c0-4.3,3.5-6.6,8.6-6.6c2.6,0,4.4,0.3,6.2,0.9v-0.7c0-3.6-2.2-5.5-6-5.5c-2.4,0-4.2,0.6-6.1,1.5
	L190,188c2.2-1,4.4-1.7,7.3-1.7c2.8,0,5,0.7,6.5,2.2c1.4,1.4,2.1,3.3,2.1,5.9v12.3H203v-3c-1.4,1.8-3.7,3.5-7.3,3.5
	C192,207.1,188.2,204.9,188.2,200.8 M203,199.2v-1.9c-1.5-0.4-3.5-0.9-5.9-0.9c-3.8,0-5.9,1.6-5.9,4.1v0.1c0,2.5,2.3,4,5,4
	C200,204.6,203,202.4,203,199.2 M212.2,186.6h3v5.2c1.5-3.3,4.4-5.7,8.2-5.6v3.2h-0.2c-4.4,0-7.9,3.1-7.9,9.2v8h-3L212.2,186.6
	L212.2,186.6z M228.9,201.2v-12.1h-2.8v-2.6h2.8v-6h3v6h6.4v2.6h-6.4v11.7c0,2.4,1.4,3.3,3.4,3.3c1,0,1.9-0.2,2.9-0.7v2.6
	c-1,0.5-2.2,0.9-3.6,0.9C231.4,206.9,228.9,205.4,228.9,201.2"/>
<path class="st0" d="M253.9,196.6c0-5.7,4.4-10.5,10.5-10.5c6,0,10.4,4.7,10.4,10.4v0.1c0,5.7-4.5,10.5-10.5,10.5
	S253.9,202.4,253.9,196.6 M271.8,196.6c0-4.4-3.2-7.9-7.4-7.9c-4.3,0-7.3,3.5-7.3,7.8v0.1c0,4.3,3.2,7.8,7.4,7.8
	C268.8,204.4,271.8,200.9,271.8,196.6 M281.4,189.1h-2.8v-2.6h2.8v-1.7c0-2.3,0.6-4,1.7-5.2c1-1,2.5-1.6,4.3-1.6
	c1.4,0,2.3,0.2,3.3,0.5v2.6c-1.1-0.3-1.9-0.5-2.9-0.5c-2.3,0-3.5,1.4-3.5,4.3v1.6h6.4v2.6h-6.3v17.4h-3V189.1L281.4,189.1z
	 M304.8,196.6c0-5.9,4.1-10.5,9.6-10.5c5.9,0,9.3,4.7,9.3,10.6v1h-15.9c0.4,4.3,3.5,6.8,7.1,6.8c2.8,0,4.7-1.1,6.3-2.8l1.9,1.7
	c-2,2.2-4.5,3.8-8.3,3.8C309.3,207.1,304.8,202.9,304.8,196.6 M320.8,195.4c-0.3-3.6-2.4-6.8-6.4-6.8c-3.5,0-6.1,2.9-6.5,6.8H320.8z
	 M329,186.6h3v3.5c1.3-2.2,3.4-3.9,6.9-3.9c4.8,0,7.7,3.3,7.7,8v12.4h-3v-11.7c0-3.7-2-6-5.5-6s-6,2.5-6,6.3v11.5h-3L329,186.6
	L329,186.6z M352.7,210.1l1.4-2.3c2.3,1.7,4.8,2.6,7.7,2.6c4.4,0,7.3-2.4,7.3-7.1v-2.4c-1.7,2.3-4.2,4.2-7.9,4.2
	c-4.8,0-9.4-3.6-9.4-9.4v-0.1c0-5.9,4.7-9.5,9.4-9.5c3.8,0,6.2,1.9,7.8,4v-3.6h3v16.6c0,3.1-0.9,5.5-2.6,7.1
	c-1.8,1.8-4.5,2.7-7.6,2.7C358.5,212.9,355.4,211.9,352.7,210.1 M369.1,195.6c0-4.2-3.6-6.9-7.4-6.9s-6.9,2.6-6.9,6.7v0.1
	c0,4,3.2,6.8,6.9,6.8C365.5,202.4,369.1,199.6,369.1,195.6 M377.1,200.8c0-4.3,3.5-6.6,8.6-6.6c2.6,0,4.4,0.3,6.2,0.9v-0.7
	c0-3.6-2.2-5.5-6-5.5c-2.4,0-4.2,0.6-6.1,1.5l-0.9-2.4c2.2-1,4.4-1.7,7.3-1.7c2.8,0,5,0.7,6.5,2.2c1.4,1.4,2.1,3.3,2.1,5.9v12.3
	h-2.9v-3c-1.4,1.8-3.7,3.5-7.3,3.5C380.9,207.1,377.1,204.9,377.1,200.8 M391.9,199.2v-1.9c-1.5-0.4-3.5-0.9-5.9-0.9
	c-3.8,0-5.9,1.6-5.9,4.1v0.1c0,2.5,2.3,4,5,4C388.9,204.6,391.9,202.4,391.9,199.2 M400.9,210.1l1.4-2.3c2.3,1.7,4.8,2.6,7.7,2.6
	c4.4,0,7.3-2.4,7.3-7.1v-2.4c-1.7,2.3-4.2,4.2-7.9,4.2c-4.8,0-9.4-3.6-9.4-9.4v-0.1c0-5.9,4.7-9.5,9.4-9.5c3.8,0,6.2,1.9,7.8,4v-3.6
	h3v16.6c0,3.1-0.9,5.5-2.6,7.1c-1.8,1.8-4.5,2.7-7.6,2.7C406.6,212.9,403.5,211.9,400.9,210.1 M417.3,195.6c0-4.2-3.6-6.9-7.4-6.9
	c-3.8,0-6.9,2.6-6.9,6.7v0.1c0,4,3.2,6.8,6.9,6.8C413.7,202.4,417.3,199.6,417.3,195.6 M425.6,196.6c0-5.9,4.1-10.5,9.6-10.5
	c5.9,0,9.3,4.7,9.3,10.6v1h-15.9c0.4,4.3,3.5,6.8,7.1,6.8c2.8,0,4.7-1.1,6.3-2.8l1.9,1.7c-2,2.2-4.5,3.8-8.3,3.8
	C430.1,207.1,425.6,202.9,425.6,196.6 M441.5,195.4c-0.3-3.6-2.4-6.8-6.4-6.8c-3.5,0-6.1,2.9-6.5,6.8H441.5z M449.8,186.6h3v3.4
	c1.3-2,3.1-3.8,6.5-3.8c3.3,0,5.4,1.7,6.4,4c1.4-2.2,3.6-4,7.1-4c4.6,0,7.4,3.1,7.4,8.1v12.4h-3V195c0-3.9-1.9-6-5.2-6
	c-3,0-5.5,2.2-5.5,6.2v11.6h-3V195c0-3.8-2-6-5.2-6s-5.6,2.6-5.6,6.3v11.4h-3v-20.1L449.8,186.6L449.8,186.6z M485.4,196.6
	c0-5.9,4.1-10.5,9.6-10.5c5.9,0,9.3,4.7,9.3,10.6v1h-15.9c0.4,4.3,3.5,6.8,7.1,6.8c2.8,0,4.7-1.1,6.3-2.8l1.9,1.7
	c-2,2.2-4.5,3.8-8.3,3.8C489.9,207.1,485.4,202.9,485.4,196.6 M501.3,195.4c-0.3-3.6-2.4-6.8-6.4-6.8c-3.5,0-6.1,2.9-6.5,6.8H501.3z
	 M509.6,186.6h3v3.5c1.3-2.2,3.4-3.9,6.9-3.9c4.8,0,7.7,3.3,7.7,8v12.4h-3v-11.7c0-3.7-2-6-5.5-6s-6,2.5-6,6.3v11.5h-3v-20.1H509.6
	L509.6,186.6z M534.5,201.2v-12.1h-2.8v-2.6h2.8v-6h3v6h6.4v2.6h-6.4v11.7c0,2.4,1.4,3.3,3.4,3.3c1,0,1.9-0.2,2.9-0.7v2.6
	c-1,0.5-2.2,0.9-3.6,0.9C537,206.9,534.5,205.4,534.5,201.2"/>
<linearGradient id="SVGID_2_" gradientUnits="userSpaceOnUse" x1="470.6" y1="773.04" x2="706.7302" y2="773.04" gradientTransform="matrix(1 0 0 1 0 -670.64)">
	<stop  offset="0.367" style="stop-color:#88BA31"/>
	<stop  offset="0.387" style="stop-color:#7FB735"/>
	<stop  offset="0.422" style="stop-color:#65B03F"/>
	<stop  offset="0.466" style="stop-color:#3BA54F"/>
	<stop  offset="0.517" style="stop-color:#029665"/>
	<stop  offset="0.519" style="stop-color:#009566"/>
	<stop  offset="0.666" style="stop-color:#0093C6"/>
	<stop  offset="0.688" style="stop-color:#008EC2"/>
	<stop  offset="0.894" style="stop-color:#00659E"/>
	<stop  offset="1" style="stop-color:#005590"/>
</linearGradient>
<path id="SVGID_1_" class="st2" d="M470.6,34.8l0.7,1.5c0,0,68.4-25.8,139.4-10C689.4,43.8,693.4,90,693.4,90s-19.7-40-94.9-50.1
	c-60.3-8.2-119.4,13.7-119.4,13.7l0.7,1.5c0,0,54.3-17,108.4-4.4c55.4,12.9,62,49.6,62,49.6s-16.5-29.4-73.3-37
	c-43.2-5.8-89.8,7.8-89.8,7.8l0.7,1.4c0,0,31.9-8.1,73.8,1.6c44.9,10.3,51.4,37.1,51.4,37.1s-7.5-15.8-44.3-23.6
	c-32.2-6.8-73.5,1.2-73.5,1.2l0.8,1.8c0,0,91.5-14,106.4,26.3c10.7,28.9-42.5,58.8-42.5,58.8l0.4,0.8c0,0,57.7-25.5,62.3-60.2
	c5.2-39.2-55.4-47.6-55.4-47.6s68.3,5.8,71.1,48.1C640.5,151.6,591,182,591,182l0.4,0.8c0,0,52.2-23.8,67.5-64.5
	c16-42.7-35-63.2-35-63.2s57.5,13.6,54.6,61c-2.5,41.6-56.7,72.5-56.7,72.5l0.4,0.8c0,0,64.4-30.5,80.9-76.5
	c14.3-39.9-15.1-76-62.7-89.1c-22.3-6.1-44.2-8.4-64.6-8.4C516.3,15.4,470.6,34.8,470.6,34.8"/>
<path class="st3" d="M467.6,162.9h-14v-25c0-6-1.9-9.1-6.8-9.1s-7.7,3.2-7.7,9.1v25h-13.4v-25c0-6-2.9-9.1-7.7-9.1
	c-4.9,0-8,3.2-8,9.1v25h-12.8v-45.4h13.4v6.1c2.7-3.3,6.6-7,13.3-7c5.9,0,10.4,2.5,12.9,7.1c4.2-4.8,9.1-7.1,15-7.1
	c10,0,15.7,6.2,15.7,17L467.6,162.9z M288.4,141.9c-6.5,0-10.4,2.7-10.4,7.3v0.2c0,4,3.5,6.6,8.6,6.6c6.9,0,11.9-4,11.9-9.5v-2.9
	C296.3,142.9,292.9,141.9,288.4,141.9 M283.7,163.9c-7.8,0-16.2-4.4-16.2-14.1v-0.2c0-9.4,6.9-14.7,18.8-14.7
	c5.3,0,8.9,0.9,11.9,1.8v-0.8c0-6.3-3.8-9.6-11-9.6c-5.1,0-8.8,1.1-12.8,2.8l-0.2,0.1l-2.9-8.5l0.2-0.1c4.3-1.9,9.3-3.7,17.1-3.7
	c6.6,0,11.9,1.8,15.1,5.1c3.3,3.2,4.9,7.9,4.9,14.1v27h-10.5v-5.4C294.5,161.9,289.6,163.9,283.7,163.9 M65.5,162.9h-4.8l-25.3-32.5
	l-15.7,15.4v17.1h-3.8v-61.1h3.8v38.8l39.8-38.8h5.4l-26.8,26L65.5,162.9z M70.2,117.4h4.2v12.4c3.4-7.8,10.7-13.4,19.3-13.1v4.6
	h-0.4c-10.1,0-18.9,7.6-18.9,21.8v19.8h-4.2V117.4z M127.6,121.6c-3.2-3.2-8-4.9-14-4.9c-6.6,0-11.6,1.9-15.6,3.8l-0.3,0.1l1.8,4.2
	l0.3-0.1c4.6-2.4,8.9-3.5,13.5-3.5c9.1,0,14.1,4.6,14.1,13v2.1c-3.6-0.9-7.9-1.8-14.1-1.8c-11.6,0-19.4,6.1-19.4,15.1v0.2
	c0,4.3,1.9,7.9,5.5,10.5c3.1,2.2,7.3,3.5,11.6,3.5c8.8,0,13.9-4.5,16.4-7.7v6.7h4.7v-28.7C132.1,128.7,130.6,124.6,127.6,121.6
	 M111.3,159.2c-6.1,0-12.3-3.3-12.3-9.7v-0.2c0-6.4,5.5-10.5,14.1-10.5c6.1,0,10.9,1,14.5,1.9v4.7
	C127.5,153.1,120.2,159.2,111.3,159.2 M172.7,117.3V144c0,7.9-5.5,13.7-13.1,13.7s-12.1-4.9-12.1-13.2v-27.1h-6.9v28.8
	c0,5.3,1.6,9.7,4.5,12.9c3,3.2,7.4,5,12.6,5c6.4,0,11.3-2.7,15-8.3v7.3h6.8v-45.9C179.5,117.2,172.7,117.3,172.7,117.3z M221,100.6
	h9.7v24.2c2.9-4.2,7.1-7.9,14.1-7.9c10.2,0,15.8,6.8,15.8,17.3V163h-10.1v-25.6c0-7-3.5-11-9.7-11c-6,0-10.2,4.2-10.2,11.2V163H221
	V100.6z M186,124.7h6V151c0,8.8,4,12.9,12.6,12.9c3.4,0,6.1-0.6,8.8-2V155c-1.9,0.7-3.7,1.1-5.7,1.1c-4.4,0-6.7-2.4-6.7-6.8v-24.6
	h12.6v-7.4H201v-13h-8.9v12.9h-6v7.4H186V124.7z M371.8,116.7c-6.2,0-10.9,2.5-14.9,7.2c-2.4-4.6-6.9-7.2-12.8-7.2
	c-6.4,0-11.4,2.9-14.6,7.3v-6.5h-11.2l0.1,45.4h11.1v-25.6c0-4.3,2.2-9,9-9c7.8,0,8.1,7.5,8.1,9.2c0,1.2-0.1,25.4-0.1,25.4h11.8
	v-25.3c0-6.1,3.6-9.2,8.4-9.2c4.8,0,8.2,3.1,8.2,9.2v25.3h12.3v-29.6C387.1,122.3,381.3,116.7,371.8,116.7 M474.1,140.1v-0.2
	c0-13.2,9.5-23.7,22.8-23.7c15.6,0,22.8,11.5,22.8,24.8c0,1,0,2.2-0.1,3.3h-30.3c1.3,4.9,4.9,7.4,9.8,7.4c3.8,0,6.8-1.4,10-4.6
	l8.8,7.3c-4.4,5.5-10.6,9.2-19.6,9.2C484.2,163.6,474.1,154.1,474.1,140.1 M504.9,136.2c-0.6-5-3.6-8.2-7.9-8.2
	c-4.2,0-7,3.2-7.9,8.2H504.9L504.9,136.2z"/>
<g>
	<path class="st3" d="M526.3,162.9h16.8v-14.6c0,0,0-8.1,4.4-11.5c4.1-3.2,10-2.5,10-2.5v-17.8c0,0-4.9-0.1-7.8,1.4
		c-5.2,2.8-6.5,6.8-6.5,6.8v-7.6h-16.8L526.3,162.9L526.3,162.9z"/>
</g>
</svg>
