<svg id="vlaanderen" data-name="vlaanderen" xmlns="http://www.w3.org/2000/svg" viewBox="0 0 194.62 83.16">
    <title>Vlaanderen \ Verbeelding Werkt</title>
    <path class="vlaanderen_path" d="M148.6,151.25l-6.08,17.64h-3.61l-6.08-17.64h3.27l4.61,13.39,4.61-13.39h3.27Z"
          transform="translate(-68.19 -128.26)"/>
    <path class="vlaanderen_path" d="M150.71,149.8l2.69-.26h0.4v19.09h-3.09V149.8Z" transform="translate(-68.19 -128.26)"/>
    <path class="vlaanderen_path"
          d="M167.57,168.89a4.49,4.49,0,0,1-.76-0.07,3.23,3.23,0,0,1-.76-0.24,3.92,3.92,0,0,1-.77-0.44,4.78,4.78,0,0,1-.77-0.7l-0.78.57a4.6,4.6,0,0,1-.8.45,4.74,4.74,0,0,1-.94.31,5.39,5.39,0,0,1-1.17.11,7.16,7.16,0,0,1-1-.07,5,5,0,0,1-1-.26,4.53,4.53,0,0,1-1-.49,3,3,0,0,1-.8-0.79,4,4,0,0,1-.55-1.17,5.53,5.53,0,0,1-.2-1.59,5.05,5.05,0,0,1,.24-1.62,2.71,2.71,0,0,1,.79-1.19,3.71,3.71,0,0,1,1.47-.75,8.7,8.7,0,0,1,2.3-.26h1.23q0.67,0,1.58.09v-0.69a3.07,3.07,0,0,0-.21-1.21,2,2,0,0,0-.58-0.8,2.2,2.2,0,0,0-.85-0.43,4.13,4.13,0,0,0-1-.12,6.09,6.09,0,0,0-.91.07,8.23,8.23,0,0,0-.95.2q-0.47.13-.94,0.3a8.85,8.85,0,0,0-.87.36l-0.73-2.69a12.61,12.61,0,0,1,2.39-.84,10.86,10.86,0,0,1,2.61-.32,7.94,7.94,0,0,1,1.94.23,4.46,4.46,0,0,1,1.63.77,3.75,3.75,0,0,1,1.12,1.39,4.87,4.87,0,0,1,.41,2.12v5.09a2.09,2.09,0,0,0,.15.84,1.6,1.6,0,0,0,.43.59,2.06,2.06,0,0,0,.63.38,5,5,0,0,0,.82.24Zm-3.68-5.8H162a6.08,6.08,0,0,0-1.41.15,1.8,1.8,0,0,0-.88.46,1.29,1.29,0,0,0-.3.92,1.58,1.58,0,0,0,.54,1.29,2.09,2.09,0,0,0,1.38.45,4.21,4.21,0,0,0,.73-0.08,2.43,2.43,0,0,0,.86-0.34,2.22,2.22,0,0,0,.71-0.73,2.46,2.46,0,0,0,.29-1.3v-0.83Z"
          transform="translate(-68.19 -128.26)"/>
    <path class="vlaanderen_path"
          d="M181,168.89a4.48,4.48,0,0,1-.76-0.07,3.24,3.24,0,0,1-.77-0.24,3.91,3.91,0,0,1-.77-0.44,4.74,4.74,0,0,1-.77-0.7l-0.79.57a4.56,4.56,0,0,1-.8.45,4.78,4.78,0,0,1-.94.31,5.39,5.39,0,0,1-1.17.11,7.2,7.2,0,0,1-1-.07,5,5,0,0,1-1-.26,4.56,4.56,0,0,1-1-.49,3,3,0,0,1-.8-0.79,4,4,0,0,1-.55-1.17,5.55,5.55,0,0,1-.2-1.59,5.05,5.05,0,0,1,.24-1.62,2.71,2.71,0,0,1,.79-1.19,3.72,3.72,0,0,1,1.47-.75,8.71,8.71,0,0,1,2.3-.26h1.23q0.67,0,1.58.09v-0.69a3.07,3.07,0,0,0-.21-1.21,2,2,0,0,0-.58-0.8,2.2,2.2,0,0,0-.85-0.43,4.13,4.13,0,0,0-1-.12,6.08,6.08,0,0,0-.91.07,8.23,8.23,0,0,0-.95.2q-0.47.13-.94,0.3a8.88,8.88,0,0,0-.87.36l-0.72-2.69a12.58,12.58,0,0,1,2.39-.84,10.85,10.85,0,0,1,2.61-.32,8,8,0,0,1,1.95.23,4.45,4.45,0,0,1,1.63.77,3.75,3.75,0,0,1,1.12,1.39,4.85,4.85,0,0,1,.41,2.12v5.09a2.09,2.09,0,0,0,.15.84,1.62,1.62,0,0,0,.43.59,2.06,2.06,0,0,0,.63.38,5,5,0,0,0,.82.24Zm-3.68-5.8h-1.91a6.08,6.08,0,0,0-1.41.15,1.79,1.79,0,0,0-.88.46,1.28,1.28,0,0,0-.3.92,1.58,1.58,0,0,0,.54,1.29,2.09,2.09,0,0,0,1.38.45,4.19,4.19,0,0,0,.72-0.08,2.43,2.43,0,0,0,.86-0.34,2.23,2.23,0,0,0,.71-0.73,2.46,2.46,0,0,0,.29-1.3v-0.83Z"
          transform="translate(-68.19 -128.26)"/>
    <path class="vlaanderen_path"
          d="M184.27,154.94h2.61l0.3,1.07a8,8,0,0,1,2.08-1,7.69,7.69,0,0,1,2.29-.35,6.37,6.37,0,0,1,1.89.28,4.38,4.38,0,0,1,1.58.87,4.27,4.27,0,0,1,1.09,1.52,5.43,5.43,0,0,1,.41,2.2v9.08h-3.08v-8.17a3,3,0,0,0-.26-1.3,2.46,2.46,0,0,0-1.67-1.36,4.72,4.72,0,0,0-1.17-.15,5.63,5.63,0,0,0-1.57.22,5.52,5.52,0,0,0-1.41.62v10.14h-3.09V154.94Z"
          transform="translate(-68.19 -128.26)"/>
    <path class="vlaanderen_path"
          d="M211.29,168.62H209l-0.55-1a7.28,7.28,0,0,1-1.66.94,5.38,5.38,0,0,1-2,.35,5.68,5.68,0,0,1-2.57-.55,5.34,5.34,0,0,1-1.82-1.46,6.19,6.19,0,0,1-1.08-2.08,8.43,8.43,0,0,1-.36-2.45,9.51,9.51,0,0,1,.55-3.39,6.61,6.61,0,0,1,1.52-2.4,6.22,6.22,0,0,1,2.3-1.42,8.74,8.74,0,0,1,2.92-.47q0.46,0,1,0l1.05,0.1v-5l2.61-.26h0.47v19.09Zm-3.09-10.78a10.52,10.52,0,0,0-1.16-.22,8.25,8.25,0,0,0-1-.07,4.8,4.8,0,0,0-1.61.26,3.13,3.13,0,0,0-1.24.8,3.72,3.72,0,0,0-.8,1.33,5.55,5.55,0,0,0-.28,1.86,5.4,5.4,0,0,0,.21,1.52,4.37,4.37,0,0,0,.63,1.32,3.25,3.25,0,0,0,1,.94,2.83,2.83,0,0,0,1.44.35,4.77,4.77,0,0,0,1.44-.23,6.23,6.23,0,0,0,1.36-.61v-7.24Z"
          transform="translate(-68.19 -128.26)"/>
    <path class="vlaanderen_path"
          d="M224.73,165.08v3a6.17,6.17,0,0,1-1,.37q-0.49.15-1,.25a9.75,9.75,0,0,1-1,.15c-0.33,0-.64,0-0.93,0a8.15,8.15,0,0,1-2.7-.44,6.5,6.5,0,0,1-2.24-1.33,6.24,6.24,0,0,1-1.54-2.21,8,8,0,0,1-.57-3.12,8.2,8.2,0,0,1,.53-3.06,6.87,6.87,0,0,1,1.4-2.23,5.73,5.73,0,0,1,2-1.36,5.86,5.86,0,0,1,2.26-.46,8.27,8.27,0,0,1,.87.06A5.23,5.23,0,0,1,222,155a5.57,5.57,0,0,1,1.23.62,4.41,4.41,0,0,1,1.12,1.09,5.68,5.68,0,0,1,.81,1.7,8.46,8.46,0,0,1,.31,2.45v2.06h-8.3a3.81,3.81,0,0,0,.59,1.4,3.51,3.51,0,0,0,1,.93,4,4,0,0,0,1.19.51,5.36,5.36,0,0,0,1.3.16,6.8,6.8,0,0,0,1.76-.24,7.86,7.86,0,0,0,1.68-.66Zm-2.12-4.59a4.13,4.13,0,0,0-.3-1.29,2.92,2.92,0,0,0-.59-0.9,2.25,2.25,0,0,0-.79-0.5,2.57,2.57,0,0,0-.88-0.16,2.84,2.84,0,0,0-.94.16,2.66,2.66,0,0,0-.86.51,3.38,3.38,0,0,0-.71.89,4,4,0,0,0-.43,1.29h5.52Z"
          transform="translate(-68.19 -128.26)"/>
    <path class="vlaanderen_path"
          d="M235.84,158.34a5,5,0,0,0-1.16-.52,4.14,4.14,0,0,0-1.16-.17,4,4,0,0,0-1.44.26,5.47,5.47,0,0,0-1.32.74v10h-3.09V154.94h2.61l0.32,1.12a6.56,6.56,0,0,1,1.58-1,4.61,4.61,0,0,1,1.9-.39l0.64,0c0.24,0,.49,0,0.75.09a6.14,6.14,0,0,1,.73.17,3.19,3.19,0,0,1,.61.25Z"
          transform="translate(-68.19 -128.26)"/>
    <path class="vlaanderen_path"
          d="M247.62,165.08v3a6.18,6.18,0,0,1-1,.37q-0.49.15-1,.25a9.75,9.75,0,0,1-1,.15c-0.33,0-.64,0-0.93,0a8.15,8.15,0,0,1-2.7-.44,6.5,6.5,0,0,1-2.24-1.33,6.24,6.24,0,0,1-1.54-2.21,8,8,0,0,1-.57-3.12,8.2,8.2,0,0,1,.53-3.06,6.87,6.87,0,0,1,1.4-2.23,5.73,5.73,0,0,1,2-1.36,5.86,5.86,0,0,1,2.26-.46,8.26,8.26,0,0,1,.87.06,5.23,5.23,0,0,1,1.15.27,5.57,5.57,0,0,1,1.23.62,4.41,4.41,0,0,1,1.12,1.09,5.68,5.68,0,0,1,.81,1.7,8.46,8.46,0,0,1,.31,2.45v2.06H240a3.81,3.81,0,0,0,.59,1.4,3.51,3.51,0,0,0,1,.93,4,4,0,0,0,1.19.51,5.36,5.36,0,0,0,1.3.16,6.8,6.8,0,0,0,1.76-.24,7.86,7.86,0,0,0,1.68-.66Zm-2.12-4.59a4.13,4.13,0,0,0-.3-1.29,2.92,2.92,0,0,0-.59-0.9,2.25,2.25,0,0,0-.79-0.5,2.57,2.57,0,0,0-.88-0.16,2.84,2.84,0,0,0-.94.16,2.66,2.66,0,0,0-.86.51,3.39,3.39,0,0,0-.71.89,4,4,0,0,0-.43,1.29h5.52Z"
          transform="translate(-68.19 -128.26)"/>
    <path class="vlaanderen_path"
          d="M250.56,154.94h2.61l0.3,1.07a8,8,0,0,1,2.08-1,7.69,7.69,0,0,1,2.29-.35,6.37,6.37,0,0,1,1.89.28,4.38,4.38,0,0,1,1.58.87,4.27,4.27,0,0,1,1.09,1.52,5.43,5.43,0,0,1,.41,2.2v9.08h-3.08v-8.17a3,3,0,0,0-.26-1.3,2.46,2.46,0,0,0-1.67-1.36,4.72,4.72,0,0,0-1.17-.15,5.63,5.63,0,0,0-1.57.22,5.52,5.52,0,0,0-1.41.62v10.14h-3.09V154.94Z"
          transform="translate(-68.19 -128.26)"/>
    <path class="vlaanderen_path" d="M143.39,179l-2.61,7.6h-1.52l-2.61-7.6h1.17l2.2,6.39,2.2-6.39h1.17Z"
          transform="translate(-68.19 -128.26)"/>
    <path class="vlaanderen_path"
          d="M150.06,183.11h-4.74a3.35,3.35,0,0,0,.26,1.15,2.61,2.61,0,0,0,.55.81,2.13,2.13,0,0,0,.77.49,2.71,2.71,0,0,0,.93.16,3.82,3.82,0,0,0,1-.14,5.7,5.7,0,0,0,1-.4h0v1a5.24,5.24,0,0,1-1.12.42,4.63,4.63,0,0,1-1.06.13,3.84,3.84,0,0,1-1.35-.24,3,3,0,0,1-1.12-.74,3.59,3.59,0,0,1-.77-1.25,5.14,5.14,0,0,1-.29-1.82,5.81,5.81,0,0,1,.19-1.52A3.44,3.44,0,0,1,145,180a2.72,2.72,0,0,1,1-.81,3.39,3.39,0,0,1,1.48-.29,3.18,3.18,0,0,1,1,.14,2.29,2.29,0,0,1,.71.37,1.92,1.92,0,0,1,.46.55,2.94,2.94,0,0,1,.27.67,4.12,4.12,0,0,1,.12.74q0,0.38,0,.74v1Zm-1.11-1a5.26,5.26,0,0,0-.08-0.83,2.2,2.2,0,0,0-.24-0.69,1.23,1.23,0,0,0-.46-0.47,1.45,1.45,0,0,0-.74-0.17,1.83,1.83,0,0,0-.78.16,1.93,1.93,0,0,0-.61.45,2.34,2.34,0,0,0-.43.68,3.63,3.63,0,0,0-.24.86h3.57Z"
          transform="translate(-68.19 -128.26)"/>
    <path class="vlaanderen_path"
          d="M152.09,179h0.76l0.26,0.86a3.42,3.42,0,0,1,.88-0.75,2,2,0,0,1,1-.26h0.3l0.33,0.05,0.33,0.09,0.29,0.11-0.4,1a2.34,2.34,0,0,0-.51-0.17,2.52,2.52,0,0,0-.53-0.07,1.47,1.47,0,0,0-.89.29,2.81,2.81,0,0,0-.68.73v5.68h-1.14V179Z"
          transform="translate(-68.19 -128.26)"/>
    <path class="vlaanderen_path"
          d="M157.66,176.16l1.06-.15h0.07v3.52a3.41,3.41,0,0,1,.88-0.49,3.26,3.26,0,0,1,2.43.12,3.08,3.08,0,0,1,1,.82,3.78,3.78,0,0,1,.66,1.24,5,5,0,0,1,.23,1.54,5,5,0,0,1-.23,1.53,3.55,3.55,0,0,1-.7,1.27,3.4,3.4,0,0,1-1.19.87,4.14,4.14,0,0,1-1.71.32,5.66,5.66,0,0,1-1.36-.16,8.18,8.18,0,0,1-1.18-.38V176.16Zm1.14,9.33a3,3,0,0,0,.74.19,6.29,6.29,0,0,0,.74,0,2.6,2.6,0,0,0,1.05-.21,2.35,2.35,0,0,0,.83-0.6,2.75,2.75,0,0,0,.54-1,4,4,0,0,0,.19-1.29,4.13,4.13,0,0,0-.13-1.07,2.52,2.52,0,0,0-.41-0.87,2,2,0,0,0-.71-0.59,2.29,2.29,0,0,0-1-.22,2.57,2.57,0,0,0-1,.21,1.8,1.8,0,0,0-.76.62v4.74Z"
          transform="translate(-68.19 -128.26)"/>
    <path class="vlaanderen_path"
          d="M171.07,183.11h-4.74a3.35,3.35,0,0,0,.26,1.15,2.61,2.61,0,0,0,.55.81,2.13,2.13,0,0,0,.77.49,2.71,2.71,0,0,0,.93.16,3.81,3.81,0,0,0,1-.14,5.68,5.68,0,0,0,1-.4h0v1a5.22,5.22,0,0,1-1.12.42,4.64,4.64,0,0,1-1.06.13,3.84,3.84,0,0,1-1.35-.24,3,3,0,0,1-1.12-.74,3.59,3.59,0,0,1-.77-1.25,5.14,5.14,0,0,1-.29-1.82,5.81,5.81,0,0,1,.19-1.52A3.44,3.44,0,0,1,166,180a2.72,2.72,0,0,1,1-.81,3.39,3.39,0,0,1,1.48-.29,3.17,3.17,0,0,1,1,.14,2.27,2.27,0,0,1,.71.37,1.9,1.9,0,0,1,.46.55,2.9,2.9,0,0,1,.27.67,4.06,4.06,0,0,1,.13.74q0,0.38,0,.74v1Zm-1.11-1a5.51,5.51,0,0,0-.08-0.83,2.22,2.22,0,0,0-.24-0.69,1.23,1.23,0,0,0-.46-0.47,1.44,1.44,0,0,0-.74-0.17,1.83,1.83,0,0,0-.78.16,1.93,1.93,0,0,0-.61.45,2.34,2.34,0,0,0-.43.68,3.63,3.63,0,0,0-.24.86H170Z"
          transform="translate(-68.19 -128.26)"/>
    <path class="vlaanderen_path"
          d="M178,183.11h-4.74a3.39,3.39,0,0,0,.26,1.15,2.59,2.59,0,0,0,.55.81,2.11,2.11,0,0,0,.77.49,2.72,2.72,0,0,0,.93.16,3.83,3.83,0,0,0,1-.14,5.73,5.73,0,0,0,1-.4h0v1a5.27,5.27,0,0,1-1.12.42,4.62,4.62,0,0,1-1.06.13,3.85,3.85,0,0,1-1.35-.24,3,3,0,0,1-1.12-.74,3.6,3.6,0,0,1-.77-1.25,5.16,5.16,0,0,1-.29-1.82,5.82,5.82,0,0,1,.19-1.52,3.42,3.42,0,0,1,.59-1.22,2.72,2.72,0,0,1,1-.81,3.38,3.38,0,0,1,1.47-.29,3.18,3.18,0,0,1,1,.14,2.29,2.29,0,0,1,.71.37,1.94,1.94,0,0,1,.46.55,3,3,0,0,1,.27.67,4.41,4.41,0,0,1,.13.74c0,0.25,0,.5,0,0.74v1Zm-1.11-1a5.25,5.25,0,0,0-.08-0.83,2.18,2.18,0,0,0-.24-0.69,1.21,1.21,0,0,0-.46-0.47,1.45,1.45,0,0,0-.74-0.17,1.82,1.82,0,0,0-.78.16,1.91,1.91,0,0,0-.61.45,2.36,2.36,0,0,0-.43.68,3.58,3.58,0,0,0-.24.86h3.57Z"
          transform="translate(-68.19 -128.26)"/>
    <path class="vlaanderen_path" d="M179.65,176.16l1.05-.15h0.07v10.61h-1.13V176.16Z" transform="translate(-68.19 -128.26)"/>
    <path class="vlaanderen_path"
          d="M188.91,186.62h-0.72l-0.23-.67a3.7,3.7,0,0,1-1,.59,3,3,0,0,1-1.18.22,2.82,2.82,0,0,1-1.36-.32,3.22,3.22,0,0,1-1-.88,4,4,0,0,1-.66-1.28,5.17,5.17,0,0,1-.23-1.57,4.71,4.71,0,0,1,.23-1.5,3.39,3.39,0,0,1,.71-1.22,3.21,3.21,0,0,1,1.19-.82,4.48,4.48,0,0,1,1.7-.29,5.71,5.71,0,0,1,.72,0l0.69,0.11v-2.86l1.06-.15h0.07v10.61Zm-1.13-6.41a4.12,4.12,0,0,0-1.49-.3,2.93,2.93,0,0,0-1,.18,2.21,2.21,0,0,0-.83.54,2.55,2.55,0,0,0-.55.91,3.73,3.73,0,0,0-.19,1.26,4.43,4.43,0,0,0,.13,1.09,2.79,2.79,0,0,0,.41.92,2.08,2.08,0,0,0,.71.64,2.12,2.12,0,0,0,1,.24,2.54,2.54,0,0,0,1-.2,1.84,1.84,0,0,0,.77-0.63v-4.66Z"
          transform="translate(-68.19 -128.26)"/>
    <path class="vlaanderen_path"
          d="M191.25,176.95a0.73,0.73,0,0,1,.06-0.3,0.79,0.79,0,0,1,.42-0.42,0.77,0.77,0,0,1,.61,0,0.9,0.9,0,0,1,.25.16,0.81,0.81,0,0,1,.17.25,0.76,0.76,0,0,1,.06.3,0.71,0.71,0,0,1-.23.54,0.84,0.84,0,0,1-.25.17,0.77,0.77,0,0,1-.3.06,0.72,0.72,0,0,1-.55-0.23A0.71,0.71,0,0,1,191.25,176.95Zm0.22,2.07h1.13v7.6h-1.13V179Z"
          transform="translate(-68.19 -128.26)"/>
    <path class="vlaanderen_path"
          d="M195.17,179h0.76l0.21,0.7c0.16-.1.33-0.2,0.51-0.3a6,6,0,0,1,.59-0.28,4.49,4.49,0,0,1,.61-0.2,2.41,2.41,0,0,1,.57-0.07,3.54,3.54,0,0,1,1,.15,2.19,2.19,0,0,1,.86.49,2.36,2.36,0,0,1,.59.89,3.79,3.79,0,0,1,.21,1.36v4.86H200v-4.8a2.73,2.73,0,0,0-.13-0.92,1.56,1.56,0,0,0-.35-0.59A1.31,1.31,0,0,0,199,180a2.25,2.25,0,0,0-.65-0.09,2.21,2.21,0,0,0-.53.07,3.94,3.94,0,0,0-.52.17,4.25,4.25,0,0,0-.49.23l-0.46.26v6h-1.13V179Z"
          transform="translate(-68.19 -128.26)"/>
    <path class="vlaanderen_path"
          d="M206.38,185a4.88,4.88,0,0,1,1.37.17,2.8,2.8,0,0,1,1,.47,2,2,0,0,1,.56.69,1.84,1.84,0,0,1,.19.81,2.12,2.12,0,0,1-.34,1.16,3.39,3.39,0,0,1-.9.93,4.67,4.67,0,0,1-2.67.86,3.39,3.39,0,0,1-1.18-.19,2.69,2.69,0,0,1-.88-0.52,2.23,2.23,0,0,1-.56-0.77,2.29,2.29,0,0,1-.2-0.95,2.37,2.37,0,0,1,.23-1,3.26,3.26,0,0,1,.67-1,0.94,0.94,0,0,1-.27-0.23,1.63,1.63,0,0,1-.19-0.31,1.67,1.67,0,0,1-.16-0.68,1.7,1.7,0,0,1,.14-0.65,2.71,2.71,0,0,1,.41-0.68,1.73,1.73,0,0,1-.27-0.37,2.64,2.64,0,0,1-.2-0.45,2.86,2.86,0,0,1-.12-0.49,3.08,3.08,0,0,1,0-.49,2.39,2.39,0,0,1,.79-1.81,2.64,2.64,0,0,1,.89-0.54,3.49,3.49,0,0,1,1.93-.1,2.8,2.8,0,0,1,.68.26,4.09,4.09,0,0,1,.51-0.33,5,5,0,0,1,.52-0.25,2.89,2.89,0,0,1,.49-0.15,2.2,2.2,0,0,1,.43,0l0.34,1a4.06,4.06,0,0,0-.68.18,3.82,3.82,0,0,0-.75.37,2.42,2.42,0,0,1,.44,1.41,2.56,2.56,0,0,1-.21,1,2.74,2.74,0,0,1-.58.85,2.79,2.79,0,0,1-.9.59,3,3,0,0,1-1.14.21,2.93,2.93,0,0,1-.75-0.09,3.72,3.72,0,0,1-.65-0.24,1,1,0,0,0-.26.62,0.61,0.61,0,0,0,.24.48,1.08,1.08,0,0,0,.7.2h1.44Zm-1.87,1a2.94,2.94,0,0,0-.49.77,2,2,0,0,0-.18.82,1.84,1.84,0,0,0,.1.62,1.2,1.2,0,0,0,.32.49,1.49,1.49,0,0,0,.57.32,2.79,2.79,0,0,0,.86.11,3.15,3.15,0,0,0,1.05-.17,3,3,0,0,0,.83-0.44,1.94,1.94,0,0,0,.54-0.6,1.4,1.4,0,0,0,.19-0.68,0.94,0.94,0,0,0-.23-0.67,1.49,1.49,0,0,0-.62-0.38,4,4,0,0,0-.94-0.16q-0.53,0-1.13,0h-0.86Zm1.2-6.12a1.83,1.83,0,0,0-.75.14,1.72,1.72,0,0,0-.54.37,1.51,1.51,0,0,0-.33.51,1.49,1.49,0,0,0,0,1.14,1.59,1.59,0,0,0,.33.51,1.64,1.64,0,0,0,.54.37,1.9,1.9,0,0,0,.76.14,1.85,1.85,0,0,0,.74-0.14,1.59,1.59,0,0,0,.53-0.37,1.47,1.47,0,0,0,.32-0.5,1.58,1.58,0,0,0,.11-0.56,1.56,1.56,0,0,0-.11-0.57,1.55,1.55,0,0,0-.86-0.89A1.89,1.89,0,0,0,205.71,179.88Z"
          transform="translate(-68.19 -128.26)"/>
    <path class="vlaanderen_path"
          d="M225.41,179l-2.41,7.6H221.6l-1.69-5.79-1.69,5.79H216.8l-2.4-7.6h1.1l2,6.35,1.88-6.35h1l1.88,6.35,2-6.35h1.09Z"
          transform="translate(-68.19 -128.26)"/>
    <path class="vlaanderen_path"
          d="M232.08,183.11h-4.74a3.39,3.39,0,0,0,.26,1.15,2.59,2.59,0,0,0,.55.81,2.11,2.11,0,0,0,.77.49,2.72,2.72,0,0,0,.93.16,3.83,3.83,0,0,0,1-.14,5.73,5.73,0,0,0,1-.4h0v1a5.27,5.27,0,0,1-1.12.42,4.62,4.62,0,0,1-1.06.13,3.85,3.85,0,0,1-1.35-.24,3,3,0,0,1-1.12-.74,3.6,3.6,0,0,1-.77-1.25,5.16,5.16,0,0,1-.29-1.82,5.81,5.81,0,0,1,.19-1.52A3.42,3.42,0,0,1,227,180a2.72,2.72,0,0,1,1-.81,3.38,3.38,0,0,1,1.47-.29,3.18,3.18,0,0,1,1,.14,2.29,2.29,0,0,1,.71.37,1.94,1.94,0,0,1,.46.55,3,3,0,0,1,.27.67,4.41,4.41,0,0,1,.13.74c0,0.25,0,.5,0,0.74v1Zm-1.11-1a5.25,5.25,0,0,0-.08-0.83,2.18,2.18,0,0,0-.24-0.69,1.21,1.21,0,0,0-.46-0.47,1.45,1.45,0,0,0-.74-0.17,1.82,1.82,0,0,0-.78.16,1.91,1.91,0,0,0-.61.45,2.36,2.36,0,0,0-.43.68,3.58,3.58,0,0,0-.24.86H231Z"
          transform="translate(-68.19 -128.26)"/>
    <path class="vlaanderen_path"
          d="M234.11,179h0.76l0.26,0.86a3.41,3.41,0,0,1,.88-0.75,2,2,0,0,1,1-.26h0.3l0.33,0.05L238,179l0.29,0.11-0.39,1a2.38,2.38,0,0,0-.51-0.17,2.54,2.54,0,0,0-.54-0.07,1.46,1.46,0,0,0-.89.29,2.79,2.79,0,0,0-.68.73v5.68h-1.13V179Z"
          transform="translate(-68.19 -128.26)"/>
    <path class="vlaanderen_path"
          d="M245,186.77a1.51,1.51,0,0,1-.61-0.18,4.19,4.19,0,0,1-.66-0.43,6.78,6.78,0,0,1-.68-0.59q-0.34-.34-0.65-0.7c-0.21-.23-0.41-0.47-0.59-0.7s-0.34-.45-0.48-0.64A5.53,5.53,0,0,1,241,183a2.45,2.45,0,0,1-.15-0.27v3.86h-1.13V176.21l1.06-.2h0.07v6.61l3-3.6h1.45l-3.09,3.68a1.34,1.34,0,0,0,.2.37,6.38,6.38,0,0,0,.43.56q0.26,0.32.59,0.65t0.68,0.64a6,6,0,0,0,.7.53,2.61,2.61,0,0,0,.64.31Z"
          transform="translate(-68.19 -128.26)"/>
    <path class="vlaanderen_path"
          d="M245.95,179h0.84v-1.36l1.06-.2h0.07V179H250v1.05h-2.11v3.74a3.07,3.07,0,0,0,.11.88,1.75,1.75,0,0,0,.29.59,1,1,0,0,0,.43.34,1.39,1.39,0,0,0,.54.1,2.2,2.2,0,0,0,.69-0.12,4.14,4.14,0,0,0,.74-0.33l0.31,1a5.72,5.72,0,0,1-1,.34,3.68,3.68,0,0,1-.92.12,2.58,2.58,0,0,1-.93-0.16,2,2,0,0,1-.75-0.52,2.34,2.34,0,0,1-.51-0.92,4.54,4.54,0,0,1-.18-1.36v-3.74h-0.84V179Z"
          transform="translate(-68.19 -128.26)"/>
    <rect class="vlaanderen_path" x="118.59" y="125.99" width="0.42" height="87.7"
          transform="translate(-116.55 -80.96) rotate(-18.78)"/>
    <path class="vlaanderen_path"
          d="M105.05,169.67c-2-1.55-3,0-4.27-.09-1.08-.09-2.1-1.84-2.94-1.42-1.6.81,0.64,3.7,1.62,4.28a23.49,23.49,0,0,0,2.22,1.12,3.24,3.24,0,0,1,2,2.93,5.62,5.62,0,0,1-.08,1.42c-0.59,2.49-5,4.76-7.46,3a5.67,5.67,0,0,1-2.63-3.7c-0.67-3.28-3-5.68-3.8-8.89-0.46-1.95-.8-4-1.31-6s-1-4-1.47-5.87a52.08,52.08,0,0,0-1.79-5.83c-2.39-6.25-3.48-5.8-3.48-5.8s0.87,1.73,4,17.06a90.74,90.74,0,0,0,2.13,9.6c0.3,0.8.83,2.5,1.17,3.25,1,2.2,3.67,5.52,3.85,8.52,0.1,1.73.3,3.17,0.34,4.48a14,14,0,0,0,.45,2.64c0.65,1.83,5.9,7.73,11.47,7.73v-4.47c-5.54,0-10.75-3.1-10.88-3.43a12.1,12.1,0,0,1,.66-3.21,5.24,5.24,0,0,1,4.5-3.67c2.68-.19,4.3.59,5.72,0.59V169.67Z"
          transform="translate(-68.19 -128.26)"/>
    <path class="vlaanderen_path"
          d="M81,153.43c-0.2,3.35-5.39,7.93-7,10.87a21.67,21.67,0,0,0-2,5.36,14.3,14.3,0,0,0,1.16,8.82c1.72,4.11-.23,5.63,1.11,4.79,1.66-1.35,1.41-4.51,1.29-6.48a28.08,28.08,0,0,1,0-5.32c0.46-3.57,2.62-7.39,4.46-10.07a9.2,9.2,0,0,0,1-8"
          transform="translate(-68.19 -128.26)"/>
    <path class="vlaanderen_path"
          d="M82,162.95s0.55,2.65-1.79,9.48c-6.12,17.85,5.58,19.54,8.91,23.74,0,0,1.29-1.82-4-7.64C83.21,186.4,81.46,181.72,83,175c2.2-9.69-.94-12.08-0.94-12.08"
          transform="translate(-68.19 -128.26)"/>
    <path class="vlaanderen_path"
          d="M70.47,151.24a8.59,8.59,0,0,1-.3-2.84c0.28-4.2,4.09-5.89,5-6.52,0,0,1.71-1.17,1.93-2.36,0,0,1.75,4.42-2.27,6.95a11.44,11.44,0,0,0-4.4,4.77"
          transform="translate(-68.19 -128.26)"/>
    <path class="vlaanderen_path"
          d="M80.07,147.19c0.22,0.43,1.8,2.74-4.67,8.07S71,164.4,71,164.4s-6.89-3.83,1-10.45,6.31-8,6.31-8a2,2,0,0,1,1.75,1.2"
          transform="translate(-68.19 -128.26)"/>
    <path class="vlaanderen_path"
          d="M88.47,149.23c1.12,0.15,1.83,3.63,4.41,4.39,1.9,0.55,3.92.25,4.37,1.4a1,1,0,0,0,.69,1.74C98.67,154.72,99,146.85,88.47,149.23Zm3.48,1.57c0.09-.25.23,0,0.51-0.23a3.14,3.14,0,0,1,1.1-.91,2,2,0,0,1,1.16.07c0.22,0.05.09,0.62-.08,0.76-0.35.26-1.38-.17-1.38,0.61,0,1.27,1.71,0,2.59,0C96.28,154.19,91.19,153.34,91.95,150.8Z"
          transform="translate(-68.19 -128.26)"/>
</svg>
