<svg id="frame" xmlns="http://www.w3.org/2000/svg" viewBox="0 0 360 180"><defs><style>.cls-1{fill:none;}.cls-2{fill:#172a3d;}</style></defs><title>Untitled-1</title><rect class="cls-1" width="360" height="180"/><path class="cls-2" d="M226.36,45.36c-9,0-20.84.27-20.73,2.67,0.13,3.1,13.52,3.55,12.9,7.7-0.92,6.17-29.87,2.73-29.48,11.53,0.33,7.09,23,10.07,28.2,18.71a18.39,18.39,0,0,1,2.5,7.53,58.72,58.72,0,0,0,6.61-48.15"/><path class="cls-2" d="M226.49,45,161.86,66.29c4.08-9.31,45.17-8.1,45.07-13.22-0.06-3-7.5-2.45-7.19-5.2,0.32-2.95,5.5-3.86,26.45-3.81-7.38-23.2-28.78-40-54.06-40-31.38,0-56.82,25.88-56.82,57.8a58,58,0,0,0,23.2,46.59C153,96.1,184.59,96.4,185.32,85S158,75.19,161.86,66.29"/><path class="cls-2" d="M87.4,147.3h-4.2l-4.89-27.15h4.44l2.65,19,2.81-19h4.16Z"/><path class="cls-2" d="M94.19,147.3V120.15h3.63V147.3H94.19Z"/><path class="cls-2" d="M107.44,147.3l-0.21-2.36a3.69,3.69,0,0,1-3.46,2.69c-2.24,0-3.51-1.71-3.51-4.28V127.74h3.63v15a1.53,1.53,0,0,0,1.43,1.71c1,0,1.63-1.26,1.63-2.2V127.74h3.63V147.3h-3.14Z"/><path class="cls-2" d="M118,147.63c-2.94,0-5-2.12-5-5.58v-9c0-3.42,2.08-5.62,5-5.62s4.77,2.16,4.77,5.58v1.88h-3.06v-2.45a1.6,1.6,0,0,0-1.59-1.83,1.65,1.65,0,0,0-1.59,1.92v10a1.61,1.61,0,1,0,3.18,0v-2.41h3.06V142C122.74,145.51,121,147.63,118,147.63Z"/><path class="cls-2" d="M131.55,147.3v-15a1.51,1.51,0,0,0-1.43-1.71c-1,0-1.63,1.26-1.63,2.2V147.3h-3.63V120.15h3.63v9.78a3.64,3.64,0,0,1,3.34-2.49c2.08,0,3.34,1.71,3.34,4.28V147.3h-3.63Z"/><path class="cls-2" d="M142.47,130.92v10.72a15.77,15.77,0,0,0,.77,5.67h-3.63a14.89,14.89,0,0,1-.81-5.67V130.92H137v-3.18h2v-3.22l3.47-1v4.24h2.12v3.18h-2.12Z"/><path class="cls-2" d="M151.34,147.63c-2.94,0-5.05-2.2-5.05-5.54V133c0-3.3,2.12-5.54,5.05-5.54s4.85,2.24,4.85,5.54v5h-6.36v4.65a1.55,1.55,0,0,0,1.55,1.79,1.51,1.51,0,0,0,1.55-1.79v-2.41h3.26v1.87C156.19,145.43,154.32,147.63,151.34,147.63Zm1.55-15.16c0-1.1-.49-1.83-1.51-1.83a1.59,1.59,0,0,0-1.55,1.83v3.46h3.06v-3.46Z"/><path class="cls-2" d="M158.48,147.3V120.15h3.63V147.3h-3.63Z"/><path class="cls-2" d="M164.59,147.3V127.74h3.63V147.3h-3.63Zm0.08-22.05v-3.79h3.47v3.79h-3.47Z"/><path class="cls-2" d="M177.39,147.3v-15a1.5,1.5,0,0,0-1.39-1.71c-1,0-1.67,1.26-1.67,2.2V147.3h-3.63V127.74h3.22l0.2,2.57c0.65-1.92,2-2.85,3.42-2.85,2.2,0,3.47,1.71,3.47,4.28V147.3h-3.63Z"/><path class="cls-2" d="M193.13,129.53a2.33,2.33,0,0,1-1.1-.29,4.84,4.84,0,0,1,1.43,3.46v2.53a4.91,4.91,0,0,1-5,5.22,4.11,4.11,0,0,1-1-.12,1.28,1.28,0,0,0-1.22,1.34c0,0.82.61,1.35,2.65,1.35,3.59,0,5.3,1.71,5.3,4.52v1.55c0,3.22-2.08,5.22-5.54,5.22-3.22,0-5.54-1.71-5.54-4.61v-1.43a3.09,3.09,0,0,1,2-2.93,2.91,2.91,0,0,1-1.91-2.73,3.08,3.08,0,0,1,2.53-2.94c-1.51-.61-2.24-2.61-2.24-4.61v-2.4a5,5,0,0,1,5-5.22,13.14,13.14,0,0,1,1.87.24c1.43,0,1.79-.82,1.79-2h2.65a7.12,7.12,0,0,1,.12,1.47C194.88,128.76,194.1,129.53,193.13,129.53Zm-2.24,18.18c0-1-.61-1.71-2.24-1.71s-2.2.73-2.2,1.71v1.75c0,1,.73,1.75,2.2,1.75s2.24-.82,2.24-1.79v-1.71ZM190,132.26a1.59,1.59,0,0,0-1.59-1.75,1.56,1.56,0,0,0-1.55,1.75v3.55a1.58,1.58,0,0,0,1.55,1.75,1.61,1.61,0,0,0,1.59-1.75v-3.55Z"/><path class="cls-2" d="M200.75,147.63c-2.93,0-5.05-2.2-5.05-5.54V133c0-3.3,2.12-5.54,5.05-5.54s4.85,2.24,4.85,5.54v5h-6.36v4.65a1.55,1.55,0,0,0,1.55,1.79,1.51,1.51,0,0,0,1.55-1.79v-2.41h3.26v1.87C205.6,145.43,203.73,147.63,200.75,147.63Zm1.55-15.16c0-1.1-.49-1.83-1.51-1.83a1.59,1.59,0,0,0-1.55,1.83v3.46h3.06v-3.46Z"/><path class="cls-2" d="M214.55,147.3v-15a1.5,1.5,0,0,0-1.39-1.71c-1,0-1.67,1.26-1.67,2.2V147.3h-3.63V127.74h3.22l0.2,2.57c0.65-1.92,2-2.85,3.43-2.85,2.2,0,3.46,1.71,3.46,4.28V147.3h-3.63Z"/><path class="cls-2" d="M232.81,147.3h-3.06l-1.26-7.75-0.49-4-0.53,4-1.26,7.75h-3.06l-3.38-19.57h3.55l1.14,9.5,0.45,4.24,0.45-4.24,1.3-9.5h3l1.18,9.5,0.49,4.24,0.45-4.24,1.22-9.5h3.3Z"/><path class="cls-2" d="M242.73,147.63c-2.94,0-5.05-2.2-5.05-5.54V133c0-3.3,2.12-5.54,5.05-5.54s4.85,2.24,4.85,5.54v5h-6.36v4.65a1.55,1.55,0,0,0,1.55,1.79,1.51,1.51,0,0,0,1.55-1.79v-2.41h3.26v1.87C247.58,145.43,245.7,147.63,242.73,147.63Zm1.55-15.16c0-1.1-.49-1.83-1.51-1.83a1.59,1.59,0,0,0-1.55,1.83v3.46h3.06v-3.46Z"/><path class="cls-2" d="M253.46,133.85V147.3h-3.63V127.74H253l0.24,2.77c0.65-2.32,2.12-3.26,4.08-3v4C254.48,131.24,253.46,132.18,253.46,133.85Z"/><path class="cls-2" d="M266.35,147.3l-2.24-8-1.22,2.77v5.22h-3.67V120.15h3.67v16.79l3.22-9.25h3.51l-3.14,8.56,3.47,11h-3.59Z"/><path class="cls-2" d="M120.95,174.94h-2.18l-2.55-14.12h2.31l1.38,9.88,1.46-9.88h2.16Z"/><path class="cls-2" d="M128.64,174.94V160.82h2.25V172.9h3.25v2h-5.49Z"/><path class="cls-2" d="M143.65,174.94l-0.36-2.76h-2.06l-0.42,2.76h-2.06l2.35-14.12h2.48l2.35,14.12h-2.29Zm-1.31-10.41-0.83,5.77H143Z"/><path class="cls-2" d="M155.29,174.94l-0.36-2.76h-2.06l-0.42,2.76H150.4l2.35-14.12h2.48l2.35,14.12h-2.29ZM154,164.53l-0.83,5.77h1.53Z"/><path class="cls-2" d="M167.87,174.94l-2.38-6.4-0.78-2.16v8.56h-2V160.82h2l2.2,6.47,0.72,2.18v-8.65h2v14.12h-1.74Z"/><path class="cls-2" d="M178.85,174.94h-3.43V160.82h3.43a3,3,0,0,1,3.22,3.37v7.46A3,3,0,0,1,178.85,174.94Zm1-10.77a1.08,1.08,0,0,0-1.12-1.34h-1v10.11h1a1.09,1.09,0,0,0,1.12-1.34v-7.44Z"/><path class="cls-2" d="M187.75,174.94V160.82h5.64v2H190v3.9h2.35v1.87H190v4.3h3.39v2.06h-5.64Z"/><path class="cls-2" d="M204.31,175c-0.87,0-1.21-.85-1.21-2v-3a0.92,0.92,0,0,0-.91-1h-1.1v6h-2.25V160.82h3.6a2.55,2.55,0,0,1,2.78,2.78v2.5a2,2,0,0,1-1.33,2,2,2,0,0,1,1.38,2v2.88a2.25,2.25,0,0,0,.42,1.44V175h-1.38ZM203,163.66a0.74,0.74,0,0,0-.76-0.91h-1.17v4.47h1.08a0.82,0.82,0,0,0,.85-1v-2.56Z"/><path class="cls-2" d="M211,174.94V160.82h5.64v2h-3.39v3.9h2.35v1.87h-2.35v4.3h3.39v2.06H211Z"/><path class="cls-2" d="M227.23,174.94l-2.37-6.4-0.78-2.16v8.56h-2V160.82h2l2.2,6.47,0.72,2.18v-8.65h2v14.12h-1.74Z"/></svg>