<svg id="frame" xmlns="http://www.w3.org/2000/svg" viewBox="0 0 360 180"><defs><style>.cls-1{fill:none;}.cls-2{fill:#172a3d;}</style></defs><title>Untitled-1</title><rect class="cls-1" width="360" height="180"/><polygon class="cls-2" points="118.62 153.85 120.04 153.85 121.6 158.66 121.62 158.66 123.18 153.85 124.6 153.85 122.16 160.72 121.06 160.72 118.62 153.85"/><polygon class="cls-2" points="125.14 159.63 128.47 155.07 125.22 155.07 125.22 153.85 130.1 153.85 130.1 154.95 126.66 159.42 130.1 159.42 130.1 160.72 125.14 160.72 125.14 159.63"/><polygon class="cls-2" points="135.47 155.91 135.45 155.91 134.06 160.72 132.88 160.72 130.75 153.85 132.17 153.85 133.44 158.67 133.47 158.67 134.98 153.85 135.95 153.85 137.46 158.67 137.49 158.67 138.75 153.85 140.17 153.85 138.05 160.72 136.86 160.72 135.47 155.91"/><polygon class="cls-2" points="143.77 151.07 145.27 151.07 147.38 158.42 147.41 158.42 149.53 151.07 151.03 151.07 147.95 160.72 146.85 160.72 143.77 151.07"/><path class="cls-2" d="M152.16,151.07h1.33V159a0.43,0.43,0,0,0,.5.47h0.46v1.3h-0.6a1.88,1.88,0,0,1-1.2-.38,1.52,1.52,0,0,1-.5-1.28v-8Z"/><path class="cls-2" d="M159.14,157.81h-1.6c-0.78,0-1.16.29-1.15,0.83a0.74,0.74,0,0,0,.3.6,1.38,1.38,0,0,0,1,.27,2.27,2.27,0,0,0,1.19-.2,1.18,1.18,0,0,0,.32-1v-0.5Zm0,2.3h0a1.13,1.13,0,0,1-.58.52,2.68,2.68,0,0,1-1.06.17,2.38,2.38,0,0,1-1.72-.61,1.93,1.93,0,0,1-.63-1.49,2,2,0,0,1,.55-1.43,2.15,2.15,0,0,1,1.61-.6h1.85v-0.72q0-.91-1.36-0.88a2.32,2.32,0,0,0-.79.11,1,1,0,0,0-.47.42l-1.05-.83a2.56,2.56,0,0,1,2.25-1,3.48,3.48,0,0,1,2,.49,2,2,0,0,1,.76,1.77v4.69h-1.33v-0.61Z"/><path class="cls-2" d="M165.91,157.81h-1.6c-0.78,0-1.16.29-1.15,0.83a0.74,0.74,0,0,0,.3.6,1.38,1.38,0,0,0,1,.27,2.27,2.27,0,0,0,1.19-.2,1.18,1.18,0,0,0,.32-1v-0.5Zm0,2.3h0a1.13,1.13,0,0,1-.58.52,2.68,2.68,0,0,1-1.06.17,2.38,2.38,0,0,1-1.72-.61,1.93,1.93,0,0,1-.63-1.49,2,2,0,0,1,.55-1.43,2.15,2.15,0,0,1,1.61-.6h1.85v-0.72q0-.91-1.36-0.88a2.32,2.32,0,0,0-.79.11,1,1,0,0,0-.47.42l-1.05-.83a2.56,2.56,0,0,1,2.25-1,3.48,3.48,0,0,1,2,.49,2,2,0,0,1,.76,1.77v4.69h-1.33v-0.61Z"/><path class="cls-2" d="M169.14,153.85h1.34v0.73h0a2.22,2.22,0,0,1,1.79-.81,2.56,2.56,0,0,1,1.15.24,3.44,3.44,0,0,1,.79.66,2.71,2.71,0,0,1,2.16-.9,2.36,2.36,0,0,1,1.56.6,2.31,2.31,0,0,1,.73,1.79v4.56h-1.34v-4.09a1.48,1.48,0,0,0-.38-1.1,1.34,1.34,0,0,0-1-.38,1.36,1.36,0,0,0-1,.38,1.44,1.44,0,0,0-.4,1.1v4.09h-1.33v-4.09a1.48,1.48,0,0,0-.38-1.1,1.36,1.36,0,0,0-1-.38,1.34,1.34,0,0,0-1,.38,1.43,1.43,0,0,0-.4,1.1v4.09h-1.34v-6.87Z"/><path class="cls-2" d="M180.93,158.62a2.74,2.74,0,0,0,2.11.88,1.74,1.74,0,0,0,.94-0.23,0.73,0.73,0,0,0,.37-0.65,0.57,0.57,0,0,0-.22-0.51,1.12,1.12,0,0,0-.6-0.17l-1.18-.11a2.21,2.21,0,0,1-1.37-.58,1.79,1.79,0,0,1-.55-1.37,1.88,1.88,0,0,1,.72-1.59,2.81,2.81,0,0,1,1.76-.53,5.15,5.15,0,0,1,.83.06,4,4,0,0,1,.69.19,3.86,3.86,0,0,1,1.1.69l-0.83,1a4.05,4.05,0,0,0-.82-0.47,2.66,2.66,0,0,0-1-.17,1.29,1.29,0,0,0-.88.23,0.75,0.75,0,0,0-.26.59,0.47,0.47,0,0,0,.2.4,1.14,1.14,0,0,0,.68.25l1.1,0.09a2,2,0,0,1,1.5.65,2.24,2.24,0,0,1,.43,1.41,1.8,1.8,0,0,1-.79,1.54,3.34,3.34,0,0,1-2,.57,4.16,4.16,0,0,1-2.93-1.23Z"/><path class="cls-2" d="M190.72,158.38a4,4,0,0,0,2.65,1q1.82,0,1.85-1.34a1.24,1.24,0,0,0-1.22-1.3l-1.24-.18a3,3,0,0,1-1.83-.92,2.61,2.61,0,0,1-.65-1.79,2.69,2.69,0,0,1,.81-2,3.12,3.12,0,0,1,2.23-.78,5.13,5.13,0,0,1,3,1l-0.79,1.2a4.19,4.19,0,0,0-2.31-.74,1.74,1.74,0,0,0-1.09.34,1.27,1.27,0,0,0-.47,1,1.08,1.08,0,0,0,.31.75,1.78,1.78,0,0,0,1,.48l1.05,0.15a2.88,2.88,0,0,1,1.94,1,2.8,2.8,0,0,1,.62,1.8q-0.07,2.77-3.28,2.81a5.21,5.21,0,0,1-3.57-1.32Z"/><path class="cls-2" d="M198.33,151.76h1.33v2.09h1v1.06h-1v4a0.42,0.42,0,0,0,.47.51h0.5v1.3h-0.7a1.55,1.55,0,0,1-1.15-.45,1.62,1.62,0,0,1-.46-1.24v-4.12h-0.67v-1.06h0.67v-2.09Z"/><path class="cls-2" d="M205.83,156.67a1.79,1.79,0,0,0-.42-1.22,1.44,1.44,0,0,0-2,0,1.88,1.88,0,0,0-.42,1.22h2.81ZM203,157.81a1.63,1.63,0,0,0,.46,1.26,1.51,1.51,0,0,0,1.13.44,2,2,0,0,0,1.46-.67l1,0.85a3.09,3.09,0,0,1-2.39,1.11,3.37,3.37,0,0,1-1-.16,2.33,2.33,0,0,1-.49-0.23,2.25,2.25,0,0,1-.47-0.31A2.72,2.72,0,0,1,202,159a4.34,4.34,0,0,1-.29-1.72,4.93,4.93,0,0,1,.25-1.69,3,3,0,0,1,.64-1.08,2.37,2.37,0,0,1,.89-0.58,2.77,2.77,0,0,1,1-.18,2.73,2.73,0,0,1,1.93.77,2.86,2.86,0,0,1,.81,2.13v1.14H203Z"/><path class="cls-2" d="M208.79,153.85h1.33v4.09a1.49,1.49,0,0,0,.38,1.09,1.25,1.25,0,0,0,.95.39,1.23,1.23,0,0,0,.94-0.39,1.51,1.51,0,0,0,.37-1.09v-4.09h1.33v6.87h-1.33V160h0a2.12,2.12,0,0,1-1.72.81,2.22,2.22,0,0,1-1.49-.62,2.18,2.18,0,0,1-.74-1.76v-4.57Z"/><path class="cls-2" d="M216.07,153.85h1.33v0.73h0a2.12,2.12,0,0,1,1.73-.81,2.24,2.24,0,0,1,1.51.6,2.37,2.37,0,0,1,.71,1.79v4.56H220v-4.09a1.5,1.5,0,0,0-.37-1.1,1.24,1.24,0,0,0-.94-0.38,1.26,1.26,0,0,0-.95.38,1.48,1.48,0,0,0-.38,1.1v4.09h-1.33v-6.87Z"/><path class="cls-2" d="M226,159.42a1.32,1.32,0,0,0,.75-0.19,1,1,0,0,0,.39-0.49,2.61,2.61,0,0,0,.17-0.69c0-.25,0-0.5,0-0.76s0-.54,0-0.8a2.46,2.46,0,0,0-.17-0.69,1,1,0,0,0-.39-0.49,1.44,1.44,0,0,0-.75-0.17,1.18,1.18,0,0,0-.71.19,1.13,1.13,0,0,0-.4.5,2.66,2.66,0,0,0-.16.68c0,0.26,0,.51,0,0.78a6.93,6.93,0,0,0,0,.73,2.69,2.69,0,0,0,.16.7,1.13,1.13,0,0,0,.4.5,1.15,1.15,0,0,0,.71.2m-2.65-5.57h1.33v0.71a2.27,2.27,0,0,1,1.72-.8,2,2,0,0,1,1.79.9,1.84,1.84,0,0,1,.38.85,16.25,16.25,0,0,1,0,3.52,1.91,1.91,0,0,1-.38.87,2,2,0,0,1-.72.64,2.27,2.27,0,0,1-1.06.26,1.81,1.81,0,0,1-.92-0.23,2.92,2.92,0,0,1-.8-0.58v3.51h-1.33v-9.64Z"/><path class="cls-2" d="M230.37,153.85h1.33v4.09a1.49,1.49,0,0,0,.38,1.09,1.25,1.25,0,0,0,.95.39A1.23,1.23,0,0,0,234,159a1.51,1.51,0,0,0,.37-1.09v-4.09h1.33v6.87h-1.33V160h0a2.11,2.11,0,0,1-1.72.81,2.22,2.22,0,0,1-1.49-.62,2.18,2.18,0,0,1-.74-1.76v-4.57Z"/><path class="cls-2" d="M237.65,153.85H239v0.73h0a2.12,2.12,0,0,1,1.73-.81,2.24,2.24,0,0,1,1.51.6,2.37,2.37,0,0,1,.71,1.79v4.56h-1.33v-4.09a1.5,1.5,0,0,0-.37-1.1,1.24,1.24,0,0,0-.94-0.38,1.26,1.26,0,0,0-.95.38,1.48,1.48,0,0,0-.38,1.1v4.09h-1.33v-6.87Z"/><path class="cls-2" d="M245,151.76h1.33v2.09h1v1.06h-1v4a0.42,0.42,0,0,0,.47.51h0.5v1.3h-0.7a1.55,1.55,0,0,1-1.15-.45A1.62,1.62,0,0,1,245,159v-4.12h-0.67v-1.06H245v-2.09Z"/><polygon class="cls-2" points="120 167.33 121.5 167.33 123.61 174.68 123.64 174.68 125.76 167.33 127.26 167.33 124.18 176.97 123.08 176.97 120 167.33"/><path class="cls-2" d="M129.92,171.56h2.14a1.49,1.49,0,0,0,1.59-1.54,1.3,1.3,0,0,0-.47-1.09,1.59,1.59,0,0,0-1-.3h-2.22v2.93Zm-1.41-4.23h3.65a2.82,2.82,0,0,1,1.91.63A2.6,2.6,0,0,1,135,170a2.68,2.68,0,0,1-1.8,2.67l2.16,4.28h-1.68l-1.93-4.12h-1.81V177h-1.41v-9.64Z"/><rect class="cls-2" x="136.77" y="167.33" width="1.41" height="9.64"/><path class="cls-2" d="M140.43,174.95a1.56,1.56,0,0,0,.51.44,1.32,1.32,0,0,0,.74.21,1.62,1.62,0,0,0,1.08-.4,1.37,1.37,0,0,0,.39-0.54,2,2,0,0,0,.15-0.82v-6.51h1.41V174a2.92,2.92,0,0,1-.92,2.25,3,3,0,0,1-2.07.83,2.88,2.88,0,0,1-2.47-1.25Z"/><polygon class="cls-2" points="145.93 167.33 147.43 167.33 148.9 174.18 148.92 174.18 150.73 167.33 151.76 167.33 153.56 174.18 153.59 174.18 155.06 167.33 156.56 167.33 154.22 176.97 153.04 176.97 151.26 170.02 151.23 170.02 149.44 176.97 148.27 176.97 145.93 167.33"/><rect class="cls-2" x="158.05" y="167.33" width="1.41" height="9.64"/><polygon class="cls-2" points="161.54 167.33 162.95 167.33 162.95 175.6 167.5 175.6 167.5 176.97 161.54 176.97 161.54 167.33"/><polygon class="cls-2" points="169.07 167.33 170.49 167.33 170.49 175.6 175.04 175.6 175.04 176.97 169.07 176.97 169.07 167.33"/><rect class="cls-2" x="176.6" y="167.33" width="1.41" height="9.64"/><path class="cls-2" d="M183.12,171.67h3.32v2a3.47,3.47,0,0,1-1,2.42,3.25,3.25,0,0,1-2.37,1,3.35,3.35,0,0,1-2.93-1.73L180,174.9a2.8,2.8,0,0,1-.13-0.52,26.36,26.36,0,0,1,0-4.48,2.72,2.72,0,0,1,.31-0.92,3.31,3.31,0,0,1,1.09-1.19,3.14,3.14,0,0,1,1.84-.54,3.1,3.1,0,0,1,2.2.83,3.68,3.68,0,0,1,1.08,2h-1.5a2.14,2.14,0,0,0-.63-1,1.81,1.81,0,0,0-1.15-.4,1.9,1.9,0,0,0-.86.21,1.79,1.79,0,0,0-.59.5,1.62,1.62,0,0,0-.37.8,11.92,11.92,0,0,0-.1,1.94,11.66,11.66,0,0,0,.1,1.93,1.63,1.63,0,0,0,.37.81,1.67,1.67,0,0,0,.59.48,1.63,1.63,0,0,0,.86.22,1.78,1.78,0,0,0,1.37-.58,2.07,2.07,0,0,0,.55-1.47V173h-1.91v-1.37Z"/><polygon class="cls-2" points="188.36 167.33 194.32 167.33 194.32 168.7 189.77 168.7 189.77 171.46 193.66 171.46 193.66 172.76 189.77 172.76 189.77 175.6 194.32 175.6 194.32 176.97 188.36 176.97 188.36 167.33"/><path class="cls-2" d="M197.31,171.56h2.14A1.49,1.49,0,0,0,201,170a1.3,1.3,0,0,0-.47-1.09,1.59,1.59,0,0,0-1-.3h-2.22v2.93Zm-1.41-4.23h3.65a2.82,2.82,0,0,1,1.9.63,2.6,2.6,0,0,1,.93,2.06,2.68,2.68,0,0,1-1.8,2.67l2.16,4.28H201l-1.93-4.12h-1.81V177h-1.41v-9.64Z"/><path class="cls-2" d="M204.27,174.64a4,4,0,0,0,2.65,1q1.82,0,1.85-1.34a1.24,1.24,0,0,0-1.22-1.3l-1.24-.18a3,3,0,0,1-1.83-.92,2.61,2.61,0,0,1-.65-1.79,2.69,2.69,0,0,1,.81-2,3.11,3.11,0,0,1,2.23-.78,5.13,5.13,0,0,1,3,1l-0.79,1.2a4.19,4.19,0,0,0-2.31-.74,1.73,1.73,0,0,0-1.09.34,1.27,1.27,0,0,0-.47,1,1.08,1.08,0,0,0,.31.75,1.78,1.78,0,0,0,1,.48l1.05,0.15a2.88,2.88,0,0,1,1.94,1,2.8,2.8,0,0,1,.62,1.8q-0.07,2.77-3.28,2.81a5.21,5.21,0,0,1-3.57-1.32Z"/><polygon class="cls-2" points="211.08 167.33 212.58 167.33 214.04 174.18 214.07 174.18 215.88 167.33 216.91 167.33 218.71 174.18 218.74 174.18 220.21 167.33 221.71 167.33 219.37 176.97 218.19 176.97 216.41 170.02 216.38 170.02 214.59 176.97 213.41 176.97 211.08 167.33"/><polygon class="cls-2" points="223.19 167.33 229.16 167.33 229.16 168.7 224.61 168.7 224.61 171.46 228.5 171.46 228.5 172.76 224.61 172.76 224.61 175.6 229.16 175.6 229.16 176.97 223.19 176.97 223.19 167.33"/><path class="cls-2" d="M232.14,171.56h2.14a1.49,1.49,0,0,0,1.59-1.54,1.3,1.3,0,0,0-.47-1.09,1.59,1.59,0,0,0-1-.3h-2.22v2.93Zm-1.41-4.23h3.65a2.82,2.82,0,0,1,1.9.63,2.6,2.6,0,0,1,.93,2.06,2.68,2.68,0,0,1-1.8,2.67l2.16,4.28h-1.68L234,172.85h-1.81V177h-1.41v-9.64Z"/><polygon class="cls-2" points="238.99 167.33 240.4 167.33 240.4 172.3 240.43 172.3 244.28 167.33 245.96 167.33 242.96 171.13 246.27 176.97 244.59 176.97 242.04 172.26 240.4 174.04 240.4 176.97 238.99 176.97 238.99 167.33"/><path class="cls-2" d="M180,2.95a70,70,0,1,0,70,70A70.13,70.13,0,0,0,180,2.95Zm11.39,94.61q1.29-20.15,1.49-49.29c0-.17,0-0.34,0-0.51q0-4.2,0-8.33c0-2.29,0-4.56-.07-6.82q-0.12-8.81-.44-17.3h0a58.66,58.66,0,0,1,16,6h0q-0.52,12.39-.61,26.56t0.68,25.86a206.65,206.65,0,0,0,2.41,21.35h0l-9.16,1.18-10.31,1.32h0ZM153.44,71c-0.07,0-.14,2.88-0.2,4.21s-0.12,2.85-.18,4.25c-0.33,8.37-.4,18.1-0.4,29,0,5.74.34,11.38,0.34,16.84v0h0a94.34,94.34,0,0,1-12-7.7h0c0-2.94.31-6,.31-9.09A237.42,237.42,0,0,0,139.9,80c-0.29-2.33-.55-4-0.93-7h0l14.42-2h0Zm-2-4.77a9.64,9.64,0,0,1-13.34-13.9c0.16-.16.33-0.31,0.5-0.45l0.19-.17A9.64,9.64,0,0,1,151.47,66.23ZM181.39,49C180.61,49,180,78.35,180,98v0.22c0,11.54.53,22.17,1,32.89,0,0.12.12-.12,0.13-0.12h0.08c-0.44,0-.84.5-1.28,0.5a59,59,0,0,1-8.15-.36c-2.32-.32-4.6-1.14-6.83-1.14h0s0-.09,0-0.15c0.43-9.74.53-20.35,0.53-31.85A302.74,302.74,0,0,0,162,50.84h0l9.2-.83,10.36-1h-0.17Zm-7.9-5.13a13,13,0,0,1-16-15.22q0.13-.64.32-1.25A13,13,0,0,1,159.44,24,13,13,0,0,1,181,24a13,13,0,0,1,1.64,3.41q0.19,0.61.32,1.25A13,13,0,0,1,173.49,43.87Zm42.26,70.77a13,13,0,0,1-26-.17h0a13,13,0,0,1,5.81-10.76q0.52-.35,1.08-0.65a13,13,0,0,1,19.15,11.58h0Z"/></svg>