<svg id="frame" xmlns="http://www.w3.org/2000/svg" viewBox="0 0 360 180"><defs><style>.cls-1{fill:none;}.cls-2{fill:#172a3d;}</style></defs><title>Untitled-1</title><rect class="cls-1" width="360" height="180"/><path class="cls-2" d="M96.34,24.93A65.07,65.07,0,1,0,161.59,90,65.23,65.23,0,0,0,96.34,24.93Zm11.8,19.64q-0.1-4.12-.26-8.16A54.64,54.64,0,0,1,119,40.07c1.3,0.59,2.58,1.21,3.82,1.9-0.11,2.56-.2,5.21-0.27,7.9q-0.19,6.52-.26,13.53c0,1.08,0,2.15,0,3.25q-0.17,26.11,2.88,43.85h0l-18.14,2.32c0.47-7.35.82-15.69,1.06-25,0.17-6.62.28-13.69,0.33-21.29S108.32,51.72,108.14,44.57ZM71,140H70v-1.37c-1-.55-1.56-0.87-2.56-1.48a49.28,49.28,0,0,1-7-5.16h0c0-1,0-1.93,0-2.77,0-1.94,0-4,0-6.07,0-6.72-.22-12.93-0.64-18.52a141,141,0,0,0-1.71-14L71.6,88.79c-0.1,1.66-.18,3.39-0.26,5.18-0.36,8.28-.54,18.63-0.54,29.75C70.8,129.05,70.88,134,71,140ZM63.69,86.09a9,9,0,1,1,9-9A9,9,0,0,1,63.69,86.09Zm33.88,58.7h0l-1.23,0a55,55,0,0,1-11.55-1.24c-0.81-.17-1.63-0.35-2.43-0.56h0Q83,129.36,83,113.24q0-26.12-3.17-43.83l8.32-1.12L97.93,67c-0.08,1.42-.16,2.88-0.23,4.37-0.29,5.94-.5,12.46-0.65,19.54-0.14,6.92-.21,14.35-0.21,22.36,0,4.83.06,9.57,0.15,14.24q0.12,5.72.33,11.28C97.4,140.78,97.48,142.8,97.57,144.79ZM97,58.47a12.07,12.07,0,1,1,2.42-7.23A12.11,12.11,0,0,1,97,58.47Zm20.48,82.23h0c-0.35,0-.69,0-1-0.06H116.2a12.09,12.09,0,0,1-1-23.89l0.33,0a12.21,12.21,0,0,1,2.12-.18h0A12.1,12.1,0,1,1,117.44,140.7Z"/><path class="cls-2" d="M185.75,46.34H188V63h-2.24V62a4.15,4.15,0,0,1-3,1.29,4.24,4.24,0,0,1-3.28-1.44,5.37,5.37,0,0,1-1.29-3.68,5.19,5.19,0,0,1,1.29-3.6,4.16,4.16,0,0,1,6.26-.07V46.34ZM180.47,58.2a3.35,3.35,0,0,0,.74,2.25,2.43,2.43,0,0,0,1.92.88,2.55,2.55,0,0,0,2-.85,3.66,3.66,0,0,0,0-4.47,2.52,2.52,0,0,0-2-.86,2.46,2.46,0,0,0-1.92.87A3.21,3.21,0,0,0,180.47,58.2Z"/><path class="cls-2" d="M199.57,58.75h-6.9a2.92,2.92,0,0,0,.77,1.89,2.35,2.35,0,0,0,1.75.69,2.27,2.27,0,0,0,1.38-.4,5.63,5.63,0,0,0,1.22-1.46l1.88,1a7.4,7.4,0,0,1-.92,1.27,4.88,4.88,0,0,1-1,.87,4.2,4.2,0,0,1-1.2.5,5.85,5.85,0,0,1-1.4.16,4.53,4.53,0,0,1-3.46-1.38,5.19,5.19,0,0,1-1.3-3.7,5.33,5.33,0,0,1,1.27-3.7,4.82,4.82,0,0,1,6.75,0,5.33,5.33,0,0,1,1.23,3.73v0.52Zm-2.28-1.82A2.13,2.13,0,0,0,195,55.15a2.31,2.31,0,0,0-.76.12,2.2,2.2,0,0,0-.65.36,2.27,2.27,0,0,0-.5.56,2.58,2.58,0,0,0-.32.74h4.47Z"/><path class="cls-2" d="M209.46,53.41l2.52,5.5,2.72-6.38,2.74,6.38,2.49-5.5h2.49l-5,10.36-2.68-6.2L212,63.76l-5-10.36h2.5Z"/><path class="cls-2" d="M232.4,58.75h-6.9a2.92,2.92,0,0,0,.77,1.89,2.35,2.35,0,0,0,1.75.69,2.27,2.27,0,0,0,1.38-.4,5.63,5.63,0,0,0,1.22-1.46l1.88,1a7.4,7.4,0,0,1-.92,1.27,4.88,4.88,0,0,1-1,.87,4.2,4.2,0,0,1-1.2.5,5.85,5.85,0,0,1-1.4.16,4.53,4.53,0,0,1-3.46-1.38,5.19,5.19,0,0,1-1.3-3.7,5.33,5.33,0,0,1,1.27-3.7,4.83,4.83,0,0,1,6.75,0,5.33,5.33,0,0,1,1.23,3.73v0.52Zm-2.28-1.82a2.13,2.13,0,0,0-2.25-1.78,2.31,2.31,0,0,0-.76.12,2.2,2.2,0,0,0-.65.36,2.27,2.27,0,0,0-.5.56,2.58,2.58,0,0,0-.32.74h4.47Z"/><path class="cls-2" d="M234.83,53.41h2.23v0.86a4.25,4.25,0,0,1,1.09-.88,2.49,2.49,0,0,1,1.15-.25,3.59,3.59,0,0,1,1.84.57l-1,2a2.13,2.13,0,0,0-1.24-.45q-1.82,0-1.82,2.75v5h-2.23V53.41Z"/><path class="cls-2" d="M251.06,58.75h-6.9a2.92,2.92,0,0,0,.77,1.89,2.35,2.35,0,0,0,1.75.69,2.27,2.27,0,0,0,1.38-.4,5.63,5.63,0,0,0,1.22-1.46l1.88,1a7.4,7.4,0,0,1-.92,1.27,4.88,4.88,0,0,1-1,.87,4.2,4.2,0,0,1-1.2.5,5.85,5.85,0,0,1-1.4.16,4.53,4.53,0,0,1-3.46-1.38,5.19,5.19,0,0,1-1.3-3.7,5.33,5.33,0,0,1,1.27-3.7,4.82,4.82,0,0,1,6.75,0,5.33,5.33,0,0,1,1.23,3.73v0.52Zm-2.28-1.82a2.13,2.13,0,0,0-2.25-1.78,2.31,2.31,0,0,0-.76.12,2.2,2.2,0,0,0-.65.36,2.27,2.27,0,0,0-.5.56,2.58,2.58,0,0,0-.32.74h4.47Z"/><path class="cls-2" d="M255.72,46.34V63H253.5V46.34h2.23Z"/><path class="cls-2" d="M265.64,46.34h2.24V63h-2.24V62a4.15,4.15,0,0,1-3,1.29,4.24,4.24,0,0,1-3.28-1.44,5.37,5.37,0,0,1-1.29-3.68,5.19,5.19,0,0,1,1.29-3.6,4.16,4.16,0,0,1,6.26-.07V46.34ZM260.36,58.2a3.35,3.35,0,0,0,.74,2.25,2.43,2.43,0,0,0,1.92.88,2.55,2.55,0,0,0,2-.85A3.66,3.66,0,0,0,265,56a2.52,2.52,0,0,0-2-.86,2.46,2.46,0,0,0-1.92.87A3.21,3.21,0,0,0,260.36,58.2Z"/><path class="cls-2" d="M286.25,62.81q0,0.68,0,1.2a8.46,8.46,0,0,1-.12.91,4.06,4.06,0,0,1-.93,1.87,4.5,4.5,0,0,1-3.59,1.5,4.79,4.79,0,0,1-3.17-1,4.24,4.24,0,0,1-1.48-3h2.23a2.53,2.53,0,0,0,.43,1.1,2.39,2.39,0,0,0,2,.9q2.44,0,2.44-3V62A4.16,4.16,0,0,1,281,63.32a4.1,4.1,0,0,1-3.22-1.42,5.28,5.28,0,0,1-1.27-3.61,5.55,5.55,0,0,1,1.18-3.58A4.09,4.09,0,0,1,281,53.14a3.88,3.88,0,0,1,3,1.36V53.41h2.23v9.41Zm-2.14-4.57a3.25,3.25,0,0,0-.75-2.25,2.49,2.49,0,0,0-1.95-.86,2.4,2.4,0,0,0-2,.94,3.88,3.88,0,0,0,0,4.33,2.4,2.4,0,0,0,2,.92,2.44,2.44,0,0,0,2-.93A3.31,3.31,0,0,0,284.12,58.25Z"/><path class="cls-2" d="M289.06,53.41h2.23v0.86a4.25,4.25,0,0,1,1.09-.88,2.49,2.49,0,0,1,1.15-.25,3.59,3.59,0,0,1,1.84.57l-1,2a2.13,2.13,0,0,0-1.24-.45q-1.82,0-1.82,2.75v5h-2.23V53.41Z"/><path class="cls-2" d="M296,58.16a4.78,4.78,0,0,1,1.49-3.55,5.27,5.27,0,0,1,7.3,0,5.16,5.16,0,0,1,0,7.25,5.1,5.1,0,0,1-3.69,1.45,4.9,4.9,0,0,1-3.63-1.48A5,5,0,0,1,296,58.16Zm2.27,0a3.25,3.25,0,0,0,.77,2.28,3,3,0,0,0,4.17,0,3.62,3.62,0,0,0,0-4.49,3,3,0,0,0-4.15,0A3.1,3.1,0,0,0,298.28,58.2Z"/><path class="cls-2" d="M317.4,58.75h-6.9a2.92,2.92,0,0,0,.77,1.89,2.35,2.35,0,0,0,1.75.69,2.27,2.27,0,0,0,1.38-.4,5.63,5.63,0,0,0,1.22-1.46l1.88,1a7.4,7.4,0,0,1-.92,1.27,4.88,4.88,0,0,1-1,.87,4.2,4.2,0,0,1-1.2.5,5.85,5.85,0,0,1-1.4.16,4.53,4.53,0,0,1-3.46-1.38,5.19,5.19,0,0,1-1.3-3.7,5.33,5.33,0,0,1,1.27-3.7,4.82,4.82,0,0,1,6.75,0,5.33,5.33,0,0,1,1.23,3.73v0.52Zm-2.28-1.82a2.13,2.13,0,0,0-2.25-1.78,2.31,2.31,0,0,0-.76.12,2.2,2.2,0,0,0-.65.36,2.27,2.27,0,0,0-.5.56,2.58,2.58,0,0,0-.32.74h4.47Z"/><path class="cls-2" d="M319.5,49.4A1.45,1.45,0,0,1,320.94,48a1.4,1.4,0,0,1,1,.43,1.37,1.37,0,0,1,.43,1,1.4,1.4,0,0,1-.43,1,1.37,1.37,0,0,1-1,.43,1.4,1.4,0,0,1-1-.43A1.41,1.41,0,0,1,319.5,49.4Zm2.56,4V63h-2.23V53.41h2.23Z"/><path class="cls-2" d="M327.17,55.49V63h-2.23V55.49H324V53.41h0.95V49.88h2.23v3.53h1.73v2.08h-1.73Z"/><path class="cls-2" d="M178.65,77.71h2.23v0.89a4.65,4.65,0,0,1,1.1-.91,2.66,2.66,0,0,1,1.22-.25,3,3,0,0,1,2.58,1.42,3.34,3.34,0,0,1,2.84-1.42q3.25,0,3.25,3.95v6h-2.23V82a4.13,4.13,0,0,0-.34-2,1.22,1.22,0,0,0-1.14-.58,1.45,1.45,0,0,0-1.34.69,4.46,4.46,0,0,0-.42,2.23v5h-2.23V82q0-2.57-1.48-2.57a1.49,1.49,0,0,0-1.37.7,4.38,4.38,0,0,0-.43,2.22v5h-2.23V77.71Z"/><path class="cls-2" d="M203.45,83.06h-6.9a2.92,2.92,0,0,0,.77,1.89,2.35,2.35,0,0,0,1.75.69,2.27,2.27,0,0,0,1.38-.4,5.63,5.63,0,0,0,1.22-1.46l1.88,1a7.4,7.4,0,0,1-.92,1.27,4.88,4.88,0,0,1-1,.87,4.2,4.2,0,0,1-1.2.5,5.85,5.85,0,0,1-1.4.16,4.53,4.53,0,0,1-3.46-1.38,5.19,5.19,0,0,1-1.3-3.7,5.33,5.33,0,0,1,1.27-3.7,4.82,4.82,0,0,1,6.75,0,5.33,5.33,0,0,1,1.23,3.73v0.52Zm-2.28-1.82a2.13,2.13,0,0,0-2.25-1.78,2.31,2.31,0,0,0-.76.12,2.2,2.2,0,0,0-.65.36,2.27,2.27,0,0,0-.5.56,2.58,2.58,0,0,0-.32.74h4.47Z"/><path class="cls-2" d="M208.34,79.79v7.56h-2.23V79.79h-0.95V77.71h0.95V74.18h2.23v3.53h1.73v2.08h-1.73Z"/><path class="cls-2" d="M179.85,102l2.49,5.41,2.48-5.41h2.5l-5,10.3-5-10.3h2.49Z"/><path class="cls-2" d="M188.83,102h2.23v0.86a4.25,4.25,0,0,1,1.09-.88,2.49,2.49,0,0,1,1.15-.25,3.59,3.59,0,0,1,1.84.57l-1,2a2.13,2.13,0,0,0-1.24-.45q-1.82,0-1.82,2.75v5h-2.23V102Z"/><path class="cls-2" d="M196.37,98a1.45,1.45,0,0,1,1.44-1.43,1.4,1.4,0,0,1,1,.43,1.37,1.37,0,0,1,.43,1,1.4,1.4,0,0,1-.43,1,1.37,1.37,0,0,1-1,.43,1.4,1.4,0,0,1-1-.43A1.41,1.41,0,0,1,196.37,98Zm2.56,4v9.63h-2.23V102h2.23Z"/><path class="cls-2" d="M201.66,98a1.45,1.45,0,0,1,1.44-1.43,1.4,1.4,0,0,1,1,.43,1.37,1.37,0,0,1,.43,1,1.4,1.4,0,0,1-.43,1,1.37,1.37,0,0,1-1,.43,1.4,1.4,0,0,1-1-.43A1.41,1.41,0,0,1,201.66,98Zm2.56,4V116.9H202V102h2.23Z"/><path class="cls-2" d="M208.25,102l2.52,5.5,2.72-6.38,2.74,6.38,2.49-5.5h2.49l-5,10.36-2.68-6.2-2.71,6.2-5-10.36h2.5Z"/><path class="cls-2" d="M222.38,98a1.45,1.45,0,0,1,1.44-1.43,1.4,1.4,0,0,1,1,.43,1.37,1.37,0,0,1,.43,1,1.4,1.4,0,0,1-.43,1,1.37,1.37,0,0,1-1,.43,1.4,1.4,0,0,1-1-.43A1.41,1.41,0,0,1,222.38,98Zm2.56,4v9.63h-2.23V102h2.23Z"/><path class="cls-2" d="M230,95v16.7h-2.23V95H230Z"/><path class="cls-2" d="M235,95v16.7h-2.23V95H235Z"/><path class="cls-2" d="M237.51,98A1.45,1.45,0,0,1,239,96.58a1.4,1.4,0,0,1,1,.43,1.37,1.37,0,0,1,.43,1,1.4,1.4,0,0,1-.43,1,1.37,1.37,0,0,1-1,.43,1.4,1.4,0,0,1-1-.43A1.41,1.41,0,0,1,237.51,98Zm2.56,4v9.63h-2.23V102h2.23Z"/><path class="cls-2" d="M252.21,111.43q0,0.68,0,1.2a8.41,8.41,0,0,1-.12.91,4.06,4.06,0,0,1-.93,1.87,4.5,4.5,0,0,1-3.59,1.5,4.79,4.79,0,0,1-3.17-1,4.24,4.24,0,0,1-1.48-3h2.23a2.54,2.54,0,0,0,.43,1.1,2.39,2.39,0,0,0,2,.9q2.44,0,2.44-3v-1.35a4.16,4.16,0,0,1-3.06,1.36,4.1,4.1,0,0,1-3.22-1.42,5.28,5.28,0,0,1-1.27-3.61,5.55,5.55,0,0,1,1.18-3.58,4.09,4.09,0,0,1,3.34-1.56,3.88,3.88,0,0,1,3,1.36V102h2.23v9.41Zm-2.14-4.57a3.25,3.25,0,0,0-.75-2.25,2.49,2.49,0,0,0-1.95-.86,2.4,2.4,0,0,0-2,.94,3.88,3.88,0,0,0,0,4.33,2.4,2.4,0,0,0,2,.92,2.44,2.44,0,0,0,2-.93A3.31,3.31,0,0,0,250.08,106.86Z"/><path class="cls-2" d="M263.79,107.36h-6.9a2.92,2.92,0,0,0,.77,1.89,2.35,2.35,0,0,0,1.75.69,2.27,2.27,0,0,0,1.38-.4,5.63,5.63,0,0,0,1.22-1.46l1.88,1a7.4,7.4,0,0,1-.92,1.27,4.92,4.92,0,0,1-1,.87,4.21,4.21,0,0,1-1.2.5,5.82,5.82,0,0,1-1.4.16,4.53,4.53,0,0,1-3.46-1.38,5.19,5.19,0,0,1-1.3-3.7,5.33,5.33,0,0,1,1.27-3.7,4.82,4.82,0,0,1,6.75,0,5.33,5.33,0,0,1,1.23,3.73v0.52Zm-2.28-1.82a2.13,2.13,0,0,0-2.25-1.78,2.31,2.31,0,0,0-.76.12,2.2,2.2,0,0,0-.65.36,2.27,2.27,0,0,0-.5.56,2.58,2.58,0,0,0-.32.74h4.47Z"/><path class="cls-2" d="M266.23,102h2.23v0.86a4.25,4.25,0,0,1,1.09-.88,2.49,2.49,0,0,1,1.15-.25,3.59,3.59,0,0,1,1.84.57l-1,2a2.13,2.13,0,0,0-1.24-.45q-1.82,0-1.82,2.75v5h-2.23V102Z"/><path class="cls-2" d="M279.4,103.66l-1.84,1a1.27,1.27,0,0,0-1.08-.89,0.74,0.74,0,0,0-.52.2,0.68,0.68,0,0,0-.22.52q0,0.55,1.29,1.1a7.68,7.68,0,0,1,2.38,1.4,2.4,2.4,0,0,1,.61,1.73,3,3,0,0,1-1,2.33,3.69,3.69,0,0,1-5.85-1.47l1.9-.88a4.12,4.12,0,0,0,.6.88,1.38,1.38,0,0,0,1,.38,1,1,0,0,0,1.13-1,1.41,1.41,0,0,0-.87-1.11l-0.67-.33-0.68-.33a4.18,4.18,0,0,1-1.37-.95,2.34,2.34,0,0,1-.5-1.55,2.75,2.75,0,0,1,.86-2.08,3,3,0,0,1,2.14-.82A2.91,2.91,0,0,1,279.4,103.66Z"/><path class="cls-2" d="M283.23,102l2.52,5.5,2.72-6.38,2.74,6.38,2.49-5.5h2.49l-5,10.36-2.68-6.2-2.71,6.2-5-10.36h2.5Z"/><path class="cls-2" d="M306.17,107.36h-6.9a2.92,2.92,0,0,0,.77,1.89,2.35,2.35,0,0,0,1.75.69,2.27,2.27,0,0,0,1.38-.4,5.63,5.63,0,0,0,1.22-1.46l1.88,1a7.4,7.4,0,0,1-.92,1.27,4.92,4.92,0,0,1-1,.87,4.21,4.21,0,0,1-1.2.5,5.82,5.82,0,0,1-1.4.16,4.53,4.53,0,0,1-3.46-1.38,5.19,5.19,0,0,1-1.3-3.7,5.33,5.33,0,0,1,1.27-3.7,4.82,4.82,0,0,1,6.75,0,5.33,5.33,0,0,1,1.23,3.73v0.52Zm-2.28-1.82a2.13,2.13,0,0,0-2.25-1.78,2.31,2.31,0,0,0-.76.12,2.2,2.2,0,0,0-.65.36,2.27,2.27,0,0,0-.5.56,2.58,2.58,0,0,0-.32.74h4.47Z"/><path class="cls-2" d="M308.6,102h2.23v0.86a4.25,4.25,0,0,1,1.09-.88,2.49,2.49,0,0,1,1.15-.25,3.59,3.59,0,0,1,1.84.57l-1,2a2.13,2.13,0,0,0-1.24-.45q-1.82,0-1.82,2.75v5H308.6V102Z"/><path class="cls-2" d="M318.71,95v10.19l3.14-3.12h3l-4.18,4,4.49,5.59h-2.89l-3.18-4.06-0.36.36v3.71h-2.23V95h2.23Z"/></svg>